<svg width="434" height="356" viewBox="0 0 434 356" fill="none" xmlns="http://www.w3.org/2000/svg">
<g filter="url(#filter0_d_174_10102)">
<g clip-path="url(#clip0_174_10102)">
<path d="M20 32C20 25.3726 25.3726 20 32 20H402C408.627 20 414 25.3726 414 32V280C414 286.627 408.627 292 402 292H32C25.3726 292 20 286.627 20 280V32Z" fill="black"/>
<rect width="394" height="47" transform="translate(20 245)" fill="#2D2929"/>
<circle cx="347.5" cy="82.5" r="130.5" fill="#414141"/>
<circle cx="114" cy="147" r="180" fill="#1F1F1F"/>
<path d="M381 62H377V58.801C377 57.26 375.842 56 374.43 56H361.566C360.158 56 359 57.26 359 58.801V62H334.941L329 74H333.125V82H332.457L329.125 86L332.457 90H333.187V92.148C333.187 92.691 333.606 93.13 334.125 93.13C335.676 93.13 336.938 94.454 336.938 96.081C336.938 97.708 335.676 99.032 334.125 99.032C332.574 99.032 331.312 97.708 331.312 96.081C331.312 95.538 330.892 95.099 330.374 95.099C329.855 95.099 329.436 95.538 329.436 96.081C329.438 98.795 331.54 101 334.125 101C336.709 101 338.813 98.795 338.813 96.082C338.813 93.707 337.2 91.719 335.063 91.264V90H335.792L339.125 86L335.792 82H335.125V74H359V81.199C359 82.527 359.861 83.64 361 83.926V116H363.625V110L372.375 113L363.625 116H375V83.925C376.14 83.64 377 82.527 377 81.199V74H381V71H378.922L381 67.055V62ZM333.643 71L335.979 66.201L338.505 71H333.643ZM338.065 65H342.218L340.142 68.945L338.065 65ZM341.779 71L343.856 67.055L345.934 71H341.779ZM345.494 65H349.647L347.57 68.945L345.494 65ZM349.209 71L351.285 67.055L353.361 71H349.209ZM352.923 65H357.076L355 68.945L352.923 65ZM359 71H356.637L358.713 67.055L359 67.6V71ZM372.375 110L363.625 107L372.375 104V110ZM363.625 104V98L372.375 101.002L363.625 104ZM372.375 98L363.625 95L372.375 92V98ZM363.625 92V86.002L372.375 89L363.625 92ZM372.375 86.002L366.54 84H372.375V86.002ZM373.875 69.248C373.875 70.211 373.199 71 372.375 71H363.373C362.549 71 361.875 70.211 361.875 69.248V60.758C361.875 59.789 362.549 59 363.373 59H372.375C373.199 59 373.875 59.789 373.875 60.758V69.248ZM377.285 68.945L377 68.403V65H379.361L377.285 68.945Z" fill="white"/>
</g>
</g>
<defs>
<filter id="filter0_d_174_10102" x="-40" y="-36" width="514" height="392" filterUnits="userSpaceOnUse" color-interpolation-filters="sRGB">
<feFlood flood-opacity="0" result="BackgroundImageFix"/>
<feColorMatrix in="SourceAlpha" type="matrix" values="0 0 0 0 0 0 0 0 0 0 0 0 0 0 0 0 0 0 127 0" result="hardAlpha"/>
<feOffset dy="4"/>
<feGaussianBlur stdDeviation="30"/>
<feComposite in2="hardAlpha" operator="out"/>
<feColorMatrix type="matrix" values="0 0 0 0 0.490196 0 0 0 0 0.490196 0 0 0 0 0.490196 0 0 0 0.12 0"/>
<feBlend mode="normal" in2="BackgroundImageFix" result="effect1_dropShadow_174_10102"/>
<feBlend mode="normal" in="SourceGraphic" in2="effect1_dropShadow_174_10102" result="shape"/>
</filter>
<clipPath id="clip0_174_10102">
<path d="M20 32C20 25.3726 25.3726 20 32 20H402C408.627 20 414 25.3726 414 32V280C414 286.627 408.627 292 402 292H32C25.3726 292 20 286.627 20 280V32Z" fill="white"/>
</clipPath>
</defs>
</svg>
