<svg width="434" height="348" viewBox="0 0 434 348" fill="none" xmlns="http://www.w3.org/2000/svg">
<g filter="url(#filter0_d_174_10134)">
<g clip-path="url(#clip0_174_10134)">
<path d="M20 68C20 61.3726 25.3726 56 32 56H402C408.627 56 414 61.3726 414 68V316C414 322.627 408.627 328 402 328H32C25.3726 328 20 322.627 20 316V68Z" fill="#1D308D" fill-opacity="0.41" shape-rendering="crispEdges"/>
<rect width="394" height="47" transform="translate(20 281)" fill="#1D308D"/>
<circle cx="347.5" cy="118.5" r="130.5" fill="#1D308D"/>
<circle cx="114" cy="183" r="180" fill="#091863"/>
<path d="M381 98H377V94.801C377 93.26 375.842 92 374.43 92H361.566C360.158 92 359 93.26 359 94.801V98H334.941L329 110H333.125V118H332.457L329.125 122L332.457 126H333.187V128.148C333.187 128.691 333.606 129.13 334.125 129.13C335.676 129.13 336.938 130.454 336.938 132.081C336.938 133.708 335.676 135.032 334.125 135.032C332.574 135.032 331.312 133.708 331.312 132.081C331.312 131.538 330.892 131.099 330.374 131.099C329.855 131.099 329.436 131.538 329.436 132.081C329.438 134.795 331.54 137 334.125 137C336.709 137 338.813 134.795 338.813 132.082C338.813 129.707 337.2 127.719 335.063 127.264V126H335.792L339.125 122L335.792 118H335.125V110H359V117.199C359 118.527 359.861 119.64 361 119.926V152H363.625V146L372.375 149L363.625 152H375V119.925C376.14 119.64 377 118.527 377 117.199V110H381V107H378.922L381 103.055V98ZM333.643 107L335.979 102.201L338.505 107H333.643ZM338.065 101H342.218L340.142 104.945L338.065 101ZM341.779 107L343.856 103.055L345.934 107H341.779ZM345.494 101H349.647L347.57 104.945L345.494 101ZM349.209 107L351.285 103.055L353.361 107H349.209ZM352.923 101H357.076L355 104.945L352.923 101ZM359 107H356.637L358.713 103.055L359 103.6V107ZM372.375 146L363.625 143L372.375 140V146ZM363.625 140V134L372.375 137.002L363.625 140ZM372.375 134L363.625 131L372.375 128V134ZM363.625 128V122.002L372.375 125L363.625 128ZM372.375 122.002L366.54 120H372.375V122.002ZM373.875 105.248C373.875 106.211 373.199 107 372.375 107H363.373C362.549 107 361.875 106.211 361.875 105.248V96.758C361.875 95.789 362.549 95 363.373 95H372.375C373.199 95 373.875 95.789 373.875 96.758V105.248ZM377.285 104.945L377 104.403V101H379.361L377.285 104.945Z" fill="white"/>
</g>
</g>
<defs>
<filter id="filter0_d_174_10134" x="-40" y="0" width="514" height="392" filterUnits="userSpaceOnUse" color-interpolation-filters="sRGB">
<feFlood flood-opacity="0" result="BackgroundImageFix"/>
<feColorMatrix in="SourceAlpha" type="matrix" values="0 0 0 0 0 0 0 0 0 0 0 0 0 0 0 0 0 0 127 0" result="hardAlpha"/>
<feOffset dy="4"/>
<feGaussianBlur stdDeviation="30"/>
<feComposite in2="hardAlpha" operator="out"/>
<feColorMatrix type="matrix" values="0 0 0 0 0.490196 0 0 0 0 0.490196 0 0 0 0 0.490196 0 0 0 0.12 0"/>
<feBlend mode="normal" in2="BackgroundImageFix" result="effect1_dropShadow_174_10134"/>
<feBlend mode="normal" in="SourceGraphic" in2="effect1_dropShadow_174_10134" result="shape"/>
</filter>
<clipPath id="clip0_174_10134">
<path d="M20 68C20 61.3726 25.3726 56 32 56H402C408.627 56 414 61.3726 414 68V316C414 322.627 408.627 328 402 328H32C25.3726 328 20 322.627 20 316V68Z" fill="white"/>
</clipPath>
</defs>
</svg>
