<svg width="100" height="91" viewBox="0 0 100 91" fill="none" xmlns="http://www.w3.org/2000/svg">
<g clip-path="url(#clip0_1261_17703)">
<path opacity="0.1" d="M6.54509 28.9651H15.2363V40.8124H7.18058C7.16002 40.9348 7.13947 41.0565 7.11634 41.1789H15.2363V50.7318C15.2226 50.7318 15.2089 50.7215 15.1961 50.7164C14.9677 50.6256 14.7393 50.5294 14.5109 50.4277C14.4621 50.4055 14.4142 50.3823 14.3645 50.3609C14.1361 50.253 13.9077 50.1388 13.6793 50.0184C13.5997 49.9764 13.52 49.9327 13.4421 49.8882C12.1742 49.1807 11.0218 48.2836 10.0248 47.228C9.99487 47.1998 9.96746 47.1689 9.9392 47.1424C9.80046 46.9917 9.66428 46.8392 9.53239 46.6833C9.48271 46.626 9.43475 46.5677 9.38594 46.512C9.23006 46.3219 9.07933 46.1249 8.93373 45.9271C8.91146 45.8971 8.89091 45.868 8.8695 45.8414C8.27306 45.0161 7.77845 44.1218 7.3964 43.1779C7.38441 43.1496 7.37328 43.1188 7.36214 43.0922C7.24395 42.7925 7.1369 42.4884 7.0444 42.1784C7.005 42.0491 6.96646 41.9215 6.93392 41.787C6.92193 41.7485 6.91251 41.7091 6.90223 41.6705C6.4209 39.7735 6.36523 37.8019 6.36523 35.8398C6.36523 35.6114 6.36523 35.383 6.36523 35.1547C6.37209 34.3536 6.38151 33.5534 6.3935 32.754C6.39807 32.5485 6.40235 32.3421 6.40634 32.1348C6.41833 31.6101 6.43546 31.0842 6.45773 30.5572C6.46287 30.4116 6.46972 30.2652 6.47743 30.1204C6.48086 30.0365 6.48514 29.9526 6.49028 29.8686C6.50569 29.5655 6.52396 29.2643 6.54509 28.9651Z" fill="#07CA78"/>
<path opacity="0.1" d="M15.2366 15.774H10.4688C11.2441 14.5617 12.091 13.3966 13.0047 12.2848C13.7138 11.4147 14.4607 10.5668 15.2366 9.74976V15.774Z" fill="#07CA78"/>
<path opacity="0.1" d="M15.2361 16.1389V28.5986H6.57227C6.57227 28.5626 6.5774 28.5258 6.58083 28.4898C6.58854 28.3913 6.59625 28.2937 6.60481 28.1952C6.61338 28.0804 6.62451 27.9656 6.63564 27.8526C6.64678 27.7395 6.65791 27.6025 6.67161 27.4783C6.68532 27.3541 6.69645 27.2282 6.71015 27.104C6.72386 26.9799 6.73756 26.8557 6.75298 26.7323C6.76839 26.609 6.7821 26.484 6.79922 26.3607C6.81207 26.2587 6.82492 26.156 6.83948 26.0532C6.85918 25.9084 6.87973 25.7637 6.90114 25.6198C6.90114 25.5976 6.90799 25.5761 6.91142 25.5547C7.06795 24.5015 7.28065 23.4575 7.54862 22.427C7.83002 21.3462 8.18924 20.2871 8.62346 19.2581C9.08487 18.18 9.62533 17.1374 10.2404 16.1389H15.2361Z" fill="#07CA78"/>
<path opacity="0.1" d="M17.3125 28.9651V40.8124H35.8769V28.9651H17.3125ZM17.3125 41.179V51.3536C17.4187 51.375 17.5232 51.3964 17.6285 51.4144C17.7698 51.4418 17.912 51.4666 18.0568 51.4881L18.1424 51.5C18.1989 51.5095 18.2563 51.5172 18.3137 51.524C18.4567 51.5446 18.5997 51.56 18.7419 51.5737C18.8087 51.5806 18.8781 51.5857 18.9458 51.5917L19.111 51.6037C19.201 51.6105 19.29 51.6157 19.3791 51.6191C19.4339 51.6191 19.4887 51.6234 19.5444 51.6251C19.6001 51.6268 19.6301 51.6251 19.6746 51.6251H19.8365C19.9101 51.6251 19.9838 51.6251 20.0566 51.6251H20.1508C20.2244 51.6251 20.2981 51.6251 20.3709 51.6182H20.3752C20.4266 51.6182 20.4771 51.6182 20.5285 51.6122C20.543 51.6131 20.5576 51.6131 20.5721 51.6122C20.615 51.6122 20.6578 51.6122 20.6989 51.6071C20.7086 51.6063 20.7183 51.6063 20.728 51.6071C20.8231 51.6011 20.919 51.5934 21.0158 51.5848C21.1126 51.5763 21.2042 51.566 21.301 51.5557L21.4954 51.5317C22.2898 51.4205 23.0754 51.2534 23.8464 51.0316C25.579 50.5485 27.2722 49.8728 29.0039 49.3786C31.241 48.7406 33.7144 48.4262 35.8761 49.203V41.179H17.3125ZM35.8769 15.7741V0.00168783C33.8447 -0.0206717 31.8179 0.216775 29.8458 0.708259C25.1447 1.8893 20.9233 4.45095 17.3125 7.72259V15.7732H18.2469V16.1389H17.3125V28.5986H35.8769V16.1389H22.0692V15.7724L35.8769 15.7741ZM59.7273 10.4461C58.5643 10.405 57.4081 10.0376 56.3615 9.46803C54.3625 8.3812 52.7644 6.70084 50.9796 5.28427C47.2711 2.33209 42.672 0.549816 37.9538 0.107888V15.7741H64.4532L64.5192 15.7047L59.7273 10.4461ZM62.1417 10.0179L64.7016 12.8279V9.27876C63.84 9.38753 63.0898 9.64018 62.1417 10.0144V10.0179ZM64.7016 53.8801V41.179H59.2426C59.2289 41.125 59.2135 41.0702 59.1964 41.0154C59.2126 41.0702 59.2272 41.125 59.2417 41.179H37.9538V50.3635C38.1559 50.5134 38.3555 50.6719 38.5533 50.8312C38.7669 51.0059 38.979 51.1826 39.1897 51.3613L39.4021 51.5369C39.504 51.6225 39.6076 51.7082 39.7104 51.7895C39.9165 51.9557 40.1241 52.1201 40.333 52.2828C40.4375 52.3651 40.5426 52.4459 40.6482 52.5252C42.321 53.8037 44.0855 54.9576 45.9274 55.9776C46.3402 56.208 46.7573 56.4298 47.1769 56.6465C47.4561 56.7903 47.7373 56.9314 48.0205 57.0695C48.4453 57.2768 48.8736 57.4766 49.3052 57.6691C53.2848 59.4554 57.493 60.681 61.8094 61.3107C62.7675 61.4517 63.7298 61.5631 64.6965 61.6447V53.8784H64.7821L64.7016 53.8801ZM37.9538 16.1389V28.5986H64.7016V16.1389H37.9538ZM37.9538 28.9634V40.8124H64.7016V28.9651L37.9538 28.9634ZM66.7777 9.26163V13.227L70.0441 9.64104C68.9616 9.46232 67.8728 9.33585 66.7777 9.26163ZM66.7777 28.9651V40.8124H92.7923V28.9651H66.7777ZM92.7007 54.8196L92.7923 41.179H66.7777V61.7826C68.4533 61.8523 70.1315 61.832 71.805 61.7218H71.8341C72.6335 61.6704 73.4291 61.5973 74.2211 61.5025H74.239C78.4652 61.0106 82.5974 59.9068 86.506 58.2257M97.8111 30.911C97.7123 30.6826 97.611 30.4542 97.5071 30.2258C97.3135 29.7976 97.1097 29.3814 96.899 28.966H94.8692V40.8124H100C99.9959 37.4568 99.1463 34.031 97.8111 30.911ZM89.7588 65.0876V76.821C91.2036 75.4361 92.4258 73.8508 93.3045 72.0386C94.3622 69.8555 94.8461 67.4934 94.8863 65.0868L89.7588 65.0876ZM89.7588 49.4214V52.5047H91.5984C94 48.4841 95.5319 44.0047 96.0952 39.3555C96.6586 34.7063 96.241 29.9906 94.8692 25.5128L89.7588 49.4214ZM72.1159 35.4956C71.9806 35.4433 71.8444 35.3911 71.7082 35.3414C70.2724 34.8107 68.8051 34.3697 67.3146 34.0208L62.3147 39.5072L62.2171 39.6125L62.2813 39.6819H80.0766C82.7689 30.2983 81.7483 20.2386 77.2263 11.5869L72.1159 35.4956ZM85.7095 16.1389H67.1425L66.7777 16.4721V28.5986H69.9765H92.7923V22.7233C90.7293 20.2284 88.348 18.0148 85.7095 16.1389Z" fill="#07CA78"/>
<path opacity="0.1" d="M15.2361 22.4246V28.5987H6.57227C6.57227 28.5627 6.5774 28.5259 6.58083 28.4899C6.58854 28.3914 6.59625 28.2938 6.60481 28.1953C6.61338 28.0806 6.62451 27.9658 6.63564 27.8527C6.64678 27.7397 6.65791 27.6027 6.67161 27.4785C6.68532 27.3543 6.69645 27.2284 6.71015 27.1042C6.72386 26.98 6.73756 26.8558 6.75298 26.7325C6.76839 26.6092 6.7821 26.4841 6.79922 26.3608C6.81207 26.2589 6.82492 26.1561 6.83948 26.0533C6.85918 25.9086 6.87973 25.7639 6.90114 25.62C6.90114 25.5977 6.90799 25.5763 6.91142 25.5549C7.06795 24.5017 7.28065 23.4576 7.54862 22.4271L15.2361 22.4246Z" fill="#07CA78"/>
<path opacity="0.1" d="M6.54509 28.9651H15.2363V40.8124H7.18058C7.16002 40.9348 7.13947 41.0565 7.11634 41.1789H15.2363V50.7318C15.2226 50.7318 15.2089 50.7215 15.1961 50.7164C14.9677 50.6256 14.7393 50.5294 14.5109 50.4277C14.4621 50.4055 14.4142 50.3823 14.3645 50.3609C14.1361 50.253 13.9077 50.1388 13.6793 50.0184C13.5997 49.9764 13.52 49.9327 13.4421 49.8882C12.1742 49.1807 11.0218 48.2836 10.0248 47.228C9.99487 47.1998 9.96746 47.1689 9.9392 47.1424C9.80046 46.9917 9.66428 46.8392 9.53239 46.6833C9.48271 46.626 9.43475 46.5677 9.38594 46.512C9.23006 46.3219 9.07933 46.1249 8.93373 45.9271C8.91146 45.8971 8.89091 45.868 8.8695 45.8414C8.27306 45.0161 7.77845 44.1218 7.3964 43.1779C7.38441 43.1496 7.37328 43.1188 7.36214 43.0922C7.24395 42.7925 7.1369 42.4884 7.0444 42.1784C7.005 42.0491 6.96646 41.9215 6.93392 41.787C6.92193 41.7485 6.91251 41.7091 6.90223 41.6705C6.4209 39.7735 6.36523 37.8019 6.36523 35.8398C6.36523 35.6114 6.36523 35.383 6.36523 35.1547C6.37209 34.3536 6.38151 33.5534 6.3935 32.754C6.39807 32.5485 6.40235 32.3421 6.40634 32.1348C6.41833 31.6101 6.43546 31.0842 6.45773 30.5572C6.46287 30.4116 6.46972 30.2652 6.47743 30.1204C6.48086 30.0365 6.48514 29.9526 6.49028 29.8686C6.50569 29.5655 6.52396 29.2643 6.54509 28.9651Z" fill="#07CA78"/>
<path opacity="0.1" d="M23.8461 17.9238V28.5986H17.3105V17.9238H18.2424V14.3096H22.0673V17.9238H23.8461Z" fill="#07CA78"/>
<path opacity="0.1" d="M23.8453 28.9644H17.3105V40.8116H23.8453V28.9644Z" fill="#07CA78"/>
<path opacity="0.1" d="M17.3125 41.179H23.8472V51.0281C23.0764 51.2501 22.2908 51.4169 21.4963 51.5274C21.4312 51.5369 21.3669 51.5446 21.3018 51.5514C21.2059 51.5626 21.1109 51.5728 21.0158 51.5814L20.7289 51.6045H20.6998L20.573 51.6114H20.5293C20.4779 51.6114 20.4274 51.6174 20.376 51.6182H20.3717C20.2981 51.6182 20.2253 51.6234 20.1516 51.6251H20.0574C19.9846 51.6251 19.9118 51.6251 19.8373 51.6251H19.6763H19.5453C19.4896 51.6251 19.4348 51.6251 19.3791 51.6182C19.2912 51.6148 19.2021 51.6097 19.1119 51.6028L18.9466 51.5908C18.8781 51.5857 18.8096 51.5788 18.7419 51.572C18.598 51.5594 18.4553 51.5431 18.3137 51.5232L18.1424 51.4992L18.0568 51.4872C17.9137 51.4658 17.7716 51.4418 17.6285 51.4144C17.5223 51.3956 17.4178 51.3741 17.3125 51.3519V41.179Z" fill="#07CA78"/>
<path opacity="0.1" d="M64.7013 16.6631H59.3125V28.5977H64.7013V16.6631Z" fill="#07CA78"/>
<path opacity="0.1" d="M64.7009 28.9644V40.8125H37.9531V35.702H52.2002V38.7168H59.3113V28.9644H64.7009Z" fill="#07CA78"/>
<path opacity="0.1" d="M64.7857 53.8827C64.7575 53.8827 64.7292 53.8827 64.7001 53.8776V61.6498C63.7346 61.5705 62.7725 61.4594 61.8138 61.3167C57.4959 60.6872 53.2861 59.4622 49.3045 57.6768C48.1552 57.1583 47.0292 56.5934 45.9267 55.9819C44.0854 54.9613 42.3213 53.8075 40.6484 52.5295C40.227 52.2075 39.8119 51.8783 39.4031 51.542C39.1196 51.3073 38.8387 51.0675 38.5526 50.8354C38.3557 50.6753 38.1561 50.5168 37.9531 50.3661V41.179H59.2411C59.2256 41.1242 59.2119 41.0702 59.1965 41.0154C59.2128 41.0702 59.2282 41.1242 59.2419 41.179H64.7009V53.8767C64.7292 53.8776 64.7575 53.8801 64.7857 53.8827Z" fill="#07CA78"/>
<path opacity="0.1" d="M78.7556 15.7742H75.2441V14.6831H76.8174V11.4329C76.9539 11.4831 77.0898 11.5345 77.2251 11.587V14.6831H78.7547L78.7556 15.7742Z" fill="#07CA78"/>
<path opacity="0.1" d="M87.2165 28.5986H69.9762C69.9779 28.599 69.9796 28.599 69.9813 28.5986H69.9736H66.7773V16.6639H67.6835V25.4854H71.8235V20.261H75.2451V16.1389H78.7565V20.2636H82.1763V25.4879H87.2174L87.2165 28.5986Z" fill="#07CA78"/>
<path opacity="0.1" d="M66.7773 28.9651V40.8124H87.2174V28.9651H66.7773ZM92.7629 54.7571L92.792 45.379H87.2174V41.1824H66.7773V61.7826C68.453 61.8522 70.1312 61.8319 71.8047 61.7217H71.8338C72.6332 61.6704 73.4288 61.5973 74.2208 61.5025H74.2387C78.4649 61.0106 82.5971 59.9067 86.5057 58.2257" fill="#07CA78"/>
<path opacity="0.1" d="M95.2288 41.179H99.9967C99.9556 43.5847 99.4726 45.9477 98.4148 48.1299C97.5361 49.943 96.314 51.5283 94.8691 52.9132V45.3764H95.2288V41.179Z" fill="#07CA78"/>
<path opacity="0.1" d="M99.9998 40.8123H95.2285V30.9109H97.8107C99.1459 34.0309 99.9955 37.4567 99.9998 40.8123Z" fill="#07CA78"/>
<path opacity="0.1" d="M64.7015 19.981H61.8145V23.7228H64.7015V19.981Z" fill="#07CA78"/>
<path opacity="0.1" d="M64.7015 27.7371H61.8145V28.5987H64.7015V27.7371Z" fill="#07CA78"/>
<path opacity="0.1" d="M64.7015 28.9644H61.8145V31.478H64.7015V28.9644Z" fill="#07CA78"/>
<path opacity="0.1" d="M64.7015 35.4929H61.8145V39.2347H64.7015V35.4929Z" fill="#07CA78"/>
<path opacity="0.1" d="M64.7015 43.249H61.8145V46.9909H64.7015V43.249Z" fill="#07CA78"/>
<path opacity="0.1" d="M64.7015 53.8768C64.7298 53.8768 64.7581 53.8768 64.7872 53.8828C64.7589 53.8828 64.7307 53.8828 64.7015 53.8777V54.747H61.8145V51.0051H64.7015V53.8768Z" fill="#07CA78"/>
<path opacity="0.1" d="M64.7015 58.7603V61.6499C63.7355 61.5706 62.7731 61.4595 61.8145 61.3168V58.7603H64.7015Z" fill="#07CA78"/>
<path opacity="0.1" d="M50.3263 40.5376H37.9531V40.8125H50.3263V40.5376Z" fill="#07CA78"/>
<path opacity="0.1" d="M50.3263 41.1782H37.9531V42.2317H50.3263V41.1782Z" fill="#07CA78"/>
<path opacity="0.1" d="M50.3263 45.6848H37.9531V47.3789H50.3263V45.6848Z" fill="#07CA78"/>
<path opacity="0.1" d="M50.3264 50.832V52.5261H40.6485C40.2271 52.2052 39.812 51.8758 39.4032 51.5377C39.1188 51.3039 38.8379 51.0641 38.5527 50.832H50.3264Z" fill="#07CA78"/>
<path opacity="0.1" d="M50.3273 55.9785V57.6769H49.3056C48.1562 57.1584 47.0303 56.5935 45.9277 55.9819L50.3273 55.9785Z" fill="#07CA78"/>
<path opacity="0.1" d="M74.2404 30.1128H71.8047V32.5485H74.2404V30.1128Z" fill="#07CA78"/>
<path opacity="0.1" d="M21.5022 18.7639H19.0664V21.1997H21.5022V18.7639Z" fill="#07CA78"/>
<path opacity="0.1" d="M21.5022 24.4216H19.0664V26.8574H21.5022V24.4216Z" fill="#07CA78"/>
<path opacity="0.1" d="M21.5022 30.0793H19.0664V32.5151H21.5022V30.0793Z" fill="#07CA78"/>
<path opacity="0.1" d="M21.5022 35.7363H19.0664V38.1721H21.5022V35.7363Z" fill="#07CA78"/>
<path opacity="0.1" d="M21.5022 41.394H19.0664V43.8298H21.5022V41.394Z" fill="#07CA78"/>
<path opacity="0.1" d="M21.5022 47.0518H19.0664V49.4875H21.5022V47.0518Z" fill="#07CA78"/>
<path opacity="0.1" d="M83.5393 30.1128H81.1035V32.5485H83.5393V30.1128Z" fill="#07CA78"/>
<path opacity="0.1" d="M74.2404 36.1208H71.8047V38.5566H74.2404V36.1208Z" fill="#07CA78"/>
<path opacity="0.1" d="M83.5393 36.1208H81.1035V38.5566H83.5393V36.1208Z" fill="#07CA78"/>
<path opacity="0.1" d="M74.2404 42.1279H71.8047V44.5637H74.2404V42.1279Z" fill="#07CA78"/>
<path opacity="0.1" d="M83.5393 42.1279H81.1035V44.5637H83.5393V42.1279Z" fill="#07CA78"/>
<path opacity="0.1" d="M74.2404 48.136H71.8047V50.5717H74.2404V48.136Z" fill="#07CA78"/>
<path opacity="0.1" d="M83.5393 48.136H81.1035V50.5717H83.5393V48.136Z" fill="#07CA78"/>
<path opacity="0.1" d="M74.2404 54.144H71.8047V56.5798H74.2404V54.144Z" fill="#07CA78"/>
<path opacity="0.1" d="M83.5393 54.144H81.1035V56.5798H83.5393V54.144Z" fill="#07CA78"/>
<path opacity="0.1" d="M71.8047 61.7219V60.1511H74.2396V61.4983L71.8047 61.7219Z" fill="#07CA78"/>
<path opacity="0.1" d="M6.90039 25.5522V26.9457H15.2354V25.5522H6.90039ZM7.73029 26.8583H7.04513V25.6405H7.73029V26.8583ZM8.56019 26.8583H7.87503V25.6405H8.56019V26.8583ZM9.38838 26.8583H8.70322V25.6405H9.38838V26.8583ZM10.2183 26.8583H9.53312V25.6405H10.2183V26.8583ZM11.0473 26.8583H10.3622V25.6405H11.0473V26.8583ZM11.8772 26.8583H11.1921V25.6405H11.8772V26.8583ZM12.7071 26.8583H12.022V25.6405H12.7071V26.8583ZM13.5362 26.8583H12.851V25.6405H13.5362V26.8583ZM14.3652 26.8583H13.6801V25.6405H14.3652V26.8583ZM15.1951 26.8583H14.51V25.6405H15.1951V26.8583Z" fill="#07CA78"/>
<path opacity="0.1" d="M6.90039 29.6084V31.0018H15.2354V29.6084H6.90039ZM7.73029 30.9145H7.04513V29.6966H7.73029V30.9145ZM8.56019 30.9145H7.87503V29.6966H8.56019V30.9145ZM9.38838 30.9145H8.70322V29.6966H9.38838V30.9145ZM10.2183 30.9145H9.53312V29.6966H10.2183V30.9145ZM11.0473 30.9145H10.3622V29.6966H11.0473V30.9145ZM11.8772 30.9145H11.1921V29.6966H11.8772V30.9145ZM12.7071 30.9145H12.022V29.6966H12.7071V30.9145ZM13.5362 30.9145H12.851V29.6966H13.5362V30.9145ZM14.3652 30.9145H13.6801V29.6966H14.3652V30.9145ZM15.1951 30.9145H14.51V29.6966H15.1951V30.9145Z" fill="#07CA78"/>
<path opacity="0.1" d="M6.90039 33.6653V35.0579H15.2354V33.6653H6.90039ZM7.73029 34.9697H7.04513V33.7518H7.73029V34.9697ZM8.56019 34.9697H7.87503V33.7518H8.56019V34.9697ZM9.38838 34.9697H8.70322V33.7518H9.38838V34.9697ZM10.2183 34.9697H9.53312V33.7518H10.2183V34.9697ZM11.0473 34.9697H10.3622V33.7518H11.0473V34.9697ZM11.8772 34.9697H11.1921V33.7518H11.8772V34.9697ZM12.7071 34.9697H12.022V33.7518H12.7071V34.9697ZM13.5362 34.9697H12.851V33.7518H13.5362V34.9697ZM14.3652 34.9697H13.6801V33.7518H14.3652V34.9697ZM15.1951 34.9697H14.51V33.7518H15.1951V34.9697Z" fill="#07CA78"/>
<path opacity="0.1" d="M6.90039 37.7214V39.114H15.2354V37.7214H6.90039ZM7.73029 39.0267H7.04513V37.8071H7.73029V39.0267ZM8.56019 39.0267H7.87503V37.8071H8.56019V39.0267ZM9.38838 39.0267H8.70322V37.8071H9.38838V39.0267ZM10.2183 39.0267H9.53312V37.8071H10.2183V39.0267ZM11.0473 39.0267H10.3622V37.8071H11.0473V39.0267ZM11.8772 39.0267H11.1921V37.8071H11.8772V39.0267ZM12.7071 39.0267H12.022V37.8071H12.7071V39.0267ZM13.5362 39.0267H12.851V37.8071H13.5362V39.0267ZM14.3652 39.0267H13.6801V37.8071H14.3652V39.0267ZM15.1951 39.0267H14.51V37.8071H15.1951V39.0267Z" fill="#07CA78"/>
<path opacity="0.1" d="M6.94141 41.7759C6.97395 41.9078 7.01249 42.038 7.05189 42.1673V41.8641H7.73705V43.0811H7.36963C7.37991 43.1102 7.39104 43.1402 7.40303 43.1668H15.2396V41.7759H6.94141ZM8.56866 43.0811H7.8835V41.8641H8.56866V43.0811ZM9.39685 43.0811H8.71169V41.8641H9.39685V43.0811ZM10.2268 43.0811H9.54159V41.8641H10.2268V43.0811ZM11.0558 43.0811H10.3706V41.8641H11.0558V43.0811ZM11.8857 43.0811H11.2005V41.8641H11.8857V43.0811ZM12.7156 43.0811H12.0304V41.8641H12.7156V43.0811ZM13.5446 43.0811H12.8595V41.8641H13.5446V43.0811ZM14.3737 43.0811H13.6885V41.8641H14.3737V43.0811ZM15.2036 43.0811H14.5184V41.8641H15.2036V43.0811Z" fill="#07CA78"/>
<path opacity="0.1" d="M8.87109 45.832C8.89336 45.8594 8.91392 45.8903 8.93533 45.9177H9.38839V46.5026L9.53484 46.6739V45.9142H10.22V47.1424H9.93823C9.96564 47.1707 9.99219 47.2006 10.0239 47.228H15.2337V45.832H8.87109ZM11.0516 47.1424H10.3665V45.9194H11.0516V47.1424ZM11.8815 47.1424H11.1964V45.9194H11.8815V47.1424ZM12.7114 47.1424H12.0263V45.9194H12.7114V47.1424ZM13.5405 47.1424H12.8553V45.9194H13.5405V47.1424ZM14.3695 47.1424H13.6843V45.9194H14.3695V47.1424ZM15.1994 47.1424H14.5142V45.9194H15.1994V47.1424Z" fill="#07CA78"/>
<path opacity="0.1" d="M13.4453 49.8882C13.5241 49.9327 13.6038 49.9738 13.6834 50.0175V49.9747H14.3686V50.3609C14.4182 50.3824 14.4653 50.4055 14.5142 50.4277V49.9747H15.1993V50.7164C15.2123 50.7222 15.2258 50.7271 15.2396 50.7309V49.8882H13.4453Z" fill="#07CA78"/>
<path opacity="0.1" d="M64.7 53.8768H64.7856H64.7ZM59.1956 41.0155C59.2118 41.0703 59.2264 41.1251 59.2409 41.1791C59.2281 41.1251 59.2127 41.0703 59.1956 41.0155ZM18.2461 15.7742V16.139H22.0719V15.7725L18.2461 15.7742ZM64.7008 53.8768H64.7865H64.7008ZM59.1956 41.0155C59.2118 41.0703 59.2264 41.1251 59.2409 41.1791C59.2281 41.1251 59.2127 41.0703 59.1956 41.0155ZM64.7 53.8768H64.7856H64.7ZM59.1956 41.0155C59.2118 41.0703 59.2264 41.1251 59.2409 41.1791C59.2281 41.1251 59.2127 41.0703 59.1956 41.0155Z" fill="#07CA78"/>
<path opacity="0.1" d="M75.3179 73.9004C79.9269 73.9004 83.6632 73.3003 83.6632 72.5601C83.6632 71.8198 79.9269 71.2197 75.3179 71.2197C70.709 71.2197 66.9727 71.8198 66.9727 72.5601C66.9727 73.3003 70.709 73.9004 75.3179 73.9004Z" fill="#07CA78"/>
<path opacity="0.1" d="M37.6812 72.5601C42.2901 72.5601 46.0264 71.96 46.0264 71.2197C46.0264 70.4795 42.2901 69.8794 37.6812 69.8794C33.0722 69.8794 29.3359 70.4795 29.3359 71.2197C29.3359 71.96 33.0722 72.5601 37.6812 72.5601Z" fill="#07CA78"/>
<path d="M47.289 35.7783C47.287 35.7698 47.2825 35.7621 47.2762 35.756C47.1486 35.6301 45.5213 33.3289 45.5213 33.3289C45.5213 33.3289 45.4357 33.0719 45.2969 32.7379C45.3414 32.6803 45.3748 32.615 45.3954 32.5452C45.4029 32.5156 45.4083 32.4856 45.4117 32.4553C45.4117 32.4459 45.4185 32.4382 45.4211 32.4287C45.4509 32.3126 45.4479 32.1905 45.4125 32.0759C45.403 32.1053 45.3913 32.1339 45.3774 32.1615C45.3452 32.0618 45.3021 31.9658 45.249 31.8755C45.0331 31.5038 44.7248 31.1903 44.4979 30.828C44.1542 30.2652 44.0176 29.6 44.1116 28.9473C44.1116 28.9807 44.1116 29.0149 44.1116 29.0483C44.1202 28.9189 44.1373 28.7901 44.163 28.6629C44.1988 28.5182 44.2466 28.3766 44.306 28.2398C44.5098 27.7731 44.8396 27.3663 45.04 26.8978C45.1072 26.7398 45.1583 26.5753 45.1924 26.407C45.2631 26.1259 45.2888 25.8354 45.2687 25.5463C45.2687 25.6148 45.2575 25.6833 45.2473 25.751C45.2256 25.0558 44.9449 24.3939 44.4602 23.8951C43.7605 23.1919 42.7558 22.9187 41.7949 22.7748C41.3911 22.7277 41.0055 22.5805 40.6729 22.3466C40.3038 22.1077 39.8268 22.0503 39.3951 22.1025C38.899 22.1562 38.438 22.3841 38.0942 22.7457C37.6377 23.2476 37.4398 23.9584 36.9071 24.3815C36.5843 24.6385 36.1749 24.7584 35.7989 24.9331C35.4229 25.1078 35.0675 25.3613 34.9467 25.7364C34.9467 25.7364 34.9467 25.7313 34.9467 25.7287V25.7501L34.9416 25.7638C34.8165 26.2075 35.0581 26.6588 35.184 27.1016C35.315 27.5598 35.3236 28.0437 35.3304 28.5173C35.3398 29.0963 35.3484 29.6761 35.339 30.2559C35.3347 30.4837 35.327 30.7141 35.3099 30.9411C35.1071 31.0024 34.9102 31.0815 34.7215 31.1775C34.5296 31.3025 33.8119 32.0776 33.8119 32.0776L32.4082 37.4407L32.427 37.4621L32.4082 37.5349L32.4793 37.5186C32.678 37.7327 33.2715 38.3425 33.9121 38.7228L33.9721 39.7745C33.9721 39.7745 34.044 40.8297 35.0144 41.2656C35.0366 41.6313 35.106 43.1164 34.7849 43.7048C34.5625 44.1346 34.4578 44.6157 34.4817 45.0991C34.4817 45.0991 34.5939 45.9915 34.4663 46.4608C34.3917 46.7745 34.3861 47.1006 34.45 47.4166C34.45 47.4166 34.45 47.5202 34.45 47.6984C34.45 48.6482 34.4611 51.692 34.45 52.0363C34.4337 52.4431 34.45 58.4597 34.45 58.4597C34.45 58.4597 34.3703 61.4667 34.1151 62.2812C33.8599 63.0957 33.9241 65.7926 33.9241 65.7926C33.9241 65.7926 33.764 69.0052 34.3301 69.6389C34.3301 69.6672 34.3249 69.6963 34.3241 69.7246C34.3241 69.7374 34.3241 69.752 34.3241 69.7648C34.3172 70.0089 34.3643 70.2684 34.5742 70.3481C35.0024 70.5125 35.5685 71.0058 35.6756 71.1471C35.7826 71.2885 36.4053 71.6405 37.2172 71.5462C37.7258 71.4891 38.2376 71.4656 38.7494 71.476C38.7494 71.476 39.0697 71.4178 38.966 71.0195C38.8992 70.7712 38.6492 70.3892 38.471 70.1382C38.5036 70.1468 38.5352 70.1537 38.5652 70.1597L38.5961 70.1657H38.62C38.6332 70.1665 38.6463 70.1665 38.6594 70.1657H38.6766C38.6925 70.167 38.7086 70.167 38.7245 70.1657C38.9395 70.1451 39.7411 70.5185 39.8842 70.7652C40.0272 71.0118 40.5316 71.1994 40.9119 71.2465C41.138 71.2739 41.7084 71.2276 42.1872 71.166C42.4282 71.1411 42.6671 71.0976 42.9014 71.0358C43.0145 70.993 43.0385 70.856 43.0059 70.7018C42.9675 70.506 42.8628 70.3294 42.7096 70.2016C42.5708 70.1031 42.3876 69.8436 42.2522 69.6312L42.2163 69.5738C42.4552 69.346 42.8869 68.6009 43.0179 68.4468C43.1772 68.2592 42.761 61.3999 42.761 61.3999V57.9612L43.399 54.7067L43.8452 52.9844L44.2281 50.3842C44.2281 50.3842 44.8978 47.3472 44.6914 47.0492C44.6914 47.0432 44.5201 43.9163 44.3403 43.1652C44.2623 42.8303 44.282 42.0767 44.3283 41.3435C44.3766 41.2955 44.4103 41.2348 44.4255 41.1684C44.4406 41.102 44.4366 41.0326 44.4139 40.9684C44.4011 40.9245 44.3845 40.8818 44.3643 40.8408C44.3643 40.8279 44.3643 40.8142 44.3643 40.8014C44.7342 40.6312 45.1208 40.4997 45.5179 40.4091C46.1559 40.2841 45.9966 39.9552 45.9966 39.9552C45.9966 39.9552 46.1405 39.6735 46.2356 39.5013C46.3307 39.3292 46.2519 37.8098 46.2356 37.6848C46.2296 37.6342 46.1902 37.355 46.1448 37.0382C46.3495 36.8926 46.6159 36.7118 46.9062 36.5406C47.4586 36.2134 47.3344 35.8682 47.289 35.7783ZM38.9643 57.4919C38.9643 57.4919 38.4856 58.7132 38.6774 59.0258C38.8693 59.3384 38.6457 60.4989 38.6457 60.4989L38.4856 62.2212C38.4856 62.2212 38.0394 65.4158 38.1987 66.1669C38.3237 66.7561 38.37 68.5161 38.3845 69.2501C38.3735 69.2544 38.363 69.2595 38.3528 69.2655L38.3314 69.2767C38.4051 68.988 38.3742 68.4039 38.0085 67.2289L37.9777 62.3754C37.9777 62.3754 37.9212 56.7691 38.364 56.1421C38.8067 55.5152 38.9635 54.4506 38.9635 54.4506C38.9635 54.4506 38.8676 55.9863 38.805 56.3931C38.7425 56.7999 38.9643 57.4919 38.9643 57.4919ZM38.0728 69.5559C38.0685 69.5661 38.0633 69.5764 38.0599 69.5858L38.0359 69.555C38.0482 69.5562 38.0605 69.5565 38.0728 69.5559Z" fill="url(#paint0_linear_1261_17703)"/>
<path d="M42.9562 71.4794C42.7087 71.5745 41.3666 71.7364 40.9915 71.691C40.6164 71.6456 40.1196 71.4555 39.9783 71.2071C39.837 70.9587 39.0448 70.5836 38.8324 70.6076C38.7453 70.6102 38.6585 70.598 38.5755 70.5716C38.4289 70.5272 38.2858 70.4723 38.1472 70.4072C38.1279 70.2992 38.1311 70.1884 38.1567 70.0817C38.1616 70.0602 38.1679 70.039 38.1755 70.0183C38.2255 69.8778 38.3289 69.7627 38.4633 69.698L38.4941 69.6835C38.5535 69.6578 38.6155 69.6389 38.6791 69.6269C39.3523 69.4976 42.1297 69.7571 42.1297 69.7571C42.1297 69.7571 42.2077 69.8967 42.3147 70.0697C42.4483 70.2838 42.6299 70.5451 42.7669 70.6435C42.9187 70.7733 43.0217 70.9509 43.059 71.1471C43.0915 71.2987 43.0675 71.4375 42.9562 71.4794Z" fill="white"/>
<path opacity="0.1" d="M42.9551 71.4792C42.7076 71.5743 41.3664 71.7362 40.9913 71.6908C40.6161 71.6454 40.1194 71.4544 39.9772 71.2069C39.8351 70.9594 39.0446 70.5834 38.8322 70.6074C38.6198 70.6313 38.147 70.407 38.147 70.407C38.147 70.407 38.0733 70.0644 38.2875 69.8306L38.7157 70.1346C38.7157 70.1346 39.8616 70.49 40.074 70.8198C40.2864 71.1495 40.6735 71.3336 41.2328 71.367C41.6507 71.3944 42.6108 71.2317 43.0605 71.1504C43.0904 71.2985 43.0673 71.4373 42.9551 71.4792Z" fill="black"/>
<path d="M38.8557 71.9163C38.3505 71.9064 37.8452 71.9302 37.3432 71.9873C36.539 72.0816 35.9249 71.7304 35.8179 71.5857C35.7108 71.4409 35.1567 70.9519 34.731 70.7806C34.5229 70.7001 34.4741 70.438 34.4835 70.1931C34.4835 70.1802 34.4835 70.1657 34.4835 70.1528C34.4914 69.9977 34.5144 69.8436 34.552 69.6929L37.8845 69.6218L38.1731 70.0132L38.2176 70.0732L38.3932 70.3121C38.3932 70.3121 38.4729 70.4166 38.5774 70.5691C38.7538 70.826 39.0004 71.2054 39.0664 71.4563C39.1717 71.858 38.8557 71.9163 38.8557 71.9163Z" fill="white"/>
<path opacity="0.1" d="M38.8557 71.916C38.3505 71.9062 37.8452 71.93 37.3432 71.9871C36.5399 72.0813 35.9249 71.7302 35.8187 71.5855C35.7125 71.4407 35.1567 70.9474 34.731 70.7821C34.5229 70.7016 34.4741 70.4395 34.4835 70.1946C34.7216 70.2502 35.2218 70.3924 35.4179 70.6399C35.6748 70.9705 36.1348 71.5264 36.7882 71.5615C37.3158 71.5897 38.6005 71.4955 39.0715 71.4578C39.1726 71.8578 38.8557 71.916 38.8557 71.916Z" fill="black"/>
<path opacity="0.1" d="M38.4584 69.6946C38.4199 69.9807 38.3009 70.0578 38.2152 70.0749C38.1943 70.079 38.1728 70.079 38.1518 70.0749C38.1406 70.0741 38.1294 70.0724 38.1184 70.0698C38.1184 70.0698 35.126 70.7309 34.5213 70.1956C34.506 70.1819 34.4917 70.167 34.4785 70.1511C34.4864 69.996 34.5093 69.8419 34.547 69.6912L37.8795 69.6201L38.1681 70.0115C38.2181 69.871 38.3215 69.7559 38.4559 69.6912L38.4584 69.6946Z" fill="black"/>
<path opacity="0.1" d="M42.3134 70.0662C42.2466 70.1398 42.191 70.1818 42.1558 70.1673C41.9983 70.1039 40.7067 69.8838 40.2965 70.073C39.8863 70.2623 38.4979 70.1039 38.4979 70.1039C38.4979 70.1039 38.4979 69.9394 38.4902 69.6757C38.5496 69.65 38.6117 69.631 38.6752 69.6191C39.3484 69.4898 42.1259 69.7493 42.1259 69.7493C42.1259 69.7493 42.2072 69.8932 42.3134 70.0662Z" fill="black"/>
<path d="M44.2676 50.6932L43.8891 53.3088L43.4489 55.0423L42.8185 58.319V61.7877C42.8185 61.7877 43.2279 68.6889 43.0703 68.8774C42.9127 69.0658 42.3141 70.1389 42.1565 70.0764C41.9989 70.0139 40.7074 69.7929 40.2971 69.9813C39.8869 70.1697 38.4986 70.013 38.4986 70.013C38.4986 70.013 38.4669 67.3349 38.3093 66.5786C38.1517 65.8224 38.5928 62.6081 38.5928 62.6081L38.7504 60.8755C38.7504 60.8755 38.9713 59.7091 38.7821 59.3939C38.5928 59.0787 39.0655 57.8523 39.0655 57.8523C39.0655 57.8523 38.8454 57.1577 38.9088 56.7483C38.9722 56.3389 39.0655 54.7947 39.0655 54.7947C39.0655 54.7947 38.9088 55.867 38.4712 56.4965C38.0335 57.126 38.0892 62.7674 38.0892 62.7674L38.12 67.6492C38.9088 70.234 38.12 69.9813 38.12 69.9813C38.12 69.9813 35.1276 70.6434 34.5229 70.1072C33.9183 69.5711 34.0913 66.1967 34.0913 66.1967C34.0913 66.1967 34.0288 63.4869 34.2806 62.6681C34.5323 61.8493 34.612 58.8235 34.612 58.8235C34.612 58.8235 34.5957 52.7727 34.612 52.3641C34.624 52.0216 34.612 48.9546 34.612 47.9962C34.612 47.8181 34.612 47.7127 34.612 47.7127L34.9734 46.8152L39.2557 46.2791H41.3043C41.3043 46.2791 44.3875 47.0036 44.7061 47.3162C44.7129 47.3214 44.7187 47.3278 44.7233 47.3351C44.9297 47.6374 44.2676 50.6932 44.2676 50.6932Z" fill="#07CA78"/>
<path opacity="0.1" d="M39.0684 64.4324C39.0684 64.4324 40.0105 66.7011 40.455 66.8587C40.8995 67.0163 39.0684 64.4324 39.0684 64.4324Z" fill="black"/>
<path opacity="0.1" d="M39.416 67.7727C39.416 67.7727 42.5969 67.9303 42.5652 68.2772C42.5335 68.624 39.416 67.7727 39.416 67.7727Z" fill="black"/>
<path opacity="0.1" d="M35.1602 66.8657C35.2861 66.9848 37.5865 67.2083 37.3972 67.4258C37.2079 67.6434 35.3494 68.0665 35.3494 68.0665L35.1602 66.8657Z" fill="black"/>
<path opacity="0.1" d="M34.7832 62.9517C34.7832 63.0459 35.256 65.9766 35.3827 66.1025C35.5095 66.2284 36.5483 66.3543 36.5483 66.3543L34.7832 62.9517Z" fill="black"/>
<path d="M38.2131 22.8919C37.7618 23.3964 37.5665 24.1115 37.0406 24.538C36.7212 24.795 36.3169 24.9174 35.9452 25.0922C35.5735 25.2669 35.2053 25.5332 35.0948 25.9289C34.9714 26.3743 35.2095 26.829 35.3346 27.2744C35.4639 27.7352 35.4716 28.2165 35.4793 28.6987C35.4879 29.2819 35.4973 29.8652 35.487 30.4484C35.4716 31.3571 35.3962 32.3077 34.9141 33.0777C36.6552 33.6318 38.5069 33.7072 40.3328 33.7783C40.6837 33.8033 41.0362 33.7944 41.3854 33.7517C41.688 33.6914 41.9873 33.6157 42.2821 33.5248C42.865 33.3705 43.4657 33.2936 44.0687 33.2961C44.3316 33.2961 44.5997 33.3124 44.8532 33.2438C45.1067 33.1753 45.3508 32.9998 45.4193 32.7463C45.4801 32.5184 45.391 32.2761 45.2745 32.0714C45.0621 31.698 44.7607 31.3862 44.5329 31.0179C44.3003 30.6289 44.1623 30.1908 44.13 29.7387C44.0978 29.2866 44.1721 28.8333 44.347 28.4152C44.5491 27.945 44.8746 27.5356 45.0733 27.0646C45.2768 26.5588 45.3309 26.0053 45.2292 25.4697C45.1275 24.9341 44.8742 24.4389 44.4995 24.043C43.8083 23.3356 42.8165 23.0615 41.8676 22.9159C41.468 22.8687 41.0868 22.7214 40.7593 22.4877C40.3953 22.2479 39.9234 22.1896 39.4969 22.2427C39.0049 22.2979 38.5492 22.5283 38.2131 22.8919Z" fill="#3F3D56"/>
<g opacity="0.1">
<path d="M44.3717 27.9211C44.1971 28.3338 44.1223 28.7818 44.1533 29.2289C44.1725 28.9092 44.2464 28.5952 44.3717 28.3005C44.573 27.8303 44.8984 27.4209 45.0971 26.9499C45.2596 26.5565 45.3279 26.1307 45.2967 25.7063C45.279 26.0038 45.2116 26.2962 45.0971 26.5713C44.8984 27.0424 44.573 27.4509 44.3717 27.9211Z" fill="black"/>
<path d="M35.5035 28.5822C35.5086 28.9179 35.5138 29.2545 35.5146 29.5902C35.5146 29.1278 35.5103 28.6661 35.5035 28.2045C35.4966 27.7257 35.4881 27.241 35.3588 26.7794C35.2731 26.4865 35.1464 26.1893 35.1018 25.8938C35.0256 26.3135 35.2423 26.7391 35.3588 27.1579C35.4881 27.6153 35.4966 28.1034 35.5035 28.5822Z" fill="black"/>
<path d="M44.8812 32.754C44.6243 32.8234 44.3605 32.808 44.0976 32.8063C43.4951 32.8024 42.8947 32.8779 42.3119 33.0307C42.017 33.1212 41.7177 33.1966 41.4152 33.2568C41.0658 33.3002 40.7129 33.3093 40.3617 33.2842C38.5975 33.2148 36.8083 33.1403 35.1186 32.6358C35.0684 32.7478 35.0112 32.8565 34.9473 32.9613C36.6884 33.5146 38.5401 33.5908 40.3652 33.6619C40.7164 33.687 41.0692 33.6778 41.4186 33.6345C41.7201 33.5749 42.0182 33.4997 42.3119 33.4092C42.8935 33.2559 43.4927 33.1796 44.0942 33.1822C44.3571 33.1822 44.6243 33.1985 44.8778 33.1291C45.1313 33.0598 45.3754 32.8859 45.4439 32.6324C45.4728 32.515 45.4698 32.392 45.4354 32.2761C45.3591 32.5159 45.1236 32.6829 44.8812 32.754Z" fill="black"/>
</g>
<path d="M42.3461 31.7391C42.2828 31.8812 42.0156 33.1094 41.9522 33.2353C41.8888 33.3612 41.5428 35.3764 41.5111 35.4895C41.4794 35.6025 39.2304 35.0167 39.2304 35.0167L37.8763 33.8819L36.4846 32.497C36.4846 32.497 36.4435 31.2475 37.4687 30.8466C37.5383 30.8193 37.6099 30.797 37.6828 30.7798C38.9263 30.4809 38.8013 26.6997 38.8013 26.6997L41.3535 27.802C41.3535 27.802 40.8808 30.0082 40.897 30.4338C40.9013 30.5769 41.0135 30.6659 41.16 30.7199C41.3864 30.7843 41.6221 30.8098 41.8571 30.7953C41.8571 30.7953 42.4095 31.5977 42.3461 31.7391Z" fill="#FBBEBE"/>
<path d="M46.9148 35.8828L47.2771 35.9778C47.2771 35.9778 47.5452 36.3855 46.9148 36.7649C46.5146 37.008 46.1304 37.2766 45.7646 37.5691L43.9018 38.1361L43.543 37.0098L45.2764 35.6943L46.9148 35.8828Z" fill="#07CA78"/>
<path opacity="0.1" d="M46.9148 35.8828L47.2771 35.9778C47.2771 35.9778 47.5452 36.3855 46.9148 36.7649C46.5146 37.008 46.1304 37.2766 45.7646 37.5691L43.9018 38.1361L43.543 37.0098L45.2764 35.6943L46.9148 35.8828Z" fill="black"/>
<path d="M33.3203 36.9703L32.5957 37.6795C32.5957 37.6795 33.9026 39.1919 34.9081 39.2862C35.9136 39.3804 36.5619 38.1359 36.5619 38.1359L35.6918 36.7656L33.3203 36.9703Z" fill="#07CA78"/>
<path opacity="0.1" d="M33.3203 36.9703L32.5957 37.6795C32.5957 37.6795 33.9026 39.1919 34.9081 39.2862C35.9136 39.3804 36.5619 38.1359 36.5619 38.1359L35.6918 36.7656L33.3203 36.9703Z" fill="black"/>
<path opacity="0.1" d="M40.2022 29.1707C41.5942 29.1707 42.7227 28.0422 42.7227 26.6502C42.7227 25.2581 41.5942 24.1296 40.2022 24.1296C38.8101 24.1296 37.6816 25.2581 37.6816 26.6502C37.6816 28.0422 38.8101 29.1707 40.2022 29.1707Z" fill="black"/>
<path d="M40.2022 28.9815C41.5942 28.9815 42.7227 27.853 42.7227 26.461C42.7227 25.0689 41.5942 23.9404 40.2022 23.9404C38.8101 23.9404 37.6816 25.0689 37.6816 26.461C37.6816 27.853 38.8101 28.9815 40.2022 28.9815Z" fill="#FBBEBE"/>
<path opacity="0.1" d="M44.7251 47.6212C44.1512 47.6869 43.5859 47.8135 43.0388 47.9989C42.0967 48.3124 34.7141 48.0041 34.6113 47.9989C34.6113 47.8208 34.6113 47.7154 34.6113 47.7154L34.9728 46.8179L39.255 46.2817H41.3036C41.3036 46.2817 44.3869 47.0063 44.7055 47.3189C44.7183 47.5073 44.7251 47.6212 44.7251 47.6212Z" fill="black"/>
<path opacity="0.1" d="M42.3461 31.7391C42.2828 31.8813 42.0156 33.1095 41.9522 33.2354C41.8888 33.3613 41.5428 35.3765 41.5111 35.4895C41.4794 35.6026 39.2304 35.0168 39.2304 35.0168L37.8763 33.882L36.4846 32.4971C36.4846 32.4971 36.4435 31.2475 37.4687 30.8467L40.014 33.7732L41.16 30.72C41.3864 30.7844 41.6221 30.8099 41.8571 30.7953C41.8571 30.7953 42.4095 31.5978 42.3461 31.7391Z" fill="black"/>
<path d="M40.0131 33.8674L37.4077 30.8698C37.2552 30.7724 37.0809 30.7145 36.9005 30.7012C36.7201 30.6879 36.5391 30.7196 36.374 30.7936C35.7908 31.0462 35.0662 31.2509 34.8769 31.3768C34.6877 31.5027 33.9785 32.2821 33.9785 32.2821L36.0905 37.807L35.1604 41.4461C35.1604 41.4461 35.3026 43.3054 34.9403 43.9829C34.7197 44.4161 34.6164 44.8994 34.6406 45.3849C34.6406 45.3849 34.751 46.2833 34.6251 46.7552C34.5516 47.0707 34.546 47.3983 34.6089 47.7162C34.6089 47.7162 42.0934 48.0313 43.038 47.7162C43.585 47.5302 44.1504 47.4036 44.7244 47.3385C44.7244 47.3385 44.5531 44.1867 44.3818 43.4305C44.2105 42.6742 44.524 39.7914 44.524 39.7914L44.3193 36.7031L45.5475 33.5342C45.5475 33.5342 44.882 31.5027 44.1883 31.298C44.1883 31.298 42.9284 30.9983 42.6604 30.8569C42.3923 30.7156 41.6044 30.5889 41.6044 30.5889L41.1907 30.7276L40.0131 33.8674Z" fill="#07CA78"/>
<path opacity="0.1" d="M43.6476 36.5989L38.1653 36.2261C38.0265 36.2166 37.9064 36.3215 37.897 36.4602L37.3084 45.1161C37.299 45.2548 37.4038 45.3749 37.5425 45.3844L43.0249 45.7571C43.1636 45.7666 43.2837 45.6617 43.2932 45.523L43.8817 36.8672C43.8912 36.7284 43.7863 36.6083 43.6476 36.5989Z" fill="black"/>
<path d="M43.8371 36.4109L38.3547 36.0381C38.216 36.0286 38.0959 36.1335 38.0864 36.2722L37.4979 44.9281C37.4884 45.0668 37.5932 45.1869 37.732 45.1964L43.2143 45.5692C43.3531 45.5786 43.4732 45.4738 43.4826 45.335L44.0712 36.6792C44.0806 36.5404 43.9758 36.4203 43.8371 36.4109Z" fill="#3F3D56"/>
<path d="M43.6554 37.0894L38.4414 36.7349L37.9056 44.6149L43.1196 44.9694L43.6554 37.0894Z" fill="white"/>
<path opacity="0.1" d="M43.1888 39.1006L38.9297 38.8025L38.8466 39.9895L43.1057 40.2877L43.1888 39.1006Z" fill="black"/>
<path opacity="0.1" d="M43.0353 43.8179L42.3594 43.772L42.3173 44.3906L42.9932 44.4366L43.0353 43.8179Z" fill="black"/>
<path opacity="0.1" d="M42.368 42.3249L38.9082 42.0896L38.8661 42.7082L42.3259 42.9435L42.368 42.3249Z" fill="black"/>
<path d="M43.0107 36.7948L39.4082 36.5498L39.3435 37.5008L42.946 37.7458L43.0107 36.7948Z" fill="#3F3D56"/>
<path opacity="0.1" d="M43.0107 36.7948L39.4082 36.5498L39.3435 37.5008L42.946 37.7458L43.0107 36.7948Z" fill="black"/>
<path opacity="0.1" d="M40.3291 47.4473C40.3291 47.4473 40.2974 52.1115 39.0684 54.7896C39.0684 54.7896 40.55 51.2602 40.55 51.1189C40.55 50.9776 41.3688 49.4959 41.1495 49.0548C40.9303 48.6138 40.3291 47.4473 40.3291 47.4473Z" fill="black"/>
<path opacity="0.1" d="M40.3944 25.8306C40.3473 25.4178 40.4484 25.0017 40.6796 24.6564C40.6521 25.0025 40.75 25.3468 40.9553 25.6267C41.1607 25.9066 41.4598 26.1033 41.7981 26.1809C41.7693 26.1559 41.7487 26.1226 41.739 26.0856C41.7294 26.0486 41.7312 26.0096 41.7442 25.9736C41.9197 26.1723 42.0542 26.4079 42.2529 26.5826C42.4516 26.7573 42.7497 26.8618 42.9835 26.7376C43.3012 26.5663 43.3046 26.115 43.2224 25.7638C43.046 25.016 42.684 24.3247 42.1698 23.7537C42.0416 23.5811 41.8751 23.4406 41.6834 23.3431C41.4917 23.2456 41.28 23.1939 41.065 23.1919C40.5785 23.1542 40.0732 23.197 39.6373 23.4154C39.392 23.5493 39.1622 23.7099 38.9521 23.8942L37.7531 24.8723C37.6378 24.9554 37.539 25.0594 37.4619 25.1789C37.4105 25.2788 37.3796 25.388 37.3711 25.5C37.3405 25.8204 37.3998 26.1429 37.5423 26.4314C37.6848 26.7199 37.9049 26.9629 38.1779 27.1333C38.1721 26.8801 38.2418 26.6309 38.378 26.4174C38.5141 26.2039 38.7107 26.0358 38.9427 25.9343C38.9791 25.9646 39.0085 26.0024 39.029 26.0451C39.0496 26.0878 39.0607 26.1344 39.0618 26.1818L39.3144 25.7313C39.352 25.6493 39.4112 25.5791 39.4857 25.5283C39.6416 25.4426 39.836 25.5437 39.9688 25.6645C40.1015 25.7852 40.2308 25.936 40.409 25.9548L40.4158 25.2842" fill="black"/>
<path d="M40.3949 25.7362C40.3476 25.3231 40.4487 24.9067 40.6801 24.5612C40.603 25.2463 41.1194 25.9538 41.7994 26.0857C41.7705 26.0608 41.7499 26.0278 41.7403 25.9909C41.7306 25.954 41.7324 25.9151 41.7455 25.8793C41.9211 26.078 42.0555 26.3126 42.2542 26.4882C42.4529 26.6638 42.751 26.7674 42.9848 26.6424C43.3025 26.4711 43.3059 26.0197 43.2237 25.6694C43.0473 24.9216 42.6853 24.2303 42.1711 23.6593C42.0116 23.4649 41.8106 23.3086 41.5828 23.202C41.4178 23.141 41.2445 23.1058 41.0689 23.0975C40.5824 23.0598 40.0771 23.1018 39.6412 23.3202C39.396 23.4547 39.1663 23.6155 38.956 23.7998L37.757 24.7779C37.6414 24.8608 37.5426 24.9648 37.4658 25.0845C37.4142 25.1843 37.3834 25.2936 37.375 25.4056C37.3445 25.7258 37.4038 26.0482 37.5463 26.3366C37.6888 26.6249 37.9089 26.8678 38.1818 27.038C38.1762 26.7849 38.246 26.5358 38.3821 26.3224C38.5183 26.1089 38.7147 25.9407 38.9466 25.839C38.9828 25.8695 39.0121 25.9073 39.0327 25.95C39.0532 25.9927 39.0644 26.0392 39.0656 26.0865L39.3174 25.6377C39.3548 25.5556 39.4141 25.4854 39.4887 25.4348C39.6446 25.3491 39.839 25.4502 39.9718 25.5709C40.1045 25.6917 40.2338 25.8416 40.412 25.8613L40.4188 25.1898" fill="#3F3D56"/>
<path d="M41.5892 41.6347C41.3691 41.5233 37.7292 42.0912 37.7292 42.0912C37.7292 42.0912 37.1296 41.9199 35.6805 41.6818C34.2314 41.4437 34.1389 40.0271 34.1389 40.0271L33.9805 37.1914L34.4695 36.7632L36.5644 38.1335C36.5644 38.1335 36.5969 38.8264 36.5644 38.9514C36.5438 39.0371 36.489 39.139 36.4942 39.2083C36.4957 39.2271 36.5035 39.2449 36.5162 39.2588C36.5289 39.2727 36.5458 39.2821 36.5644 39.2854C36.7066 39.3214 38.6438 39.6349 38.6438 39.6349C38.6438 39.6349 43.1342 39.3274 44.2536 40.8399C44.3423 40.9509 44.4094 41.0776 44.4514 41.2133C44.7289 42.247 41.7887 41.7332 41.5892 41.6347Z" fill="#FBBEBE"/>
<path opacity="0.1" d="M44.4542 41.2193C44.2829 41.2955 44.1767 41.3503 44.1767 41.3503C44.1767 41.3503 42.57 41.3032 41.6673 40.9761C40.7646 40.6489 39.6675 40.7071 39.6675 40.7071C39.6675 40.7071 35.9059 40.0597 36.4892 39.2144C36.4908 39.2331 36.4985 39.2509 36.5112 39.2648C36.5239 39.2788 36.5408 39.2881 36.5594 39.2914C36.7016 39.3274 38.6389 39.6409 38.6389 39.6409C38.6389 39.6409 43.1292 39.3334 44.2486 40.8459C44.34 40.9563 44.4098 41.083 44.4542 41.2193Z" fill="black"/>
<path d="M46.0155 36.2295C46.0155 36.2295 46.2364 37.7891 46.2518 37.9158C46.2673 38.0426 46.3469 39.5696 46.2518 39.7435C46.1568 39.9174 46.0155 40.2 46.0155 40.2C46.0155 40.2 46.1731 40.5306 45.5427 40.6573C44.9124 40.7841 44.1724 41.1609 44.1724 41.1609C44.1724 41.1609 42.5648 41.1138 41.6673 40.7832C40.7697 40.4526 39.6666 40.5152 39.6666 40.5152C39.6666 40.5152 34.8919 39.6955 36.9405 38.6952C38.9891 37.6949 40.4383 39.0498 40.4383 39.0498L42.7224 38.9085C42.7224 38.9085 43.5737 38.3877 43.8101 38.4357C43.977 38.457 44.1465 38.4296 44.2983 38.3569L44.3146 36.7023L46.0155 36.2295Z" fill="#FBBEBE"/>
<path opacity="0.1" d="M34.4329 32.4012L33.9756 32.3772L32.5898 37.7728C32.5898 37.7728 34.0861 37.3943 34.731 37.7728C35.3759 38.1514 36.5586 38.2293 36.5586 38.2293L36.1176 33.9282L34.4329 32.4012Z" fill="black"/>
<path d="M34.4329 32.3062L33.9756 32.2822L32.5898 37.6779C32.5898 37.6779 34.0861 37.2993 34.731 37.6779C35.3759 38.0564 36.5586 38.1344 36.5586 38.1344L36.1176 33.8333L34.4329 32.3062Z" fill="#07CA78"/>
<path opacity="0.1" d="M44.9147 33.488L45.5442 33.6302C45.5442 33.6302 47.1517 35.9426 47.2776 36.0719C47.4035 36.2013 46.6781 36.6715 46.3792 36.6715C46.0803 36.6715 44.6149 36.8428 44.1893 37.2384C43.7636 37.6341 43.9409 35.6429 43.9409 35.5975C43.9409 35.5521 44.4693 34.2957 44.4693 34.2957L44.9147 33.488Z" fill="black"/>
<path d="M44.9147 33.3938L45.5442 33.5351C45.5442 33.5351 47.1517 35.8518 47.2776 35.9777C47.4035 36.1036 46.6781 36.5772 46.3792 36.5772C46.0803 36.5772 44.6149 36.7485 44.1893 37.1442C43.7636 37.5399 43.9409 35.5486 43.9409 35.5032C43.9409 35.4578 44.4728 34.1971 44.4728 34.1971L44.9147 33.3938Z" fill="#07CA78"/>
<g opacity="0.1">
<path d="M40.676 24.5691C40.6723 24.5034 40.6737 24.4375 40.6802 24.3721C40.5498 24.5677 40.4601 24.7876 40.4165 25.0187V25.2174C40.4165 25.2174 40.4165 25.2131 40.4165 25.2105V25.2576C40.4165 25.3964 40.4165 25.536 40.4122 25.6747H40.4002V25.739C40.4002 25.7167 40.4002 25.6953 40.3959 25.673C40.2246 25.6456 40.1021 25.5017 39.9745 25.387C39.8469 25.2722 39.6474 25.1626 39.4915 25.2508C39.4168 25.3014 39.3576 25.3716 39.3202 25.4538L39.0658 25.9025C39.0647 25.8553 39.0535 25.8089 39.033 25.7663C39.0125 25.7238 38.9831 25.6861 38.9468 25.6559C38.7148 25.7574 38.5182 25.9256 38.382 26.1391C38.2458 26.3526 38.1762 26.6017 38.182 26.8549C37.948 26.7083 37.7522 26.5081 37.6109 26.2709C37.4696 26.0336 37.3867 25.7662 37.3692 25.4906C37.3543 25.7983 37.4218 26.1044 37.5647 26.3774C37.7075 26.6503 37.9206 26.8802 38.182 27.0433C38.1764 26.7902 38.2462 26.5411 38.3823 26.3277C38.5185 26.1142 38.7149 25.946 38.9468 25.8443C38.983 25.8748 39.0123 25.9126 39.0329 25.9553C39.0534 25.998 39.0646 26.0445 39.0658 26.0918L39.3176 25.643C39.355 25.5609 39.4143 25.4907 39.4889 25.4401C39.6448 25.3544 39.8392 25.4555 39.972 25.5762C40.1047 25.697 40.234 25.8469 40.4122 25.8666C40.4122 25.6473 40.4145 25.4286 40.419 25.2105C40.461 24.9817 40.5484 24.7636 40.676 24.5691Z" fill="black"/>
<path d="M40.3867 25.4316C40.391 25.3734 40.3978 25.3151 40.4064 25.2603L40.4158 25.0239C40.39 25.1582 40.3803 25.295 40.3867 25.4316Z" fill="black"/>
<path d="M42.9849 26.4533C42.7511 26.5783 42.4531 26.4738 42.2544 26.2991C42.0557 26.1244 41.9212 25.8889 41.7456 25.6902C41.7326 25.7261 41.7308 25.7652 41.7405 25.8022C41.7501 25.8392 41.7707 25.8724 41.7996 25.8974C41.7825 25.8974 41.7662 25.8889 41.7499 25.8846C41.9212 26.0816 42.0574 26.3128 42.2544 26.4841C42.4514 26.6554 42.7511 26.7633 42.9849 26.6383C43.2187 26.5132 43.2855 26.2203 43.265 25.9351C43.2496 26.1595 43.1691 26.3539 42.9849 26.4533Z" fill="black"/>
<path d="M41.7442 25.8828C41.4578 25.8047 41.2021 25.641 41.0114 25.4135C40.8206 25.1861 40.704 24.9057 40.6771 24.6101C40.6283 25.2824 41.1353 25.9564 41.799 26.0858C41.7708 26.0612 41.7504 26.0288 41.7407 25.9926C41.7309 25.9565 41.7321 25.9182 41.7442 25.8828Z" fill="black"/>
</g>
<path d="M82.8749 39.8807C82.8749 39.8807 82.5374 39.8335 82.5374 39.3428C82.5374 38.8521 82.2959 37.9331 82.2959 37.9331C82.2959 37.9331 82.0869 36.3341 81.7983 36.0806C81.5097 35.8271 81.1388 34.3386 81.1388 34.3386C81.1388 34.3386 81.0755 33.5309 80.9461 33.3571C80.8168 33.1832 80.6421 32.7576 80.3843 32.1503C80.1265 31.5431 79.0542 31.1269 79.0542 31.1269C79.0542 31.1269 77.1109 29.9998 76.5603 29.6324C76.5099 29.6019 76.4628 29.5663 76.4198 29.5262C76.3239 29.4011 75.9059 29.3986 75.9059 29.3986C75.8622 29.1219 75.8203 28.805 75.8066 28.5181C75.8066 28.4873 75.8066 28.4565 75.8066 28.4256C76.4206 28.0626 76.8832 27.4903 77.1092 26.8138C77.1195 26.7812 77.1281 26.7478 77.1375 26.7144C77.1751 26.7028 77.2098 26.6834 77.2393 26.6574C77.2688 26.6315 77.2925 26.5995 77.3088 26.5637C77.3576 26.4532 77.3593 26.3248 77.421 26.2211C77.4929 26.0995 77.63 26.0344 77.7379 25.9436C78.0102 25.7115 78.0804 25.3219 78.0676 24.9681C78.059 24.6804 78.0128 24.3909 78.0308 24.1057C78.0308 24.0817 78.0308 24.0577 78.0359 24.0338C78.0411 23.9918 78.0471 23.9481 78.0548 23.907C78.0967 23.6946 78.1884 23.4942 78.2397 23.2835C78.2911 23.0728 78.2963 22.8356 78.1764 22.654C78.0008 22.3877 77.6351 22.3346 77.3139 22.3114C76.9499 22.2806 76.6288 22.32 76.3915 22.0177C76.2827 21.8598 76.16 21.7119 76.025 21.5757C75.977 21.5312 75.5111 21.246 75.5111 21.228C75.0552 21.0161 74.5381 20.9762 74.0551 21.1158C73.8128 21.1861 73.5858 21.3008 73.34 21.3582C72.8124 21.4832 72.2043 21.3479 71.7556 21.6503C71.5055 21.8215 71.3556 22.0948 71.2151 22.3594C71.1009 22.5775 70.985 22.7959 70.8674 23.0146C70.6773 23.3734 70.4855 23.7383 70.4058 24.1357C70.3891 24.2225 70.3785 24.3103 70.3741 24.3986C70.3741 24.4303 70.3741 24.462 70.3741 24.4937C70.3741 24.5074 70.3741 24.5211 70.3741 24.5348C70.3741 24.5639 70.3741 24.593 70.3793 24.6204C70.3844 24.6478 70.3793 24.6555 70.3852 24.6735C70.3912 24.6915 70.393 24.7318 70.3981 24.7592C70.4032 24.7866 70.4135 24.8354 70.4238 24.8722C70.4238 24.8885 70.4341 24.9039 70.4392 24.9202C70.4443 24.9365 70.458 24.9776 70.4692 25.0058C70.4803 25.0341 70.4812 25.0358 70.488 25.0504C70.5009 25.0803 70.5163 25.1095 70.5317 25.136C70.5385 25.1471 70.5437 25.1583 70.5505 25.1694C70.574 25.2095 70.6004 25.2479 70.6293 25.2842C70.8118 25.5128 71.0824 25.6584 71.2819 25.8726C71.2819 25.8811 71.2819 25.8897 71.2819 25.8982C71.2819 25.9214 71.2819 25.9445 71.2819 25.9685C71.2942 26.446 71.4229 26.9134 71.6569 27.3298C71.891 27.7463 72.2233 28.0992 72.6249 28.358C72.6249 28.3905 72.6291 28.4239 72.6309 28.4573C72.6476 28.7113 72.6444 28.9661 72.6214 29.2196C72.5865 29.1786 72.5428 29.1459 72.4936 29.124C72.4444 29.1021 72.3909 29.0914 72.3371 29.0928C72.3003 29.091 72.2634 29.0941 72.2275 29.1022L72.2198 29.0962V29.1039C72.0313 29.1502 71.7992 29.3463 71.5774 29.9039C71.5774 29.9039 70.9025 30.6644 70.3887 30.6327C69.8748 30.601 68.5739 31.4249 68.5739 31.4249C68.5739 31.4249 67.3046 32.248 67.0322 33.0873C66.88 33.5633 66.6972 34.0291 66.485 34.4816L64.9117 37.7121L64.623 40.2815C64.623 40.2815 64.7832 41.4214 64.7515 41.5961C64.7198 41.7708 65.4101 43.3381 65.4101 43.3381C65.4101 43.3381 67.6909 47.3446 68.6227 47.5502L68.6895 47.5039C68.7295 47.5241 68.7718 47.5396 68.8154 47.5502L69.0072 47.4157C69.0191 47.5663 69.0139 47.7177 68.9918 47.8671C68.8642 48.2636 69.0406 50.8449 69.265 51.3511C69.4894 51.8573 69.4097 58.4947 69.4097 58.4947L69.3781 59.0797C69.3781 59.0797 69.3781 59.0985 69.3858 59.1311L69.3781 59.2698L69.4012 59.2818C69.4252 59.4679 69.4174 59.6568 69.3781 59.8402C69.2976 60.0972 69.265 60.8226 69.265 60.8226C69.265 60.8226 68.6227 64.9233 68.9276 65.7472C69.2325 66.5711 69.4903 67.4738 69.4903 67.4738C69.4903 67.4738 69.8114 68.5015 69.5057 68.6728C69.1999 68.8441 68.334 69.1481 68.5105 69.5755C68.6732 69.9712 69.2907 71.0315 69.3823 71.1865L69.3746 71.2721L69.2487 72.6365C69.2691 72.8166 69.318 72.9924 69.3935 73.1572C69.5314 73.4552 69.7986 73.7627 70.309 73.7293C70.3947 73.7233 70.4932 73.7139 70.5899 73.701C71.5226 73.5751 72.6703 73.1589 72.6703 73.1589C72.6108 73.1212 72.5563 73.076 72.5084 73.0244C72.4625 72.98 72.4262 72.9267 72.4016 72.8678C72.377 72.809 72.3647 72.7457 72.3654 72.6819C72.3791 72.4326 71.914 71.2499 71.7975 70.9578L71.771 70.8927C71.771 70.8927 72.8313 69.7836 72.6548 68.8021C72.6548 68.8021 71.4815 68.117 71.8678 67.7401C72.254 67.3633 72.9443 66.2842 72.9443 66.2842C72.9443 66.2842 72.976 62.246 72.9443 61.6439C72.9113 61.2251 72.9311 60.8039 73.0034 60.3901C73.0163 60.3284 73.0317 60.2676 73.0479 60.2068C73.5826 60.2875 74.1225 60.3284 74.6632 60.3293C74.8608 60.3293 75.0606 60.3253 75.2627 60.3173C75.2627 60.3744 75.2653 60.436 75.2704 60.5023C75.315 61.5026 75.398 63.2575 75.4657 63.9092C75.5616 64.8428 76.0918 67.3616 76.0918 67.3616C76.0918 67.3616 75.0803 68.0099 76.2682 69.6106C76.2682 69.6106 76.2682 70.1896 76.1894 70.2744C76.1052 70.549 76.0374 70.8284 75.9864 71.1111C75.9368 71.4117 75.9162 71.7175 75.9967 71.8751C76.1894 72.2536 77.3456 72.2228 77.3456 72.2228C77.3549 72.2206 77.3644 72.2192 77.3739 72.2185C77.5921 72.1954 77.8128 72.2161 78.0229 72.2794C78.2331 72.3426 78.4285 72.4471 78.5977 72.5868C79.0371 72.9396 80.7038 72.7855 81.6073 72.6724C81.961 72.627 82.1974 72.5868 82.1974 72.5868C82.2088 72.5467 82.2128 72.505 82.2094 72.4635C82.2 72.2416 82.0261 71.7552 80.8476 71.3209C80.8476 71.3209 79.7394 70.5758 79.7548 69.9267H79.73H79.6024C79.6829 69.9241 79.7394 69.9241 79.7394 69.9241C79.7394 69.9241 79.3052 68.3405 79.4825 68.2112C79.6597 68.0819 79.1287 66.327 79.1287 66.327C79.1287 66.327 78.8247 63.3808 78.8076 63.1753C78.8087 62.9981 78.8358 62.8221 78.8881 62.6528L78.8076 61.0367C78.8076 61.0367 78.7922 60.4997 78.8076 60.325C78.8059 60.1733 78.7938 60.0219 78.7716 59.8719C78.7639 59.812 78.7562 59.7494 78.7476 59.6878C79.163 59.5824 79.4328 59.4857 79.4328 59.4857L79.3848 53.8631C79.7377 53.1779 79.8028 51.674 79.8011 50.6086C79.8011 49.9234 79.7702 49.4164 79.7702 49.4164L80.2524 48.6293C80.2524 48.6293 80.3637 47.6872 80.1873 47.4808C80.1094 47.3874 80.1445 47.2907 80.2087 47.211C80.2425 47.1833 80.2783 47.1581 80.3158 47.1356C80.3116 47.1297 80.3078 47.1234 80.3047 47.1168C80.3383 47.0887 80.3741 47.0632 80.4117 47.0406C80.4117 47.0406 80.2404 46.7751 80.3937 46.6629C80.5376 46.7605 80.6661 46.8385 80.7637 46.8941C80.7569 46.9566 80.75 46.9926 80.75 46.9926L80.7911 46.907C80.8853 46.9601 80.9427 46.9926 80.9427 46.9926C80.9427 46.9926 81.6981 45.4878 81.6818 45.2669C81.6656 45.0459 82.1957 44.1107 82.1957 44.1107C82.1957 44.1107 82.2599 43.6191 82.5494 43.4135C82.8389 43.208 82.7738 41.7186 82.7738 41.7186C82.7738 41.7186 82.8543 40.9427 83.047 40.6266C83.2397 40.3106 82.8749 39.8807 82.8749 39.8807ZM68.4214 39.2203L68.436 39.5792C68.3503 39.4413 68.2887 39.3428 68.2887 39.3428L68.4214 39.2203Z" fill="url(#paint1_linear_1261_17703)"/>
<path d="M80.9868 46.3416L80.8018 47.1295C80.8018 47.1295 79.3201 46.3716 79.0538 45.4123C78.7874 44.4531 79.5 44.0874 79.5 44.0874L80.8814 44.6715L80.9868 46.3416Z" fill="white"/>
<path opacity="0.1" d="M80.9868 46.3416L80.8018 47.1295C80.8018 47.1295 79.3201 46.3716 79.0538 45.4123C78.7874 44.4531 79.5 44.0874 79.5 44.0874L80.8814 44.6715L80.9868 46.3416Z" fill="black"/>
<path d="M72.6733 73.158C72.6733 73.158 71.303 73.6616 70.3609 73.725C69.8607 73.7584 69.5978 73.4518 69.4625 73.1563C69.389 72.9933 69.341 72.82 69.3203 72.6424L69.4445 71.2849L69.5096 70.563L71.5111 70.0422L71.7946 70.9098L71.8211 70.9749C71.9342 71.2652 72.3915 72.442 72.3778 72.6878C72.3767 72.7514 72.3885 72.8145 72.4125 72.8734C72.4365 72.9323 72.4722 72.9857 72.5174 73.0304C72.5638 73.0794 72.6162 73.1222 72.6733 73.158Z" fill="white"/>
<path d="M82.0289 72.4677C82.0324 72.5092 82.0283 72.551 82.0169 72.591C82.0169 72.591 79.0861 73.0792 78.4866 72.591C78.3181 72.4484 78.1216 72.3425 77.9099 72.2801C77.6981 72.2178 77.4757 72.2002 77.2567 72.2287C77.2567 72.2287 76.1228 72.2596 75.9335 71.8861C75.8547 71.7294 75.8753 71.4254 75.9241 71.1265C75.974 70.8453 76.0403 70.5674 76.1228 70.294L76.1682 70.258L76.438 70.0413L79.5966 69.948H79.6205C79.6051 70.5938 80.692 71.3346 80.692 71.3346C81.849 71.7628 82.0194 72.2467 82.0289 72.4677Z" fill="white"/>
<path opacity="0.1" d="M82.0283 72.4678C82.0313 72.5093 82.027 72.5511 82.0155 72.5911C82.0155 72.5911 79.0847 73.0793 78.486 72.5911C78.3174 72.4484 78.1208 72.3425 77.9089 72.2801C77.697 72.2177 77.4744 72.2002 77.2553 72.2288C77.2553 72.2288 76.1205 72.2597 75.9312 71.8863C75.8533 71.7295 75.873 71.4255 75.9218 71.1257C76.3586 71.1694 77.048 71.2782 77.3187 71.5385C77.7281 71.9325 78.4218 72.3265 78.8466 72.3582C79.1823 72.3787 81.1787 72.4421 82.0283 72.4678Z" fill="black"/>
<path opacity="0.1" d="M72.6718 73.1579C72.6718 73.1579 71.3014 73.6615 70.3594 73.7249C69.8592 73.7583 69.5963 73.4517 69.4609 73.1562C69.8104 73.2735 70.2943 73.396 70.5486 73.2838C70.8501 73.1493 71.919 73.0637 72.5185 73.0269C72.5637 73.077 72.6152 73.121 72.6718 73.1579Z" fill="black"/>
<path d="M74.7061 32.5717C73.5756 32.1323 72.1214 30.6806 72.4845 30.0023C72.5648 29.831 72.6127 29.6464 72.6258 29.4576C72.6492 29.2014 72.6526 28.9436 72.6361 28.6868C72.6106 28.266 72.56 27.847 72.4845 27.4321C72.4845 27.4321 76.0139 27.5118 75.8084 28.0316C75.7484 28.1849 75.7382 28.4496 75.7553 28.7451C75.7724 29.0405 75.8144 29.3771 75.8589 29.6606C75.9197 30.0486 75.9822 30.3458 75.9822 30.3458C75.9822 30.3458 75.7656 30.6481 75.6397 30.6644C75.5138 30.6806 76.3282 33.2012 74.7061 32.5717Z" fill="#CF6F80"/>
<path opacity="0.1" d="M71.8161 70.9705L71.7896 70.9996C70.7344 69.7235 69.4583 71.3148 69.4583 71.3148L69.4395 71.2806L69.5045 70.5586L71.5061 70.0378L71.7896 70.9054L71.8161 70.9705Z" fill="black"/>
<path opacity="0.1" d="M79.622 70.0379C79.622 70.0379 78.8512 70.0225 78.4401 70.3857C78.029 70.7488 76.042 70.4636 76.1277 70.3857C76.1527 70.3461 76.1679 70.3012 76.1722 70.2546L76.442 70.0379L79.6006 69.9446C79.6126 70.0045 79.622 70.0379 79.622 70.0379Z" fill="black"/>
<path d="M73.1305 60.0167C73.0732 60.1587 73.0296 60.3058 73.0004 60.456C72.9289 60.8676 72.9091 61.2865 72.9413 61.703C72.9729 62.3026 72.9413 66.3202 72.9413 66.3202C72.9413 66.3202 72.2638 67.3916 71.8853 67.7693C71.5067 68.147 72.6561 68.8253 72.6561 68.8253C72.8274 69.8025 71.7893 70.9056 71.7893 70.9056C70.7342 69.6295 69.4581 71.2199 69.4581 71.2199C69.4581 71.2199 68.7644 70.0209 68.5914 69.5927C68.4183 69.1644 69.2688 68.869 69.5677 68.6942C69.8666 68.5195 69.5523 67.4952 69.5523 67.4952C69.5523 67.4952 69.3005 66.5968 69.0007 65.7772C68.701 64.9575 69.3313 60.8783 69.3313 60.8783C69.3313 60.8783 69.3639 60.1529 69.4418 59.9002C69.4807 59.7178 69.4885 59.5302 69.4649 59.3452C69.4598 59.2827 69.4538 59.2313 69.4495 59.1953C69.4452 59.1594 69.4418 59.144 69.4418 59.144L69.4538 59.1234L69.882 58.3252C69.882 58.3252 73.3361 59.5139 73.1305 60.0167Z" fill="#07CA78"/>
<path d="M79.6219 69.9437C79.6219 69.9437 78.8511 69.9274 78.44 70.2863C78.0289 70.6451 76.042 70.3651 76.1276 70.2863C76.2133 70.2075 76.2055 69.6251 76.2055 69.6251C75.0399 68.033 76.0343 67.3872 76.0343 67.3872C76.0343 67.3872 75.5144 64.8821 75.4202 63.9528C75.3542 63.3045 75.2729 61.5548 75.2292 60.5639C75.2104 60.1356 75.1992 59.8402 75.1992 59.8402L76.143 59.6526L76.2655 59.6286L78.5625 59.167C78.5625 59.167 78.6259 59.5952 78.6687 59.9455C78.6904 60.095 78.7021 60.2458 78.7038 60.3969C78.6893 60.5681 78.7038 61.1051 78.7038 61.1051L78.7826 62.7118C78.7318 62.8805 78.7052 63.0555 78.7038 63.2317C78.7201 63.4373 79.019 66.3672 79.019 66.3672C79.019 66.3672 79.5389 68.116 79.3616 68.2419C79.1843 68.3678 79.6219 69.9437 79.6219 69.9437Z" fill="#07CA78"/>
<path opacity="0.1" d="M75.8083 28.0341C75.7483 28.1874 75.738 28.452 75.7552 28.7475C75.2824 29.0322 74.7389 29.1777 74.1872 29.1674C73.6354 29.1571 73.0978 28.9914 72.636 28.6893C72.6105 28.2684 72.5598 27.8494 72.4844 27.4346C72.4844 27.4346 76.0138 27.5142 75.8083 28.0341Z" fill="black"/>
<path d="M77.1704 26.1432C77.1797 26.9202 76.8799 27.6692 76.3371 28.2252C75.7942 28.7813 75.0526 29.0989 74.2756 29.1082C73.4985 29.1175 72.7496 28.8178 72.1935 28.2749C71.6375 27.732 71.3199 26.9905 71.3105 26.2134C71.3105 26.1894 71.3105 26.1672 71.3105 26.1432C71.3105 25.3659 71.6193 24.6204 72.1689 24.0708C72.7186 23.5212 73.464 23.2124 74.2413 23.2124C75.0186 23.2124 75.7641 23.5212 76.3137 24.0708C76.8633 24.6204 77.1721 25.3659 77.1721 26.1432H77.1704Z" fill="#CF6F80"/>
<path opacity="0.1" d="M74.7061 32.5716C73.5756 32.1322 72.1214 30.6805 72.4845 30.0022C72.5648 29.8309 72.6127 29.6462 72.6258 29.4575L74.1734 30.7302L75.1309 31.5156L75.8589 29.6631C75.9197 30.051 75.9822 30.3482 75.9822 30.3482C75.9822 30.3482 75.7656 30.6506 75.6397 30.6668C75.5138 30.6831 76.3282 33.2011 74.7061 32.5716Z" fill="black"/>
<path d="M78.7084 38.1961L77.4161 59.9071L75.7306 60.0176L71.3652 47.4286L72.0812 32.4827L72.2328 29.325L74.1735 30.9188L75.131 31.7042L75.8804 29.7969L77.2739 31.0113L78.7084 38.1961Z" fill="#07CA78"/>
<path opacity="0.1" d="M73.1299 60.0167C73.0726 60.1586 73.029 60.3058 72.9997 60.456C71.7721 60.267 70.5798 59.8949 69.4626 59.3521L69.4395 59.3401L69.4472 59.2022V59.1302L69.8754 58.332C69.8754 58.332 73.3354 59.5139 73.1299 60.0167Z" fill="black"/>
<path opacity="0.1" d="M76.1706 60.4594C75.8571 60.513 75.5408 60.5493 75.2233 60.5681C75.2045 60.1399 75.1934 59.8444 75.1934 59.8444L76.1423 59.6526L76.1706 60.4594Z" fill="black"/>
<path opacity="0.1" d="M78.6727 59.9455C78.0638 60.1039 77.1226 60.2821 76.2815 60.1707L76.2695 59.6286L78.5665 59.167C78.5665 59.167 78.6273 59.5918 78.6727 59.9455Z" fill="black"/>
<path opacity="0.1" d="M76.2655 60.2701C72.7541 60.8697 69.5381 59.1508 69.5381 59.1508L69.5689 58.5684C69.5689 58.5684 69.6486 51.966 69.4276 51.4598C69.2066 50.9537 69.0345 48.3903 69.1595 47.9989C69.2846 47.6075 68.7031 41.698 68.7031 41.698L68.6088 39.2999L65.1582 37.8979L66.6998 34.6837C66.908 34.2331 67.0871 33.7697 67.236 33.2962C67.504 32.4612 68.7484 31.6416 68.7484 31.6416C68.7484 31.6416 70.0246 30.8228 70.529 30.8536C71.0335 30.8845 71.6946 30.1291 71.6946 30.1291C72.1828 28.8847 72.6247 29.4439 72.6247 29.4439C72.6247 29.5039 72.6247 29.4439 72.6008 29.6281C72.4295 30.9941 75.3705 35.3106 75.4125 35.3877L75.696 42.2102L75.9795 50.844L76.2655 60.2701Z" fill="black"/>
<path d="M76.1704 60.2701C72.659 60.8697 69.4421 59.1508 69.4421 59.1508L69.4738 58.5684C69.4738 58.5684 69.5526 51.966 69.3317 51.4598C69.1107 50.9537 68.9386 48.3877 69.0645 47.9929C69.1904 47.5981 68.6054 41.6946 68.6054 41.6946L68.5103 39.2965L65.0605 37.8945L66.6022 34.6803C66.8098 34.2298 66.9889 33.7667 67.1383 33.2937C67.4064 32.4612 68.6551 31.6407 68.6551 31.6407C68.6551 31.6407 69.9312 30.8219 70.4348 30.8528C70.9384 30.8836 71.603 30.1291 71.603 30.1291C72.092 28.8847 72.6307 29.4439 72.6307 29.4439C72.6307 29.5039 72.5793 29.5296 72.6067 29.6281C72.9836 30.953 75.2823 35.3106 75.3242 35.3877L75.6077 42.2102L75.8852 50.8483L76.1704 60.2701Z" fill="white"/>
<path opacity="0.1" d="M75.225 35.5804C74.8474 35.4228 72.8467 33.1387 72.8467 33.1387V32.6188C72.7739 32.4475 72.3405 32.552 71.9902 32.6719L72.141 29.5142L72.3123 29.6563C72.6865 30.9804 75.1839 35.5042 75.225 35.5804Z" fill="black"/>
<path d="M75.3197 35.392C74.9411 35.2336 72.9404 32.9503 72.9404 32.9503V32.4296C72.8676 32.2583 72.4351 32.3628 72.084 32.4827L72.2322 29.3284L72.4034 29.4697C72.7811 30.792 75.2777 35.315 75.3197 35.392Z" fill="white"/>
<path opacity="0.1" d="M69.5384 46.7828C69.5855 46.7828 71.9801 46.531 71.9801 46.531C71.9801 46.531 73.4301 49.383 73.3351 50.0759C73.24 50.7687 73.0678 51.3837 72.4846 51.2749C71.9014 51.1661 69.3457 51.3605 69.3457 51.3605L69.5384 46.7828Z" fill="black"/>
<path d="M69.4427 46.5936C69.4907 46.5936 71.8853 46.3418 71.8853 46.3418C71.8853 46.3418 73.3344 49.1981 73.2402 49.8832C73.146 50.5684 72.9721 51.191 72.3897 51.0822C71.8074 50.9735 69.25 51.1679 69.25 51.1679L69.4427 46.5936Z" fill="white"/>
<path d="M71.247 45.2583C71.247 45.2583 73.4447 46.4402 73.4918 46.7999C73.5389 47.1596 72.3732 46.6423 72.1214 46.5789C71.9556 46.5396 71.7869 46.5132 71.617 46.5002L69.9375 46.5455L71.247 45.2583Z" fill="#CF6F80"/>
<path opacity="0.1" d="M74.6101 35.7276C74.7379 35.7276 74.8414 35.6241 74.8414 35.4964C74.8414 35.3687 74.7379 35.2651 74.6101 35.2651C74.4824 35.2651 74.3789 35.3687 74.3789 35.4964C74.3789 35.6241 74.4824 35.7276 74.6101 35.7276Z" fill="black"/>
<path d="M74.6101 35.6334C74.7379 35.6334 74.8414 35.5298 74.8414 35.4021C74.8414 35.2744 74.7379 35.1709 74.6101 35.1709C74.4824 35.1709 74.3789 35.2744 74.3789 35.4021C74.3789 35.5298 74.4824 35.6334 74.6101 35.6334Z" fill="#3F3D56"/>
<path opacity="0.1" d="M75.0359 45.7379C75.1636 45.7379 75.2672 45.6343 75.2672 45.5066C75.2672 45.3789 75.1636 45.2754 75.0359 45.2754C74.9082 45.2754 74.8047 45.3789 74.8047 45.5066C74.8047 45.6343 74.9082 45.7379 75.0359 45.7379Z" fill="black"/>
<path d="M75.0359 45.6429C75.1636 45.6429 75.2672 45.5394 75.2672 45.4117C75.2672 45.2839 75.1636 45.1804 75.0359 45.1804C74.9082 45.1804 74.8047 45.2839 74.8047 45.4117C74.8047 45.5394 74.9082 45.6429 75.0359 45.6429Z" fill="#3F3D56"/>
<path opacity="0.1" d="M74.8406 40.7327C74.9683 40.7327 75.0719 40.6292 75.0719 40.5015C75.0719 40.3738 74.9683 40.2703 74.8406 40.2703C74.7129 40.2703 74.6094 40.3738 74.6094 40.5015C74.6094 40.6292 74.7129 40.7327 74.8406 40.7327Z" fill="black"/>
<path d="M74.8406 40.6385C74.9683 40.6385 75.0719 40.535 75.0719 40.4073C75.0719 40.2796 74.9683 40.176 74.8406 40.176C74.7129 40.176 74.6094 40.2796 74.6094 40.4073C74.6094 40.535 74.7129 40.6385 74.8406 40.6385Z" fill="#3F3D56"/>
<path d="M80.172 46.452C80.172 46.452 80.3296 46.6884 80.172 46.7946C80.0144 46.9008 80.1874 47.1732 80.1874 47.1732C80.1874 47.1732 79.7943 47.4027 79.9673 47.6108C80.1403 47.8189 80.0307 48.7533 80.0307 48.7533L79.5579 49.5404C79.5579 49.5404 79.5862 50.0448 79.5879 50.7266C79.5879 51.7903 79.5254 53.2857 79.1794 53.9674L79.2256 59.5609C79.2256 59.5609 77.5701 60.1664 76.1843 59.9814L75.9788 51.0058C75.9788 51.0058 76.2786 45.9159 76.389 44.9396C76.4537 44.4327 76.48 43.9216 76.4678 43.4108C76.4678 43.4108 76.4207 41.8829 76.2623 41.1746C76.2623 41.1746 76.091 38.1017 76.0739 37.2512C76.0662 36.8444 76.0876 35.6573 76.1115 34.5285C76.1381 33.2944 76.1681 32.1305 76.1681 32.1305L75.8555 29.6562C75.8555 29.6562 76.1681 29.6254 76.2623 29.7504C76.3045 29.7898 76.3504 29.8251 76.3993 29.8557C76.9397 30.2206 78.8462 31.3425 78.8462 31.3425C78.8462 31.3425 79.9013 31.7622 80.154 32.3634C80.4066 32.9647 80.5822 33.3912 80.7047 33.5625C80.8272 33.7338 80.894 34.5388 80.894 34.5388C80.894 34.5388 81.2571 36.0205 81.5406 36.2714C81.8241 36.5224 82.0279 38.1154 82.0279 38.1154L79.5228 40.0852C79.5228 40.0852 79.3027 43.362 79.2556 43.4887C79.2085 43.6155 80.172 46.452 80.172 46.452Z" fill="white"/>
<path d="M80.2677 46.4521C80.2677 46.4521 80.4244 46.6884 80.2677 46.7946C80.1109 46.9008 80.2822 47.1732 80.2822 47.1732C80.2822 47.1732 79.8891 47.4027 80.0621 47.6108C80.2351 47.8189 80.1255 48.7533 80.1255 48.7533L79.6544 49.5404C79.6544 49.5404 79.6827 50.0449 79.6853 50.7266C79.6853 51.7903 79.6228 53.2857 79.2768 53.9674L79.3239 59.5609C79.3239 59.5609 77.6683 60.1664 76.2826 59.9814L76.0779 51.0058C76.0779 51.0058 76.3768 45.9159 76.4881 44.9396C76.5529 44.4327 76.5789 43.9216 76.5661 43.4108C76.5661 43.4108 76.519 41.8829 76.3614 41.1746C76.3614 41.1746 76.1901 38.1017 76.1721 37.2512C76.1644 36.8444 76.1858 35.6574 76.2098 34.5285C76.2364 33.2944 76.2663 32.1305 76.2663 32.1305L75.8535 29.6228C75.8535 29.6228 76.2663 29.6228 76.3614 29.7504C76.4032 29.7903 76.4491 29.8256 76.4984 29.8558C77.038 30.2206 78.9444 31.3426 78.9444 31.3426C78.9444 31.3426 79.997 31.7622 80.254 32.3634C80.5109 32.9647 80.6822 33.3912 80.8047 33.5625C80.9271 33.7338 80.9939 34.5388 80.9939 34.5388C80.9939 34.5388 81.3571 36.0205 81.6406 36.2714C81.924 36.5224 82.1287 38.1154 82.1287 38.1154L79.6236 40.0852C79.6236 40.0852 79.4035 43.362 79.3555 43.4887C79.3076 43.6155 80.2677 46.4521 80.2677 46.4521Z" fill="white"/>
<path opacity="0.1" d="M77.2679 32.8577L77.4949 33.5171L76.3035 34.7162C76.3301 33.482 76.3601 32.3181 76.3601 32.3181L75.9473 29.8113C75.9473 29.8113 76.3601 29.8113 76.4551 29.9389C76.4969 29.9788 76.5429 30.0141 76.5922 30.0442L77.6045 32.9639L77.2679 32.8577Z" fill="black"/>
<path d="M77.1703 32.6685L77.3972 33.3271L76.2067 34.5261C76.2324 33.292 76.2633 32.128 76.2633 32.128L75.8496 29.6204C75.8496 29.6204 76.2633 29.6204 76.3575 29.748C76.3995 29.7876 76.4454 29.8229 76.4945 29.8533L77.5128 32.7755L77.1703 32.6685Z" fill="white"/>
<path opacity="0.1" d="M77.1704 26.1432C77.1707 26.4518 77.1222 26.7585 77.0265 27.0519C77.0104 27.0546 76.9939 27.054 76.978 27.0502C76.9621 27.0463 76.9471 27.0393 76.934 27.0296C76.9109 26.2588 76.5323 25.5342 76.0656 24.9185C75.9343 24.7327 75.7754 24.5681 75.5945 24.4303C75.4114 24.2928 75.1836 24.2284 74.9556 24.2496C74.6987 24.2847 74.4717 24.4594 74.2122 24.4817C73.8696 24.5099 73.563 24.2727 73.223 24.2616C73.0847 24.2627 72.9483 24.2934 72.8229 24.3516C72.6975 24.4098 72.586 24.4942 72.4959 24.599C72.3171 24.8099 72.1843 25.0558 72.1062 25.321C71.9715 25.7234 71.8982 26.1438 71.8887 26.568C71.8844 26.8078 71.8612 27.1084 71.6386 27.1958C71.6554 27.0195 71.6354 26.8417 71.5798 26.6736C71.5242 26.5055 71.4343 26.3508 71.3157 26.2194L71.3105 26.2134C71.3105 26.1894 71.3105 26.1672 71.3105 26.1432C71.3105 25.3659 71.6193 24.6204 72.1689 24.0708C72.7186 23.5212 73.464 23.2124 74.2413 23.2124C75.0186 23.2124 75.7641 23.5212 76.3137 24.0708C76.8633 24.6204 77.1721 25.3659 77.1721 26.1432H77.1704Z" fill="black"/>
<path d="M75.4585 21.49C75.0135 21.2807 74.5073 21.2411 74.0351 21.3787C73.7979 21.4489 73.5744 21.5628 73.3337 21.6202C72.8198 21.7444 72.2203 21.6099 71.7792 21.9105C71.5343 22.0818 71.387 22.3525 71.2499 22.6163L70.9074 23.268C70.7207 23.6251 70.5322 23.9883 70.4543 24.3814C70.3764 24.7745 70.4235 25.2147 70.6727 25.5316C70.8534 25.7611 71.1223 25.9059 71.3193 26.1226C71.4377 26.2547 71.5274 26.4098 71.5828 26.5783C71.6382 26.7468 71.6581 26.9249 71.6413 27.1015C71.864 27.0158 71.8863 26.7135 71.8914 26.4737C71.901 26.0495 71.9744 25.6291 72.109 25.2267C72.1871 24.9615 72.3199 24.7156 72.4987 24.5047C72.5887 24.3998 72.7002 24.3153 72.8256 24.2569C72.951 24.1986 73.0875 24.1677 73.2258 24.1664C73.5684 24.1784 73.8758 24.4157 74.215 24.3865C74.4719 24.3651 74.6997 24.1904 74.9584 24.1553C75.1864 24.1337 75.4143 24.1982 75.5973 24.336C75.7784 24.4734 75.937 24.6381 76.0675 24.8242C76.5351 25.4408 76.9145 26.162 76.9368 26.9353C77.0336 27.0056 77.1732 26.9131 77.2211 26.8034C77.2691 26.6938 77.2708 26.5653 77.3316 26.4609C77.4018 26.3401 77.5363 26.275 77.6416 26.1842C77.9088 25.9538 77.9757 25.5659 77.9654 25.2139C77.9551 24.8619 77.8866 24.5047 77.9534 24.1587C77.9936 23.9472 78.0844 23.7476 78.1341 23.5378C78.1838 23.328 78.1898 23.0924 78.0724 22.9117C77.9011 22.6471 77.5406 22.594 77.2263 22.5691C76.8691 22.5383 76.5497 22.5777 76.3218 22.2771C76.2146 22.1204 76.0943 21.9732 75.9621 21.8369C75.915 21.7915 75.4585 21.5089 75.4585 21.49Z" fill="#512E4E"/>
<path opacity="0.1" d="M66.1464 39.5508L65.2522 37.897L64.9688 40.4492C64.9688 40.4492 65.1263 41.5831 65.0946 41.757C65.063 41.9309 65.7404 43.4896 65.7404 43.4896C65.7404 43.4896 67.9783 47.4764 68.8921 47.6811L71.9754 45.4748L71.1566 44.4351C71.1566 44.4351 70.8731 44.3246 70.802 44.4351C70.802 44.4351 69.281 41.8195 69.1242 41.6311C68.9675 41.4427 68.9975 41.0633 68.9975 41.0633C68.9975 41.0633 68.7611 40.8115 68.8399 40.5751C68.9187 40.3387 68.3877 39.5199 68.3877 39.5199L68.8759 39.0635L66.1464 39.5508Z" fill="black"/>
<path d="M65.2992 37.7078L65.0628 37.897L64.7793 40.4493C64.7793 40.4493 64.9369 41.5832 64.9052 41.7571C64.8735 41.9309 65.5518 43.4897 65.5518 43.4897C65.5518 43.4897 67.7889 47.4764 68.7027 47.6811L71.7911 45.4749L70.9714 44.4352C70.9714 44.4352 70.6879 44.3247 70.6169 44.4352C70.6169 44.4352 69.0967 41.8196 68.9391 41.6312C68.7815 41.4427 68.8132 41.0633 68.8132 41.0633C68.8132 41.0633 68.5768 40.8115 68.6556 40.5752C68.7344 40.3388 68.1982 39.52 68.1982 39.52L68.6864 39.0635L65.2992 37.7078Z" fill="white"/>
<path opacity="0.1" d="M79.9673 47.7095C80.1386 47.9177 80.0307 48.8529 80.0307 48.8529L79.5579 49.6348C79.5579 49.6348 79.5862 50.1401 79.5879 50.8219L78.7931 51.0702C78.7212 51.0927 78.6449 51.0976 78.5707 51.0845C78.4965 51.0715 78.4264 51.0409 78.3664 50.9953C78.3064 50.9498 78.2582 50.8905 78.2258 50.8225C78.1933 50.7544 78.1776 50.6797 78.1799 50.6043L78.3178 46.1851L80.172 46.8933C80.0144 47.003 80.1874 47.2719 80.1874 47.2719C80.1874 47.2719 79.7943 47.5014 79.9673 47.7095Z" fill="black"/>
<path d="M80.0613 47.6152C80.2326 47.8224 80.1247 48.7577 80.1247 48.7577L79.6536 49.5405C79.6536 49.5405 79.6819 50.0449 79.6845 50.7267L78.8751 50.9793C78.8048 51.0014 78.7303 51.0062 78.6578 50.9936C78.5852 50.981 78.5167 50.9511 78.458 50.9066C78.3993 50.8621 78.3522 50.8042 78.3204 50.7377C78.2887 50.6713 78.2733 50.5982 78.2756 50.5245L78.4135 46.0898L80.2669 46.7998C80.1084 46.9095 80.2814 47.1784 80.2814 47.1784C80.2814 47.1784 79.8883 47.4071 80.0613 47.6152Z" fill="white"/>
<path d="M80.6771 45.5065C80.6771 45.5065 80.5512 46.3107 80.236 46.3578C79.9208 46.4049 79.7795 47.6588 79.4652 47.6151C79.1509 47.5714 79.359 46.4486 79.3701 46.2311C79.3812 46.0135 79.0275 45.1126 79.2913 44.9079C79.5551 44.7032 80.3944 44.9079 80.3944 44.9079L80.6771 45.5065Z" fill="#CF6F80"/>
<path opacity="0.1" d="M81.3432 39.3145L81.9367 38.1155C81.9367 38.1155 82.1739 39.0293 82.1739 39.5175C82.1739 40.0057 82.5045 40.0536 82.5045 40.0536C82.5045 40.0536 82.8668 40.4819 82.6758 40.7945C82.4848 41.1071 82.4086 41.8813 82.4086 41.8813C82.4086 41.8813 82.4711 43.3621 82.1876 43.5668C81.9042 43.7715 81.8408 44.2605 81.8408 44.2605C81.8408 44.2605 81.3209 45.1898 81.3372 45.4107C81.3535 45.6317 80.6126 47.1279 80.6126 47.1279C80.6126 47.1279 80.9749 45.2686 78.8638 44.4652C78.8638 44.4652 78.8475 43.8349 79.0051 43.6618C79.1627 43.4888 79.4085 43.4049 79.2543 42.5348C79.1001 41.6646 79.2098 40.6155 79.2098 40.4056C79.2098 40.1958 79.6825 38.888 79.6825 38.888L81.3432 39.3145Z" fill="black"/>
<path d="M81.6076 37.9441L82.1266 38.1154C82.1266 38.1154 82.3638 39.0292 82.3638 39.5174C82.3638 40.0056 82.6944 40.0535 82.6944 40.0535C82.6944 40.0535 83.0567 40.4818 82.8657 40.7944C82.6747 41.107 82.5976 41.8812 82.5976 41.8812C82.5976 41.8812 82.661 43.362 82.3775 43.5667C82.094 43.7714 82.0349 44.2604 82.0349 44.2604C82.0349 44.2604 81.5151 45.1897 81.5313 45.4106C81.5476 45.6316 80.8059 47.1278 80.8059 47.1278C80.8059 47.1278 81.1682 45.2685 79.0571 44.4651C79.0571 44.4651 79.0416 43.8348 79.1992 43.6618C79.3568 43.4887 79.6026 43.4048 79.4485 42.5347C79.2943 41.6645 79.4039 40.6154 79.4039 40.4055C79.4039 40.1957 79.8767 38.8879 79.8767 38.8879L81.6076 37.9441Z" fill="white"/>
<path opacity="0.1" d="M70.1406 69.0222C70.1406 69.0222 70.968 68.5023 71.5109 68.88C72.0539 69.2577 70.1406 69.0222 70.1406 69.0222Z" fill="black"/>
<path opacity="0.1" d="M76.5703 67.4145C76.5703 67.4145 77.3026 67.3203 77.9175 67.9824C78.5324 68.6444 76.5703 67.4145 76.5703 67.4145Z" fill="black"/>
<g opacity="0.1">
<path d="M77.6412 25.9958C77.5358 26.0874 77.4005 26.1517 77.3303 26.2724C77.2703 26.3761 77.2686 26.5045 77.2206 26.615C77.1727 26.7255 77.0331 26.8171 76.9354 26.7469C76.9132 25.9761 76.5338 25.2524 76.067 24.6358C75.9365 24.4499 75.7779 24.2855 75.5968 24.1484C75.4136 24.0103 75.1855 23.9456 74.957 23.9669C74.7001 24.002 74.474 24.1767 74.2145 24.199C73.8719 24.2272 73.5645 23.99 73.2244 23.9789C73.0863 23.9799 72.95 24.0106 72.8247 24.0688C72.6994 24.127 72.5881 24.2114 72.4982 24.3163C72.3194 24.5272 72.1866 24.7731 72.1085 25.0383C71.9739 25.4407 71.9006 25.8611 71.8909 26.2853C71.8858 26.5242 71.8635 26.8223 71.6426 26.9113C71.6477 26.9749 71.6477 27.0388 71.6426 27.1023C71.8661 27.0167 71.8884 26.7144 71.8935 26.4746C71.9031 26.0503 71.9765 25.63 72.1111 25.2276C72.1892 24.9624 72.3219 24.7165 72.5007 24.5056C72.5907 24.4007 72.702 24.3162 72.8273 24.2579C72.9526 24.1995 73.0888 24.1687 73.227 24.1673C73.5696 24.1793 73.8779 24.4165 74.2171 24.3874C74.474 24.366 74.7018 24.1913 74.9596 24.1561C75.1879 24.1346 75.4161 24.199 75.5994 24.3369C75.7804 24.4742 75.9391 24.6389 76.0696 24.825C76.5363 25.4417 76.9157 26.1628 76.938 26.9362C77.0356 27.0064 77.1752 26.9139 77.2232 26.8043C77.2712 26.6947 77.2729 26.5662 77.3328 26.4617C77.4031 26.341 77.5384 26.2759 77.6437 26.1851C77.9109 25.9547 77.9777 25.5667 77.9675 25.2147C77.9675 25.2036 77.9675 25.1933 77.9675 25.1822C77.9503 25.4888 77.869 25.7997 77.6412 25.9958Z" fill="black"/>
<path d="M71.3177 25.9359C71.1215 25.7193 70.8526 25.5737 70.6719 25.3441C70.5193 25.1415 70.4323 24.897 70.4227 24.6436C70.3958 24.9605 70.4843 25.2765 70.6719 25.5334C70.8526 25.7629 71.1215 25.9077 71.3177 26.1244C71.5071 26.3362 71.621 26.6049 71.6414 26.8883C71.6543 26.716 71.6323 26.5428 71.5766 26.3791C71.521 26.2155 71.4329 26.0647 71.3177 25.9359Z" fill="black"/>
<path d="M78.1343 23.3494C78.0837 23.5592 77.9938 23.7588 77.9527 23.9703C77.928 24.1133 77.9191 24.2587 77.9262 24.4037C77.929 24.3218 77.9379 24.2402 77.9527 24.1596C77.9938 23.948 78.0837 23.7485 78.1343 23.5387C78.1633 23.4228 78.1729 23.303 78.1625 23.1841C78.157 23.2398 78.1476 23.295 78.1343 23.3494Z" fill="black"/>
</g>
<path opacity="0.1" d="M11.3667 71.846C15.9757 71.846 19.712 71.2459 19.712 70.5056C19.712 69.7654 15.9757 69.1653 11.3667 69.1653C6.75778 69.1653 3.02148 69.7654 3.02148 70.5056C3.02148 71.2459 6.75778 71.846 11.3667 71.846Z" fill="#07CA78"/>
<path d="M11.6366 44.8284H11.0996V56.9189H11.6366V44.8284Z" fill="#535461"/>
<path d="M15.0114 56.8827L14.9772 57.4274L14.9301 58.1982L14.9104 58.5186L14.8624 59.2894L14.8419 59.6097L14.7947 60.3805L14.2526 69.1223C14.2295 69.4984 14.0638 69.8515 13.7893 70.1097C13.5147 70.3678 13.1521 70.5115 12.7752 70.5114H9.96009C9.58222 70.5116 9.21862 70.3671 8.94389 70.1077C8.66917 69.8483 8.50415 69.4935 8.48271 69.1163L7.94058 60.3745L7.89347 59.6037L7.87377 59.2834L7.82496 58.5126L7.80526 58.1922L7.75815 57.4214L7.7239 56.8767C7.71797 56.7723 7.73335 56.6678 7.7691 56.5695C7.80485 56.4713 7.86022 56.3813 7.93185 56.3051C8.00348 56.2289 8.08986 56.1681 8.18574 56.1263C8.28162 56.0846 8.38499 56.0628 8.48956 56.0623H14.2466C14.3517 56.0629 14.4555 56.0849 14.5517 56.1271C14.6479 56.1692 14.7344 56.2306 14.8061 56.3075C14.8777 56.3843 14.9328 56.475 14.9682 56.5739C15.0035 56.6728 15.0182 56.7779 15.0114 56.8827Z" fill="#3F3D56"/>
<path d="M14.9777 57.4268L14.9297 58.1958H7.80577L7.75781 57.4268H14.9777Z" fill="#9D9CB5"/>
<path d="M14.9107 58.5161L14.8636 59.2852H7.87413L7.82617 58.5161H14.9107Z" fill="#9D9CB5"/>
<path d="M14.8418 59.6064L14.7947 60.3747H7.94054L7.89258 59.6064H14.8418Z" fill="#9D9CB5"/>
<path d="M6.94253 49.3607C10.0703 51.6234 11.373 55.1623 11.373 55.1623C11.373 55.1623 7.60457 55.033 4.47596 52.7702C1.34734 50.5075 0.0429688 46.9712 0.0429688 46.9712C0.0429688 46.9712 3.81135 47.0979 6.94253 49.3607Z" fill="#07CA78"/>
<path d="M0.0429688 46.9712C0.0429688 46.9712 3.95438 49.1423 5.20908 50.94C6.46378 52.7377 11.3695 55.164 11.3695 55.164" stroke="#535461" stroke-width="2" stroke-miterlimit="10"/>
<path d="M8.95695 44.8025C10.6596 46.0333 11.3687 47.9594 11.3687 47.9594C11.3687 47.9594 9.31323 47.8892 7.61489 46.6585C5.91655 45.4277 5.20312 43.5007 5.20312 43.5007C5.20312 43.5007 7.25518 43.571 8.95695 44.8025Z" fill="#07CA78"/>
<path d="M5.20312 43.5007C5.20312 43.5007 7.33226 44.6826 8.01571 45.6607C8.69916 46.6388 11.3687 47.9594 11.3687 47.9594" stroke="#535461" stroke-width="2" stroke-miterlimit="10"/>
<path d="M13.8416 47.8619C11.8863 50.0108 11.4727 52.8191 11.4727 52.8191C11.4727 52.8191 14.2296 52.1425 16.1831 49.9928C18.1367 47.8431 18.5521 45.0356 18.5521 45.0356C18.5521 45.0356 15.7969 45.7131 13.8416 47.8619Z" fill="#07CA78"/>
<path d="M18.5538 45.0364C18.5538 45.0364 16.0067 47.2392 15.3592 48.7568C14.7118 50.2744 11.4727 52.8189 11.4727 52.8189" stroke="#535461" stroke-width="2" stroke-miterlimit="10"/>
</g>
<defs>
<linearGradient id="paint0_linear_1261_17703" x1="39.8705" y1="71.5617" x2="39.8705" y2="22.0888" gradientUnits="userSpaceOnUse">
<stop stop-color="#808080" stop-opacity="0.25"/>
<stop offset="0.54" stop-color="#808080" stop-opacity="0.12"/>
<stop offset="1" stop-color="#808080" stop-opacity="0.1"/>
</linearGradient>
<linearGradient id="paint1_linear_1261_17703" x1="73.859" y1="73.7276" x2="73.859" y2="21.0268" gradientUnits="userSpaceOnUse">
<stop stop-color="#808080" stop-opacity="0.25"/>
<stop offset="0.54" stop-color="#808080" stop-opacity="0.12"/>
<stop offset="1" stop-color="#808080" stop-opacity="0.1"/>
</linearGradient>
<clipPath id="clip0_1261_17703">
<rect width="100" height="91" fill="white"/>
</clipPath>
</defs>
</svg>
