<svg width="32" height="32" viewBox="0 0 32 32" fill="none" xmlns="http://www.w3.org/2000/svg">
<circle cx="16" cy="16" r="16" fill="#FD0606"/>
<path d="M19.4584 8.58334H11.5417C9.35558 8.58334 7.58337 10.3555 7.58337 12.5417V20.4583C7.58337 22.6445 9.35558 24.4167 11.5417 24.4167H19.4584C21.6445 24.4167 23.4167 22.6445 23.4167 20.4583V12.5417C23.4167 10.3555 21.6445 8.58334 19.4584 8.58334Z" stroke="white" stroke-width="2" stroke-linecap="round" stroke-linejoin="round"/>
<path d="M18.6666 16.0013C18.7643 16.6601 18.6518 17.333 18.345 17.9242C18.0383 18.5154 17.5529 18.9949 16.9579 19.2943C16.363 19.5938 15.6887 19.698 15.0311 19.5922C14.3735 19.4864 13.766 19.1759 13.2951 18.7049C12.8241 18.2339 12.5136 17.6264 12.4078 16.9688C12.302 16.3112 12.4062 15.637 12.7056 15.042C13.0051 14.4471 13.4845 13.9617 14.0758 13.6549C14.667 13.3482 15.3399 13.2356 15.9987 13.3333C16.6708 13.433 17.293 13.7462 17.7734 14.2266C18.2538 14.707 18.567 15.3292 18.6666 16.0013Z" stroke="white" stroke-width="2" stroke-linecap="round" stroke-linejoin="round"/>
<path d="M19.8541 12.1458H19.862" stroke="white" stroke-width="2" stroke-linecap="round" stroke-linejoin="round"/>
</svg>
