<svg width="32" height="32" viewBox="0 0 32 32" fill="none" xmlns="http://www.w3.org/2000/svg">
<circle cx="16" cy="16" r="16" fill="#3BAFF1"/>
<path d="M19.6666 12.3333C20.9264 12.3333 22.1346 12.8338 23.0254 13.7246C23.9162 14.6154 24.4166 15.8236 24.4166 17.0833V22.625H21.25V17.0833C21.25 16.6634 21.0831 16.2607 20.7862 15.9638C20.4893 15.6668 20.0866 15.5 19.6666 15.5C19.2467 15.5 18.844 15.6668 18.547 15.9638C18.2501 16.2607 18.0833 16.6634 18.0833 17.0833V22.625H14.9166V17.0833C14.9166 15.8236 15.4171 14.6154 16.3079 13.7246C17.1987 12.8338 18.4068 12.3333 19.6666 12.3333Z" fill="white"/>
<path d="M11.75 13.125H8.58337V22.625H11.75V13.125Z" fill="white"/>
<path d="M10.1667 10.75C11.0412 10.75 11.75 10.0411 11.75 9.16667C11.75 8.29221 11.0412 7.58333 10.1667 7.58333C9.29226 7.58333 8.58337 8.29221 8.58337 9.16667C8.58337 10.0411 9.29226 10.75 10.1667 10.75Z" fill="white"/>
</svg>
