<svg width="251" height="154" viewBox="0 0 251 154" fill="none" xmlns="http://www.w3.org/2000/svg">
<g clip-path="url(#clip0_714_13339)">
<path opacity="0.1" d="M250.368 98.9106C250.372 103.083 249.867 107.24 248.865 111.291C248.527 112.655 248.136 113.992 247.689 115.3C247.143 116.914 246.51 118.498 245.793 120.044C245.432 120.827 245.05 121.593 244.647 122.344C244.654 126.623 243.773 130.856 242.06 134.777C238.964 141.812 233.444 147.5 226.505 150.805C222.166 152.875 217.425 153.964 212.617 153.994H47.5277C40.1825 154.009 32.9642 152.08 26.6067 148.401L26.5089 148.346C25.6033 147.816 24.7205 147.255 23.8603 146.662C21.9248 145.325 20.1065 143.826 18.4249 142.181C16.1488 139.957 14.1431 137.472 12.4495 134.777C8.47193 128.462 6.3648 121.148 6.37219 113.684C2.34401 106.616 -0.00488281 98.1497 -0.00488281 89.0517C-0.00488281 77.573 3.72783 67.1018 9.86045 59.1751C11.139 57.519 12.5395 55.9608 14.0502 54.5134C15.5408 53.0812 17.143 51.7698 18.8415 50.5915C20.2005 49.6479 21.6207 48.7957 23.0929 48.0407C23.7072 47.7282 24.3237 47.4328 24.9507 47.1586C25.5013 46.9141 26.0582 46.6867 26.6215 46.472C27.2975 46.2155 27.982 45.9795 28.675 45.7641C29.3679 45.5487 30.0517 45.3602 30.7262 45.1987C31.7182 44.9563 32.7272 44.7594 33.7532 44.6077C34.6035 44.4823 35.4538 44.3952 36.3041 44.3293C36.98 44.2782 37.6624 44.2506 38.349 44.2421H38.721C39.4777 44.2421 40.2302 44.2719 40.9763 44.3229C41.055 44.1656 41.14 44.0061 41.2187 43.851C41.5163 43.2834 41.8245 42.718 42.1348 42.1653C42.1341 42.1604 42.1341 42.1554 42.1348 42.1504C42.188 42.0526 42.2411 41.957 42.2964 41.8635C42.5472 41.4107 42.8087 40.9622 43.0765 40.5179C43.1998 40.3053 43.321 40.1055 43.4464 39.9057C43.4729 39.856 43.502 39.8078 43.5335 39.7611C43.6611 39.5486 43.7907 39.336 43.9225 39.1234C44.5787 38.0748 45.261 37.0445 45.9696 36.0327L46.1503 35.7733C46.2608 35.616 46.3628 35.463 46.4861 35.3057C46.7795 34.8954 47.0813 34.4831 47.3853 34.0792C47.5979 33.7901 47.8104 33.5031 48.04 33.2289C48.5927 32.5203 49.1595 31.8118 49.7406 31.1032C50.3216 30.3946 50.9253 29.6953 51.5517 29.0051C51.6367 28.9095 51.7217 28.816 51.811 28.7224L52.7187 27.7319C52.7633 27.6851 52.8016 27.6426 52.8441 27.6001C52.9525 27.4832 53.0566 27.3662 53.1735 27.2536C53.6603 26.737 54.1599 26.2311 54.6615 25.7273C57.2146 23.1845 59.9344 20.8147 62.8029 18.6339C62.9156 18.5446 63.0304 18.4596 63.143 18.3746C63.683 17.9686 64.2314 17.5668 64.7798 17.1714C67.7964 15.0074 70.9497 13.0405 74.22 11.2833C74.4454 11.1536 74.6749 11.0324 74.9066 10.9134C77.8385 9.3623 80.8538 7.97423 83.9387 6.75553C85.6201 6.09019 87.3398 5.46524 89.0701 4.89343C90.2222 4.51506 91.3786 4.15581 92.5499 3.81783C94.3808 3.29066 96.2245 2.81805 98.0809 2.39999C103.55 1.1728 109.114 0.414717 114.712 0.134005C116.413 0.0475598 118.133 0.00292088 119.871 8.66227e-05C128.262 -0.011021 136.619 1.04615 144.742 3.14611C144.826 3.27303 144.941 3.3765 145.076 3.44679C145.211 3.51707 145.361 3.55185 145.514 3.54786H146.228C146.538 3.63289 146.846 3.71792 147.157 3.8072C148.89 4.30603 150.598 4.85091 152.282 5.44186L152.707 5.59491C156.862 7.07246 160.905 8.8485 164.804 10.9091C168.319 12.7622 171.703 14.8531 174.933 17.1672C175.431 17.5243 175.921 17.8842 176.404 18.247C176.991 17.8715 177.587 17.5115 178.194 17.1672C180.536 15.8332 183.024 14.7726 185.608 14.0063C191.011 12.4074 196.728 12.1838 202.24 13.3558C209.308 14.8544 215.706 18.5744 220.874 23.8652C222.978 26.03 224.851 28.408 226.462 30.9608C226.579 31.1436 226.696 31.3285 226.809 31.5156C228.194 33.775 229.384 36.148 230.367 38.609C230.403 38.7004 230.439 38.7855 230.471 38.8747C231.379 41.1792 232.111 43.549 232.661 45.9639C232.686 46.0872 232.716 46.2084 232.741 46.3317C233.256 48.6687 233.605 51.039 233.787 53.4251C233.787 53.5101 233.787 53.5973 233.804 53.6866C233.894 54.9209 233.939 56.1679 233.94 57.4278C233.94 58.5544 233.902 59.6725 233.832 60.7821C233.832 60.9033 233.815 61.0287 233.804 61.1541C233.785 61.4751 233.757 61.7918 233.73 62.1149C235.353 63.4245 236.873 64.8579 238.275 66.4025C238.894 67.0784 239.493 67.7799 240.073 68.5069C241.838 70.7195 243.39 73.0947 244.707 75.6003C248.301 82.3855 250.368 90.3675 250.368 98.9106Z" fill="#6C63FF"/>
<path opacity="0.1" d="M226.348 150.018C226.348 151.47 221.346 152.831 212.618 154H47.5286C40.1834 154.016 32.9651 152.086 26.6075 148.407L26.5098 148.352C29.0181 147.438 33.5458 146.586 39.7082 145.816L39.9845 145.782C42.7479 145.444 45.8366 145.123 49.2122 144.819C49.2972 144.819 49.3843 144.806 49.4694 144.796C52.1477 144.558 54.9969 144.334 58.0168 144.126C58.1124 144.126 58.206 144.109 58.3016 144.105C59.4665 144.021 60.6555 143.942 61.8685 143.867L62.3362 143.837C71.1684 143.289 81.2081 142.851 92.0959 142.562H92.1086C93.6334 142.519 95.1746 142.482 96.732 142.449C98.4637 142.408 100.217 142.372 101.991 142.34C103.345 142.311 104.716 142.289 106.091 142.268H106.123C112.328 142.175 118.739 142.128 125.295 142.128C141.505 142.128 156.827 142.423 170.404 142.955H170.442C172.53 143.036 174.579 143.125 176.577 143.216L178.278 143.297C180.532 143.405 182.729 143.52 184.867 143.644C210.014 145.074 226.348 147.398 226.348 150.018Z" fill="#6C63FF"/>
<g opacity="0.2">
<path d="M144.606 141.152C144.599 141.382 144.573 141.61 144.527 141.835C143.048 141.599 141.56 141.387 140.063 141.197C140.063 141.137 140.063 141.076 140.063 141.014C140.077 140.377 140.261 139.755 140.595 139.212C141.033 138.519 141.698 138.085 142.432 138.108C143.165 138.132 143.8 138.606 144.194 139.322C144.491 139.885 144.633 140.516 144.606 141.152Z" fill="#3F3D56"/>
<path d="M144.729 137.52C144.781 135.876 143.805 134.511 142.549 134.471C141.294 134.432 140.234 135.732 140.182 137.376C140.13 139.02 141.106 140.385 142.361 140.425C143.617 140.464 144.677 139.164 144.729 137.52Z" fill="#3F3D56"/>
<path d="M144.843 133.881C144.895 132.237 143.919 130.872 142.664 130.832C141.408 130.793 140.348 132.093 140.296 133.737C140.244 135.381 141.22 136.746 142.476 136.785C143.731 136.825 144.791 135.525 144.843 133.881Z" fill="#3F3D56"/>
<path d="M144.958 130.241C145.01 128.597 144.034 127.233 142.779 127.193C141.523 127.153 140.463 128.454 140.411 130.098C140.359 131.742 141.335 133.106 142.591 133.146C143.846 133.186 144.906 131.885 144.958 130.241Z" fill="#3F3D56"/>
<path d="M145.071 126.602C145.123 124.958 144.148 123.593 142.892 123.554C141.637 123.514 140.577 124.815 140.525 126.458C140.473 128.102 141.448 129.467 142.704 129.507C143.96 129.547 145.019 128.246 145.071 126.602Z" fill="#3F3D56"/>
<path d="M135.061 101.351C134.762 100.946 134.492 100.519 134.254 100.075L140.261 99.2826L133.794 99.1274C133.217 97.7587 132.926 96.2866 132.937 94.8012C132.948 93.3158 133.262 91.8484 133.86 90.4886L142.389 95.2608L134.577 89.1303C135.365 87.8557 136.407 86.7573 137.639 85.9036C138.87 85.05 140.265 84.4595 141.735 84.169C143.205 83.8784 144.719 83.8942 146.183 84.2152C147.647 84.5361 149.029 85.1555 150.242 86.0345C151.456 86.9136 152.475 88.0334 153.237 89.3241C153.998 90.6148 154.485 92.0486 154.668 93.536C154.85 95.0234 154.724 96.5324 154.297 97.9689C153.87 99.4053 153.151 100.738 152.186 101.884C152.651 102.515 153.047 103.194 153.366 103.91L145.481 107.694L153.842 105.179C154.368 106.916 154.453 108.758 154.089 110.536C153.724 112.314 152.922 113.973 151.754 115.363C152.968 117.01 153.694 118.965 153.849 121.005C154.004 123.045 153.582 125.088 152.63 126.899C151.679 128.71 150.237 130.217 148.47 131.248C146.703 132.278 144.681 132.79 142.636 132.726C140.591 132.661 138.606 132.023 136.907 130.883C135.208 129.743 133.864 128.149 133.029 126.281C132.194 124.413 131.901 122.349 132.184 120.322C132.467 118.296 133.315 116.391 134.63 114.824C133.18 112.855 132.433 110.457 132.51 108.014C132.587 105.57 133.484 103.224 135.055 101.351H135.061Z" fill="#6C63FF"/>
<path opacity="0.1" d="M154.305 108.702C154.231 111.146 153.332 113.494 151.754 115.363C152.968 117.01 153.694 118.965 153.849 121.005C154.004 123.045 153.582 125.088 152.63 126.899C151.679 128.71 150.237 130.217 148.47 131.248C146.703 132.278 144.681 132.79 142.636 132.726C140.591 132.661 138.606 132.023 136.907 130.883C135.208 129.743 133.864 128.149 133.029 126.281C132.194 124.413 131.901 122.348 132.184 120.322C132.467 118.296 133.315 116.391 134.63 114.824C133.233 112.925 154.343 107.479 154.305 108.702Z" fill="black"/>
</g>
<g opacity="0.2">
<path d="M112.297 141.152C112.291 141.382 112.264 141.61 112.219 141.835C110.739 141.599 109.251 141.387 107.755 141.197C107.755 141.137 107.755 141.076 107.755 141.014C107.769 140.377 107.952 139.755 108.286 139.212C108.724 138.519 109.39 138.085 110.123 138.108C110.856 138.132 111.492 138.606 111.885 139.322C112.183 139.885 112.325 140.516 112.297 141.152Z" fill="#3F3D56"/>
<path d="M112.417 137.521C112.469 135.877 111.493 134.512 110.238 134.472C108.982 134.433 107.922 135.733 107.87 137.377C107.818 139.021 108.794 140.386 110.05 140.426C111.305 140.465 112.365 139.165 112.417 137.521Z" fill="#3F3D56"/>
<path d="M112.532 133.881C112.584 132.237 111.609 130.873 110.353 130.833C109.098 130.793 108.038 132.094 107.986 133.738C107.934 135.382 108.909 136.747 110.165 136.786C111.42 136.826 112.48 135.525 112.532 133.881Z" fill="#3F3D56"/>
<path d="M112.647 130.242C112.699 128.598 111.723 127.234 110.467 127.194C109.212 127.154 108.152 128.455 108.1 130.099C108.048 131.743 109.024 133.107 110.279 133.147C111.535 133.187 112.595 131.886 112.647 130.242Z" fill="#3F3D56"/>
<path d="M112.76 126.603C112.812 124.959 111.836 123.594 110.581 123.554C109.325 123.515 108.265 124.815 108.213 126.459C108.161 128.103 109.137 129.468 110.392 129.508C111.648 129.547 112.708 128.247 112.76 126.603Z" fill="#3F3D56"/>
<path d="M102.753 101.351C102.453 100.946 102.183 100.519 101.945 100.075L107.952 99.2826L101.486 99.1274C100.909 97.7587 100.617 96.2866 100.628 94.8012C100.64 93.3158 100.954 91.8484 101.552 90.4886L110.08 95.2608L102.268 89.1303C103.056 87.8557 104.099 86.7573 105.33 85.9036C106.562 85.05 107.956 84.4595 109.426 84.169C110.896 83.8784 112.411 83.8942 113.874 84.2152C115.338 84.5361 116.72 85.1555 117.934 86.0345C119.147 86.9136 120.167 88.0334 120.928 89.3241C121.69 90.6148 122.177 92.0486 122.359 93.536C122.541 95.0234 122.415 96.5324 121.988 97.9689C121.561 99.4053 120.843 100.738 119.877 101.884C120.343 102.515 120.738 103.194 121.057 103.91L113.173 107.694L121.533 105.179C122.06 106.916 122.145 108.758 121.78 110.536C121.416 112.314 120.613 113.973 119.446 115.363C120.66 117.01 121.385 118.965 121.54 121.005C121.695 123.045 121.273 125.088 120.322 126.899C119.371 128.71 117.929 130.217 116.161 131.248C114.394 132.278 112.372 132.79 110.328 132.726C108.283 132.661 106.297 132.023 104.598 130.883C102.899 129.743 101.556 128.149 100.72 126.281C99.8851 124.413 99.5923 122.349 99.8754 120.322C100.158 118.296 101.006 116.391 102.321 114.824C100.871 112.855 100.125 110.457 100.202 108.014C100.279 105.57 101.175 103.224 102.746 101.351H102.753Z" fill="#6C63FF"/>
<path opacity="0.1" d="M121.997 108.702C121.922 111.146 121.023 113.494 119.446 115.363C120.66 117.01 121.385 118.965 121.54 121.005C121.695 123.045 121.273 125.088 120.322 126.899C119.371 128.71 117.929 130.217 116.161 131.248C114.394 132.278 112.372 132.79 110.328 132.726C108.283 132.661 106.297 132.023 104.598 130.883C102.899 129.743 101.556 128.149 100.72 126.281C99.8851 124.413 99.5923 122.348 99.8754 120.322C100.158 118.296 101.006 116.391 102.321 114.824C100.925 112.925 122.035 107.479 121.997 108.702Z" fill="black"/>
</g>
<g opacity="0.2">
<path d="M200.554 143.478C200.538 143.912 200.486 144.344 200.399 144.77C197.551 144.315 194.682 143.909 191.792 143.55C191.792 143.435 191.792 143.318 191.792 143.199C191.819 141.972 192.173 140.774 192.817 139.728C193.667 138.395 194.942 137.56 196.352 137.602C197.761 137.645 198.987 138.561 199.753 139.941C200.33 141.027 200.606 142.248 200.554 143.478Z" fill="#3F3D56"/>
<path d="M200.785 136.479C200.885 133.313 199.005 130.685 196.587 130.609C194.168 130.532 192.127 133.037 192.027 136.203C191.927 139.368 193.806 141.997 196.225 142.073C198.643 142.15 200.685 139.645 200.785 136.479Z" fill="#3F3D56"/>
<path d="M201.006 129.473C201.106 126.307 199.227 123.679 196.809 123.602C194.39 123.526 192.349 126.03 192.249 129.196C192.148 132.362 194.028 134.99 196.446 135.067C198.865 135.143 200.906 132.639 201.006 129.473Z" fill="#3F3D56"/>
<path d="M201.23 122.467C201.33 119.301 199.451 116.672 197.032 116.596C194.614 116.52 192.572 119.024 192.472 122.19C192.372 125.356 194.251 127.984 196.67 128.06C199.088 128.137 201.13 125.632 201.23 122.467Z" fill="#3F3D56"/>
<path d="M201.202 115.142C201.297 111.974 199.412 109.348 196.993 109.275C194.573 109.202 192.535 111.711 192.44 114.879C192.345 118.046 194.229 120.673 196.649 120.745C199.068 120.818 201.107 118.309 201.202 115.142Z" fill="#3F3D56"/>
<path d="M182.177 66.8551C181.604 66.0748 181.085 65.2559 180.624 64.4042L192.187 62.878L179.741 62.5782C178.63 59.9434 178.067 57.1095 178.088 54.2498C178.11 51.3902 178.714 48.5649 179.865 45.9468L196.286 55.1319L181.248 43.3301C182.769 40.8822 184.777 38.7736 187.148 37.1358C189.519 35.4981 192.202 34.3662 195.03 33.8107C197.858 33.2553 200.769 33.2882 203.584 33.9074C206.398 34.5266 209.055 35.7188 211.388 37.4097C213.722 39.1006 215.682 41.254 217.147 43.7357C218.611 46.2174 219.549 48.9741 219.902 51.8342C220.254 54.6942 220.014 57.5962 219.196 60.3594C218.378 63.1225 217 65.6875 215.147 67.8946C216.042 69.1093 216.804 70.4171 217.419 71.7952L202.24 79.0842L218.333 74.2377C219.348 77.578 219.513 81.1186 218.814 84.5389C218.115 87.9592 216.574 91.1512 214.331 93.8259C216.667 96.9964 218.064 100.76 218.362 104.687C218.66 108.614 217.846 112.546 216.015 116.032C214.184 119.519 211.408 122.42 208.006 124.403C204.604 126.387 200.712 127.373 196.776 127.249C192.839 127.125 189.017 125.896 185.747 123.702C182.476 121.508 179.889 118.438 178.281 114.843C176.673 111.248 176.109 107.273 176.654 103.372C177.199 99.4719 178.83 95.8034 181.361 92.7864C178.571 88.9977 177.135 84.3814 177.283 79.6785C177.431 74.9756 179.154 70.4588 182.177 66.853V66.8551Z" fill="#6C63FF"/>
<path opacity="0.1" d="M219.228 81.0037C219.089 85.7076 217.366 90.2268 214.339 93.8301C216.676 97.0005 218.073 100.764 218.37 104.691C218.668 108.618 217.855 112.55 216.024 116.037C214.193 119.523 211.417 122.424 208.015 124.408C204.613 126.391 200.721 127.377 196.785 127.253C192.848 127.129 189.026 125.9 185.756 123.706C182.485 121.512 179.898 118.442 178.29 114.847C176.682 111.252 176.118 107.277 176.663 103.376C177.207 99.4761 178.839 95.8076 181.37 92.7906C178.662 89.1323 219.303 78.6505 219.228 81.0037Z" fill="black"/>
</g>
<path d="M33.5479 143.852L35.7777 143.846H38.9216L42.8966 79.2714L82.2623 13.5811L80.5512 11.7445V7.09351L37.9778 77.7494L33.5479 143.852Z" fill="#F1C0C0"/>
<path opacity="0.1" d="M36.0156 143.846H38.9214L42.8965 79.2712L82.2622 13.581L80.551 11.7444L39.946 78.287L36.0156 143.846Z" fill="black"/>
<path d="M26.9775 144.39L128.979 152.195L129.066 152.202L227.781 146.131L227.855 146.126V141.958L119.084 139.962L28.3359 139.875H27.6726L27.6004 140.342L26.9775 144.39Z" fill="#F1C0C0"/>
<path opacity="0.1" d="M26.9775 144.39L128.979 152.195L129.066 152.202L227.781 146.131L227.855 146.05V142.045H227.768L128.979 145.344L28.3359 139.875H28.321L28.1424 139.992L27.6004 140.342L26.9775 144.39Z" fill="black"/>
<path opacity="0.1" d="M26.9775 144.39L128.979 152.195V145.344L28.1424 139.992L27.6004 140.342L26.9775 144.39Z" fill="black"/>
<path d="M80.5391 11.6573L125.508 59.9233L124.118 144.823L127.938 145.285L128.002 145.293H131.821L132.278 63.5688L216.483 91.696L217.903 141.777L220.977 142.122L222.019 142.239L219.608 88.2226L131.583 57.3193L83.3173 7.14233H80.5391V11.6573Z" fill="#F1C0C0"/>
<path opacity="0.1" d="M131.932 62.0063L132.278 63.5687L216.483 91.6959L217.903 141.777L220.977 142.122L218.566 90.6543L131.932 62.0063Z" fill="black"/>
<path opacity="0.1" d="M80.5391 11.6573L125.508 59.9233L124.118 144.823L127.938 145.285L128.979 57.145L80.5391 7.14233V11.6573Z" fill="black"/>
<path d="M132.095 96.0792L162.979 102.161L162.99 102.163L217.082 112.819L219.558 111.826L219.55 111.652L219.388 108.198L132.127 90.5652L132.095 96.0792Z" fill="#F1C0C0"/>
<path opacity="0.1" d="M162.989 102.163L217.082 112.819L219.558 111.826L219.55 111.652L162.989 102.163Z" fill="black"/>
<path d="M165.059 74.5183L165.894 120.506L166.326 144.099L170.128 143.971L172.522 143.89L171.778 75.1837L170.128 74.6352L169.767 74.5183H165.059Z" fill="#F1C0C0"/>
<path opacity="0.1" d="M165.093 74.5076V74.5182L165.894 120.505L166.326 144.098L170.129 143.971V74.5076H165.093Z" fill="black"/>
<path d="M105.49 86.2628C105.713 86.3841 105.927 86.5227 106.128 86.6773C106.366 86.8858 106.58 87.1204 106.766 87.3767C107.678 88.5564 108.519 89.9275 108.43 91.4155C108.432 91.632 108.391 91.8467 108.31 92.0474C108.228 92.248 108.108 92.4306 107.956 92.5846C107.58 92.9056 107.04 92.9205 106.547 92.9205C106.011 92.9205 105.448 92.9205 104.984 92.6441C104.521 92.3678 104.134 91.83 103.586 91.8428C103.508 91.8556 103.429 91.8556 103.352 91.8428C103.163 91.7811 103.124 91.5324 103.001 91.3751C102.789 91.0924 102.34 91.1625 102.006 91.2858C101.673 91.4091 101.303 91.594 100.973 91.4516C100.782 91.3507 100.626 91.1944 100.525 91.0031C99.736 89.7277 99.5681 88.1951 99.4193 86.7135C99.3279 85.8122 98.6307 82.7384 100.554 83.4378C101.405 83.7439 102.2 84.3561 102.973 84.8046L105.49 86.2628Z" fill="#3F3D56"/>
<path d="M103.589 86.5667C103.761 86.6903 103.97 86.7528 104.181 86.7444C104.393 86.7359 104.595 86.6569 104.756 86.5199C105.073 86.2339 105.275 85.8426 105.324 85.4188C105.537 85.3529 105.645 85.6314 105.781 85.8015C106.019 86.0905 106.504 86.0863 106.721 86.3945C106.872 86.6071 106.838 86.9026 106.944 87.1428C107.082 87.4531 107.424 87.6147 107.658 87.8655C107.879 88.1396 108.038 88.4578 108.126 88.7987L108.474 89.8445C108.641 90.2795 108.748 90.7349 108.793 91.1986C108.815 91.4304 108.791 91.6642 108.721 91.8865C108.652 92.1087 108.539 92.315 108.389 92.4931C107.922 92.9969 107.154 93.0501 106.476 93.0352C106.25 93.04 106.024 93.0135 105.804 92.9565C105.203 92.7695 104.818 92.1637 104.659 91.5536C104.499 90.9435 104.516 90.3037 104.423 89.6787C104.322 89.0648 104.143 88.4663 103.891 87.8974C103.704 87.4552 103.19 86.7963 103.198 86.3265C103.351 86.3265 103.462 86.4668 103.589 86.5667Z" fill="#3F3D56"/>
<path d="M104.353 84.4134C104.253 84.1115 104.195 83.7976 104.181 83.4802C104.181 82.8425 104.472 82.243 104.765 81.6733L102.335 82.0028C102.042 82.0432 101.715 82.1027 101.549 82.3472C101.486 82.4683 101.453 82.6028 101.453 82.7394C101.453 82.8759 101.486 83.0104 101.549 83.1316C101.671 83.3741 101.768 83.6283 101.838 83.8904C101.844 84.1198 101.87 84.3482 101.917 84.5728C101.992 84.7378 102.098 84.887 102.229 85.0128C102.924 85.7823 103.445 86.69 103.964 87.5891C103.949 87.5636 105.428 86.4179 105.369 86.0438C105.335 85.8312 104.908 85.5761 104.772 85.372C104.584 85.0758 104.442 84.7525 104.353 84.4134Z" fill="#BE6F72"/>
<path d="M125.184 76.1084V78.2022L89.3302 85.1957L87.4702 86.3223H81.0527V85.1426L116.28 76.6313L125.184 76.1084Z" fill="#F1C0C0"/>
<path opacity="0.1" d="M125.184 78.2021L89.3302 85.1957L87.4702 86.3223H81.0527L116.541 78.7272L125.184 78.2021Z" fill="black"/>
<path d="M96.3981 135.547C95.9986 135.063 95.4471 134.729 94.8335 134.598C94.2198 134.468 93.58 134.549 93.0182 134.828C92.898 134.885 92.792 134.968 92.7079 135.071C92.4953 135.368 92.6314 135.779 92.6505 136.146C92.6994 137.043 91.9852 137.773 91.3432 138.4C90.9988 138.735 90.6481 139.095 90.4929 139.552C90.3377 140.009 90.4525 140.589 90.8692 140.827C91.051 140.918 91.2488 140.973 91.4516 140.989C92.1311 141.121 92.8277 141.141 93.5135 141.046C94.1916 140.916 94.857 140.532 95.1503 139.907C95.2069 139.737 95.3006 139.583 95.4245 139.454C95.7986 139.158 96.3726 139.505 96.7977 139.295C97.1485 139.12 97.1633 138.846 97.1676 138.485C97.1803 137.486 97.0315 136.355 96.3981 135.547Z" fill="#6C63FF"/>
<path d="M101.5 135.509C101.762 136.197 101.798 136.948 101.832 137.683C101.851 138.108 101.864 138.563 101.634 138.923C101.405 139.282 100.956 139.471 100.527 139.56C99.6403 139.743 98.6136 139.571 98.0418 138.867C97.6039 138.329 97.5125 137.592 97.5933 136.895C97.6613 136.323 97.8058 135.653 97.3956 135.247C97.2893 135.139 97.1511 135.062 97.0533 134.945C96.8408 134.686 96.8748 134.295 96.9896 133.976C97.1391 133.671 97.2511 133.349 97.3233 133.017C97.3403 132.86 100.201 133.128 100.465 133.258C100.824 133.434 100.769 133.729 100.877 134.087C101.028 134.584 101.317 135.032 101.5 135.509Z" fill="#6C63FF"/>
<path d="M102.025 104.971C102.587 105.334 102.803 106.049 102.891 106.712C103.131 108.529 102.71 110.366 102.678 112.2C102.648 114.77 103.392 117.387 102.757 119.876C102.376 121.364 102.699 123.065 102.342 124.568C102.236 125.014 102.04 125.435 101.938 125.881C101.726 126.848 101.949 127.86 102.249 128.806C102.344 129.061 102.405 129.328 102.429 129.599C102.415 130.017 102.309 130.426 102.119 130.798L100.844 133.814C100.701 134.152 100.14 134.208 99.7807 134.252C99.1047 134.333 98.3501 134.39 97.8123 133.972C97.2745 133.553 97.1448 132.851 97.0619 132.197C96.9029 130.94 96.8319 129.673 96.8494 128.407C96.8727 128.076 96.8433 127.744 96.7622 127.422C96.6453 127.059 96.3881 126.744 96.3179 126.36C96.2287 125.862 96.4816 125.373 96.5751 124.872C96.6393 124.413 96.6321 123.948 96.5539 123.492C96.471 122.812 96.3753 122.132 96.2669 121.456C96.1139 120.51 96.3328 119.576 96.4795 118.628C96.6177 117.738 96.4412 116.83 96.2669 115.946C96.282 116.663 96.1925 117.38 96.0012 118.071C95.8885 118.409 95.727 118.733 95.6292 119.077C95.1934 120.622 96.1224 122.244 95.9906 123.845C95.9289 124.593 95.6356 125.333 95.7185 126.07C95.7759 126.61 96.0267 127.106 96.1989 127.62C96.3711 128.134 96.4604 128.723 96.1989 129.204C95.508 130.509 96.0246 132.284 96.6432 133.623C96.7687 133.861 96.8781 134.106 96.9705 134.358C97.1533 134.962 97.0003 135.611 97.0492 136.24C96.8711 136.269 96.6888 136.257 96.5161 136.205C96.3433 136.153 96.1847 136.062 96.0522 135.94C95.9587 135.842 95.8822 135.727 95.7908 135.625C95.5354 135.382 95.233 135.193 94.9022 135.071C94.708 134.962 94.4867 134.911 94.2645 134.924C94.0309 134.989 93.8207 135.12 93.6587 135.3C93.4485 135.485 93.2254 135.655 92.9912 135.808C92.8915 135.885 92.7749 135.937 92.6511 135.959C92.5889 135.969 92.5252 135.959 92.4691 135.93C92.413 135.901 92.3674 135.856 92.3386 135.8C92.3254 135.764 92.3175 135.727 92.3153 135.689C92.2363 135.047 92.1944 134.401 92.1898 133.755C92.1898 132.643 90.8592 131.878 90.6912 130.779C90.5573 129.892 90.806 128.989 90.7231 128.096C90.6827 127.637 90.5552 127.186 90.5637 126.727C90.5637 126.43 90.6317 126.138 90.6551 125.843C90.6746 125.515 90.6696 125.186 90.6402 124.859L90.5743 123.832C90.5105 122.818 90.4404 121.783 90.0408 120.856C89.5669 119.774 89.2863 118.617 89.2117 117.438C89.1692 116.694 89.1969 115.95 89.1118 115.204C89.0353 114.53 88.8653 113.86 88.9141 113.184C88.9545 112.662 89.1267 112.156 89.1671 111.633C89.25 110.627 88.8674 109.649 88.5677 108.687C88.2679 107.724 88.0469 106.656 88.4401 105.728C88.4963 105.575 88.5899 105.439 88.7122 105.332C88.863 105.232 89.0346 105.168 89.2139 105.145C92.861 104.379 96.5993 104.141 100.314 104.437C100.92 104.472 101.508 104.655 102.025 104.971Z" fill="#3F3D56"/>
<path d="M89.9571 82.394C91.8378 82.394 93.3625 80.8693 93.3625 78.9886C93.3625 77.1079 91.8378 75.5833 89.9571 75.5833C88.0764 75.5833 86.5518 77.1079 86.5518 78.9886C86.5518 80.8693 88.0764 82.394 89.9571 82.394Z" fill="#BE6F72"/>
<path d="M89.2981 83.2421C89.347 83.4368 89.347 83.6405 89.2981 83.8352C89.2445 83.9712 89.1691 84.0976 89.0749 84.2093C88.7452 84.6345 88.3804 85.0313 87.9844 85.3954C88.1861 85.8461 88.5494 86.2048 89.0026 86.4009C89.4525 86.5924 89.9245 86.7274 90.4077 86.8027C90.6488 86.8661 90.8998 86.8834 91.1474 86.8537C91.3756 86.7963 91.5916 86.6984 91.7851 86.5646L93.677 85.4316C93.9624 85.277 94.2268 85.0862 94.4635 84.864C94.8105 84.5074 95.0068 84.0309 95.0119 83.5333C95.0207 83.4442 94.9965 83.355 94.9439 83.2825C94.8714 83.2194 94.7804 83.1814 94.6846 83.1741C94.0192 83.0274 93.4942 82.4875 93.1966 81.8753C92.9275 81.2477 92.7535 80.5836 92.68 79.9048L90.6627 80.9676C90.363 81.1271 90.0654 81.2865 89.7551 81.4247C89.5574 81.5139 89.1578 81.5883 89.0175 81.769C88.7496 82.1027 89.2279 82.8404 89.2981 83.2421Z" fill="#BE6F72"/>
<path d="M87.9975 84.7768C87.7103 85.0123 87.4861 85.3154 87.345 85.6589C87.2132 86.0841 87.345 86.5326 87.464 86.9535C88.0219 88.7474 88.4482 90.5797 88.7394 92.4356C88.918 93.7111 88.9839 95.0056 89.071 96.2959C89.2496 98.9275 89.5089 103.124 89.8554 105.738C91.1308 105.796 92.3743 105.424 93.6391 105.288C96.0029 105.037 98.4368 105.611 100.752 105.075C100.191 102.858 99.6293 99.0721 99.0682 96.8571C98.8198 95.9844 98.6477 95.0918 98.5537 94.1893C98.5048 93.541 98.5346 92.8905 98.5431 92.238C98.5622 90.9625 98.4921 89.6871 98.4219 88.4117C98.3412 86.9237 98.2604 85.4357 97.9075 83.9796C97.8829 83.7941 97.796 83.6225 97.6609 83.4929C97.4484 83.3377 97.172 83.393 96.9191 83.427C96.1445 83.5253 95.3606 83.3396 94.7126 82.904C94.432 82.7127 94.0558 82.4789 93.7943 82.6915C93.6827 82.8197 93.6091 82.9765 93.5817 83.1443C93.466 83.445 93.2875 83.7175 93.058 83.9437C92.8285 84.1699 92.5534 84.3445 92.2511 84.4558C91.6453 84.6752 91.0109 84.8055 90.3677 84.8427C90.1709 84.8849 89.9656 84.8618 89.7831 84.7768C89.4813 84.5918 89.46 83.9265 89.0795 83.8819C88.7458 83.8436 88.2229 84.5621 87.9975 84.7768Z" fill="#3F3D56"/>
<path d="M93.027 89.9679C92.2426 89.2175 91.8983 88.1292 91.3264 87.2045C90.9371 86.5827 90.4396 86.0356 89.8576 85.589C89.565 85.3957 89.2967 85.1681 89.0583 84.9109C88.8564 84.6622 88.7033 84.3306 88.3972 84.2349C88.2708 84.2074 88.1395 84.211 88.0147 84.2454C87.8899 84.2799 87.7754 84.3441 87.6809 84.4326C87.4935 84.6112 87.3161 84.7999 87.1495 84.998C86.2482 85.9312 84.6645 86.0609 83.9503 87.1407C83.7576 87.3697 83.6266 87.6441 83.5698 87.9379C83.3642 89.5095 83.7706 91.1001 84.7049 92.3805C84.8858 92.6773 85.1636 92.9026 85.4914 93.0183C85.447 93.4146 85.4995 93.8158 85.6445 94.1874C86.0381 95.5327 86.5217 96.8501 87.0921 98.1306C86.9557 98.6314 86.8604 99.1426 86.8072 99.6589C86.6584 100.958 86.7966 102.276 86.6563 103.577C86.5415 104.639 86.2312 105.675 86.2205 106.74C86.2205 106.91 86.2354 107.112 86.3821 107.199C86.4601 107.239 86.5475 107.257 86.635 107.252L89.2497 107.331C90.7674 107.375 92.3 107.42 93.7944 107.139C93.9934 107.11 94.1864 107.049 94.3662 106.959C94.8721 106.676 95.04 106.038 95.1208 105.471C95.2263 104.734 95.2683 103.99 95.2462 103.247C95.563 104.248 95.9392 105.284 96.8958 105.717C97.4017 105.947 97.9799 105.93 98.5347 105.915C99.7305 105.862 100.922 105.739 102.104 105.547C102.177 105.556 102.25 105.548 102.32 105.523C102.389 105.499 102.451 105.458 102.502 105.405C102.552 105.352 102.59 105.288 102.611 105.218C102.632 105.147 102.637 105.073 102.625 105.001L102.637 103.84C102.663 101.483 102.078 99.2295 101.851 96.8828C101.778 96.143 101.785 95.3948 101.604 94.6699C101.53 94.3659 101.421 94.0683 101.355 93.7622C101.299 93.4626 101.263 93.1593 101.249 92.8546L101.083 90.5163C101.005 89.4343 100.892 88.3906 100.809 87.3108C100.764 86.2593 100.611 85.2151 100.354 84.1945C100.169 83.5568 99.7846 82.8341 99.1192 82.7554C98.7642 82.715 98.4199 82.8702 98.0819 82.9786C97.2512 83.2401 96.3596 83.2364 95.5311 82.968C95.2751 82.8669 95.0083 82.7956 94.7361 82.7554C94.599 82.7368 94.4594 82.7549 94.3317 82.8079C94.204 82.861 94.0926 82.947 94.0091 83.0573C93.9266 83.2233 93.8878 83.4077 93.8964 83.5929C93.7965 85.7165 93.6116 87.9038 93.027 89.9679Z" fill="#6C63FF"/>
<path d="M89.6067 90.0316C88.6268 88.9985 87.6213 87.9463 86.3587 87.2895C85.8613 87.0301 85.2958 86.8346 84.7453 86.9324C84.1947 87.0301 83.6824 87.5084 83.7079 88.0675C83.725 88.414 83.9354 88.7201 84.0013 89.0602C84.0778 89.4428 83.9673 89.8509 84.0863 90.2208C84.183 90.4645 84.3276 90.6864 84.5115 90.8734L86.0164 92.6569C86.6542 93.4009 87.2919 94.1555 88.1124 94.6699C88.9329 95.1843 89.9957 95.4245 90.897 95.0589C91.5383 94.7608 92.0715 94.2715 92.4233 93.6581C92.7974 93.0629 93.061 92.4124 93.4117 91.7981C93.9576 90.8165 94.678 89.9427 95.5374 89.2196C95.0953 89.1048 94.5405 88.9433 94.262 88.5819C94.1827 88.467 94.1151 88.3445 94.0601 88.2163L93.7157 87.4723C93.5986 87.4662 93.4815 87.4844 93.3717 87.5257C93.262 87.5671 93.162 87.6306 93.078 87.7125C92.9303 87.8832 92.772 88.0443 92.604 88.195C92.3042 88.4204 91.8982 88.482 91.6261 88.7392C91.5209 88.8496 91.4256 88.9691 91.3413 89.0963C91.1355 89.3668 90.8743 89.5902 90.5751 89.7515C90.276 89.9128 89.9458 90.0083 89.6067 90.0316Z" fill="#3F3D56"/>
<path d="M95.615 85.5868C96.3526 84.2413 96.3186 82.6279 96.5291 81.108C96.5519 80.7055 96.6931 80.3187 96.9351 79.9962C97.3602 79.5158 98.1106 79.5095 98.7526 79.5711C98.9417 79.5924 99.1777 79.6816 99.1671 79.8708C99.1522 79.9386 99.1191 80.0011 99.0714 80.0515C98.4492 80.8546 98.0833 81.8264 98.0213 82.8404C98.355 83.0721 98.8716 82.596 99.1926 82.8404C99.4051 83.019 99.3074 83.3718 99.1798 83.6269C98.8836 84.2179 98.5782 84.8046 98.2636 85.387C98.0125 85.9004 97.685 86.3727 97.2922 86.7878C97.0222 87.0472 96.7055 87.2512 96.4313 87.5063C95.7936 88.1036 95.4088 88.9475 94.7499 89.53C94.6942 89.5903 94.6188 89.6287 94.5373 89.6384C94.4535 89.6324 94.3744 89.597 94.3141 89.5385C93.9849 89.2707 93.7119 88.9406 93.5106 88.567C93.2598 88.1036 93.298 87.9676 93.6934 87.6402C94.4331 87.0557 95.1538 86.4286 95.615 85.5868Z" fill="#BE6F72"/>
<path d="M88.3732 89.1174C88.5007 89.1961 88.658 89.2853 88.7983 89.2195C88.8556 89.1848 88.9043 89.1375 88.9407 89.0813C89.1837 88.757 89.3865 88.4044 89.5444 88.0312C89.5716 87.9785 89.5869 87.9204 89.5891 87.8611C89.5891 87.7251 89.4679 87.6252 89.3552 87.5465C88.7516 87.1618 88.1025 86.8533 87.423 86.6282C86.8618 86.4157 86.2751 86.2307 85.6799 86.2839C85.4563 86.2989 85.238 86.359 85.0382 86.4605C84.8383 86.5621 84.6611 86.703 84.5172 86.8748C84.092 87.4211 84.8041 87.5869 85.2505 87.7846C86.2836 88.2544 87.4017 88.5265 88.3732 89.1174Z" fill="#6C63FF"/>
<path opacity="0.1" d="M87.7036 92.7311C87.6964 92.7796 87.7007 92.8291 87.7162 92.8757C87.7317 92.9222 87.758 92.9644 87.7928 92.9989C87.8545 92.6971 87.7737 92.3782 87.8375 92.0742C87.931 91.6172 88.3753 91.2729 88.4135 90.8137C87.5994 90.6543 87.7099 92.2379 87.7036 92.7311Z" fill="black"/>
<path opacity="0.2" d="M125.184 76.1084V78.2022L116.541 78.7272L116.279 76.6313L125.184 76.1084Z" fill="black"/>
<path d="M86.8921 79.4944C87.4321 79.0544 87.1196 78.1319 87.4852 77.5409C87.6978 77.2178 88.057 77.0478 88.4099 76.9032C88.8358 76.7039 89.292 76.5775 89.7597 76.5291C89.9939 76.5066 90.2302 76.5371 90.451 76.6185C90.6718 76.6998 90.8715 76.8298 91.0351 76.9989C91.1733 77.1562 91.2668 77.3475 91.3965 77.5112C91.5571 77.7021 91.7664 77.846 92.0022 77.9276C92.2379 78.0092 92.4914 78.0254 92.7357 77.9746C93.0184 77.9108 93.3117 77.6961 93.2926 77.407C93.2607 77.2312 93.1709 77.071 93.0375 76.9521L92.4296 76.2783C91.7387 75.513 90.9714 74.701 89.9574 74.5097C89.2517 74.3758 88.5289 74.5649 87.8487 74.7924C87.5745 74.8838 87.2663 75.0198 87.1897 75.2983C87.1387 75.4896 87.2153 75.6979 87.1706 75.8914C87.0835 76.2761 86.5903 76.4058 86.3607 76.7289C86.1312 77.052 86.2013 77.4346 86.1354 77.7918C86.0695 78.1489 85.8782 78.4975 85.8548 78.8673C85.8399 79.0905 85.9526 79.5051 86.2034 79.5858C86.4543 79.6666 86.737 79.2287 86.8921 79.4944Z" fill="#3F3D56"/>
<path d="M93.0857 77.101C92.9064 76.1658 92.52 75.2826 91.9548 74.5162C91.4522 73.8002 90.753 73.245 89.9418 72.9177C89.5362 72.7592 89.1 72.6947 88.666 72.7289C88.2319 72.7631 87.8112 72.8953 87.4356 73.1154C86.8779 73.5135 86.4439 74.0609 86.1835 74.6948C85.633 75.8809 85.4289 77.3306 86.0687 78.47C86.3238 78.1596 86.7617 78.2999 87.1486 78.1873C87.6333 78.0491 88.0435 77.726 88.5048 77.524C89.8971 76.9097 91.5977 77.4071 93.0857 77.101Z" fill="#FED253"/>
<path opacity="0.1" d="M86.3945 77.0351C86.3456 76.6525 86.3137 76.2082 86.5858 75.9361C86.5993 75.9195 86.6165 75.9062 86.6361 75.8973C86.6557 75.8885 86.677 75.8843 86.6985 75.8851C86.7174 75.8913 86.7349 75.9012 86.7499 75.9144C86.7649 75.9276 86.777 75.9436 86.7856 75.9616C86.9427 76.2095 87.0764 76.4714 87.1852 76.7439C87.0268 76.7074 86.8611 76.7193 86.7095 76.778C86.5579 76.8368 86.4274 76.9396 86.335 77.0734" fill="black"/>
<path opacity="0.1" d="M91.3626 75.9553L91.2861 75.1964C91.2737 75.1339 91.2789 75.0692 91.301 75.0094C91.333 74.9593 91.3825 74.9229 91.4398 74.9072C91.4971 74.8915 91.5582 74.8976 91.6113 74.9244C91.7159 74.9823 91.8021 75.0685 91.86 75.1731C92.037 75.4447 92.1838 75.7348 92.2979 76.0382C91.9555 75.9723 91.6033 75.9766 91.2627 76.051" fill="black"/>
<path opacity="0.1" d="M93.2638 106.754V108.489L91.7992 108.587H84.0957V106.754H93.2638Z" fill="black"/>
<path d="M93.2645 106.754V108.587H84.0964L59.7402 78.0767V76.6355H64.8461L93.2645 106.754Z" fill="#F1C0C0"/>
<path opacity="0.1" d="M93.2645 106.754V108.587H84.0964L59.7402 78.0767V76.6355H64.8461L93.2645 106.754Z" fill="black"/>
<path opacity="0.1" d="M93.2645 106.754V108.587H84.0964L59.7402 78.0767V76.6355L84.2282 106.754H93.2645Z" fill="black"/>
<path d="M62.9331 137.334C62.9492 137.421 62.9472 137.509 62.9275 137.595C62.9077 137.68 62.8705 137.761 62.8182 137.831C62.766 137.901 62.6997 137.96 62.6237 138.004C62.5476 138.048 62.4634 138.075 62.3762 138.085C61.7853 138.285 61.1582 138.482 60.7394 138.935C60.3206 139.388 60.2377 140.227 60.7394 140.595C60.9958 140.75 61.2903 140.83 61.5897 140.827C62.5526 140.893 63.556 140.88 64.4296 140.472C65.0546 140.183 65.6434 139.69 66.33 139.734C66.685 139.756 67.0633 139.921 67.3801 139.76C67.6968 139.598 67.7861 139.148 67.7882 138.771C67.7963 137.986 67.6778 137.204 67.4375 136.457C67.4056 136.354 66.0536 136.276 65.8921 136.244L64.2532 136.031C63.9428 135.991 63.2732 135.757 63.0288 136.017C62.7843 136.276 62.9331 137.026 62.9331 137.334Z" fill="#6C63FF"/>
<path d="M72.7131 132.029C72.7825 132.412 72.8951 132.785 73.0489 133.143C73.2764 133.721 73.5676 134.335 74.1245 134.616C74.6305 134.869 75.2512 134.777 75.7656 134.537C75.9803 134.448 76.1684 134.305 76.3119 134.123C76.4778 133.833 76.552 133.5 76.5244 133.168C76.5244 132.345 76.4756 131.495 76.0993 130.764C75.7762 130.126 75.2129 129.578 75.2044 128.872L73.2679 129.246C73.1642 129.256 73.0655 129.295 72.983 129.359C72.9217 129.423 72.8791 129.504 72.8598 129.591C72.653 130.386 72.6032 131.214 72.7131 132.029Z" fill="#6C63FF"/>
<path d="M49.588 111.835C49.5073 112.519 49.5413 113.253 49.8984 113.844C50.2555 114.435 51.008 114.826 51.6585 114.59C51.6918 114.581 51.7231 114.566 51.7505 114.545C51.7778 114.525 51.8008 114.498 51.8179 114.469C51.8352 114.397 51.8254 114.321 51.7903 114.256C51.5031 113.49 51.5267 112.641 51.8562 111.892C51.8987 111.794 51.9901 111.68 52.09 111.718C52.1318 111.739 52.1654 111.773 52.1856 111.816C52.2885 111.994 52.3401 112.197 52.3344 112.402C52.3044 112.589 52.2987 112.778 52.3174 112.966C52.3578 113.149 52.5534 113.321 52.7234 113.242C52.7726 113.212 52.8151 113.172 52.8484 113.125C52.8816 113.078 52.9049 113.024 52.9169 112.968C53.3909 111.597 53.1762 110.098 52.9594 108.663C52.9612 108.63 52.9557 108.597 52.9434 108.567C52.9311 108.536 52.9122 108.509 52.8881 108.486C52.864 108.464 52.8352 108.447 52.8038 108.437C52.7724 108.426 52.7392 108.423 52.7064 108.427C51.7031 108.327 51.1547 108.087 50.5807 109.02C50.0876 109.807 49.588 110.889 49.588 111.835Z" fill="#6C63FF"/>
<path d="M61.3176 108.347C61.02 109.584 60.7203 110.836 60.7012 112.107C60.7064 112.899 60.7661 113.689 60.8797 114.473L61.1029 116.314C61.1795 116.934 61.2539 117.553 61.3623 118.167C61.4314 118.484 61.4692 118.806 61.4749 119.13C61.4541 119.449 61.4035 119.766 61.324 120.076C61.1903 120.727 61.1156 121.389 61.1008 122.053C61.0774 123.116 61.2092 124.179 61.2921 125.241C61.4576 127.359 61.4327 129.488 61.2177 131.602C61.1319 132.172 61.2557 132.754 61.5663 133.24C61.6924 133.394 61.7961 133.564 61.8746 133.746C62.034 134.233 61.662 134.72 61.5663 135.219C61.5051 135.609 61.6011 136.007 61.833 136.326C62.065 136.645 62.414 136.858 62.8035 136.92C64.504 137.122 66.2514 137.031 67.784 137.809C67.9455 137.337 67.5927 136.801 67.7542 136.321C67.8562 136.023 68.1368 135.83 68.3282 135.579C68.5852 135.197 68.7133 134.742 68.6938 134.282C68.7013 133.681 68.5945 133.085 68.3792 132.524C68.1985 132.056 67.9392 131.595 67.954 131.094C67.954 130.847 68.0412 130.588 67.9413 130.36C67.8728 130.229 67.7797 130.113 67.6671 130.018C67.0318 129.322 66.6414 128.437 66.5553 127.499C66.4724 126.568 66.5024 125.63 66.6446 124.706C66.7488 123.826 66.8891 122.897 67.4481 122.21C67.1889 120.128 67.3413 118.016 67.8966 115.993C67.9519 115.806 68.0391 115.589 68.2304 115.544C68.3064 115.536 68.3831 115.547 68.4542 115.575C68.5252 115.603 68.5884 115.648 68.6385 115.706C68.9722 116.018 69.1317 116.471 69.2762 116.905C69.4356 117.374 69.5972 117.876 69.476 118.356C69.425 118.569 69.323 118.756 69.2635 118.96C69.1341 119.37 69.1568 119.813 69.3272 120.208C69.4103 120.352 69.4624 120.512 69.4803 120.678C69.4606 120.82 69.4175 120.958 69.3527 121.086C69.2739 121.337 69.2489 121.603 69.2793 121.864C69.3097 122.126 69.3948 122.379 69.5292 122.606C69.8001 123.057 70.1344 123.467 70.5219 123.824C70.3368 124.64 70.3846 125.491 70.66 126.281C70.6799 126.317 70.6926 126.356 70.6973 126.396C70.7021 126.437 70.6988 126.478 70.6877 126.517C70.6494 126.598 70.5516 126.627 70.4751 126.685C70.2625 126.859 70.3943 127.189 70.5368 127.416C70.9271 128.04 71.3581 128.638 71.827 129.206C72.2522 129.714 72.2139 130.694 72.8474 130.877C73.1136 130.934 73.389 130.934 73.6551 130.877C74.2801 130.781 74.9773 130.6 75.2834 130.048C75.4088 129.82 75.4599 129.544 75.6554 129.374C75.851 129.204 76.1039 129.174 76.2123 128.97C76.3208 128.766 76.1996 128.498 76.2357 128.262C76.2719 128.026 76.4781 127.837 76.544 127.588C76.7013 127.014 76.0317 126.542 75.9403 125.956C75.8085 125.105 76.8798 124.468 76.8352 123.617C76.7416 121.77 76.6821 119.915 76.5865 118.067C76.4664 116.413 76.4494 114.752 76.5355 113.095C76.6099 112.064 76.748 110.984 76.3696 110.026C75.8255 108.674 74.3247 107.915 72.8729 107.77C71.421 107.626 69.9734 107.97 68.5343 108.196C66.1459 108.564 63.7193 108.614 61.3176 108.347Z" fill="#3F3D56"/>
<path d="M65.6329 88.0292C67.5136 88.0292 69.0383 86.5046 69.0383 84.6239C69.0383 82.7431 67.5136 81.2185 65.6329 81.2185C63.7522 81.2185 62.2275 82.7431 62.2275 84.6239C62.2275 86.5046 63.7522 88.0292 65.6329 88.0292Z" fill="#FBBEBE"/>
<path d="M64.2477 88.6647C64.132 88.934 63.9375 89.1621 63.6897 89.3188C63.442 89.4755 63.1526 89.5535 62.8596 89.5426C62.7363 90.0527 63.0318 90.5672 63.3698 90.9689C64.0716 91.7856 64.9786 92.4003 65.9972 92.7497C67.0157 93.0991 68.1091 93.1704 69.1644 92.9564C69.5751 92.8829 69.9647 92.7204 70.3059 92.4803C70.7659 92.0962 71.0747 91.5614 71.1775 90.971C71.2753 90.3848 71.3031 89.7889 71.2604 89.1961C71.2723 89.079 71.2388 88.9618 71.1668 88.8687C71.0818 88.8029 70.9767 88.7684 70.8692 88.771C70.1507 88.7072 69.4004 88.6795 68.769 88.3267C68.1377 87.9738 67.6892 87.1767 67.9932 86.522C67.9443 86.624 66.7029 86.6729 66.5392 86.6942C66.0269 86.7664 65.5146 86.8472 65.0044 86.9407C64.7593 86.9542 64.517 86.9999 64.2838 87.0768C63.9756 87.2362 64.0904 87.1576 64.1627 87.4467C64.2711 87.8888 64.4305 88.2055 64.2477 88.6647Z" fill="#FBBEBE"/>
<path d="M66.8378 90.7351C66.3792 90.7404 65.9216 90.6898 65.4753 90.5842C65.0246 90.479 64.6273 90.2139 64.3572 89.8381C64.1999 89.6 64.0978 89.3003 63.847 89.1664C63.4367 88.9538 62.9691 89.3131 62.6417 89.6425C62.3437 89.9675 61.9982 90.2455 61.6171 90.4673C61.1622 90.7075 60.6308 90.7925 60.2014 91.0753C59.866 91.3287 59.5781 91.6396 59.3512 91.9936L56.3391 96.0961C55.1295 97.7457 54.0773 99.5164 52.9996 101.257C52.0664 102.764 51.5775 104.499 50.8739 106.125C50.8182 106.225 50.7951 106.339 50.808 106.453C50.8335 106.563 50.9674 106.652 51.061 106.589C50.7442 106.903 51.0227 107.439 50.9483 107.881C50.8637 108.19 50.6873 108.467 50.4424 108.674C50.9103 108.613 51.3852 108.635 51.8453 108.74C52.3208 108.875 52.7696 109.09 53.1718 109.377C53.429 109.337 53.4056 108.88 53.5969 108.71C53.7117 108.61 53.8818 108.623 54.0327 108.593C54.6002 108.483 54.8256 107.8 55.2613 107.415C55.6248 107.094 56.1392 106.99 56.524 106.688C57.1489 106.197 57.2829 105.324 57.6102 104.599C57.8887 103.985 58.3266 103.449 58.571 102.82C58.7305 102.412 58.807 101.969 59.0344 101.593C59.3979 100.985 60.0824 100.662 60.735 100.371C61.1474 100.186 61.5853 99.9947 62.0295 100.024C62.0061 101.013 61.8807 101.986 62.0954 102.952C62.1698 103.292 62.274 103.623 62.3633 103.961C62.7693 105.483 62.8649 107.069 62.8841 108.638C63.8607 108.414 64.8582 108.295 65.86 108.281C66.6487 108.257 67.4352 108.359 68.2238 108.344C69.1591 108.327 70.0838 108.147 71.0191 108.083C71.9544 108.019 72.9322 108.083 73.7591 108.508C73.692 107.161 73.7296 105.811 73.8718 104.469L74.0971 102.356C74.1479 101.742 74.2424 101.133 74.3798 100.532C74.5031 100.048 74.6816 99.5802 74.8177 99.0976C75.296 97.3971 75.2088 95.5817 75.1174 93.811C75.0706 92.9012 74.7199 92.0063 74.3075 91.1964C74.1583 90.8956 73.9878 90.6058 73.7974 90.3291C73.299 89.6425 72.6349 89.0934 71.867 88.7328C71.099 88.3722 70.2523 88.2121 69.4057 88.2672C69.2975 88.2706 69.1909 88.2936 69.0911 88.3352C68.9117 88.4501 68.7715 88.617 68.6893 88.8135C68.2495 89.604 67.6114 90.2663 66.8378 90.7351Z" fill="#3F3D56"/>
<path d="M62.6381 85.7526C62.7337 85.54 62.991 85.4614 63.1483 85.2913C63.4501 84.9682 63.3141 84.4517 63.3608 84.0159C63.4373 83.3782 63.9666 82.8447 64.5725 82.6172C65.1903 82.4189 65.8477 82.3773 66.4856 82.496C66.7926 82.5184 67.0893 82.6171 67.3486 82.783C67.4592 82.8638 67.5612 82.9679 67.6653 83.0423C67.8552 83.1571 68.0824 83.1931 68.2985 83.1427C68.5145 83.0922 68.7023 82.9593 68.8217 82.7724C68.0692 81.8668 67.236 80.9103 66.0923 80.6318C65.7 80.5517 65.3002 80.5139 64.8998 80.5191C64.3705 80.5085 63.8242 80.5 63.3353 80.702C62.67 80.9762 62.2023 81.6075 61.9621 82.2877C61.7521 82.9772 61.6397 83.6927 61.6284 84.4134C61.5848 84.8942 61.5848 85.378 61.6284 85.8589C61.7106 86.5155 61.9545 87.1415 62.3384 87.6806C62.3903 87.7643 62.4637 87.8326 62.5509 87.8783C63.5203 88.3034 62.5594 85.929 62.6381 85.7526Z" fill="#3F3D56"/>
<path d="M68.7105 82.2473C68.5936 81.2461 67.8794 80.4192 67.1205 79.7538C66.5089 79.1769 65.7803 78.7383 64.9842 78.4678C64.1828 78.2318 63.2602 78.2829 62.5736 78.7611C62.021 79.1459 61.6702 79.7581 61.4003 80.3745C61.0456 81.102 60.87 81.9037 60.888 82.7128C60.9411 83.5163 61.3322 84.3305 62.0295 84.7365C62.2803 84.3666 62.7161 84.1753 63.1348 84.0244C64.96 83.3319 66.8213 82.7386 68.7105 82.2473Z" fill="#FED253"/>
<path opacity="0.1" d="M62.2624 81.8307C62.3305 81.8307 62.3751 81.9008 62.4091 81.9582C62.5822 82.2279 62.7309 82.5124 62.8534 82.8085C62.6047 82.8616 62.1774 82.9212 62.0541 82.7022C61.9882 82.5917 62.0669 81.82 62.2624 81.8307Z" fill="black"/>
<path opacity="0.1" d="M67.1088 81.3502C67.0578 81.3991 66.9983 81.2992 66.9983 81.2269V80.4021C66.9969 80.3792 67.002 80.3563 67.0131 80.3362C67.022 80.3262 67.0327 80.3179 67.0448 80.3121C67.0568 80.3063 67.0699 80.3029 67.0833 80.3022C67.2555 80.2831 67.3979 80.4298 67.5084 80.5701C67.6762 80.7974 67.8221 81.0401 67.9442 81.2949L67.045 81.2673" fill="black"/>
<path d="M78.3293 95.0078C78.525 94.8222 78.7338 94.6509 78.9543 94.4955C79.5431 94.1023 80.2552 93.9471 80.9163 93.6963C81.5774 93.4455 82.2491 93.0394 82.5063 92.3805C82.6351 91.9684 82.6771 91.5342 82.6296 91.1051C82.6358 90.9254 82.6039 90.7465 82.5361 90.58C82.4552 90.4329 82.34 90.3075 82.2002 90.2144C81.3032 89.5512 80.1001 89.498 78.9862 89.5661C76.5305 89.7184 74.1234 90.3192 71.8843 91.3389C71.7658 91.378 71.6621 91.4521 71.5867 91.5515C71.5431 91.6436 71.5233 91.7452 71.5293 91.8469C71.4897 92.4738 71.5712 93.1024 71.7695 93.6984C72.0628 94.4552 72.6665 95.0652 72.9195 95.8369C73.0343 96.1833 73.0725 96.5511 73.1724 96.8997C73.2544 97.2597 73.4673 97.5764 73.7697 97.7882C74.6094 98.2899 75.4023 97.6161 75.9847 97.0931L78.3293 95.0078Z" fill="#3F3D56"/>
<path d="M67.3332 97.952L66.2554 95.6009C66.0974 95.2751 65.9611 94.9393 65.8473 94.5955C65.724 94.1852 65.6645 93.7601 65.5497 93.3477C65.1713 91.9745 64.2169 90.8309 63.7514 89.4853C63.7219 89.3638 63.6619 89.2519 63.5771 89.1601C63.5091 89.112 63.4314 89.0795 63.3495 89.0648C63.2676 89.0501 63.1835 89.0536 63.103 89.0751C62.4526 89.1877 61.9445 89.683 61.3493 89.9636C61.073 90.0911 60.7754 90.1762 60.4991 90.3228C60.3609 90.3883 60.2385 90.4827 60.1402 90.5997C60.0419 90.7167 59.97 90.8536 59.9294 91.0009C59.8635 91.3262 60.025 91.6386 60.1611 91.9554C60.7393 93.2605 60.8711 94.7188 60.8966 96.1472C60.9157 97.1081 60.8668 98.139 60.2993 98.9106C59.2088 100.399 59.906 102.584 60.3141 104.384C60.363 104.597 60.4204 104.826 60.4544 105.052C60.4904 105.334 60.5067 105.618 60.5033 105.902C60.5033 106.856 60.4502 107.841 60.0505 108.706C60.4451 108.916 60.8799 109.039 61.326 109.067C62.5603 109.224 63.7996 109.335 65.0438 109.399C65.4336 109.435 65.8267 109.415 66.2108 109.339C66.6669 109.216 67.069 108.944 67.3534 108.567C67.6379 108.19 67.7886 107.729 67.7817 107.256C67.8497 107.845 67.9751 108.485 68.4024 108.893C68.8297 109.301 69.4525 109.363 70.0328 109.395C71.6706 109.481 73.3128 109.435 74.9431 109.256C75.0472 109.252 75.1495 109.228 75.245 109.186C75.5596 109.029 75.5766 108.595 75.5511 108.247C75.5043 107.594 75.4554 106.942 75.3768 106.293C75.3101 105.88 75.276 105.462 75.2748 105.043C75.3072 104.613 75.3783 104.186 75.4873 103.768C75.7722 102.441 75.9975 101.087 75.9018 99.729C75.864 99.3981 75.8505 99.0649 75.8614 98.7321C75.9167 97.9817 76.3121 97.2675 76.2377 96.5214C76.0251 94.3277 75.8529 92.0765 75.2407 89.9594C75.1302 89.581 74.9899 89.175 74.6604 88.9582C74.2353 88.6733 73.638 88.8221 73.1512 88.6414C72.9228 88.5351 72.7056 88.4062 72.5029 88.2567C72.0624 87.9812 71.5574 87.8258 71.0382 87.806C70.6471 87.7911 70.2114 87.8783 69.9754 88.1929C69.8661 88.37 69.7938 88.5674 69.7628 88.7732C69.4546 90.0699 69.0932 91.3517 68.7319 92.6335L68.3854 93.8621L67.4565 97.1612C67.3651 97.5119 67.4267 97.6203 67.3332 97.952Z" fill="#6C63FF"/>
<path d="M72.7689 85.0808L93.3307 106.688V108.521H84.1626L68.7109 88.3544" fill="#F1C0C0"/>
<path opacity="0.1" d="M72.7689 85.0808L93.3307 106.688V108.521H84.1626L68.7109 88.3544" fill="black"/>
<path opacity="0.1" d="M69.0383 88.0696L69.1042 88.093L84.2944 106.689H93.3307V108.521H84.1626L68.7109 88.3544L69.0383 88.0696Z" fill="black"/>
<path d="M71.4034 88.5246C70.6594 88.8498 69.8325 89.2664 69.6093 90.0487C69.5652 90.186 69.5557 90.332 69.5817 90.4738C69.636 90.6406 69.7397 90.787 69.879 90.8936C70.0183 91.0003 70.1866 91.0622 70.3618 91.0711C70.7118 91.0796 71.0599 91.0159 71.3842 90.8841L75.7738 89.4344C75.8928 89.3961 76.0289 89.3387 76.0586 89.2218C76.0663 89.1483 76.0515 89.0741 76.0161 89.0092C75.8801 88.6776 75.7462 87.9995 75.4613 87.7678C75.2275 87.5808 74.7641 87.6467 74.4814 87.6509C73.393 87.6594 72.3706 88.0994 71.4034 88.5246Z" fill="#6C63FF"/>
<path d="M75.3173 89.6065C76.0568 89.6044 76.7921 89.7184 77.4961 89.9445C78.2034 90.1741 78.8298 90.6021 79.3009 91.1774C79.438 91.3382 79.5356 91.529 79.5857 91.7343C79.6282 91.9469 80.3212 92.0745 80.1681 92.219C80.6337 92.1446 80.5231 92.3635 80.995 92.3593C81.4669 92.355 81.9771 92.2339 82.2598 91.8576C82.4562 91.5485 82.5438 91.1827 82.5085 90.8182C82.5147 90.5658 82.4669 90.315 82.3682 90.0827C82.1557 89.6363 81.6668 89.3961 81.2161 89.1899L77.4196 87.4532C77.1994 87.3361 76.963 87.2522 76.7181 87.2045C76.5121 87.185 76.3044 87.19 76.0996 87.2194L74.3799 87.4171C74.756 87.6604 75.0621 87.9976 75.2683 88.3953C75.4744 88.793 75.5734 89.2376 75.5554 89.6852" fill="#3F3D56"/>
</g>
<defs>
<clipPath id="clip0_714_13339">
<rect width="250.368" height="154" fill="white"/>
</clipPath>
</defs>
</svg>
