<svg width="200" height="140" viewBox="0 0 200 140" fill="none" xmlns="http://www.w3.org/2000/svg">
<g clip-path="url(#clip0_774_14801)">
<path d="M167.107 21.4061L151.679 21.5564C150.954 17.9863 148.517 8.61885 150.711 6.06378C150.811 5.10213 151.278 4.21609 152.015 3.59013C152.752 2.96417 153.702 2.64652 154.667 2.7033V2.7033C157.058 -1.03991 161.042 -0.477892 163.734 1.8599C166.443 2.79476 167.464 4.45558 167.107 6.70939C169.114 8.4657 169.484 10.6025 168.583 13.0348L167.107 21.4061Z" fill="#2F2E41"/>
<path d="M165.622 30.9104L154.491 29.3692L152.265 26.1155C155.331 24.0812 156.417 21.24 155.005 17.3818L162.711 17.2105C162.35 20.6463 163.486 23.3066 166.65 24.9167L165.622 30.9104Z" fill="#FFB9B9"/>
<path d="M151.859 131.311L151.434 137.129C151.414 137.393 151.452 137.657 151.543 137.905C151.634 138.153 151.778 138.378 151.963 138.566C152.149 138.754 152.372 138.9 152.619 138.994C152.866 139.089 153.129 139.129 153.393 139.113L156.382 138.932C156.52 138.924 156.655 138.885 156.777 138.819C156.899 138.752 157.004 138.66 157.086 138.548C157.169 138.436 157.225 138.308 157.252 138.171C157.278 138.035 157.275 137.895 157.241 137.76L155.582 131.125L151.859 131.311Z" fill="#E6E6E6"/>
<path d="M161.535 131.125L159.876 137.76C159.842 137.895 159.839 138.035 159.865 138.171C159.892 138.308 159.948 138.436 160.03 138.548C160.113 138.66 160.218 138.752 160.34 138.819C160.462 138.885 160.597 138.924 160.735 138.932L163.724 139.113C163.987 139.129 164.251 139.089 164.498 138.994C164.745 138.9 164.968 138.754 165.154 138.566C165.339 138.378 165.483 138.153 165.574 137.905C165.665 137.657 165.703 137.393 165.683 137.129L165.258 131.311L161.535 131.125Z" fill="#E6E6E6"/>
<path d="M165.451 132.118L161.417 131.714L157.402 88.7926L155.884 131.575L151.922 131.434L145.243 72.1813H170.759L165.451 132.118Z" fill="#1D308D"/>
<path d="M159.286 20.1217C163.542 20.1217 166.992 16.6716 166.992 12.4155C166.992 8.15952 163.542 4.70934 159.286 4.70934C155.03 4.70934 151.58 8.15952 151.58 12.4155C151.58 16.6716 155.03 20.1217 159.286 20.1217Z" fill="#FFB9B9"/>
<path d="M174.527 73.5514L143.359 73.8939C147.985 56.2856 150.752 39.9289 145.928 28.6842L153.634 24.9167C157.35 28.7924 161.488 28.3928 165.964 24.5742L173.328 26.458C172.067 41.2037 172.632 56.9965 174.527 73.5514Z" fill="#0E865B"/>
<path d="M134.797 55.399L154.148 63.1052L158.474 64.3777C158.668 64.4346 158.871 64.4518 159.071 64.4283C159.272 64.4048 159.465 64.341 159.64 64.2408C159.815 64.1406 159.968 64.006 160.09 63.8452C160.212 63.6843 160.3 63.5005 160.349 63.3049C160.434 62.9617 160.396 62.5993 160.24 62.2819C160.084 61.9644 159.821 61.7125 159.497 61.5707L155.004 60.194L141.476 52.3165L144.301 44.8672L138.393 41.6991L134.797 55.399Z" fill="#FFB9B9"/>
<path d="M134.969 41.3566C138.65 42.7929 141.579 45.2443 143.874 48.5491L151.066 38.1029L145.929 28.6842L134.969 41.3566Z" fill="#0E865B"/>
<path d="M167.971 11.1666C164.843 10.3607 161.768 10.2501 158.779 11.2723C156.875 12.1945 154.588 12.1095 152.045 11.3497V3.66118L165.774 4.0273L167.971 11.1666Z" fill="#2F2E41"/>
<path d="M154.084 46.4203C153.479 46.421 152.899 46.6616 152.471 47.0895C152.043 47.5174 151.802 48.0976 151.802 48.7027L152.703 67.5613C152.703 68.1664 152.944 68.7466 153.372 69.1745C153.8 69.6024 154.38 69.843 154.985 69.8437H165.285C165.89 69.843 166.47 69.6024 166.898 69.1745C167.326 68.7466 167.567 68.1664 167.568 67.5613L168.468 48.7027C168.468 48.0976 168.227 47.5174 167.799 47.0895C167.371 46.6616 166.791 46.421 166.186 46.4203H154.084Z" fill="#3F3D56"/>
<path d="M183.309 53.9743L166.442 60.6905L165.169 61.1973C165.129 61.2131 165.088 61.2266 165.045 61.2401L160.782 62.4946C160.237 62.6545 159.482 61.9203 159.041 61.4135C158.822 61.1693 158.698 60.8549 158.692 60.5272C158.685 60.1995 158.796 59.8803 159.005 59.6275C159.064 59.5596 159.128 59.497 159.198 59.4406C159.363 59.3127 159.556 59.2275 159.761 59.1928L164.02 58.355C164.173 58.325 164.32 58.2702 164.455 58.1928L166.442 57.0351L176.755 51.0306C177.041 50.8639 177.26 50.6008 177.371 50.2882C177.482 49.9755 177.478 49.6336 177.361 49.3234L175.392 44.132C175.271 43.8144 175.27 43.4636 175.389 43.1453C175.508 42.827 175.739 42.5629 176.038 42.4023L179.3 40.6545C179.486 40.5545 179.693 40.498 179.904 40.4894C180.115 40.4808 180.326 40.5203 180.52 40.6049C180.714 40.6894 180.886 40.8169 181.023 40.9776C181.161 41.1384 181.26 41.3282 181.313 41.5329L184.144 52.3167C184.231 52.6474 184.194 52.9985 184.041 53.3038C183.887 53.6091 183.626 53.8476 183.309 53.9743V53.9743Z" fill="#FFB9B9"/>
<path d="M184.288 39.4729C180.606 40.9092 177.678 43.3605 175.383 46.6653L168.19 36.2191L173.328 26.4579L184.288 39.4729Z" fill="#0E865B"/>
<path d="M164.414 19.2744C161.043 20.6767 157.508 20.6198 153.829 19.2744C154.9 17.447 153.299 16.0157 152.478 14.1709L166.216 13.7626C165.166 15.3652 163.615 17.2587 164.414 19.2744Z" fill="white"/>
<path d="M166.071 14.0676L165.911 13.9083L166.136 13.6831L167.482 12.1128L167.653 12.2592L166.302 13.8358L166.071 14.0676Z" fill="white"/>
<path d="M151.536 13.113L151.392 13.2861L152.743 14.4123L152.887 14.2392L151.536 13.113Z" fill="white"/>
<path d="M166.459 15.3917L164.094 19.1075L164.284 19.2285L166.649 15.5126L166.459 15.3917Z" fill="white"/>
<path d="M151.784 15.3914L151.594 15.5123L153.959 19.2286L154.149 19.1076L151.784 15.3914Z" fill="white"/>
<path d="M166.892 56.7166V60.7969L165.472 61.3625C165.427 61.3801 165.381 61.3952 165.334 61.4103L160.574 62.8106C159.966 62.9891 159.124 62.1695 158.631 61.6039C158.387 61.3313 158.249 60.9803 158.242 60.6145C158.234 60.2487 158.358 59.8924 158.591 59.6102C158.657 59.5344 158.729 59.4646 158.807 59.4015C158.99 59.2588 159.206 59.1638 159.436 59.125L164.19 58.1898C164.36 58.1563 164.524 58.0952 164.675 58.0088L166.892 56.7166Z" fill="white"/>
<path d="M168.95 42.1626H168.136C168.136 30.6512 165.766 22.6291 163.456 22.6291L163.253 21.8152C165.324 21.8152 166.645 25.1539 167.388 27.9549C168.395 31.752 168.95 36.7978 168.95 42.1626Z" fill="#3F3D56"/>
<path d="M150.231 39.314H149.417C149.417 28.7714 151.804 22.2221 155.318 22.2221L155.114 23.036C152.683 23.036 150.231 28.0693 150.231 39.314Z" fill="#3F3D56"/>
<path d="M168.544 44.4008C169.667 44.4008 170.578 43.4898 170.578 42.3661C170.578 41.2423 169.667 40.3313 168.544 40.3313C167.42 40.3313 166.509 41.2423 166.509 42.3661C166.509 43.4898 167.42 44.4008 168.544 44.4008Z" fill="#3F3D56"/>
<path d="M146.975 44.1973H146.161C146.161 41.2802 147.804 38.907 149.824 38.907V39.7209C148.253 39.7209 146.975 41.729 146.975 44.1973Z" fill="#3F3D56"/>
<path d="M153.487 44.1973H152.673C152.673 41.729 151.395 39.7209 149.824 39.7209V38.907C151.844 38.907 153.487 41.2802 153.487 44.1973Z" fill="#3F3D56"/>
<path d="M153.08 45.2147C153.529 45.2147 153.893 44.8503 153.893 44.4008C153.893 43.9513 153.529 43.5869 153.08 43.5869C152.63 43.5869 152.266 43.9513 152.266 44.4008C152.266 44.8503 152.63 45.2147 153.08 45.2147Z" fill="#3F3D56"/>
<path d="M146.568 45.2147C147.017 45.2147 147.382 44.8503 147.382 44.4008C147.382 43.9513 147.017 43.5869 146.568 43.5869C146.118 43.5869 145.754 43.9513 145.754 44.4008C145.754 44.8503 146.118 45.2147 146.568 45.2147Z" fill="#3F3D56"/>
<path d="M48.4846 17.049L34.1904 19.4696C33.8373 19.5298 33.4744 19.457 33.1719 19.265C32.8695 19.0731 32.6489 18.7758 32.553 18.4307C31.5203 14.7034 29.3611 9.84088 31.4575 7.39994C31.5643 6.37304 32.063 5.4269 32.8498 4.75847C33.6367 4.09005 34.651 3.75084 35.6817 3.81146C38.2352 -0.185685 42.4885 0.414462 45.3632 2.91086C48.2563 3.90913 49.347 5.68263 48.9656 8.08934C50.2154 9.18336 50.8707 10.4156 51.0089 11.7681C51.0744 12.5208 50.9786 13.2788 50.728 13.9915C50.4773 14.7042 50.0775 15.3552 49.5553 15.9012L48.4846 17.049Z" fill="#2F2E41"/>
<path d="M46.2618 28.3024L35.1807 27.6505C36.2666 25.158 36.7004 22.7578 36.2671 20.4804H44.5236C44.5049 22.229 45.3751 25.2538 46.2618 28.3024Z" fill="#9F616A"/>
<path d="M32.9236 130.696L32.4691 136.909C32.4486 137.19 32.4884 137.473 32.5859 137.737C32.6834 138.002 32.8363 138.243 33.0345 138.443C33.2326 138.644 33.4714 138.8 33.7348 138.901C33.9981 139.002 34.28 139.045 34.5615 139.028L37.753 138.835C37.9009 138.826 38.0449 138.784 38.175 138.713C38.3051 138.642 38.4179 138.543 38.5055 138.424C38.5931 138.305 38.6533 138.167 38.6818 138.022C38.7103 137.876 38.7065 137.727 38.6706 137.583L36.899 130.497L32.9236 130.696Z" fill="#E6E6E6"/>
<path d="M43.2558 130.497L41.4842 137.583C41.4483 137.727 41.4445 137.876 41.473 138.022C41.5015 138.167 41.5617 138.304 41.6493 138.424C41.7369 138.543 41.8497 138.642 41.9798 138.713C42.1098 138.784 42.2539 138.826 42.4018 138.835L45.5933 139.028C45.8748 139.045 46.1567 139.002 46.42 138.901C46.6834 138.8 46.9222 138.644 47.1203 138.443C47.3185 138.243 47.4714 138.002 47.5689 137.737C47.6664 137.473 47.7062 137.19 47.6857 136.909L47.2312 130.696L43.2558 130.497Z" fill="#E6E6E6"/>
<path d="M47.4365 131.558L43.1298 131.126L38.842 85.293L37.2215 130.978L32.9902 130.827L25.8584 67.555H53.1055L47.4365 131.558Z" fill="#1D308D"/>
<path d="M40.6138 23.118C45.1585 23.118 48.8428 19.4337 48.8428 14.889C48.8428 10.3442 45.1585 6.65999 40.6138 6.65999C36.069 6.65999 32.3848 10.3442 32.3848 14.889C32.3848 19.4337 36.069 23.118 40.6138 23.118Z" fill="#9F616A"/>
<path d="M49.8875 10.9579C46.5476 10.3762 43.2638 10.2964 40.0718 11.0342C38.0384 11.6998 35.5965 11.6385 32.8809 11.09V5.54073L47.5417 5.80498L49.8875 10.9579Z" fill="#2F2E41"/>
<path d="M46.0895 21.4917C42.4896 22.9891 38.7148 22.9283 34.7858 21.4917C35.9291 19.5403 34.2201 18.0119 33.3428 16.0419L48.0136 15.606C46.8917 17.3173 45.2362 19.3392 46.0895 21.4917Z" fill="white"/>
<path d="M32.3327 14.9181L32.1885 15.0913L33.6314 16.2937L33.7757 16.1206L32.3327 14.9181Z" fill="white"/>
<path d="M48.2798 17.3494L45.7539 21.3174L45.9439 21.4384L48.4699 17.4704L48.2798 17.3494Z" fill="white"/>
<path d="M32.5963 17.3492L32.4062 17.4702L34.9316 21.4386L35.1216 21.3176L32.5963 17.3492Z" fill="white"/>
<path d="M24.969 52.4202L18.668 48.5092L24.0417 32.7707C24.641 31.1467 25.789 29.7832 27.2871 28.9158L29.0973 27.8678L29.2547 43.745L24.969 52.4202Z" fill="#1D308D"/>
<path d="M52.2046 60.064L51.2724 52.0792C51.2226 47.8646 51.9396 43.7899 53.6493 40.0354L54.5184 28.3024L44.9582 24.3914C44.9288 24.5862 44.9039 24.7809 44.876 24.9757L40.3953 27.216L36.0256 26.2229L36.0498 24.8259L27.3586 28.7369C30.2328 42.0991 28.6652 55.9751 23.7227 72.3651L35.1724 75.4959L35.2676 69.998L45.4718 69.2692C45.5769 71.0529 45.6614 72.8049 45.7104 74.5181C51.4683 76.6379 51.6661 76.6028 56.9123 73.5676C54.8231 69.175 53.1689 64.6042 52.2046 60.064Z" fill="#1D308D"/>
<path d="M66.9035 50.4646L61.0371 48.5092L51.6533 37.5851L54.5186 28.3025L67.5553 46.5538L66.9035 50.4646Z" fill="#1D308D"/>
<path d="M48.5177 58.9219C48.6137 59.3432 48.8728 59.7091 49.2383 59.9396C49.6037 60.1701 50.0456 60.2463 50.4671 60.1514L55.447 59.0237L54.7272 55.845L49.7473 56.9726C49.3257 57.0681 48.9594 57.3271 48.7289 57.6926C48.4983 58.0582 48.4223 58.5004 48.5177 58.9219V58.9219Z" fill="#E6E6E6"/>
<path d="M52.998 55.2449L55.8227 60.4595C60.5736 59.1344 64.6911 54.9571 68.6421 50.0302L67.5557 46.5537L60.8201 48.2919L52.998 55.2449Z" fill="#1D308D"/>
<path d="M16.1689 38.8876L21.5915 39.8559L33.9858 57.4791L27.4014 55.9297L16.1689 38.8876Z" fill="#E6E6E6"/>
<path d="M15.2072 38.6719C15.1246 38.6731 15.0438 38.6965 14.9733 38.7397C14.9028 38.7828 14.8452 38.8441 14.8066 38.9172C14.7679 38.9902 14.7495 39.0723 14.7534 39.1548C14.7574 39.2374 14.7834 39.3174 14.8288 39.3864L26.4142 56.9644C26.4789 57.0627 26.5787 57.1324 26.6932 57.1593L32.0836 58.4275C32.1745 58.4489 32.2697 58.4422 32.3567 58.4082C32.4436 58.3742 32.5182 58.3146 32.5705 58.2372C32.6228 58.1599 32.6504 58.0685 32.6495 57.9751C32.6486 57.8817 32.6194 57.7908 32.5657 57.7145L19.8456 39.6281C19.8111 39.5788 19.7672 39.5368 19.7165 39.5045C19.6657 39.4722 19.6091 39.4502 19.5499 39.4398L15.2941 38.6797C15.2654 38.6746 15.2363 38.672 15.2072 38.6719Z" fill="#3F3D56"/>
<path d="M22.4346 51.24L22.7566 54.4832L27.8376 53.9788C28.2676 53.9362 28.6632 53.7244 28.9371 53.3901C29.211 53.0558 29.3409 52.6264 29.2982 52.1963C29.2556 51.7662 29.0438 51.3707 28.7095 51.0967C28.3752 50.8228 27.9458 50.6929 27.5157 50.7356L22.4346 51.24Z" fill="#E6E6E6"/>
<path d="M18.0156 50.8643C18.023 51.9702 18.4672 53.0283 19.2513 53.8081C20.0355 54.588 21.096 55.0263 22.2019 55.0276H23.0374L23.6457 49.9588L18.6095 48.1458L18.0156 50.8643Z" fill="#1D308D"/>
<path d="M47.6124 16.1667L47.4531 16.0074L47.6937 15.7669L49.1308 14.0896L49.3018 14.236L47.8588 15.9196L47.6124 16.1667Z" fill="white"/>
<path d="M200 138.763H0V139.213H200V138.763Z" fill="#3F3D56"/>
<path d="M76.3516 138.537H123.649V81.1688C123.649 78.1311 120.657 75.6597 116.979 75.6597H83.0214C79.3436 75.6597 76.3516 78.1311 76.3516 81.1688V138.537Z" fill="#E6E6E6"/>
<path d="M79.9551 136.165H120.045V87.5384C120.045 84.9635 117.509 82.8688 114.392 82.8688H85.6086C82.4912 82.8688 79.9551 84.9635 79.9551 87.5384V136.165Z" fill="white"/>
<path d="M75.9942 71.1951C74.8252 71.1951 73.874 71.9807 73.874 72.9462V78.0012C73.874 78.9667 74.8252 79.7524 75.9942 79.7524H124.006C125.175 79.7524 126.126 78.9667 126.126 78.0012V72.9462C126.126 71.9807 125.175 71.1951 124.006 71.1951H75.9942Z" fill="#3F3D56"/>
<path d="M85.8516 129.93C85.3027 129.931 84.7768 130.15 84.3887 130.538C84.0006 130.926 83.7819 131.452 83.7803 132.001V132.001C83.7819 132.55 84.0006 133.076 84.3887 133.464C84.7768 133.852 85.3027 134.071 85.8516 134.073H89.7287V129.93H85.8516Z" fill="#3F3D56"/>
<path d="M93.2875 129.93H89.5166V134.073H93.2875C93.8363 134.071 94.3622 133.852 94.7503 133.464C95.1384 133.076 95.3572 132.55 95.3588 132.001V132.001C95.3572 131.452 95.1384 130.926 94.7503 130.538C94.3622 130.15 93.8363 129.931 93.2875 129.93V129.93Z" fill="#1D308D"/>
<path opacity="0.2" d="M94.6391 130.437C94.9657 130.812 95.1459 131.292 95.1464 131.789V131.789C95.1447 132.338 94.926 132.864 94.5379 133.252C94.1498 133.64 93.6239 133.858 93.075 133.86H89.5166V134.073H93.2875C93.8363 134.071 94.3622 133.852 94.7503 133.464C95.1384 133.076 95.3572 132.55 95.3588 132.001C95.3583 131.704 95.2937 131.411 95.1695 131.141C95.0453 130.871 94.8644 130.631 94.6391 130.437V130.437Z" fill="black"/>
<path d="M103.348 98.7303C102.97 98.332 102.45 98.0994 101.901 98.0832C101.353 98.067 100.82 98.2686 100.42 98.6439V98.6439C100.021 99.0215 99.7886 99.5414 99.7724 100.09C99.7562 100.639 99.9578 101.171 100.333 101.572L102.992 104.393L106.007 101.552L103.348 98.7303Z" fill="#3F3D56"/>
<path d="M108.448 104.141L105.861 101.397L102.847 104.239L105.433 106.982C105.811 107.381 106.331 107.613 106.879 107.63C107.428 107.646 107.961 107.444 108.361 107.069V107.069C108.76 106.691 108.992 106.171 109.008 105.623C109.025 105.074 108.823 104.541 108.448 104.141V104.141Z" fill="#1D308D"/>
<path opacity="0.2" d="M109.006 105.472C108.957 105.967 108.731 106.427 108.37 106.769V106.769C107.97 107.144 107.437 107.345 106.888 107.329C106.34 107.313 105.82 107.08 105.442 106.682L103.001 104.093L102.847 104.239L105.433 106.982C105.811 107.381 106.331 107.613 106.879 107.63C107.428 107.646 107.961 107.444 108.361 107.069C108.577 106.865 108.746 106.616 108.858 106.341C108.969 106.065 109.019 105.769 109.006 105.472V105.472Z" fill="black"/>
<path d="M92.3114 105.262C91.9337 104.864 91.4138 104.631 90.8652 104.615C90.3166 104.599 89.7839 104.8 89.3834 105.175V105.175C88.9851 105.553 88.7525 106.073 88.7363 106.622C88.7201 107.17 88.9216 107.703 89.2969 108.103L91.9564 110.925L94.9708 108.083L92.3114 105.262Z" fill="#3F3D56"/>
<path d="M97.4116 110.672L94.825 107.928L91.8105 110.77L94.3971 113.514C94.7747 113.912 95.2947 114.145 95.8433 114.161C96.3919 114.177 96.9246 113.976 97.3251 113.6V113.6C97.7234 113.223 97.9561 112.703 97.9723 112.154C97.9884 111.606 97.7869 111.073 97.4116 110.672V110.672Z" fill="#1D308D"/>
<path opacity="0.2" d="M97.9696 112.004C97.9211 112.498 97.6953 112.959 97.334 113.3V113.3C96.9335 113.675 96.4008 113.877 95.8522 113.861C95.3035 113.845 94.7836 113.612 94.406 113.214L91.9651 110.624L91.8105 110.77L94.3971 113.514C94.7747 113.912 95.2947 114.145 95.8433 114.161C96.3919 114.177 96.9246 113.976 97.3251 113.6V113.6C97.541 113.396 97.7103 113.148 97.8215 112.872C97.9327 112.597 97.9832 112.301 97.9696 112.004Z" fill="black"/>
<path d="M103.348 111.343C102.97 110.945 102.45 110.712 101.901 110.696C101.353 110.68 100.82 110.881 100.42 111.256V111.256C100.021 111.634 99.7886 112.154 99.7724 112.703C99.7562 113.251 99.9578 113.784 100.333 114.184L102.992 117.006L106.007 114.164L103.348 111.343Z" fill="#3F3D56"/>
<path d="M108.448 116.753L105.861 114.01L102.847 116.851L105.433 119.595C105.811 119.993 106.331 120.226 106.879 120.242C107.428 120.258 107.961 120.057 108.361 119.682V119.682C108.76 119.304 108.992 118.784 109.008 118.235C109.025 117.687 108.823 117.154 108.448 116.753V116.753Z" fill="#1D308D"/>
<path opacity="0.2" d="M109.006 118.085C108.957 118.58 108.731 119.04 108.37 119.381C107.97 119.756 107.437 119.958 106.888 119.942C106.34 119.926 105.82 119.693 105.442 119.295L103.001 116.705L102.847 116.851L105.433 119.595C105.811 119.993 106.331 120.226 106.879 120.242C107.428 120.258 107.961 120.057 108.361 119.682V119.682C108.577 119.477 108.746 119.229 108.858 118.954C108.969 118.678 109.019 118.382 109.006 118.085V118.085Z" fill="black"/>
<path d="M110.08 124.286C110.473 123.904 110.7 123.381 110.709 122.832C110.719 122.283 110.511 121.753 110.131 121.357V121.357C109.748 120.963 109.225 120.737 108.677 120.728C108.128 120.718 107.598 120.926 107.202 121.306L104.413 124L107.291 126.979L110.08 124.286Z" fill="#3F3D56"/>
<path d="M104.731 129.452L107.444 126.832L104.566 123.852L101.853 126.472C101.46 126.854 101.233 127.377 101.224 127.926C101.214 128.475 101.422 129.005 101.803 129.401V129.401C102.185 129.794 102.708 130.021 103.257 130.03C103.805 130.04 104.336 129.832 104.731 129.452V129.452Z" fill="#1D308D"/>
<path opacity="0.2" d="M103.407 130.026C102.912 129.983 102.449 129.763 102.103 129.406V129.406C101.723 129.01 101.515 128.48 101.524 127.931C101.534 127.382 101.76 126.86 102.154 126.477L104.713 124.005L104.566 123.852L101.853 126.472C101.46 126.854 101.233 127.377 101.224 127.926C101.214 128.475 101.422 129.005 101.803 129.401V129.401C102.009 129.614 102.26 129.78 102.537 129.888C102.813 129.996 103.11 130.043 103.407 130.026Z" fill="black"/>
<path d="M95.2146 117.754C95.6082 117.372 95.8345 116.849 95.8441 116.3C95.8536 115.752 95.6455 115.221 95.2654 114.826C94.8829 114.432 94.3602 114.206 93.8115 114.196C93.2627 114.187 92.7325 114.395 92.3366 114.775L89.5479 117.468L92.4258 120.448L95.2146 117.754Z" fill="#3F3D56"/>
<path d="M89.8662 122.92L92.5785 120.3L89.7005 117.321L86.9882 119.94C86.5946 120.323 86.3682 120.845 86.3587 121.394C86.3492 121.943 86.5572 122.473 86.9374 122.869V122.869C87.3198 123.263 87.8425 123.489 88.3913 123.499C88.9401 123.508 89.4703 123.3 89.8662 122.92V122.92Z" fill="#1D308D"/>
<path opacity="0.2" d="M88.5416 123.494C88.0464 123.452 87.5834 123.232 87.2378 122.874C86.8576 122.478 86.6496 121.948 86.6591 121.399C86.6686 120.851 86.895 120.328 87.2886 119.946L89.8481 117.473L89.7005 117.321L86.9882 119.94C86.5946 120.323 86.3682 120.845 86.3587 121.394C86.3492 121.943 86.5572 122.473 86.9374 122.869V122.869C87.1441 123.083 87.3945 123.249 87.6713 123.357C87.9482 123.465 88.245 123.511 88.5416 123.494V123.494Z" fill="black"/>
<path d="M116.386 109.872C116.78 109.489 117.006 108.966 117.016 108.418C117.025 107.869 116.817 107.339 116.437 106.943V106.943C116.055 106.549 115.532 106.323 114.983 106.313C114.435 106.304 113.904 106.512 113.508 106.892L110.72 109.585L113.598 112.565L116.386 109.872Z" fill="#3F3D56"/>
<path d="M111.038 115.037L113.75 112.417L110.872 109.438L108.16 112.057C107.766 112.44 107.54 112.963 107.531 113.511C107.521 114.06 107.729 114.59 108.109 114.986V114.986C108.492 115.38 109.014 115.606 109.563 115.616C110.112 115.625 110.642 115.417 111.038 115.037Z" fill="#1D308D"/>
<path opacity="0.2" d="M109.713 115.611C109.218 115.569 108.755 115.349 108.41 114.992V114.992C108.029 114.596 107.821 114.065 107.831 113.517C107.841 112.968 108.067 112.445 108.46 112.063L111.02 109.591L110.872 109.438L108.16 112.057C107.766 112.44 107.54 112.963 107.531 113.511C107.521 114.06 107.729 114.59 108.109 114.986V114.986C108.316 115.2 108.566 115.366 108.843 115.474C109.12 115.582 109.417 115.629 109.713 115.611Z" fill="black"/>
<path d="M111.681 126.208C111.303 125.81 110.783 125.577 110.234 125.561C109.686 125.544 109.153 125.746 108.753 126.121V126.121C108.354 126.499 108.122 127.019 108.105 127.568C108.089 128.116 108.291 128.649 108.666 129.049L111.325 131.871L114.34 129.029L111.681 126.208Z" fill="#3F3D56"/>
<path d="M116.781 131.618L114.194 128.874L111.18 131.716L113.766 134.46C114.144 134.858 114.664 135.091 115.212 135.107C115.761 135.123 116.294 134.922 116.694 134.546V134.546C117.093 134.169 117.325 133.649 117.341 133.1C117.358 132.552 117.156 132.019 116.781 131.618Z" fill="#1D308D"/>
<path opacity="0.2" d="M117.339 132.95C117.29 133.444 117.064 133.905 116.703 134.246V134.246C116.303 134.621 115.77 134.823 115.221 134.807C114.673 134.791 114.153 134.558 113.775 134.16L111.334 131.57L111.18 131.716L113.766 134.46C114.144 134.858 114.664 135.091 115.212 135.107C115.761 135.123 116.294 134.922 116.694 134.546V134.546C116.91 134.342 117.079 134.094 117.191 133.818C117.302 133.543 117.352 133.247 117.339 132.95V132.95Z" fill="black"/>
<path d="M97.0409 125.983C96.6632 125.584 96.1433 125.352 95.5947 125.335C95.0461 125.319 94.5134 125.521 94.1129 125.896V125.896C93.7146 126.274 93.4819 126.794 93.4657 127.342C93.4496 127.891 93.6511 128.424 94.0264 128.824L96.6858 131.645L99.7003 128.804L97.0409 125.983Z" fill="#3F3D56"/>
<path d="M102.141 131.393L99.5545 128.649L96.54 131.491L99.1266 134.235C99.5042 134.633 100.024 134.866 100.573 134.882C101.121 134.898 101.654 134.696 102.055 134.321V134.321C102.453 133.944 102.686 133.424 102.702 132.875C102.718 132.326 102.516 131.794 102.141 131.393V131.393Z" fill="#1D308D"/>
<path opacity="0.2" d="M102.699 132.725C102.651 133.219 102.425 133.68 102.063 134.021V134.021C101.663 134.396 101.13 134.598 100.582 134.582C100.033 134.565 99.5131 134.333 99.1355 133.934L96.6946 131.345L96.54 131.491L99.1266 134.235C99.5042 134.633 100.024 134.866 100.573 134.882C101.121 134.898 101.654 134.696 102.055 134.321V134.321C102.27 134.117 102.44 133.869 102.551 133.593C102.662 133.318 102.713 133.021 102.699 132.725Z" fill="black"/>
<path d="M101.162 118.552C101.162 119.24 100.924 119.908 100.489 120.441C100.053 120.975 99.4469 121.341 98.7721 121.479C98.3778 121.559 97.9716 121.559 97.5773 121.479C96.9026 121.341 96.2963 120.975 95.8608 120.441C95.4253 119.908 95.1875 119.24 95.1875 118.552C95.1875 117.863 95.4253 117.196 95.8608 116.662C96.2963 116.129 96.9026 115.762 97.5773 115.624C97.9716 115.545 98.3778 115.545 98.7721 115.624C99.4469 115.762 100.053 116.129 100.489 116.662C100.924 117.195 101.162 117.863 101.162 118.552V118.552Z" fill="#1D308D"/>
<path opacity="0.2" d="M98.772 115.624V121.479C98.3777 121.559 97.9715 121.559 97.5771 121.479V115.624C97.9715 115.545 98.3777 115.545 98.772 115.624Z" fill="black"/>
<path d="M102.513 106.615C102.514 107.303 102.276 107.971 101.84 108.504C101.405 109.038 100.798 109.404 100.124 109.542C99.7294 109.622 99.3231 109.622 98.9288 109.542C98.2542 109.404 97.6478 109.038 97.2124 108.504C96.7769 107.971 96.5391 107.303 96.5391 106.615C96.5391 105.926 96.7769 105.259 97.2124 104.725C97.6478 104.192 98.2542 103.825 98.9288 103.687C99.3231 103.608 99.7294 103.608 100.124 103.687C100.798 103.825 101.405 104.192 101.84 104.725C102.276 105.258 102.514 105.926 102.513 106.615V106.615Z" fill="#1D308D"/>
<path opacity="0.2" d="M100.124 103.687V109.542C99.7293 109.622 99.323 109.622 98.9287 109.542V103.687C99.323 103.608 99.7293 103.608 100.124 103.687Z" fill="black"/>
<path d="M102.513 123.732C102.514 124.42 102.276 125.088 101.84 125.621C101.405 126.155 100.798 126.522 100.124 126.659C99.7294 126.739 99.3231 126.739 98.9288 126.659C98.2542 126.521 97.6478 126.155 97.2124 125.621C96.7769 125.088 96.5391 124.42 96.5391 123.732C96.5391 123.043 96.7769 122.376 97.2124 121.842C97.6478 121.309 98.2542 120.942 98.9288 120.804C99.3231 120.725 99.7294 120.725 100.124 120.804C100.798 120.942 101.405 121.309 101.84 121.842C102.276 122.376 102.514 123.043 102.513 123.732V123.732Z" fill="#1D308D"/>
<path opacity="0.2" d="M100.124 120.804V126.659C99.7293 126.739 99.323 126.739 98.9287 126.659V120.804C99.323 120.725 99.7293 120.725 100.124 120.804Z" fill="black"/>
<path d="M109.945 132.065C109.945 132.754 109.707 133.421 109.272 133.955C108.836 134.488 108.23 134.855 107.555 134.993C107.161 135.072 106.755 135.072 106.36 134.993C105.686 134.855 105.079 134.488 104.644 133.955C104.209 133.421 103.971 132.754 103.971 132.065C103.971 131.377 104.209 130.709 104.644 130.176C105.079 129.642 105.686 129.276 106.36 129.138C106.755 129.058 107.161 129.058 107.555 129.138C108.23 129.275 108.836 129.642 109.272 130.175C109.707 130.709 109.945 131.376 109.945 132.065V132.065Z" fill="#1D308D"/>
<path opacity="0.2" d="M107.556 129.138V134.993C107.162 135.072 106.756 135.072 106.361 134.993V129.138C106.756 129.058 107.162 129.058 107.556 129.138Z" fill="black"/>
<path d="M116.511 116.733C117.007 117.211 117.322 117.845 117.404 118.529C117.486 119.213 117.329 119.904 116.96 120.485C116.744 120.824 116.462 121.117 116.131 121.345C115.563 121.735 114.879 121.917 114.192 121.861C113.506 121.804 112.86 121.512 112.365 121.034C111.869 120.556 111.553 119.922 111.471 119.238C111.39 118.555 111.546 117.864 111.915 117.282C112.132 116.943 112.413 116.65 112.744 116.422C113.312 116.032 113.997 115.849 114.683 115.906C115.369 115.963 116.015 116.255 116.511 116.733V116.733Z" fill="#1D308D"/>
<path opacity="0.2" d="M112.745 116.422L116.961 120.485C116.744 120.824 116.463 121.117 116.132 121.345L111.916 117.282C112.132 116.943 112.414 116.65 112.745 116.422V116.422Z" fill="black"/>
<path d="M117.412 123.264C117.908 123.742 118.224 124.377 118.305 125.06C118.387 125.744 118.23 126.435 117.861 127.016C117.645 127.356 117.363 127.648 117.032 127.877C116.465 128.267 115.78 128.449 115.094 128.392C114.407 128.336 113.762 128.044 113.266 127.566C112.77 127.088 112.455 126.454 112.373 125.77C112.291 125.086 112.448 124.395 112.817 123.814C113.033 123.474 113.315 123.182 113.646 122.953C114.213 122.563 114.898 122.381 115.584 122.438C116.271 122.494 116.916 122.786 117.412 123.264V123.264Z" fill="#1D308D"/>
<path opacity="0.2" d="M113.646 122.953L117.861 127.016C117.645 127.356 117.363 127.648 117.032 127.877L112.816 123.814C113.033 123.474 113.315 123.182 113.646 122.953V122.953Z" fill="black"/>
<path d="M90.6103 124.841C91.1062 125.319 91.4218 125.953 91.5037 126.637C91.5856 127.321 91.4287 128.012 91.0596 128.593C90.8433 128.932 90.5614 129.225 90.2304 129.453C89.663 129.843 88.9782 130.026 88.2919 129.969C87.6056 129.912 86.96 129.62 86.4642 129.142C85.9684 128.665 85.6529 128.03 85.571 127.346C85.4891 126.663 85.6459 125.972 86.0149 125.39C86.2312 125.051 86.5131 124.759 86.8441 124.53C87.4115 124.14 88.0963 123.957 88.7826 124.014C89.4689 124.071 90.1146 124.363 90.6103 124.841V124.841Z" fill="#1D308D"/>
<path opacity="0.2" d="M86.8439 124.53L91.0594 128.593C90.8431 128.932 90.5612 129.225 90.2302 129.453L86.0146 125.39C86.2309 125.051 86.5129 124.759 86.8439 124.53V124.53Z" fill="black"/>
<path opacity="0.2" d="M80.9689 71.1951H79.8428V79.5284H80.9689V71.1951Z" fill="black"/>
<path opacity="0.2" d="M87.5001 71.1951H86.374V79.5284H87.5001V71.1951Z" fill="black"/>
<path opacity="0.2" d="M94.0314 71.1951H92.9053V79.5284H94.0314V71.1951Z" fill="black"/>
<path opacity="0.2" d="M100.563 71.1951H99.4365V79.5284H100.563V71.1951Z" fill="black"/>
<path opacity="0.2" d="M107.095 71.1951H105.969V79.5284H107.095V71.1951Z" fill="black"/>
<path opacity="0.2" d="M113.626 71.1951H112.5V79.5284H113.626V71.1951Z" fill="black"/>
<path opacity="0.2" d="M120.157 71.1951H119.031V79.5284H120.157V71.1951Z" fill="black"/>
</g>
<defs>
<clipPath id="clip0_774_14801">
<rect width="200" height="139.213" fill="white"/>
</clipPath>
</defs>
</svg>
