<svg width="142" height="95" viewBox="0 0 142 95" fill="none" xmlns="http://www.w3.org/2000/svg">
<g clip-path="url(#clip0_249_11335)">
<path d="M129.729 87.7152V73.7178C129.729 73.7178 135.183 83.6414 129.729 87.7152Z" fill="#F1F1F1"/>
<path d="M130.067 87.7126L119.756 78.2466C119.756 78.2466 130.755 80.9392 130.067 87.7126Z" fill="#F1F1F1"/>
<path d="M9.59761 78.1594C10.3567 78.4262 11.1718 78.4931 11.9642 78.3535C12.7567 78.2139 13.4998 77.8726 14.122 77.3624C15.7067 76.0322 16.2037 73.8416 16.6078 71.8126L17.8036 65.811L15.3002 67.5348C13.4998 68.7744 11.6589 70.0538 10.4125 71.8493C9.16601 73.6448 8.62222 76.0959 9.62342 78.0388" fill="#E6E6E6"/>
<path d="M9.98488 85.8432C9.66979 83.5476 9.3456 81.2223 9.56715 78.9022C9.76348 76.8416 10.3922 74.8293 11.6721 73.1787C12.3514 72.3044 13.1781 71.5553 14.1149 70.965C14.3591 70.8109 14.5839 71.1979 14.3407 71.3514C12.7198 72.3758 11.466 73.8885 10.7602 75.6713C9.9807 77.6539 9.85553 79.8152 9.9898 81.9213C10.071 83.1949 10.2434 84.4602 10.4166 85.724C10.4303 85.7811 10.4218 85.8413 10.3927 85.8924C10.3637 85.9435 10.3164 85.9817 10.2603 85.9992C10.2031 86.0146 10.1421 86.0068 10.0905 85.9776C10.039 85.9483 10.0011 85.8999 9.98503 85.8429L9.98488 85.8432Z" fill="#F2F2F2"/>
<path d="M12.252 82.1597C12.5775 82.6547 13.025 83.0574 13.5513 83.3292C14.0777 83.6009 14.6652 83.7325 15.2572 83.7113C16.7789 83.6391 18.047 82.5775 19.1885 81.5693L22.5654 78.5877L20.3305 78.4808C18.7233 78.4038 17.0746 78.3316 15.5438 78.8278C14.013 79.324 12.6012 80.5163 12.3213 82.1008" fill="#E6E6E6"/>
<path d="M9.09389 87.1628C10.6108 84.4787 12.3702 81.4957 15.5142 80.5422C16.3883 80.278 17.3049 80.1834 18.2145 80.2634C18.5013 80.2882 18.4297 80.73 18.1435 80.7054C16.6187 80.5788 15.0968 80.9815 13.8341 81.8455C12.6189 82.6726 11.6728 83.8226 10.8721 85.0419C10.3815 85.7889 9.94218 86.5675 9.50282 87.3451C9.36242 87.5936 8.95186 87.4141 9.09389 87.1628Z" fill="#F2F2F2"/>
<path d="M96.1836 32.24H158.151V0.869385H96.1836V32.24Z" fill="white"/>
<path d="M158.661 32.7512H95.6719V0.358154H158.661V32.7512ZM96.6942 31.7288H157.639V1.38051H96.6942V31.7288Z" fill="#E5E5E5"/>
<path d="M151.298 11.8735H103.621V13.4546H151.298V11.8735Z" fill="#6C63FF"/>
<path d="M151.298 15.708H103.621V17.2891H151.298V15.708Z" fill="#6C63FF"/>
<path d="M58.2476 61.8828H58.2476C60.5993 61.8828 62.8546 62.817 64.5175 64.4799C66.1804 66.1428 67.1146 68.3981 67.1146 70.7498V87.6187H32.5117V87.6187C32.5117 80.7931 35.2232 74.2471 40.0496 69.4207C44.876 64.5943 51.422 61.8828 58.2476 61.8828H58.2476Z" fill="#E4E4E4"/>
<path d="M161.06 87.2358H0.949219V87.6727H161.06V87.2358Z" fill="#CACACA"/>
<path d="M40.4857 89.2544L37.7632 90.0419L33.4297 79.9159L37.4478 78.7534L40.4857 89.2544Z" fill="#9E616A"/>
<path d="M41.9427 91.6927L33.1644 94.2322L33.1323 94.1212C32.8702 93.215 32.9787 92.2418 33.4341 91.4157C33.8894 90.5896 34.6543 89.9782 35.5604 89.7159L35.5607 89.7159L40.9222 88.1648L41.9427 91.6927Z" fill="#2F2E41"/>
<path d="M61.8008 89.5255L64.5502 90.213L68.5102 79.9351L64.4524 78.9207L61.8008 89.5255Z" fill="#9E616A"/>
<path d="M61.3244 88.4526L66.7391 89.8065L66.7393 89.8066C67.6544 90.0355 68.4412 90.6185 68.9264 91.4274C69.4117 92.2364 69.5558 93.2049 69.327 94.1201L69.299 94.2322L60.4336 92.0155L61.3244 88.4526Z" fill="#2F2E41"/>
<path d="M46.9936 52.5574L44.1849 55.5533C44.1849 55.5533 29.3926 62.1069 29.3926 65.4773C29.3926 68.8477 32.9502 83.4528 34.4482 84.5762C35.3505 85.2567 34.9426 85.9895 35.3902 87.0271L40.6273 85.138C40.6273 85.138 40.2528 84.0145 40.6273 83.4528C41.0018 82.891 40.6273 82.5165 40.6273 82.5165C40.6273 82.5165 40.0655 82.7038 40.2528 82.1421C40.44 81.5803 40.44 81.3931 40.2528 81.2058C40.0655 81.0186 39.5038 79.3334 39.5038 79.3334C39.5038 79.3334 39.6911 72.5926 37.0696 70.1584C37.0696 70.1584 49.2405 66.6007 50.7385 64.1665C52.2365 61.7323 52.611 52.9318 52.611 52.9318L46.9936 52.5574Z" fill="#2F2E41"/>
<path d="M55.0468 51.2468L57.8555 56.1152C57.8555 56.1152 72.6478 62.6688 72.6478 66.0392C72.6478 69.4096 69.0902 84.0147 67.5922 85.1382C66.6899 85.8186 66.9485 86.842 66.5009 87.8796L61.4131 85.6999C61.4131 85.6999 61.7876 84.5764 61.4131 84.0147C61.0386 83.453 61.4131 83.0785 61.4131 83.0785C61.4131 83.0785 61.9748 83.2657 61.7876 82.704C61.6003 82.1423 61.6003 81.955 61.7876 81.7678C61.9748 81.5805 62.5366 79.8953 62.5366 79.8953C62.5366 79.8953 62.3493 73.1545 64.9708 70.7203C64.9708 70.7203 51.6764 66.0392 50.1784 63.605C48.26 60.4875 49.6627 47.6859 49.2422 51.9958L55.0468 51.2468Z" fill="#2F2E41"/>
<path d="M55.9836 28.9645C58.6723 28.9645 60.852 26.7849 60.852 24.0962C60.852 21.4074 58.6723 19.2278 55.9836 19.2278C53.2949 19.2278 51.1152 21.4074 51.1152 24.0962C51.1152 26.7849 53.2949 28.9645 55.9836 28.9645Z" fill="#9E616A"/>
<path d="M59.3527 31.3988C59.3527 31.3988 59.3977 31.4855 50.8484 30.8142C50.8484 30.8142 46.0583 32.7095 46.2456 34.0202C46.4328 35.3309 45.8711 53.3064 45.8711 53.3064C45.8711 53.3064 53.7354 55.5534 55.9823 53.3064C58.2293 51.0595 59.3527 31.3988 59.3527 31.3988Z" fill="#6C63FF"/>
<path d="M57.6955 31.2014L59.9683 31.3435C59.9683 31.3435 66.6577 33.8329 66.4705 35.7054C66.2832 37.5778 62.7256 46.3783 62.7256 46.3783C62.7256 46.3783 60.8531 53.1192 61.2276 54.9916C61.6021 56.8641 62.1638 57.4258 61.7893 57.9875C61.4148 58.5493 61.7893 59.6727 61.7893 60.0472C61.7893 60.4217 59.5424 61.9197 59.5424 61.9197C59.5424 61.9197 55.9847 58.7365 54.674 58.1748C53.3633 57.613 52.4271 53.3064 53.3633 49.5615C54.2995 45.8166 57.1082 33.8329 57.1082 33.8329C57.0223 33.3774 57.03 32.9091 57.131 32.4567C57.232 32.0043 57.424 31.5772 57.6955 31.2014Z" fill="#3F3D56"/>
<path d="M51.7494 30.6691C50.7999 30.4829 49.82 30.5192 48.8869 30.7752C47.9141 31.0405 43.4378 32.7094 43.4378 33.4584C43.4378 34.2074 45.3103 43.5696 45.3103 43.5696L45.6848 48.9997L42.3144 51.4339C42.3144 51.4339 43.0633 53.8681 42.1271 54.8043C41.1909 55.7405 40.0674 58.1747 41.1909 58.5492C42.3144 58.9237 49.2424 56.3023 49.4297 53.4936C49.6169 50.6849 48.8679 48.6252 50.1787 46.5655C51.4894 44.5059 51.6766 36.4543 51.6766 36.4543L51.7494 30.6691Z" fill="#3F3D56"/>
<path d="M60.532 19.8957C59.8042 18.7138 58.665 17.8429 57.3336 17.4506L56.3557 18.2329L56.7359 17.3204C56.4162 17.2717 56.0926 17.253 55.7694 17.2646L54.8896 18.3958L55.2537 17.3033C54.4902 17.3982 53.7547 17.6502 53.0935 18.0435C52.4323 18.4368 51.8598 18.9629 51.412 19.5885C50.2922 21.2032 50.1032 23.4487 51.2046 25.076C51.507 24.1468 51.8739 23.275 52.1763 22.3458C52.4139 22.3782 52.6547 22.3794 52.8926 22.3493L53.2605 21.491L53.3632 22.313C54.5034 22.2137 56.1944 21.9956 57.2753 21.7958L57.1702 21.1652L57.7991 21.6892C58.1302 21.613 58.3268 21.5439 58.3106 21.491C59.1145 22.787 60.0982 23.6147 60.9021 24.9107C61.2072 23.0827 61.5587 21.5632 60.532 19.8957Z" fill="#2F2E41"/>
<path d="M60.4772 24.9386C60.6944 24.9386 60.8704 24.6452 60.8704 24.2833C60.8704 23.9213 60.6944 23.6279 60.4772 23.6279C60.26 23.6279 60.084 23.9213 60.084 24.2833C60.084 24.6452 60.26 24.9386 60.4772 24.9386Z" fill="#A0616A"/>
<path d="M58.4676 57.6795H50.006C49.793 57.6795 49.5888 57.5949 49.4382 57.4443C49.2876 57.2937 49.203 57.0895 49.203 56.8765L48.8301 45.8047C48.8301 45.5917 48.9147 45.3875 49.0653 45.2369C49.2159 45.0863 49.4201 45.0017 49.6331 45.0017H58.8405C59.0535 45.0017 59.2577 45.0863 59.4083 45.2369C59.5589 45.3875 59.6435 45.5917 59.6435 45.8047L59.2706 56.8765C59.2706 57.0895 59.186 57.2937 59.0354 57.4443C58.8848 57.5949 58.6806 57.6795 58.4676 57.6795Z" fill="#E4E4E4"/>
<path d="M54.236 49.1033C54.6479 49.1033 54.9817 48.7694 54.9817 48.3576C54.9817 47.9457 54.6479 47.6118 54.236 47.6118C53.8241 47.6118 53.4902 47.9457 53.4902 48.3576C53.4902 48.7694 53.8241 49.1033 54.236 49.1033Z" fill="#6C63FF"/>
<path d="M55.4716 53.1653C55.6487 52.9286 55.8755 52.7336 56.136 52.5941C56.3966 52.4546 56.6845 52.3739 56.9797 52.3577C57.2748 52.3415 57.5699 52.3902 57.8441 52.5004C58.1184 52.6106 58.3651 52.7795 58.567 52.9954L62.893 51.3735L64.5198 53.762L58.3785 55.9666C57.9934 56.2818 57.506 56.4447 57.0088 56.4245C56.5116 56.4043 56.0391 56.2024 55.6808 55.8571C55.3225 55.5118 55.1033 55.0471 55.0647 54.5509C55.0262 54.0548 55.1709 53.5618 55.4716 53.1653L55.4716 53.1653Z" fill="#9E616A"/>
<path d="M52.8793 52.6767C52.7491 52.4113 52.5623 52.1778 52.3321 51.9924C52.1018 51.8071 51.8338 51.6745 51.5467 51.604C51.2597 51.5335 50.9607 51.5267 50.6708 51.5843C50.3809 51.6418 50.1071 51.7622 49.8688 51.937L45.9176 49.5427L43.877 51.589L49.5043 54.8918C49.8245 55.2728 50.2732 55.523 50.7656 55.5952C51.258 55.6673 51.7597 55.5564 52.1757 55.2833C52.5917 55.0103 52.8931 54.5941 53.0228 54.1137C53.1525 53.6333 53.1014 53.122 52.8793 52.6767V52.6767Z" fill="#9E616A"/>
<path d="M63.4734 34.5819C63.4734 34.5819 66.2821 34.0202 67.0311 36.4543C67.78 38.8885 71.5249 47.8763 70.4015 49.187C69.278 50.4977 65.1586 54.0554 63.8479 54.8044C62.5372 55.5534 61.9754 55.5533 61.9754 55.5533L60.2902 56.3023L59.7285 51.9957L61.6504 50.8573L64.5969 48.438L62.9117 43.3824L63.4734 34.5819Z" fill="#3F3D56"/>
<path d="M45.123 33.2711C45.123 33.2711 42.3143 32.7094 41.5654 35.1436C40.8164 37.5777 37.0715 46.5655 38.1949 47.8762C39.3184 49.1869 43.4378 52.7446 44.7485 53.4936C46.0592 54.2426 46.621 54.2425 46.621 54.2425L48.3062 54.9915L48.8679 50.6849L46.9461 49.5465L43.9995 47.1272L46.7146 40.48L45.123 33.2711Z" fill="#3F3D56"/>
</g>
<defs>
<clipPath id="clip0_249_11335">
<rect width="141.376" height="93.874" fill="white" transform="translate(0.949219 0.358154)"/>
</clipPath>
</defs>
</svg>
