<svg width="24" height="24" viewBox="0 0 24 24" fill="none" xmlns="http://www.w3.org/2000/svg">
<path d="M0 12C0 5.37258 5.37258 0 12 0C18.6274 0 24 5.37258 24 12C24 18.6274 18.6274 24 12 24C5.37258 24 0 18.6274 0 12Z" fill="white"/>
<path d="M0 12C0 5.37258 5.37258 0 12 0C18.6274 0 24 5.37258 24 12C24 18.6274 18.6274 24 12 24C5.37258 24 0 18.6274 0 12Z" fill="#07CA78" fill-opacity="0.12"/>
<path d="M18.5382 8.62508H16.6396V8.14178C16.9796 8.04044 17.2718 7.82011 17.4627 7.52107C17.6535 7.22204 17.7304 6.86429 17.6792 6.51324C17.628 6.16219 17.4521 5.84131 17.1838 5.60926C16.9154 5.37721 16.5725 5.24951 16.2178 5.24951C15.863 5.24951 15.5201 5.37721 15.2517 5.60926C14.9834 5.84131 14.8075 6.16219 14.7563 6.51324C14.7051 6.86429 14.782 7.22204 14.9729 7.52107C15.1638 7.82011 15.4559 8.04044 15.7959 8.14178V8.62508H8.20215V8.14178C8.54168 8.04008 8.83331 7.81967 9.02382 7.52079C9.21432 7.22191 9.29099 6.86448 9.23982 6.51376C9.18865 6.16304 9.01306 5.84242 8.74511 5.61042C8.47716 5.37843 8.13471 5.25053 7.78027 5.25008C7.42544 5.24984 7.08239 5.37741 6.81391 5.60942C6.54544 5.84143 6.3695 6.16237 6.3183 6.51349C6.2671 6.86461 6.34407 7.22243 6.53511 7.52145C6.72616 7.82046 7.0185 8.04067 7.35862 8.14178V8.62508H5.46007C5.43235 8.62505 5.40489 8.63048 5.37927 8.64108C5.35365 8.65168 5.33038 8.66722 5.31077 8.68682C5.29117 8.70643 5.27562 8.72971 5.26503 8.75533C5.25443 8.78094 5.24899 8.8084 5.24902 8.83613V13.0549C5.24902 13.1717 5.3433 13.2659 5.46007 13.2659H7.35862V14.7426H6.58507V15.5864H7.3584V18.0056C7.3584 18.1943 6.93652 18.7501 6.93652 18.7501H8.62402C8.62402 18.7501 8.20215 18.1943 8.20215 18.0051V15.5861H15.7959V18.0053C15.7959 18.1943 15.374 18.7501 15.374 18.7501H17.0615C17.0615 18.7501 16.6396 18.1943 16.6396 18.0051V15.5861H17.413V14.7424H16.6396V13.2657H18.5382C18.5659 13.2657 18.5934 13.2603 18.619 13.2497C18.6446 13.2391 18.6679 13.2236 18.6875 13.204C18.7071 13.1843 18.7226 13.1611 18.7332 13.1355C18.7438 13.1098 18.7493 13.0824 18.7492 13.0547V8.8359C18.7492 8.77997 18.7269 8.72634 18.6874 8.68681C18.6478 8.64728 18.5941 8.62508 18.5382 8.62508ZM13.8798 9.04695H16.1089L14.5397 12.8438H12.3111L13.8798 9.04695ZM6.7257 6.72675C6.7257 6.14468 7.19797 5.67195 7.7805 5.67195C8.36302 5.67195 8.8353 6.14468 8.8353 6.72675C8.8353 7.0065 8.72417 7.27479 8.52635 7.47261C8.32854 7.67042 8.06025 7.78155 7.7805 7.78155C7.50075 7.78155 7.23246 7.67042 7.03464 7.47261C6.83683 7.27479 6.7257 7.0065 6.7257 6.72675ZM5.73165 12.7804C5.69275 12.7412 5.67091 12.6882 5.6709 12.633V9.258C5.6709 9.14123 5.76517 9.04695 5.88195 9.04695H7.36222L5.73165 12.7804ZM7.78027 15.319C7.73922 15.319 7.69984 15.3027 7.67081 15.2737C7.64178 15.2447 7.62547 15.2053 7.62547 15.1643C7.62547 15.1232 7.64178 15.0838 7.67081 15.0548C7.69984 15.0258 7.73922 15.0094 7.78027 15.0094C7.82133 15.0094 7.8607 15.0258 7.88973 15.0548C7.91876 15.0838 7.93507 15.1232 7.93507 15.1643C7.93507 15.2053 7.91876 15.2447 7.88973 15.2737C7.8607 15.3027 7.82133 15.319 7.78027 15.319ZM7.7922 12.8438L9.4509 9.04695H11.6874L10.1182 12.8438H7.7922ZM15.7959 14.7424H8.20215V13.2657H15.7959V14.7424ZM16.2178 15.319C16.1767 15.319 16.1373 15.3027 16.1083 15.2737C16.0793 15.2447 16.063 15.2053 16.063 15.1643C16.063 15.1232 16.0793 15.0838 16.1083 15.0548C16.1373 15.0258 16.1767 15.0094 16.2178 15.0094C16.2588 15.0094 16.2982 15.0258 16.3272 15.0548C16.3563 15.0838 16.3726 15.1232 16.3726 15.1643C16.3726 15.2053 16.3563 15.2447 16.3272 15.2737C16.2982 15.3027 16.2588 15.319 16.2178 15.319ZM16.2178 7.78133C16.0793 7.78133 15.9421 7.75404 15.8141 7.70103C15.6861 7.64803 15.5699 7.57033 15.4719 7.47238C15.374 7.37443 15.2963 7.25815 15.2433 7.13018C15.1903 7.00221 15.163 6.86504 15.163 6.72653C15.163 6.58801 15.1903 6.45085 15.2433 6.32287C15.2963 6.1949 15.374 6.07862 15.4719 5.98067C15.5699 5.88272 15.6861 5.80503 15.8141 5.75202C15.9421 5.69901 16.0793 5.67173 16.2178 5.67173C16.4975 5.67173 16.7658 5.78286 16.9636 5.98067C17.1614 6.17848 17.2726 6.44678 17.2726 6.72653C17.2726 7.00628 17.1614 7.27457 16.9636 7.47238C16.7658 7.6702 16.4975 7.78133 16.2178 7.78133ZM18.3271 12.633C18.3272 12.6607 18.3217 12.6882 18.3111 12.7138C18.3005 12.7394 18.285 12.7627 18.2654 12.7823C18.2458 12.8019 18.2225 12.8174 18.1969 12.828C18.1713 12.8386 18.1438 12.8441 18.1161 12.8441H16.7326L18.272 9.11873C18.307 9.15672 18.3267 9.20635 18.3271 9.258V12.633Z" fill="#07CA78"/>
</svg>
