<svg width="241" height="132" viewBox="0 0 241 132" fill="none" xmlns="http://www.w3.org/2000/svg">
<g clip-path="url(#clip0_663_11259)">
<path d="M54.5586 113.991C54.5123 119.263 54.1262 124.525 53.4026 129.747C53.3773 129.93 53.3497 130.114 53.3243 130.297L3.95962 130.021C3.81468 129.839 3.67202 129.655 3.5338 129.468C3.07292 128.851 2.64097 128.216 2.24444 127.56C0.338544 124.396 -0.533996 120.692 0.340374 118.137L0.35603 118.097C0.544774 117.538 0.842193 117.021 1.23121 116.577C3.22475 114.333 7.25551 114.707 10.9133 116.518C7.63251 112.927 5.02011 108.395 4.82162 104.35C4.62699 100.405 6.69004 97.5862 8.92766 95.191C9.00108 95.1118 9.07449 95.0348 9.1479 94.9578C9.18353 94.9182 9.2213 94.8809 9.25682 94.8413C11.0026 93.0159 13.038 91.2165 15.984 91.4342C19.215 91.6733 22.7972 94.3797 25.3089 97.5333C27.8206 100.685 29.4897 104.265 31.1815 107.759C32.8755 111.25 34.7082 114.831 37.4266 117.816C33.7448 113.159 30.7763 107.86 29.6798 102.707C28.5832 97.5538 29.5483 92.6044 32.8296 90.1774C33.8258 89.4633 34.9785 88.9982 36.1913 88.821C36.3328 88.7975 36.4766 88.7784 36.6227 88.7615C39.6603 88.4159 43.287 89.4664 46.3728 91.9776C49.771 94.7426 52.127 98.8416 53.2993 102.733C54.4715 106.624 54.5964 110.37 54.5586 113.991Z" fill="#F2F2F2"/>
<path d="M22.2606 130.123L21.3167 130.118C21.017 129.931 20.7158 129.746 20.4133 129.563C20.226 129.444 20.0365 129.331 19.8469 129.215C16.7158 127.302 13.5652 125.468 10.3949 123.712C7.2276 121.954 4.04432 120.277 0.84512 118.682C0.760318 118.645 0.691134 118.579 0.649586 118.497C0.608039 118.414 0.596754 118.319 0.617698 118.229C0.621125 118.217 0.626439 118.206 0.63343 118.196C0.678052 118.112 0.777783 118.078 0.923338 118.149C1.31574 118.346 1.71041 118.543 2.10279 118.744C5.31073 120.367 8.50491 122.071 11.6853 123.856C14.8635 125.64 18.0236 127.503 21.1656 129.445C21.2317 129.485 21.2978 129.528 21.3639 129.568C21.6635 129.753 21.961 129.938 22.2606 130.123Z" fill="white"/>
<path d="M34.4318 130.191L33.8481 130.188C33.7164 130.004 33.5871 129.82 33.4554 129.635C30.3623 125.298 27.2698 120.96 24.178 116.623C19.1148 109.522 14.053 102.421 8.99284 95.3196C8.96284 95.2814 8.94054 95.2377 8.92716 95.191C8.88389 95.0338 8.99938 94.9415 9.1474 94.9579C9.20981 94.9668 9.2696 94.9889 9.32278 95.0227C9.37596 95.0566 9.42132 95.1014 9.45582 95.1541C12.2945 99.1365 15.1325 103.117 17.9698 107.097C23.0067 114.162 28.0429 121.227 33.0783 128.291C33.3986 128.74 33.7189 129.19 34.0392 129.639C34.1708 129.823 34.3024 130.007 34.4318 130.191Z" fill="white"/>
<path d="M47.4357 126.802C47.4059 127.785 47.3408 128.754 47.2558 129.713C47.2393 129.896 47.2228 130.079 47.2063 130.263L46.5939 130.259C46.6126 130.076 46.6313 129.893 46.6478 129.709C46.7772 128.324 46.869 126.922 46.8815 125.483C46.8978 121.493 46.5089 117.511 45.7208 113.599C44.8832 109.387 43.6804 105.256 42.1262 101.253C40.495 97.031 38.5282 92.9462 36.2448 89.038C36.2018 88.9743 36.1827 88.8974 36.1908 88.821C36.216 88.6465 36.4484 88.5947 36.6222 88.7615C36.6565 88.7942 36.6861 88.8316 36.71 88.8725C36.9925 89.3583 37.2698 89.8455 37.542 90.3342C39.7412 94.2641 41.6236 98.3631 43.1712 102.592C44.6453 106.609 45.7666 110.746 46.5224 114.957C47.2303 118.864 47.5363 122.833 47.4357 126.802Z" fill="white"/>
<path d="M218.443 101.539C218.443 99.1716 209.532 97.2524 198.54 97.2524C187.548 97.2524 178.637 99.1716 178.637 101.539C178.637 103.057 182.3 104.389 187.823 105.151V128.638C187.823 129.166 188.032 129.672 188.406 130.045C188.779 130.419 189.285 130.628 189.813 130.628C190.341 130.628 190.847 130.419 191.22 130.045C191.594 129.672 191.803 129.166 191.803 128.638V105.574C193.908 105.737 196.175 105.826 198.54 105.826C200.905 105.826 203.172 105.737 205.276 105.574V128.638C205.276 129.166 205.486 129.672 205.859 130.045C206.232 130.419 206.739 130.628 207.266 130.628C207.794 130.628 208.301 130.419 208.674 130.045C209.047 129.672 209.257 129.166 209.257 128.638V105.151C214.779 104.389 218.443 103.057 218.443 101.539Z" fill="#CCCCCC"/>
<path d="M200.741 62.3019C205.476 62.3019 209.314 58.4633 209.314 53.7283C209.314 48.9932 205.476 45.1547 200.741 45.1547C196.006 45.1547 192.167 48.9932 192.167 53.7283C192.167 58.4633 196.006 62.3019 200.741 62.3019Z" fill="#2F2E41"/>
<path d="M179.404 127.084H175.65L173.864 112.604H179.405L179.404 127.084Z" fill="#A0616A"/>
<path d="M172.969 126.011H180.208V130.569H168.41C168.41 129.971 168.528 129.378 168.757 128.825C168.986 128.272 169.322 127.769 169.745 127.346C170.169 126.923 170.671 126.587 171.224 126.358C171.777 126.129 172.37 126.011 172.969 126.011Z" fill="#2F2E41"/>
<path d="M173.545 124.989L169.963 123.864L172.594 109.514L177.88 111.173L173.545 124.989Z" fill="#A0616A"/>
<path d="M167.725 122.038L174.633 124.206L173.268 128.555L162.011 125.022C162.19 124.451 162.48 123.921 162.864 123.462C163.249 123.003 163.719 122.624 164.25 122.347C164.781 122.07 165.361 121.9 165.957 121.847C166.553 121.794 167.154 121.859 167.725 122.038Z" fill="#2F2E41"/>
<path d="M174.765 119.211C174.601 119.211 174.438 119.182 174.284 119.124L171.522 118.088C171.212 117.971 170.955 117.746 170.796 117.455C170.638 117.163 170.59 116.825 170.661 116.501C171.356 113.375 173.726 102.731 175.023 97.0218C176.562 90.2502 199.012 88.9919 199.967 88.9416L200.045 88.9374L202.57 92.111C203.483 95.0441 203.194 97.3319 201.711 98.9111C197.383 103.518 184.463 100.659 182.923 100.298L176.055 118.324C175.955 118.585 175.778 118.81 175.548 118.968C175.318 119.126 175.045 119.211 174.765 119.211Z" fill="#2F2E41"/>
<path d="M178.746 121.355C178.581 121.355 178.418 121.325 178.264 121.267L175.503 120.231C175.193 120.114 174.935 119.889 174.777 119.598C174.619 119.307 174.571 118.968 174.641 118.644C175.336 115.518 177.706 104.874 179.004 99.1652C180.542 92.3935 202.992 91.1352 203.947 91.085L204.025 91.0808L206.551 94.2543C207.463 97.1875 207.174 99.4753 205.691 101.054C201.364 105.662 188.444 102.803 186.903 102.441L180.036 120.467C179.936 120.728 179.759 120.953 179.529 121.111C179.298 121.27 179.025 121.355 178.746 121.355Z" fill="#2F2E41"/>
<path d="M170.756 77.2557C170.857 77.3914 170.948 77.5349 171.027 77.6848L186.128 79.2759L188.302 76.2953L193.229 78.9882L188.959 86.2211L170.438 81.4987C169.971 81.9543 169.376 82.2568 168.733 82.366C168.089 82.4752 167.428 82.386 166.836 82.1102C166.245 81.8343 165.752 81.385 165.422 80.8219C165.092 80.2588 164.941 79.6086 164.99 78.9578C165.039 78.307 165.284 77.6865 165.694 77.1787C166.104 76.6709 166.659 76.3 167.285 76.1152C167.911 75.9304 168.578 75.9406 169.198 76.1443C169.818 76.348 170.361 76.7357 170.756 77.2557L170.756 77.2557Z" fill="#A0616A"/>
<path d="M205.851 95.4691C205.633 95.4684 205.417 95.4158 205.223 95.3157C202.204 93.7802 196.323 91.121 190.87 90.5645C190.684 90.5462 190.503 90.4891 190.34 90.3968C190.177 90.3045 190.034 90.1791 189.923 90.0286C189.808 89.8766 189.727 89.7027 189.683 89.5177C189.639 89.3328 189.634 89.1408 189.667 88.9536C190.159 86.2298 191.288 79.294 191.143 73.7351C191.1 72.0259 191.64 70.353 192.674 68.9915C193.708 67.6299 195.174 66.6606 196.832 66.2431C197.831 65.9798 198.844 65.78 199.868 65.6448C201.044 65.4958 202.239 65.6243 203.356 66.0202C204.474 66.416 205.484 67.0681 206.304 67.9242C207.124 68.7802 207.733 69.8166 208.08 70.9501C208.428 72.0836 208.506 73.2828 208.306 74.4516C207.334 80.2123 206.354 88.2581 207.206 93.8747C207.245 94.1264 207.214 94.3841 207.115 94.6191C207.017 94.8541 206.856 95.0573 206.649 95.2063C206.417 95.3761 206.138 95.4682 205.851 95.4691Z" fill="#1D308D"/>
<path d="M191.422 80.8169C191.234 80.8166 191.048 80.7777 190.875 80.7027L186.941 78.9997C186.606 78.8542 186.343 78.5817 186.208 78.2421C186.074 77.9024 186.079 77.5233 186.224 77.1879L189.265 70.163C189.449 69.7383 189.714 69.354 190.046 69.032C190.378 68.7099 190.771 68.4565 191.201 68.2861C191.631 68.1157 192.09 68.0317 192.553 68.0389C193.015 68.0462 193.472 68.1445 193.896 68.3282C194.321 68.512 194.705 68.7776 195.027 69.1098C195.349 69.4421 195.602 69.8345 195.772 70.2647C195.942 70.6949 196.026 71.1543 196.018 71.6169C196.011 72.0794 195.912 72.5359 195.728 72.9603L192.687 79.9853C192.58 80.232 192.404 80.4421 192.179 80.5898C191.954 80.7375 191.691 80.8165 191.422 80.8169V80.8169Z" fill="#1D308D"/>
<path d="M200.427 63.2549C204.58 63.2549 207.947 59.8878 207.947 55.7343C207.947 51.5808 204.58 48.2137 200.427 48.2137C196.273 48.2137 192.906 51.5808 192.906 55.7343C192.906 59.8878 196.273 63.2549 200.427 63.2549Z" fill="#A0616A"/>
<path d="M192.771 52.0392C196.333 54.2138 200.349 55.5371 204.506 55.9061L203.269 54.4239C204.17 54.7569 205.118 54.9451 206.078 54.9815C207.036 54.9666 208.04 54.5975 208.584 53.8082C208.827 53.4159 208.971 52.9706 209.004 52.5105C209.038 52.0504 208.959 51.589 208.776 51.1658C208.399 50.3216 207.812 49.5879 207.071 49.0346C205.758 47.996 204.209 47.2984 202.561 47.0039C200.913 46.7094 199.218 46.8272 197.627 47.3467C196.535 47.6729 195.558 48.3 194.806 49.1561C194.093 50.0357 192.72 50.8193 193.085 51.891L192.771 52.0392Z" fill="#2F2E41"/>
<path d="M201.692 45.9702C199.32 43.5648 196.449 41.7086 193.283 40.5323C191.25 39.7792 189.037 39.314 186.912 39.7416C184.787 40.1693 182.777 41.6395 182.184 43.7246C181.699 45.4297 182.2 47.2655 182.952 48.8705C183.705 50.4755 184.709 51.9639 185.318 53.6288C185.938 55.3276 186.125 57.1545 185.861 58.9438C185.596 60.7331 184.889 62.428 183.804 63.8747C182.718 65.3214 181.289 66.474 179.645 67.228C178.001 67.9821 176.194 68.3135 174.39 68.1924C176.478 68.4723 178.402 69.4536 180.443 69.9759C182.484 70.4982 184.893 70.4628 186.41 69.0006C188.015 67.4536 188.047 64.9382 187.969 62.7105C187.854 59.399 187.739 56.0874 187.623 52.7758C187.565 51.087 187.514 49.3441 188.123 47.7678C188.732 46.1915 190.18 44.8112 191.87 44.8256C193.15 44.8364 194.284 45.6123 195.311 46.3774C196.338 47.1425 197.425 47.9588 198.701 48.0726C199.977 48.1864 201.433 47.2424 201.338 45.9652" fill="#2F2E41"/>
<path d="M187.783 93.5371C187.285 93.5366 186.793 93.4255 186.343 93.2119C185.892 92.9982 185.495 92.6874 185.18 92.3018C184.864 91.9162 184.638 91.4653 184.517 90.9818C184.397 90.4982 184.385 89.994 184.483 89.5053C184.581 89.0167 184.786 88.5559 185.084 88.1561C185.381 87.7563 185.764 87.4275 186.203 87.1933C186.643 86.9591 187.13 86.8254 187.627 86.8018C188.125 86.7782 188.622 86.8653 189.082 87.0568H189.082C189.221 87.1153 189.355 87.1832 189.484 87.2603L203.183 81.1097L203.568 77.3942L209.474 77.2361L209.434 83.4219C209.427 84.1384 209.189 84.8336 208.756 85.4041C208.322 85.9746 207.716 86.3901 207.027 86.5889L191.006 91.1491C190.975 91.255 190.939 91.3591 190.896 91.4611C190.639 92.0751 190.207 92.5996 189.653 92.9689C189.099 93.3382 188.449 93.5358 187.783 93.5371V93.5371Z" fill="#A0616A"/>
<path d="M208.973 80.2684C208.805 80.3534 208.622 80.403 208.434 80.4143L204.155 80.6773C203.791 80.6993 203.432 80.5757 203.158 80.3338C202.885 80.0918 202.718 79.7512 202.695 79.3867L202.226 71.7462C202.197 71.2842 202.259 70.8209 202.409 70.383C202.559 69.9451 202.794 69.541 203.1 69.1939C203.406 68.8468 203.778 68.5636 204.194 68.3603C204.61 68.1571 205.062 68.0378 205.524 68.0094C205.986 67.981 206.449 68.0439 206.887 68.1947C207.324 68.3454 207.728 68.581 208.074 68.8879C208.421 69.1948 208.704 69.567 208.906 69.9832C209.109 70.3995 209.227 70.8516 209.255 71.3137L209.725 78.9542C209.741 79.2226 209.679 79.4899 209.545 79.7234C209.412 79.9568 209.213 80.1462 208.973 80.2684L208.973 80.2684Z" fill="#1D308D"/>
<path d="M199.673 94.3097H175.484C175.199 94.3097 174.927 94.1968 174.726 93.9958C174.525 93.7948 174.412 93.5222 174.412 93.238C174.412 92.9538 174.525 92.6812 174.726 92.4802C174.927 92.2792 175.199 92.1663 175.484 92.1663H199.673C199.958 92.1663 200.23 92.2792 200.431 92.4802C200.632 92.6812 200.745 92.9538 200.745 93.238C200.745 93.5222 200.632 93.7948 200.431 93.9958C200.23 94.1968 199.958 94.3097 199.673 94.3097Z" fill="#3F3D56"/>
<path d="M164.92 92.3194V77.3156C164.921 76.7879 165.13 76.282 165.504 75.9089C165.877 75.5357 166.383 75.3259 166.91 75.3253H194.162C194.69 75.3259 195.196 75.5357 195.569 75.9089C195.942 76.282 196.152 76.7879 196.152 77.3156V92.3194C196.152 92.847 195.942 93.3529 195.569 93.7261C195.196 94.0992 194.69 94.3091 194.162 94.3097H166.91C166.383 94.3091 165.877 94.0992 165.504 93.7261C165.13 93.3529 164.921 92.847 164.92 92.3194Z" fill="#3F3D56"/>
<path d="M180.536 86.6547C181.551 86.6547 182.373 85.8321 182.373 84.8175C182.373 83.8028 181.551 82.9803 180.536 82.9803C179.521 82.9803 178.699 83.8028 178.699 84.8175C178.699 85.8321 179.521 86.6547 180.536 86.6547Z" fill="white"/>
<path d="M84.7507 67.1612C84.5026 66.7856 84.1752 66.4689 83.7915 66.2336C83.4078 65.9982 82.9771 65.8499 82.5299 65.7989C82.0826 65.748 81.6296 65.7958 81.2028 65.9389C80.776 66.082 80.3858 66.3169 80.0596 66.6271L70.3364 61.6085L70.9409 67.2623L80.0815 71.1613C80.639 71.6747 81.3654 71.9658 82.1232 71.9794C82.8809 71.993 83.6173 71.7282 84.1929 71.2351C84.7684 70.7421 85.1431 70.055 85.2459 69.3042C85.3487 68.5533 85.1725 67.7908 84.7507 67.1612H84.7507Z" fill="#FFB8B8"/>
<path d="M76.1086 69.4368C75.9326 69.5175 75.7417 69.5603 75.5481 69.5624C75.3546 69.5645 75.1628 69.5258 74.9851 69.4488L65.7495 65.4425C62.5916 64.0731 60.0386 61.6033 58.5654 58.4925L53.71 48.2436C53.3517 47.7832 53.0876 47.2568 52.9329 46.6943C52.7782 46.1318 52.7358 45.5443 52.8083 44.9655C52.8808 44.3866 53.0667 43.8277 53.3554 43.3208C53.644 42.8138 54.0298 42.3687 54.4906 42.011C54.9513 41.6532 55.4781 41.3898 56.0408 41.2358C56.6035 41.0817 57.191 41.0401 57.7698 41.1133C58.3485 41.1865 58.9072 41.3731 59.4138 41.6624C59.9204 41.9516 60.365 42.3379 60.7222 42.7992L69.2568 58.6339L77.1375 64.5869C77.363 64.7581 77.5306 64.9944 77.6175 65.2639C77.7044 65.5334 77.7064 65.8231 77.6233 66.0938L76.8498 68.5922C76.7667 68.8601 76.604 69.0963 76.3832 69.2693C76.2986 69.3358 76.2064 69.392 76.1086 69.4368Z" fill="#CCCCCC"/>
<path d="M53.4972 36.1904C57.6507 36.1904 61.0178 32.8233 61.0178 28.6698C61.0178 24.5163 57.6507 21.1492 53.4972 21.1492C49.3436 21.1492 45.9766 24.5163 45.9766 28.6698C45.9766 32.8233 49.3436 36.1904 53.4972 36.1904Z" fill="#FFB8B8"/>
<path d="M56.5429 127.326H60.2966L62.0827 112.847H56.542L56.5429 127.326Z" fill="#FFB8B8"/>
<path d="M67.5376 130.812L55.7395 130.812L55.7393 126.254L62.979 126.253C64.188 126.253 65.3474 126.734 66.2023 127.588C67.0572 128.443 67.5375 129.603 67.5376 130.812L67.5376 130.812Z" fill="#2F2E41"/>
<path d="M44.2949 127.326H48.0486L49.8346 112.847H44.2939L44.2949 127.326Z" fill="#FFB8B8"/>
<path d="M55.2896 130.812L43.4914 130.812L43.4912 126.254L50.731 126.253C51.9399 126.253 53.0994 126.734 53.9543 127.588C54.8092 128.443 55.2895 129.603 55.2896 130.812L55.2896 130.812Z" fill="#2F2E41"/>
<path d="M42.9843 123.182C42.855 123.034 42.7587 122.86 42.7019 122.673C42.6452 122.485 42.6292 122.287 42.6552 122.092L49.2276 72.7983L65.5569 75.5715L67.2996 74.5258L62.7931 121.296C62.7556 121.612 62.6103 121.905 62.3819 122.126C62.1534 122.347 61.8556 122.483 61.5388 122.51L56.5944 122.922C56.3978 122.938 56.2 122.912 56.0143 122.846C55.8287 122.779 55.6595 122.673 55.5182 122.536C55.3769 122.398 55.2668 122.232 55.1954 122.048C55.124 121.864 55.0929 121.667 55.1043 121.47L56.3844 99.1961C56.3867 99.1583 56.3748 99.121 56.3511 99.0914C56.3274 99.0618 56.2936 99.042 56.2562 99.0359C56.2188 99.0298 56.1804 99.0378 56.1486 99.0583C56.1167 99.0789 56.0936 99.1105 56.0837 99.1471L49.7506 122.633C49.6714 122.925 49.4982 123.183 49.2578 123.367C49.0174 123.552 48.7231 123.652 48.4202 123.652H44.021C43.8247 123.652 43.6306 123.61 43.4518 123.529C43.273 123.448 43.1136 123.329 42.9843 123.182Z" fill="#2F2E41"/>
<path d="M54.2924 76.2489C54.105 76.0792 53.864 75.9805 53.6114 75.9699C53.3588 75.9594 53.1105 76.0377 52.9096 76.1912L49.6449 78.7305C49.4673 78.8691 49.2583 78.9619 49.0364 79.0009C48.8145 79.0399 48.5864 79.0238 48.3721 78.9541C48.1579 78.8843 47.964 78.7631 47.8075 78.601C47.6511 78.4388 47.5368 78.2408 47.4747 78.0242C45.8734 72.416 42.2453 58.2994 43.1391 48.3637C43.6457 42.7319 48.509 38.4517 53.9801 38.8108C57.7206 39.0602 60.1813 41.218 61.294 45.224C64.0261 55.0598 67.0287 73.1017 67.6028 76.6188C67.6481 76.8917 67.6099 77.1718 67.4931 77.4226C67.3764 77.6733 67.1866 77.8829 66.9486 78.0239C65.4039 78.9512 63.6391 79.4479 61.8375 79.4622C59.6576 79.4622 57.0439 78.7033 54.2924 76.2489Z" fill="#CCCCCC"/>
<path d="M55.5251 79.7476C55.5617 79.2989 55.4994 78.8477 55.3428 78.4257C55.1861 78.0038 54.9388 77.6212 54.6183 77.3052C54.2978 76.9891 53.9118 76.7471 53.4877 76.5964C53.0636 76.4456 52.6115 76.3896 52.1634 76.4324L47.6097 66.483L44.5962 71.3048L49.3825 80.0137C49.5043 80.7617 49.8963 81.4391 50.4841 81.9174C51.072 82.3957 51.8149 82.6418 52.572 82.609C53.3292 82.5762 54.048 82.2668 54.5923 81.7394C55.1366 81.2121 55.4685 80.5033 55.5252 79.7476H55.5251Z" fill="#FFB8B8"/>
<path d="M47.3206 76.2057C47.1323 76.1607 46.9557 76.0765 46.8021 75.9587C46.6485 75.8408 46.5215 75.692 46.4292 75.5219L41.6343 66.6699C39.9946 63.6436 39.5099 60.1246 40.2704 56.7677L42.7747 45.7068C42.7769 45.1235 42.8942 44.5464 43.1196 44.0085C43.345 43.4705 43.6743 42.9823 44.0886 42.5716C44.5028 42.161 44.9939 41.836 45.5338 41.6153C46.0738 41.3946 46.6519 41.2825 47.2352 41.2853C47.8184 41.2882 48.3954 41.406 48.9332 41.6319C49.4709 41.8579 49.9588 42.1877 50.369 42.6023C50.7793 43.017 51.1037 43.5084 51.3239 44.0485C51.5441 44.5887 51.6557 45.1669 51.6522 45.7502L48.5959 63.4769L51.1232 73.0244C51.195 73.2983 51.181 73.5877 51.0831 73.8534C50.9851 74.1191 50.808 74.3483 50.5755 74.51L48.4251 75.9985C48.1944 76.1581 47.9206 76.2435 47.6401 76.2434C47.5325 76.2435 47.4252 76.2309 47.3206 76.2057Z" fill="#CCCCCC"/>
<path opacity="0.2" d="M51.0419 53.2262L48.2861 64.8618L52.2667 74.6602L49.5109 65.168L51.0419 53.2262Z" fill="black"/>
<path d="M49.2051 34.854C48.5361 34.8665 47.8713 34.7462 47.249 34.5002C46.9753 34.3946 46.6911 34.3079 46.4178 34.2023C44.0044 33.2699 42.4146 30.6997 42.3577 28.1131C42.3008 25.5265 43.6403 23.016 45.6293 21.3614C47.6184 19.7069 50.1947 18.8575 52.7745 18.6611C55.5533 18.4495 58.6824 19.1542 60.2352 21.4684C60.6485 22.0844 60.9376 22.8318 60.6926 23.5755C60.6193 23.8 60.4883 24.0012 60.3127 24.1591C59.6193 24.7761 58.9279 24.3122 58.221 24.2712C57.2494 24.2149 56.3767 25.0014 56.063 25.9227C55.7493 26.8441 55.8874 27.8584 56.1407 28.7981C56.3336 29.3636 56.4552 29.951 56.5027 30.5466C56.5232 30.8452 56.467 31.1442 56.3396 31.415C56.2121 31.6859 56.0176 31.9197 55.7744 32.0943C55.1673 32.4613 54.3699 32.2489 53.7624 31.8825C53.1549 31.5161 52.6299 31.0066 51.9737 30.737C51.3175 30.4674 50.4358 30.5272 50.0539 31.125C49.9325 31.3426 49.8503 31.5798 49.8112 31.8258C49.4687 33.3859 49.5474 33.294 49.205 34.854L49.2051 34.854Z" fill="#2F2E41"/>
<path d="M114.412 60.376C114.287 60.2182 114.2 60.034 114.157 59.8374C114.114 59.6408 114.117 59.437 114.164 59.2415C115.306 54.458 115.306 49.4728 114.164 44.6893C114.117 44.4938 114.114 44.2901 114.157 44.0935C114.2 43.8969 114.287 43.7126 114.412 43.5548C114.534 43.3991 114.69 43.2734 114.868 43.1872C115.046 43.1009 115.241 43.0564 115.439 43.057H127.648C127.96 43.0576 128.261 43.1689 128.499 43.3711C128.737 43.5733 128.895 43.8532 128.945 44.1611C129.742 49.3335 129.742 54.5973 128.945 59.7697C128.895 60.0776 128.737 60.3576 128.499 60.5597C128.261 60.7619 127.96 60.8732 127.648 60.8738H115.439C115.241 60.8744 115.046 60.8299 114.868 60.7437C114.69 60.6574 114.534 60.5317 114.412 60.376Z" fill="#E6E6E6"/>
<path d="M95.5243 17.3188C95.3995 17.161 95.3124 16.9768 95.2696 16.7803C95.2267 16.5837 95.2293 16.3799 95.2771 16.1845C96.4191 11.401 96.4191 6.41582 95.2771 1.6323C95.2293 1.43688 95.2267 1.23313 95.2696 1.03656C95.3124 0.839987 95.3995 0.655779 95.5243 0.49796C95.6464 0.342268 95.8024 0.216491 95.9804 0.130199C96.1584 0.0439063 96.3538 -0.000621058 96.5517 6.54332e-06H108.761C109.073 0.00063531 109.374 0.111943 109.612 0.314122C109.849 0.5163 110.008 0.796227 110.058 1.10407C110.854 6.27648 110.854 11.5403 110.058 16.7127C110.008 17.0206 109.849 17.3005 109.612 17.5027C109.374 17.7049 109.073 17.8162 108.761 17.8168H96.5517C96.3538 17.8174 96.1584 17.7729 95.9804 17.6866C95.8024 17.6003 95.6464 17.4745 95.5243 17.3188Z" fill="#E6E6E6"/>
<path d="M125.567 31.7218C124.77 26.5494 124.77 21.2855 125.567 16.1131C125.617 15.8053 125.775 15.5253 126.013 15.3231C126.25 15.1209 126.552 15.0096 126.864 15.009H139.073C139.271 15.0084 139.466 15.0529 139.644 15.1392C139.822 15.2255 139.978 15.3513 140.1 15.507C140.225 15.6648 140.312 15.849 140.355 16.0456C140.398 16.2422 140.395 16.4459 140.347 16.6413C139.205 21.4248 139.205 26.41 140.347 31.1935C140.395 31.389 140.398 31.5927 140.355 31.7893C140.312 31.9859 140.225 32.1701 140.1 32.3279C139.978 32.4836 139.822 32.6094 139.644 32.6956C139.466 32.7819 139.271 32.8265 139.073 32.8258H126.864C126.552 32.8253 126.25 32.714 126.013 32.5118C125.775 32.3096 125.617 32.0296 125.567 31.7218Z" fill="#1D308D"/>
<path d="M74.4547 31.1768C73.6583 26.0044 73.6583 20.7405 74.4547 15.5681C74.5052 15.2603 74.6633 14.9804 74.9009 14.7782C75.1385 14.576 75.4401 14.4647 75.752 14.4641H87.961C88.1589 14.4634 88.3543 14.508 88.5323 14.5942C88.7103 14.6805 88.8663 14.8063 88.9884 14.962C89.1132 15.1198 89.2003 15.304 89.2431 15.5006C89.286 15.6972 89.2834 15.9009 89.2356 16.0964C88.0936 20.8799 88.0935 25.865 89.2355 30.6486C89.2834 30.844 89.286 31.0477 89.2431 31.2443C89.2003 31.4409 89.1132 31.6251 88.9884 31.7829C88.8663 31.9386 88.7103 32.0644 88.5323 32.1507C88.3543 32.237 88.1589 32.2815 87.961 32.2809H75.752C75.4401 32.2802 75.1385 32.1689 74.9009 31.9667C74.6633 31.7646 74.5052 31.4846 74.4547 31.1768Z" fill="#FF6584"/>
<path d="M77.4739 67.208C77.3471 67.0475 77.2585 66.8603 77.215 66.6604C77.1714 66.4606 77.174 66.2535 77.2226 66.0548C78.3835 61.1927 78.3834 56.1256 77.2225 51.2635C77.174 51.0649 77.1714 50.8577 77.2149 50.6579C77.2585 50.4581 77.3471 50.2708 77.4739 50.1104C77.598 49.9522 77.7566 49.8244 77.9376 49.7367C78.1185 49.649 78.3171 49.6038 78.5182 49.6044H90.9276C91.2447 49.605 91.5513 49.7182 91.7928 49.9237C92.0343 50.1292 92.195 50.4137 92.2463 50.7266C93.0558 55.984 93.0558 61.3343 92.2463 66.5917C92.195 66.9046 92.0343 67.1892 91.7928 67.3947C91.5513 67.6002 91.2447 67.7133 90.9276 67.7139H78.5182C78.3171 67.7146 78.1185 67.6693 77.9375 67.5816C77.7566 67.494 77.598 67.3662 77.4739 67.208Z" fill="#1D308D"/>
<path d="M3.85246 131.093H240.635C240.732 131.093 240.825 131.054 240.893 130.986C240.961 130.918 241 130.825 241 130.728C241 130.631 240.961 130.539 240.893 130.47C240.825 130.402 240.732 130.364 240.635 130.364H3.85246C3.80449 130.363 3.75697 130.373 3.71262 130.391C3.66826 130.409 3.62795 130.436 3.59398 130.47C3.56001 130.504 3.53306 130.544 3.51467 130.588C3.49628 130.633 3.48682 130.68 3.48682 130.728C3.48682 130.776 3.49628 130.824 3.51467 130.868C3.53306 130.912 3.56001 130.952 3.59398 130.986C3.62795 131.02 3.66826 131.047 3.71262 131.065C3.75697 131.084 3.80449 131.093 3.85246 131.093Z" fill="#3F3D56"/>
<path d="M88.5329 56.2863H81.9957C81.7522 56.286 81.5187 56.1892 81.3465 56.017C81.1743 55.8447 81.0774 55.6112 81.0771 55.3677V54.9776C81.0774 54.7341 81.1743 54.5006 81.3465 54.3284C81.5187 54.1562 81.7522 54.0593 81.9957 54.059H88.5329C88.7765 54.0593 89.01 54.1562 89.1822 54.3284C89.3544 54.5006 89.4513 54.7341 89.4515 54.9776V55.3677C89.4513 55.6112 89.3544 55.8447 89.1822 56.017C89.01 56.1892 88.7765 56.286 88.5329 56.2863Z" fill="white"/>
<path d="M88.5329 60.1283H81.9957C81.7522 60.128 81.5187 60.0311 81.3465 59.8589C81.1743 59.6867 81.0774 59.4532 81.0771 59.2097V58.8196C81.0774 58.5761 81.1743 58.3426 81.3465 58.1703C81.5187 57.9981 81.7522 57.9013 81.9957 57.901H88.5329C88.7765 57.9013 89.01 57.9981 89.1822 58.1703C89.3544 58.3426 89.4513 58.5761 89.4515 58.8196V59.2097C89.4513 59.4532 89.3544 59.6867 89.1822 59.8589C89.01 60.0311 88.7765 60.128 88.5329 60.1283Z" fill="white"/>
<path d="M84.2033 22.0201H77.7965C77.553 22.0199 77.3195 21.923 77.1473 21.7508C76.9751 21.5786 76.8782 21.3451 76.8779 21.1015V20.7427C76.8782 20.4992 76.9751 20.2657 77.1473 20.0934C77.3195 19.9212 77.553 19.8244 77.7965 19.8241H84.2033C84.4469 19.8244 84.6804 19.9212 84.8526 20.0934C85.0248 20.2657 85.1217 20.4992 85.1219 20.7427V21.1015C85.1217 21.3451 85.0248 21.5786 84.8526 21.7508C84.6804 21.923 84.4469 22.0199 84.2033 22.0201Z" fill="white"/>
<path d="M125.136 49.0053H118.729C118.486 49.0051 118.252 48.9082 118.08 48.736C117.908 48.5638 117.811 48.3303 117.811 48.0867V47.7277C117.811 47.4842 117.908 47.2507 118.08 47.0785C118.252 46.9063 118.486 46.8094 118.729 46.8091H125.136C125.379 46.8094 125.613 46.9063 125.785 47.0785C125.957 47.2507 126.054 47.4842 126.054 47.7277V48.0867C126.054 48.3303 125.957 48.5638 125.785 48.736C125.613 48.9082 125.379 49.0051 125.136 49.0053Z" fill="white"/>
<path d="M125.136 53.5412H118.729C118.486 53.5409 118.252 53.4441 118.08 53.2719C117.908 53.0997 117.811 52.8662 117.811 52.6226V52.2636C117.811 52.0201 117.908 51.7866 118.08 51.6144C118.252 51.4422 118.486 51.3453 118.729 51.345H125.136C125.379 51.3453 125.613 51.4422 125.785 51.6144C125.957 51.7866 126.054 52.0201 126.054 52.2636V52.6226C126.054 52.8662 125.957 53.0997 125.785 53.2719C125.613 53.4441 125.379 53.5409 125.136 53.5412Z" fill="white"/>
<path d="M125.136 58.0771H118.729C118.486 58.0768 118.252 57.98 118.08 57.8078C117.908 57.6355 117.811 57.402 117.811 57.1585V56.7995C117.811 56.556 117.908 56.3225 118.08 56.1503C118.252 55.9781 118.486 55.8812 118.729 55.8809H125.136C125.379 55.8812 125.613 55.9781 125.785 56.1503C125.957 56.3225 126.054 56.556 126.054 56.7995V57.1585C126.054 57.402 125.957 57.6355 125.785 57.8078C125.613 57.98 125.379 58.0768 125.136 58.0771Z" fill="white"/>
<path d="M84.2033 25.8001H77.7965C77.553 25.7998 77.3195 25.7029 77.1473 25.5307C76.9751 25.3585 76.8782 25.125 76.8779 24.8815V24.5225C76.8782 24.2789 76.9751 24.0454 77.1473 23.8732C77.3195 23.701 77.553 23.6041 77.7965 23.6039H84.2033C84.4469 23.6041 84.6804 23.701 84.8526 23.8732C85.0248 24.0454 85.1217 24.2789 85.1219 24.5225V24.8815C85.1217 25.125 85.0248 25.3585 84.8526 25.5307C84.6804 25.7029 84.4469 25.7998 84.2033 25.8001Z" fill="white"/>
<path d="M106.304 6.70424H99.8976C99.6541 6.70397 99.4206 6.6071 99.2483 6.43489C99.0761 6.26268 98.9793 6.02918 98.979 5.78564V5.42666C98.9793 5.18311 99.0761 4.94962 99.2483 4.7774C99.4206 4.60519 99.6541 4.50832 99.8976 4.50806H106.304C106.548 4.50832 106.781 4.60519 106.954 4.7774C107.126 4.94962 107.223 5.18311 107.223 5.42666V5.78564C107.223 6.02918 107.126 6.26268 106.954 6.43489C106.781 6.6071 106.548 6.70397 106.304 6.70424Z" fill="white"/>
<path d="M135.538 22.9432H129.131C128.888 22.9429 128.654 22.8461 128.482 22.6738C128.31 22.5016 128.213 22.2681 128.213 22.0246V21.6656C128.213 21.4221 128.31 21.1886 128.482 21.0164C128.654 20.8441 128.888 20.7473 129.131 20.747H135.538C135.782 20.7473 136.015 20.8441 136.188 21.0164C136.36 21.1886 136.457 21.4221 136.457 21.6656V22.0246C136.457 22.2681 136.36 22.5016 136.188 22.6738C136.015 22.8461 135.782 22.9429 135.538 22.9432Z" fill="white"/>
</g>
<defs>
<clipPath id="clip0_663_11259">
<rect width="241" height="131.093" fill="white"/>
</clipPath>
</defs>
</svg>
