<svg width="12" height="14" viewBox="0 0 12 14" fill="none" xmlns="http://www.w3.org/2000/svg">
<path d="M9.33268 4.99992V3.66658C9.33268 1.79992 7.86602 0.333252 5.99935 0.333252C4.13268 0.333252 2.66602 1.79992 2.66602 3.66658V4.99992C1.53268 4.99992 0.666016 5.86658 0.666016 6.99992V11.6666C0.666016 12.7999 1.53268 13.6666 2.66602 13.6666H9.33268C10.466 13.6666 11.3327 12.7999 11.3327 11.6666V6.99992C11.3327 5.86658 10.466 4.99992 9.33268 4.99992ZM3.99935 3.66658C3.99935 2.53325 4.86602 1.66659 5.99935 1.66659C7.13268 1.66659 7.99935 2.53325 7.99935 3.66658V4.99992H3.99935V3.66658ZM6.73268 9.33325L6.66602 9.39992V10.3333C6.66602 10.7333 6.39935 10.9999 5.99935 10.9999C5.59935 10.9999 5.33268 10.7333 5.33268 10.3333V9.39992C4.93268 8.99992 4.86602 8.39992 5.26602 7.99992C5.66602 7.59992 6.26602 7.53325 6.66602 7.93325C7.06602 8.26658 7.13268 8.93325 6.73268 9.33325Z" fill="black"/>
</svg>
