<svg width="97" height="97" viewBox="0 0 97 97" fill="none" xmlns="http://www.w3.org/2000/svg">
<circle cx="48.5" cy="48.5" r="48.5" fill="white"/>
<circle cx="48.5" cy="48.5" r="48.5" fill="#091863" fill-opacity="0.2"/>
<g clip-path="url(#clip0_515_3544)">
<path d="M77.0388 34.1054C79.7224 34.1054 81.8979 31.9299 81.8979 29.2463C81.8979 26.5627 79.7224 24.3872 77.0388 24.3872C74.3552 24.3872 72.1797 26.5627 72.1797 29.2463C72.1797 31.9299 74.3552 34.1054 77.0388 34.1054Z" fill="#FF6884"/>
<path d="M69.8697 59.5964L64.3894 59.2471L64.0939 34.6044C64.0868 34.0062 64.3252 33.4205 64.7482 32.9975L70.6193 27.1264C71.4412 26.3046 72.7348 26.2452 73.6284 26.9886L79.9998 32.2888C80.5196 32.7212 80.8131 33.3569 80.8052 34.033L80.5862 52.5656L83.3555 56.4117L83.3613 56.4199L83.8305 60.4864L69.8697 59.5964Z" fill="#F1F2F2"/>
<path d="M70.793 32.864V31.7213C70.793 31.4197 71.0384 31.1743 71.34 31.1743H72.9455C73.2471 31.1743 73.4925 31.4197 73.4925 31.7213V32.864C73.4925 33.1657 73.2471 33.4111 72.9455 33.4111H71.34C71.0384 33.4111 70.793 33.1657 70.793 32.864Z" fill="#091863"/>
<path d="M67.3984 41.7339V37.506C67.3984 37.2044 67.6438 36.959 67.9455 36.959H70.3223C70.6239 36.959 70.8692 37.2044 70.8692 37.506V41.7339C70.8692 42.0355 70.6239 42.2809 70.3223 42.2809H67.9455C67.6438 42.2809 67.3984 42.0355 67.3984 41.7339Z" fill="#3F3D56"/>
<path d="M72.7729 51.6304C72.4856 51.6202 72.2539 51.3871 72.2454 51.0997L72.1252 47.0133C72.1201 46.8389 72.1956 46.6768 72.3324 46.5684C72.4692 46.4601 72.6444 46.424 72.813 46.4687L72.9332 46.5008C73.1722 46.5646 73.3392 46.7819 73.3392 47.0293V51.0837C73.3392 51.2334 73.2799 51.3732 73.1721 51.4773C73.0692 51.5767 72.9351 51.6307 72.7928 51.6307C72.7862 51.6307 72.7795 51.6306 72.7729 51.6304Z" fill="#3F3D56"/>
<path d="M67.7852 51.0665V46.8264C67.7852 46.5271 68.0196 46.2869 68.3188 46.2795L70.4791 46.2269C70.7785 46.2227 71.0305 46.4577 71.0393 46.7579L71.1637 51.0507C71.168 51.1997 71.1131 51.3407 71.0092 51.4477C70.9053 51.5546 70.766 51.6135 70.6169 51.6135H68.3322C68.0306 51.6135 67.7852 51.3681 67.7852 51.0665Z" fill="#3F3D56"/>
<path d="M80.5535 53.9639L82.2467 56.974L82.4411 60.3592L83.7893 60.4448L83.3265 56.4341L80.5499 52.5776C80.3102 53.009 80.3116 53.5338 80.5535 53.9639Z" fill="#CCCCCC"/>
<path d="M82.3859 59.3902L76.8906 59.4653L76.8917 59.5425L82.387 59.4673L82.3859 59.3902Z" fill="#3F3D56"/>
<path d="M82.0542 58.7098L76.8438 58.7505L76.8444 58.8276L82.0548 58.7869L82.0542 58.7098Z" fill="#3F3D56"/>
<path d="M81.7809 58.014L76.7969 58.1113L76.7984 58.1885L81.7824 58.0911L81.7809 58.014Z" fill="#3F3D56"/>
<path d="M81.6261 57.3223L76.8398 57.4812L76.8424 57.5583L81.6287 57.3994L81.6261 57.3223Z" fill="#3F3D56"/>
<path d="M81.3955 56.7063L76.7969 56.8679L76.7996 56.945L81.3982 56.7834L81.3955 56.7063Z" fill="#3F3D56"/>
<path d="M81.0883 56.1641H76.6094V56.2412H81.0883V56.1641Z" fill="#3F3D56"/>
<path d="M80.8568 55.6228L76.5039 55.6738L76.5048 55.751L80.8577 55.6999L80.8568 55.6228Z" fill="#3F3D56"/>
<path d="M80.6241 55.0836L76.4062 55.2236L76.4088 55.3008L80.6267 55.1607L80.6241 55.0836Z" fill="#3F3D56"/>
<path d="M80.4697 54.5464L76.3047 54.6196L76.306 54.6968L80.4711 54.6235L80.4697 54.5464Z" fill="#3F3D56"/>
<path d="M80.1638 54.0121L76.1758 54.1367L76.1782 54.2138L80.1662 54.0892L80.1638 54.0121Z" fill="#3F3D56"/>
<path d="M80.0075 53.5417L76.0547 53.5803L76.0554 53.6574L80.0083 53.6188L80.0075 53.5417Z" fill="#3F3D56"/>
<path d="M75.7656 51.9534V46.7228C75.7656 46.4212 76.011 46.1758 76.3126 46.1758H78.8437C79.1453 46.1758 79.3907 46.4212 79.3907 46.7228V51.9534C79.3907 52.255 79.1453 52.5003 78.8437 52.5003H76.3126C76.011 52.5003 75.7656 52.255 75.7656 51.9534Z" fill="#091863"/>
<path d="M69.872 59.5964L65.3916 59.311L65.3555 59.3087V55.8412C65.3555 55.4027 65.7122 55.0459 66.1507 55.0459H70.5762C71.0148 55.0459 71.3715 55.4027 71.3715 55.8412V59.5965H71.333L69.872 59.5964Z" fill="#CCCCCC"/>
<path d="M76.0742 42.4669V38.4704C76.0742 38.1687 76.3196 37.9233 76.6212 37.9233H77.4555C77.7571 37.9233 78.0024 38.1687 78.0024 38.4704V42.4669C78.0024 42.7685 77.7571 43.0138 77.4555 43.0138H76.6212C76.3196 43.0138 76.0742 42.7685 76.0742 42.4669Z" fill="#3F3D56"/>
<path d="M76.9235 59.982L76.6921 56.5883L75.9979 53.3489L75.8051 52.4619C75.4089 52.1925 74.8753 52.4922 74.8992 52.9708L74.9181 53.3489L75.6123 56.5883L75.8437 59.982" fill="#CCCCCC"/>
<path d="M50.6665 58.3623L45.1863 58.013L44.8908 33.3702C44.8836 32.7721 45.1221 32.1864 45.5451 31.7634L51.4162 25.8923C52.2381 25.0704 53.5316 25.0112 54.4252 25.7545L60.7967 31.0547C61.3164 31.4871 61.61 32.1228 61.602 32.7989L61.3831 51.3315L64.1523 55.1776L64.1582 55.1857L64.6274 59.2523L50.6665 58.3623Z" fill="#F1F2F2"/>
<path d="M51.5859 31.6301V30.4874C51.5859 30.1858 51.8313 29.9404 52.133 29.9404H53.7385C54.0401 29.9404 54.2854 30.1858 54.2854 30.4874V31.6301C54.2854 31.9318 54.0401 32.1772 53.7385 32.1772H52.133C51.8313 32.1772 51.5859 31.9318 51.5859 31.6301Z" fill="#091863"/>
<path d="M48.1953 40.5V36.2721C48.1953 35.9705 48.4407 35.7251 48.7424 35.7251H51.1191C51.4207 35.7251 51.6661 35.9705 51.6661 36.2721V40.5C51.6661 40.8016 51.4207 41.047 51.1191 41.047H48.7424C48.4407 41.047 48.1953 40.8016 48.1953 40.5Z" fill="#3F3D56"/>
<path d="M46.2764 50.2431C46.1687 50.1391 46.1094 49.9993 46.1094 49.8496V45.7952C46.1094 45.5478 46.2764 45.3305 46.5154 45.2667L46.6356 45.2346C46.8041 45.1898 46.9794 45.226 47.1162 45.3343C47.2531 45.4427 47.3285 45.6048 47.3234 45.7792L47.2032 49.8656C47.1948 50.153 46.9631 50.3861 46.6758 50.3963C46.6692 50.3965 46.6625 50.3966 46.6558 50.3966C46.5135 50.3966 46.3795 50.3425 46.2764 50.2431Z" fill="#3F3D56"/>
<path d="M48.5781 49.8325V45.5924C48.5781 45.2931 48.8125 45.0529 49.1119 45.0455L51.2721 44.9928C51.2767 44.9928 51.2811 44.9927 51.2856 44.9927C51.5797 44.9927 51.8236 45.2282 51.8322 45.5238L51.9567 49.8166C51.9609 49.9657 51.9061 50.1067 51.8022 50.2136C51.6983 50.3206 51.559 50.3795 51.4098 50.3795H49.1252C48.8235 50.3795 48.5781 50.1341 48.5781 49.8325Z" fill="#3F3D56"/>
<path d="M61.3465 52.73L63.0397 55.7401L63.234 59.1253L64.5822 59.2109L64.1195 55.2002L61.3428 51.3438C61.1032 51.7751 61.1046 52.2999 61.3465 52.73Z" fill="#CCCCCC"/>
<path d="M63.1828 58.1563L57.6875 58.2314L57.6886 58.3086L63.1839 58.2334L63.1828 58.1563Z" fill="#3F3D56"/>
<path d="M62.8471 57.4754L57.6367 57.5161L57.6373 57.5932L62.8477 57.5525L62.8471 57.4754Z" fill="#3F3D56"/>
<path d="M62.5778 56.7801L57.5938 56.8774L57.5953 56.9546L62.5793 56.8572L62.5778 56.7801Z" fill="#3F3D56"/>
<path d="M62.423 56.0882L57.6367 56.2471L57.6393 56.3242L62.4256 56.1653L62.423 56.0882Z" fill="#3F3D56"/>
<path d="M62.1923 55.4721L57.5938 55.6338L57.5965 55.7109L62.1951 55.5492L62.1923 55.4721Z" fill="#3F3D56"/>
<path d="M61.8852 54.9302H57.4062V55.0073H61.8852V54.9302Z" fill="#3F3D56"/>
<path d="M61.6536 54.3889L57.3008 54.4399L57.3017 54.5171L61.6545 54.4661L61.6536 54.3889Z" fill="#3F3D56"/>
<path d="M61.421 53.8495L57.2031 53.9895L57.2057 54.0666L61.4235 53.9266L61.421 53.8495Z" fill="#3F3D56"/>
<path d="M61.2666 53.3123L57.1016 53.3855L57.1029 53.4626L61.268 53.3894L61.2666 53.3123Z" fill="#3F3D56"/>
<path d="M60.9568 52.7782L56.9688 52.9028L56.9712 52.98L60.9592 52.8553L60.9568 52.7782Z" fill="#3F3D56"/>
<path d="M60.8044 52.3076L56.8516 52.3462L56.8523 52.4233L60.8052 52.3847L60.8044 52.3076Z" fill="#3F3D56"/>
<path d="M56.5625 50.7195V45.489C56.5625 45.1873 56.8079 44.9419 57.1095 44.9419H59.6406C59.9422 44.9419 60.1876 45.1873 60.1876 45.489V50.7195C60.1876 51.0211 59.9422 51.2665 59.6406 51.2665H57.1095C56.8079 51.2665 56.5625 51.0211 56.5625 50.7195Z" fill="#091863"/>
<path d="M50.6649 58.3623L46.1845 58.0769L46.1484 58.0746V54.6071C46.1484 54.1686 46.5052 53.8118 46.9438 53.8118H51.3693C51.8078 53.8118 52.1645 54.1686 52.1645 54.6071V58.3624H52.1259L50.6649 58.3623H50.6649Z" fill="#CCCCCC"/>
<path d="M56.8711 41.2325V37.236C56.8711 36.9344 57.1165 36.689 57.4181 36.689H58.2523C58.554 36.689 58.7993 36.9344 58.7993 37.236V41.2325C58.7993 41.5341 58.554 41.7795 58.2523 41.7795H57.4181C57.1165 41.7795 56.8711 41.5341 56.8711 41.2325Z" fill="#3F3D56"/>
<path d="M57.7203 58.7481L57.489 55.3545L56.7948 52.115L56.602 51.2281C56.2057 50.9586 55.6722 51.2583 55.6961 51.7369L55.715 52.115L56.4092 55.3545L56.6405 58.7481" fill="#CCCCCC"/>
<path d="M31.4595 57.1282L25.9793 56.7788L25.6838 32.1361C25.6766 31.538 25.9151 30.9523 26.3381 30.5293L32.2092 24.6582C33.031 23.8363 34.3247 23.7771 35.2181 24.5204L41.5896 29.8205C42.1094 30.2529 42.4029 30.8887 42.395 31.5647L42.1761 50.0973L44.9453 53.9435L44.9511 53.9516L45.4204 58.0181L31.4595 57.1282H31.4595Z" fill="#F1F2F2"/>
<path d="M32.3828 30.396V29.2533C32.3828 28.9517 32.6282 28.7063 32.9299 28.7063H34.5353C34.8369 28.7063 35.0823 28.9517 35.0823 29.2533V30.396C35.0823 30.6976 34.8369 30.943 34.5353 30.943H32.9299C32.6282 30.943 32.3828 30.6976 32.3828 30.396Z" fill="#091863"/>
<path d="M28.9883 39.2658V35.038C28.9883 34.7364 29.2337 34.491 29.5353 34.491H31.9121C32.2137 34.491 32.4591 34.7364 32.4591 35.038V39.2658C32.4591 39.5675 32.2137 39.8129 31.9121 39.8129H29.5353C29.2337 39.8129 28.9883 39.5675 28.9883 39.2658Z" fill="#3F3D56"/>
<path d="M27.3228 44.07L27.4429 44.038C27.7717 43.9503 28.0922 44.2041 28.0822 44.5442L27.962 48.6306C27.9541 48.8985 27.7396 49.1143 27.4718 49.1238H27.4718C27.1841 49.134 26.9453 48.9035 26.9453 48.6157V44.5613C26.9453 44.331 27.1002 44.1294 27.3228 44.07V44.07H27.3228Z" fill="#3F3D56"/>
<path d="M29.375 48.5985V44.3584C29.375 44.0591 29.6094 43.8189 29.9087 43.8115L32.0689 43.7589C32.3699 43.754 32.6204 43.9897 32.6291 44.2899L32.7535 48.5827C32.7578 48.7317 32.703 48.8727 32.599 48.9797C32.4952 49.0866 32.3558 49.1455 32.2067 49.1455H29.9221C29.6204 49.1455 29.375 48.9001 29.375 48.5985H29.375Z" fill="#3F3D56"/>
<path d="M42.1434 51.4956L43.8365 54.5057L44.0309 57.8909L45.3791 57.9765L44.9163 53.9658L42.1397 50.1094C41.9001 50.5407 41.9014 51.0656 42.1434 51.4956Z" fill="#CCCCCC"/>
<path d="M43.9758 56.9222L38.4805 56.9973L38.4815 57.0744L43.9769 56.9993L43.9758 56.9222Z" fill="#3F3D56"/>
<path d="M43.644 56.2415L38.4336 56.2822L38.4342 56.3594L43.6446 56.3186L43.644 56.2415Z" fill="#3F3D56"/>
<path d="M43.3707 55.5457L38.3867 55.6431L38.3882 55.7202L43.3723 55.6229L43.3707 55.5457Z" fill="#3F3D56"/>
<path d="M43.216 54.8543L38.4297 55.0132L38.4322 55.0903L43.2185 54.9314L43.216 54.8543Z" fill="#3F3D56"/>
<path d="M42.9853 54.2382L38.3867 54.3999L38.3894 54.477L42.988 54.3154L42.9853 54.2382Z" fill="#3F3D56"/>
<path d="M42.6782 53.696H38.1992V53.7732H42.6782V53.696Z" fill="#3F3D56"/>
<path d="M42.4466 53.1548L38.0938 53.2058L38.0947 53.2829L42.4475 53.2319L42.4466 53.1548Z" fill="#3F3D56"/>
<path d="M42.2139 52.6153L37.9961 52.7554L37.9987 52.8325L42.2165 52.6925L42.2139 52.6153Z" fill="#3F3D56"/>
<path d="M42.0596 52.0782L37.8945 52.1514L37.8959 52.2285L42.0609 52.1553L42.0596 52.0782Z" fill="#3F3D56"/>
<path d="M41.7537 51.5441L37.7656 51.6687L37.768 51.7458L41.7561 51.6212L41.7537 51.5441Z" fill="#3F3D56"/>
<path d="M41.5974 51.0737L37.6445 51.1123L37.6453 51.1894L41.5981 51.1508L41.5974 51.0737Z" fill="#3F3D56"/>
<path d="M37.3555 49.4856V44.2551C37.3555 43.9534 37.6009 43.708 37.9025 43.708H40.4335C40.7351 43.708 40.9805 43.9534 40.9805 44.2551V49.4856C40.9805 49.7872 40.7351 50.0326 40.4335 50.0326H37.9025C37.6009 50.0326 37.3555 49.7872 37.3555 49.4856Z" fill="#091863"/>
<path d="M31.4618 57.1282L26.9814 56.8428L26.9453 56.8404V53.373C26.9453 52.9344 27.3021 52.5776 27.7406 52.5776H32.1661C32.6046 52.5776 32.9614 52.9344 32.9614 53.373V57.1282H32.9228L31.4618 57.1282Z" fill="#CCCCCC"/>
<path d="M37.6641 39.9986V36.0021C37.6641 35.7005 37.9095 35.4551 38.2111 35.4551H39.0453C39.3469 35.4551 39.5923 35.7005 39.5923 36.0021V39.9986C39.5923 40.3002 39.3469 40.5456 39.0453 40.5456H38.2111C37.9095 40.5456 37.6641 40.3002 37.6641 39.9986Z" fill="#3F3D56"/>
<path d="M38.5133 57.5138L38.2819 54.1201L37.5878 50.8807L37.3949 49.9937C36.9987 49.7242 36.4651 50.024 36.4891 50.5025L36.508 50.8807L37.2021 54.1201L37.4335 57.5138" fill="#CCCCCC"/>
<path d="M18.8224 56.252L18.8125 56.406L88.9905 60.9381L89.0004 60.7841L18.8224 56.252Z" fill="#CCCCCC"/>
<path d="M60.0572 67.0471L54.5769 66.6978L54.2814 42.055C54.2743 41.4569 54.5127 40.8712 54.9357 40.4482L60.8068 34.5771C61.6287 33.7553 62.9223 33.6959 63.8159 34.4393L70.1873 39.7395C70.7071 40.1719 71.0006 40.8076 70.9927 41.4837L70.7737 60.0163L73.543 63.8624L73.5488 63.8705L74.018 67.9371L60.0572 67.0471Z" fill="#E6E6E6"/>
<path d="M60.9805 40.3147V39.172C60.9805 38.8704 61.2259 38.625 61.5275 38.625H63.133C63.4346 38.625 63.68 38.8704 63.68 39.172V40.3147C63.68 40.6163 63.4346 40.8617 63.133 40.8617H61.5275C61.2259 40.8617 60.9805 40.6163 60.9805 40.3147Z" fill="#091863"/>
<path d="M57.5859 49.1845V44.9567C57.5859 44.6551 57.8313 44.4097 58.133 44.4097H60.5098C60.8114 44.4097 61.0567 44.6551 61.0567 44.9567V49.1845C61.0567 49.4862 60.8114 49.7316 60.5098 49.7316H58.133C57.8313 49.7316 57.5859 49.4862 57.5859 49.1845Z" fill="#3F3D56"/>
<path d="M62.9604 59.0811C62.6731 59.0709 62.4414 58.8378 62.4329 58.5504L62.3127 54.464C62.3076 54.2896 62.3831 54.1275 62.5199 54.0191C62.6567 53.9108 62.8319 53.8746 63.0005 53.9194L63.1207 53.9515C63.3597 54.0153 63.5267 54.2326 63.5267 54.48V58.5344C63.5267 58.6841 63.4674 58.8239 63.3596 58.9279C63.2567 59.0274 63.1226 59.0814 62.9803 59.0814C62.9737 59.0814 62.967 59.0813 62.9604 59.0811Z" fill="#3F3D56"/>
<path d="M57.9727 58.5172V54.2771C57.9727 53.9778 58.2071 53.7376 58.5063 53.7302L60.6666 53.6775C60.966 53.6734 61.218 53.9084 61.2268 54.2086L61.3512 58.5013C61.3555 58.6504 61.3006 58.7914 61.1967 58.8984C61.0928 59.0053 60.9535 59.0642 60.8044 59.0642H58.5197C58.2181 59.0642 57.9727 58.8188 57.9727 58.5172Z" fill="#3F3D56"/>
<path d="M70.741 61.4146L72.4342 64.4247L72.6286 67.8099L73.9768 67.8955L73.514 63.8848L70.7374 60.0283C70.4977 60.4597 70.4991 60.9845 70.741 61.4146Z" fill="#CCCCCC"/>
<path d="M72.5734 66.8409L67.0781 66.916L67.0792 66.9931L72.5745 66.918L72.5734 66.8409Z" fill="#3F3D56"/>
<path d="M72.2417 66.1605L67.0312 66.2012L67.0319 66.2783L72.2423 66.2376L72.2417 66.1605Z" fill="#3F3D56"/>
<path d="M71.9684 65.4647L66.9844 65.562L66.9859 65.6391L71.9699 65.5418L71.9684 65.4647Z" fill="#3F3D56"/>
<path d="M71.8136 64.773L67.0273 64.9319L67.0299 65.009L71.8162 64.8501L71.8136 64.773Z" fill="#3F3D56"/>
<path d="M71.583 64.1569L66.9844 64.3186L66.9871 64.3957L71.5857 64.2341L71.583 64.1569Z" fill="#3F3D56"/>
<path d="M71.2758 63.6147H66.7969V63.6919H71.2758V63.6147Z" fill="#3F3D56"/>
<path d="M71.0443 63.0735L66.6914 63.1245L66.6923 63.2016L71.0452 63.1506L71.0443 63.0735Z" fill="#3F3D56"/>
<path d="M70.8116 62.5343L66.5938 62.6743L66.5963 62.7514L70.8142 62.6114L70.8116 62.5343Z" fill="#3F3D56"/>
<path d="M70.6572 61.9971L66.4922 62.0703L66.4935 62.1474L70.6586 62.0742L70.6572 61.9971Z" fill="#3F3D56"/>
<path d="M70.3513 61.4628L66.3633 61.5874L66.3657 61.6645L70.3537 61.5399L70.3513 61.4628Z" fill="#3F3D56"/>
<path d="M70.195 60.9924L66.2422 61.031L66.2429 61.1081L70.1958 61.0695L70.195 60.9924Z" fill="#3F3D56"/>
<path d="M65.9531 59.4041V54.1735C65.9531 53.8719 66.1985 53.6265 66.5001 53.6265H69.0312C69.3328 53.6265 69.5782 53.8719 69.5782 54.1735V59.4041C69.5782 59.7056 69.3328 59.951 69.0312 59.951H66.5001C66.1985 59.951 65.9531 59.7056 65.9531 59.4041Z" fill="#091863"/>
<path d="M60.0595 67.0471L55.5791 66.7617L55.543 66.7594V63.2919C55.543 62.8534 55.8997 62.4966 56.3382 62.4966H60.7637C61.2023 62.4966 61.559 62.8534 61.559 63.2919V67.0472H61.5205L60.0595 67.0471Z" fill="#CCCCCC"/>
<path d="M66.2617 49.9175V45.921C66.2617 45.6194 66.5071 45.374 66.8087 45.374H67.643C67.9446 45.374 68.1899 45.6194 68.1899 45.921V49.9175C68.1899 50.2191 67.9446 50.4645 67.643 50.4645H66.8087C66.5071 50.4645 66.2617 50.2191 66.2617 49.9175Z" fill="#3F3D56"/>
<path d="M67.111 67.4327L66.8796 64.039L66.1854 60.7996L65.9926 59.9126C65.5964 59.6432 65.0628 59.9429 65.0867 60.4215L65.1056 60.7996L65.7998 64.039L66.0312 67.4327" fill="#CCCCCC"/>
<path d="M40.854 65.813L35.3738 65.4637L35.0783 40.8209C35.0711 40.2228 35.3096 39.6371 35.7326 39.2141L41.6037 33.343C42.4256 32.5211 43.7191 32.4619 44.6127 33.2052L50.9842 38.5054C51.5039 38.9378 51.7975 39.5735 51.7895 40.2496L51.5706 58.7822L54.3398 62.6283L54.3457 62.6364L54.8149 66.7029L40.854 65.813H40.854Z" fill="#E6E6E6"/>
<path d="M41.7734 39.0808V37.9381C41.7734 37.6365 42.0188 37.3911 42.3205 37.3911H43.926C44.2276 37.3911 44.4729 37.6365 44.4729 37.9381V39.0808C44.4729 39.3825 44.2276 39.6279 43.926 39.6279H42.3205C42.0188 39.6279 41.7734 39.3825 41.7734 39.0808Z" fill="#091863"/>
<path d="M38.3828 47.9507V43.7228C38.3828 43.4212 38.6282 43.1758 38.9299 43.1758H41.3066C41.6082 43.1758 41.8536 43.4212 41.8536 43.7228V47.9507C41.8536 48.2523 41.6082 48.4977 41.3066 48.4977H38.9299C38.6282 48.4977 38.3828 48.2523 38.3828 47.9507Z" fill="#3F3D56"/>
<path d="M36.4639 57.6938C36.3562 57.5898 36.2969 57.45 36.2969 57.3003V53.2459C36.2969 52.9984 36.4639 52.7811 36.7029 52.7173L36.8231 52.6853C36.9916 52.6405 37.1669 52.6767 37.3037 52.785C37.4406 52.8934 37.516 53.0555 37.5109 53.2299L37.3907 57.3163C37.3823 57.6037 37.1506 57.8368 36.8633 57.8469C36.8567 57.8472 36.85 57.8472 36.8433 57.8472C36.701 57.8472 36.567 57.7932 36.4639 57.6938V57.6938Z" fill="#3F3D56"/>
<path d="M38.7656 57.2832V53.0431C38.7656 52.7437 39 52.5035 39.2994 52.4962L41.4596 52.4435C41.4642 52.4434 41.4686 52.4434 41.4731 52.4434C41.7672 52.4434 42.0111 52.6789 42.0197 52.9745L42.1442 57.2673C42.1484 57.4164 42.0936 57.5574 41.9897 57.6643C41.8858 57.7713 41.7465 57.8302 41.5973 57.8302H39.3127C39.011 57.8302 38.7656 57.5848 38.7656 57.2832Z" fill="#3F3D56"/>
<path d="M51.534 60.1807L53.2272 63.1908L53.4215 66.576L54.7697 66.6616L54.307 62.6509L51.5303 58.7944C51.2907 59.2258 51.2921 59.7506 51.534 60.1807Z" fill="#CCCCCC"/>
<path d="M53.3703 65.607L47.875 65.6821L47.8761 65.7593L53.3714 65.6841L53.3703 65.607Z" fill="#3F3D56"/>
<path d="M53.0346 64.9261L47.8242 64.9668L47.8248 65.0439L53.0352 65.0032L53.0346 64.9261Z" fill="#3F3D56"/>
<path d="M52.7653 64.2308L47.7812 64.3281L47.7828 64.4053L52.7668 64.3079L52.7653 64.2308Z" fill="#3F3D56"/>
<path d="M52.6105 63.5388L47.8242 63.6978L47.8268 63.7749L52.6131 63.616L52.6105 63.5388Z" fill="#3F3D56"/>
<path d="M52.3798 62.9228L47.7812 63.0845L47.784 63.1616L52.3826 62.9999L52.3798 62.9228Z" fill="#3F3D56"/>
<path d="M52.0727 62.3809H47.5938V62.458H52.0727V62.3809Z" fill="#3F3D56"/>
<path d="M51.8411 61.8396L47.4883 61.8906L47.4892 61.9678L51.842 61.9167L51.8411 61.8396Z" fill="#3F3D56"/>
<path d="M51.6085 61.3001L47.3906 61.4402L47.3932 61.5173L51.611 61.3773L51.6085 61.3001Z" fill="#3F3D56"/>
<path d="M51.4541 60.763L47.2891 60.8362L47.2904 60.9133L51.4555 60.8401L51.4541 60.763Z" fill="#3F3D56"/>
<path d="M51.1443 60.2289L47.1562 60.3535L47.1587 60.4306L51.1467 60.306L51.1443 60.2289Z" fill="#3F3D56"/>
<path d="M50.9919 59.7583L47.0391 59.7969L47.0398 59.874L50.9927 59.8354L50.9919 59.7583Z" fill="#3F3D56"/>
<path d="M46.75 58.1702V52.9396C46.75 52.638 46.9954 52.3926 47.297 52.3926H49.8281C50.1297 52.3926 50.3751 52.638 50.3751 52.9396V58.1702C50.3751 58.4718 50.1297 58.7171 49.8281 58.7171H47.297C46.9954 58.7171 46.75 58.4718 46.75 58.1702Z" fill="#091863"/>
<path d="M40.8524 65.813L36.372 65.5276L36.3359 65.5253V62.0578C36.3359 61.6192 36.6927 61.2625 37.1313 61.2625H41.5567C41.9953 61.2625 42.352 61.6192 42.352 62.0578V65.8131H42.3134L40.8524 65.813Z" fill="#CCCCCC"/>
<path d="M47.0586 48.6831V44.6867C47.0586 44.385 47.304 44.1396 47.6056 44.1396H48.4398C48.7415 44.1396 48.9868 44.385 48.9868 44.6867V48.6831C48.9868 48.9848 48.7415 49.2302 48.4398 49.2302H47.6056C47.304 49.2302 47.0586 48.9848 47.0586 48.6831Z" fill="#3F3D56"/>
<path d="M47.9078 66.1988L47.6765 62.8051L46.9823 59.5657L46.7895 58.6787C46.3932 58.4093 45.8597 58.709 45.8836 59.1876L45.9025 59.5657L46.5967 62.8051L46.828 66.1988" fill="#CCCCCC"/>
<path d="M21.647 64.5789L16.1668 64.2295L15.8713 39.5868C15.8641 38.9886 16.1026 38.403 16.5256 37.9799L22.3967 32.1088C23.2185 31.287 24.5122 31.2277 25.4056 31.971L31.7771 37.2712C32.2969 37.7036 32.5904 38.3393 32.5825 39.0154L32.3636 57.548L35.1328 61.3941L35.1386 61.4023L35.6079 65.4688L21.647 64.5789H21.647Z" fill="#E6E6E6"/>
<path d="M22.5703 37.8467V36.704C22.5703 36.4024 22.8157 36.157 23.1174 36.157H24.7228C25.0244 36.157 25.2698 36.4024 25.2698 36.704V37.8467C25.2698 38.1483 25.0244 38.3937 24.7228 38.3937H23.1174C22.8157 38.3937 22.5703 38.1483 22.5703 37.8467Z" fill="#091863"/>
<path d="M19.1758 46.7165V42.4887C19.1758 42.187 19.4212 41.9417 19.7228 41.9417H22.0996C22.4012 41.9417 22.6466 42.187 22.6466 42.4887V46.7165C22.6466 47.0181 22.4012 47.2635 22.0996 47.2635H19.7228C19.4212 47.2635 19.1758 47.0181 19.1758 46.7165Z" fill="#3F3D56"/>
<path d="M17.5103 51.5207L17.6304 51.4887C17.9592 51.401 18.2797 51.6548 18.2697 51.9949L18.1495 56.0813C18.1416 56.3492 17.9271 56.565 17.6593 56.5745H17.6593C17.3716 56.5847 17.1328 56.3542 17.1328 56.0663V52.012C17.1328 51.7816 17.2877 51.5801 17.5103 51.5207V51.5207H17.5103Z" fill="#3F3D56"/>
<path d="M19.5625 56.0492V51.8091C19.5625 51.5098 19.7969 51.2696 20.0962 51.2622L22.2564 51.2095C22.5574 51.2047 22.8079 51.4404 22.8166 51.7406L22.941 56.0333C22.9453 56.1824 22.8905 56.3234 22.7865 56.4304C22.6827 56.5373 22.5433 56.5962 22.3942 56.5962H20.1096C19.8079 56.5962 19.5625 56.3508 19.5625 56.0492Z" fill="#3F3D56"/>
<path d="M32.3309 58.9463L34.024 61.9564L34.2184 65.3416L35.5666 65.4272L35.1038 61.4165L32.3272 57.5601C32.0876 57.9914 32.0889 58.5162 32.3309 58.9463Z" fill="#CCCCCC"/>
<path d="M34.1633 64.3729L28.668 64.448L28.669 64.5251L34.1644 64.45L34.1633 64.3729Z" fill="#3F3D56"/>
<path d="M33.8315 63.6922L28.6211 63.7329L28.6217 63.81L33.8321 63.7693L33.8315 63.6922Z" fill="#3F3D56"/>
<path d="M33.5582 62.9964L28.5742 63.0938L28.5757 63.1709L33.5598 63.0735L33.5582 62.9964Z" fill="#3F3D56"/>
<path d="M33.4035 62.3049L28.6172 62.4639L28.6197 62.541L33.406 62.3821L33.4035 62.3049Z" fill="#3F3D56"/>
<path d="M33.1728 61.6889L28.5742 61.8506L28.5769 61.9277L33.1755 61.766L33.1728 61.6889Z" fill="#3F3D56"/>
<path d="M32.8657 61.1467H28.3867V61.2239H32.8657V61.1467Z" fill="#3F3D56"/>
<path d="M32.6341 60.6055L28.2812 60.6565L28.2822 60.7336L32.635 60.6826L32.6341 60.6055Z" fill="#3F3D56"/>
<path d="M32.4014 60.066L28.1836 60.2061L28.1862 60.2832L32.404 60.1431L32.4014 60.066Z" fill="#3F3D56"/>
<path d="M32.2471 59.5288L28.082 59.6021L28.0834 59.6792L32.2484 59.606L32.2471 59.5288Z" fill="#3F3D56"/>
<path d="M31.9412 58.9948L27.9531 59.1194L27.9555 59.1965L31.9436 59.0719L31.9412 58.9948Z" fill="#3F3D56"/>
<path d="M31.7849 58.5244L27.832 58.563L27.8328 58.6401L31.7856 58.6015L31.7849 58.5244Z" fill="#3F3D56"/>
<path d="M27.543 56.9363V51.7057C27.543 51.4041 27.7884 51.1587 28.09 51.1587H30.621C30.9226 51.1587 31.168 51.4041 31.168 51.7057V56.9363C31.168 57.2379 30.9226 57.4833 30.621 57.4833H28.09C27.7884 57.4833 27.543 57.2379 27.543 56.9363Z" fill="#091863"/>
<path d="M21.6493 64.5788L17.1689 64.2935L17.1328 64.2911V60.8236C17.1328 60.3851 17.4896 60.0283 17.9281 60.0283H22.3536C22.7921 60.0283 23.1489 60.3851 23.1489 60.8236V64.5789H23.1103L21.6493 64.5788H21.6493Z" fill="#CCCCCC"/>
<path d="M27.8516 47.4492V43.4528C27.8516 43.1512 28.097 42.9058 28.3986 42.9058H29.2328C29.5344 42.9058 29.7798 43.1512 29.7798 43.4528V47.4492C29.7798 47.7509 29.5344 47.9963 29.2328 47.9963H28.3986C28.097 47.9963 27.8516 47.7509 27.8516 47.4492Z" fill="#3F3D56"/>
<path d="M28.7008 64.9644L28.4694 61.5708L27.7753 58.3314L27.5824 57.4444C27.1862 57.1749 26.6526 57.4746 26.6766 57.9532L26.6955 58.3314L27.3896 61.5708L27.621 64.9644" fill="#CCCCCC"/>
<path d="M9.00994 63.7027L9 63.8567L79.178 68.3887L79.1879 68.2348L9.00994 63.7027Z" fill="#CCCCCC"/>
</g>
<defs>
<clipPath id="clip0_515_3544">
<rect width="80" height="44.3886" fill="white" transform="translate(9 24)"/>
</clipPath>
</defs>
</svg>
