<svg width="97" height="97" viewBox="0 0 97 97" fill="none" xmlns="http://www.w3.org/2000/svg">
<circle cx="48.5" cy="48.5" r="48.5" fill="white"/>
<circle cx="48.5" cy="48.5" r="48.5" fill="#F3564C" fill-opacity="0.2"/>
<g clip-path="url(#clip0_515_3348)">
<path opacity="0.1" d="M35.5972 83.6351C39.4931 83.6351 42.6514 83.1279 42.6514 82.5021C42.6514 81.8764 39.4931 81.3691 35.5972 81.3691C31.7013 81.3691 28.543 81.8764 28.543 82.5021C28.543 83.1279 31.7013 83.6351 35.5972 83.6351Z" fill="#F3564C"/>
<path opacity="0.1" d="M73.9432 83.6669C78.8047 83.6669 82.7458 83.1596 82.7458 82.5339C82.7458 81.9081 78.8047 81.4009 73.9432 81.4009C69.0817 81.4009 65.1406 81.9081 65.1406 82.5339C65.1406 83.1596 69.0817 83.6669 73.9432 83.6669Z" fill="#F3564C"/>
<path opacity="0.1" d="M10.0021 51.4841H17.3496V61.4986H10.54C10.5219 61.6014 10.5046 61.7049 10.4857 61.8085H17.3496V69.8849C17.3373 69.8813 17.3264 69.8769 17.3148 69.8726C17.1208 69.7959 16.9282 69.7148 16.7357 69.6279L16.6126 69.5722C16.4195 69.4809 16.2265 69.3844 16.0334 69.2826C15.9661 69.2471 15.8988 69.2102 15.8322 69.1725C14.7604 68.5722 13.7868 67.8114 12.945 66.9167C12.9204 66.8928 12.8972 66.8675 12.8726 66.8443C12.7553 66.7169 12.6402 66.588 12.5288 66.4563L12.4057 66.3115C12.2739 66.15 12.1465 65.9842 12.0227 65.8163C12.0046 65.7917 11.9872 65.7671 11.9684 65.7439C11.4649 65.0458 11.0469 64.2899 10.7232 63.4924C10.7131 63.4685 10.7044 63.4424 10.695 63.42C10.5955 63.1642 10.5075 62.906 10.4307 62.6454C10.3974 62.536 10.3656 62.4282 10.3381 62.3145C10.3279 62.2812 10.3192 62.2486 10.3113 62.2161C9.90007 60.611 9.85156 58.9438 9.85156 57.2881C9.85156 57.0948 9.85156 56.9008 9.85156 56.7089C9.85156 56.0393 9.85953 55.3653 9.87111 54.692C9.87111 54.5175 9.87835 54.3438 9.88197 54.1686C9.8921 53.7241 9.90658 53.2795 9.92541 52.835C9.92975 52.7112 9.93554 52.5882 9.94206 52.4651C9.94206 52.3941 9.94568 52.3232 9.95292 52.2522C9.97029 51.9945 9.98477 51.739 10.0021 51.4841Z" fill="#F3564C"/>
<path opacity="0.1" d="M17.3506 40.334H13.3203C13.9755 39.3086 14.6913 38.3232 15.4639 37.3831C16.0627 36.6476 16.6947 35.9309 17.3506 35.2402V40.334Z" fill="#F3564C"/>
<path opacity="0.1" d="M17.3477 40.6436V51.1742H10.0234C10.0234 51.1438 10.0285 51.1127 10.0307 51.0823C10.0372 50.999 10.0437 50.9158 10.0509 50.8332C10.0589 50.7362 10.0676 50.6385 10.077 50.5436C10.0864 50.4488 10.0966 50.333 10.1074 50.228C10.1183 50.123 10.1284 50.0166 10.1407 49.9116C10.153 49.8067 10.1639 49.7017 10.1769 49.5974C10.1899 49.4932 10.2015 49.3875 10.2153 49.2832C10.2261 49.1964 10.2377 49.1102 10.2493 49.0233C10.266 48.901 10.2833 48.7779 10.3022 48.6563C10.3022 48.6382 10.3072 48.6194 10.3101 48.602C10.4423 47.7117 10.6223 46.8291 10.8495 45.9581C11.0873 45.0445 11.3909 44.1493 11.758 43.2795C12.1482 42.3696 12.6051 41.4898 13.1249 40.6472L17.3477 40.6436Z" fill="#F3564C"/>
<path opacity="0.1" d="M19.1055 51.4834V61.4986H34.7987V51.4834H19.1055ZM19.1055 61.8078V70.4083C19.1952 70.4272 19.2843 70.4453 19.3726 70.4605C19.4928 70.4836 19.6122 70.5046 19.7346 70.5227C19.7578 70.5264 19.7816 70.53 19.807 70.5321C19.8548 70.5401 19.904 70.5466 19.9518 70.5531C20.0727 70.5698 20.1929 70.5835 20.3138 70.5944C20.3709 70.6002 20.4289 70.6053 20.4868 70.6096L20.6265 70.6205C20.7025 70.6263 20.7778 70.6306 20.8524 70.6328C20.8987 70.6328 20.945 70.6371 20.9928 70.6386C21.029 70.6386 21.0652 70.6386 21.1029 70.6386C21.1405 70.6386 21.1941 70.6386 21.2397 70.6386C21.3019 70.6386 21.3642 70.6386 21.4257 70.6386H21.509C21.5713 70.6386 21.6335 70.6386 21.6951 70.6328H21.6994C21.7421 70.6328 21.7856 70.6328 21.829 70.627C21.841 70.6277 21.8531 70.6277 21.8652 70.627C21.9014 70.627 21.9376 70.627 21.9723 70.6219H21.9977L22.2402 70.6031C22.3198 70.5959 22.4002 70.5864 22.4813 70.5778L22.6463 70.5582C23.3179 70.4641 23.9819 70.3228 24.6336 70.1354C26.0974 69.7271 27.5294 69.1559 28.9925 68.7375C30.8842 68.1981 32.9743 67.9331 34.8023 68.5927V61.8078H19.1055ZM34.7987 40.3338V27.0007C33.0805 26.9821 31.367 27.183 29.6998 27.5987C25.726 28.597 22.1606 30.7624 19.1055 33.5279V40.3331H19.8931V40.6422H19.1055V51.1743H34.7987V40.6429H23.127V40.3338H34.7987ZM54.9558 35.8301C53.9726 35.7953 52.9953 35.484 52.1113 35.0033C50.4209 34.0839 49.0707 32.6642 47.562 31.4661C44.4273 28.9706 40.5396 27.4648 36.5514 27.0912V40.3338H58.9542L59.0099 40.2751L54.9558 35.8301ZM56.9966 35.4681L59.1605 37.8427V34.8455C58.4358 34.9352 57.8009 35.1488 56.9995 35.4652L56.9966 35.4681ZM59.1605 72.544V61.8078H54.5496C54.5373 61.7621 54.525 61.7158 54.5105 61.6695C54.5243 61.7158 54.5359 61.7621 54.5489 61.8078H36.5542V69.5722C36.7251 69.6989 36.8938 69.8321 37.061 69.9675C37.2413 70.1123 37.4194 70.265 37.5982 70.4149L37.7785 70.564C37.8646 70.6364 37.9515 70.7088 38.0391 70.7768C38.2128 70.9178 38.3883 71.0568 38.5654 71.1938C38.653 71.2662 38.7428 71.3314 38.8318 71.3994C40.2455 72.4803 41.7368 73.4557 43.2936 74.3177C43.6425 74.5108 43.9946 74.6992 44.3498 74.8831C44.5865 75.004 44.8247 75.1242 45.0636 75.2408C45.4227 75.416 45.7847 75.5849 46.1496 75.7475C49.5135 77.2576 53.0707 78.2938 56.7193 78.8265C57.5297 78.9462 58.3431 79.0403 59.1598 79.1088V72.5433H59.2322L59.1605 72.544ZM36.5542 40.6429V51.1743H59.1634V40.6429H36.5542ZM36.5542 51.4834V61.4986H59.1634V51.4834H36.5542ZM60.9183 34.8324V38.1757L63.6801 35.1452C62.7651 34.9975 61.8444 34.8921 60.9183 34.8288V34.8324ZM60.9183 51.487V61.4986H82.9084V51.4834L60.9183 51.487ZM82.8281 73.3389L82.9055 61.8078H60.9183V79.224C62.3347 79.2835 63.7533 79.2665 65.1679 79.1733H65.1925C65.8682 79.1308 66.5407 79.069 67.2102 78.9879H67.2254C70.7967 78.5723 74.2888 77.6405 77.5924 76.2217M87.1486 53.1326C87.0661 52.9379 86.9799 52.7446 86.8923 52.5534C86.7287 52.1915 86.5557 51.8396 86.3776 51.4878H84.6618V61.4986H88.9998C88.9976 58.6636 88.2802 55.7678 87.1508 53.129L87.1486 53.1326ZM80.3413 82.0177V91.9359C81.5633 90.7645 82.5957 89.4245 83.3392 87.8926C84.2333 86.048 84.6423 84.0506 84.6756 82.0163L80.3413 82.0177ZM80.3413 68.7751V71.3813H81.8963C83.9317 67.9849 85.23 64.1984 85.7068 60.2676C86.1837 56.3368 85.8283 52.3497 84.664 48.5652L80.3413 68.7751ZM65.4278 57.0036C65.3134 56.9602 65.199 56.916 65.0839 56.8733C63.8699 56.4249 62.6293 56.0521 61.3693 55.7569L57.1428 60.3953L61.3823 40.2751L61.4366 40.3345H76.479C74.384 38.8924 72.1254 37.7038 69.7505 36.7936L65.4278 57.0036ZM72.5993 60.8529H61.2267L60.9183 61.1352V51.1743H63.6215H63.6259H82.9113V46.2116C81.1667 44.1017 79.1532 42.2295 76.922 40.6429L72.5993 60.8529Z" fill="#F3564C"/>
<path opacity="0.1" d="M17.3477 45.9553V51.1743H10.0234C10.0234 51.1439 10.0285 51.1128 10.0307 51.0824C10.0372 50.9991 10.0437 50.9159 10.0509 50.8333C10.0589 50.7363 10.0676 50.6386 10.077 50.5438C10.0864 50.4489 10.0966 50.3331 10.1074 50.2281C10.1183 50.1231 10.1284 50.0167 10.1407 49.9117C10.153 49.8068 10.1639 49.7018 10.1769 49.5975C10.1899 49.4933 10.2015 49.3876 10.2153 49.2833C10.2261 49.1965 10.2377 49.1103 10.2493 49.0234C10.266 48.9011 10.2833 48.778 10.3022 48.6564C10.3022 48.6383 10.3072 48.6195 10.3101 48.6021C10.4423 47.7118 10.6223 46.8292 10.8495 45.9582L17.3477 45.9553Z" fill="#F3564C"/>
<path opacity="0.1" d="M10.0021 51.4841H17.3496V61.4986H10.54C10.5219 61.6014 10.5046 61.7049 10.4857 61.8085H17.3496V69.8849C17.3373 69.8813 17.3264 69.8769 17.3148 69.8726C17.1208 69.7959 16.9282 69.7148 16.7357 69.6279L16.6126 69.5722C16.4195 69.4809 16.2265 69.3844 16.0334 69.2826C15.9661 69.2471 15.8988 69.2102 15.8322 69.1725C14.7604 68.5722 13.7868 67.8114 12.945 66.9167C12.9204 66.8928 12.8972 66.8675 12.8726 66.8443C12.7553 66.7169 12.6402 66.588 12.5288 66.4563L12.4057 66.3115C12.2739 66.15 12.1465 65.9842 12.0227 65.8163C12.0046 65.7917 11.9872 65.7671 11.9684 65.7439C11.4649 65.0458 11.0469 64.2899 10.7232 63.4924C10.7131 63.4685 10.7044 63.4424 10.695 63.42C10.5955 63.1642 10.5075 62.906 10.4307 62.6454C10.3974 62.536 10.3656 62.4282 10.3381 62.3145C10.3279 62.2812 10.3192 62.2486 10.3113 62.2161C9.90007 60.611 9.85156 58.9438 9.85156 57.2881C9.85156 57.0948 9.85156 56.9008 9.85156 56.7089C9.85156 56.0393 9.85953 55.3653 9.87111 54.692C9.87111 54.5175 9.87835 54.3438 9.88197 54.1686C9.8921 53.7241 9.90658 53.2795 9.92541 52.835C9.92975 52.7112 9.93554 52.5882 9.94206 52.4651C9.94206 52.3941 9.94568 52.3232 9.95292 52.2522C9.97029 51.9945 9.98477 51.739 10.0021 51.4841Z" fill="#F3564C"/>
<path opacity="0.1" d="M24.63 42.1508V51.1742H19.1055V42.1508H19.8931V39.0957H23.1263V42.1508H24.63Z" fill="#F3564C"/>
<path opacity="0.1" d="M24.6292 51.4834H19.1055V61.4979H24.6292V51.4834Z" fill="#F3564C"/>
<path opacity="0.1" d="M19.1055 61.8086H24.63V70.1341C23.9783 70.3213 23.3142 70.4624 22.6427 70.5562L22.4777 70.5764C22.3966 70.5858 22.3162 70.5938 22.2366 70.6018C22.1569 70.6097 22.0744 70.6155 21.9941 70.6206H21.9687C21.934 70.6206 21.8963 70.6249 21.8623 70.6256H21.8254C21.7819 70.6256 21.7385 70.63 21.6951 70.6314C21.6335 70.6351 21.572 70.6358 21.509 70.6365C21.4822 70.6365 21.4569 70.6365 21.4301 70.6365C21.3678 70.6365 21.3063 70.6365 21.244 70.6365H21.1072C21.0703 70.6365 21.0348 70.6365 20.9964 70.6365L20.8567 70.6314C20.7843 70.6314 20.7061 70.6235 20.6308 70.6184L20.4918 70.6083L20.3188 70.5923C20.1972 70.5815 20.0763 70.5677 19.9568 70.5511L19.812 70.5308L19.7397 70.5207C19.6188 70.5019 19.4993 70.4816 19.3777 70.4584C19.2886 70.4432 19.2003 70.4244 19.1105 70.4063L19.1055 61.8086Z" fill="#F3564C"/>
<path opacity="0.1" d="M59.1606 41.0854H54.6055V51.1738H59.1606V41.0854Z" fill="#F3564C"/>
<path opacity="0.1" d="M59.1606 51.4834V61.4986H36.5508V57.1788H48.5938V59.7271H54.6048V51.4834H59.1606Z" fill="#F3564C"/>
<path opacity="0.1" d="M59.2323 72.5464H59.1599V79.1163C58.3443 79.0473 57.531 78.9534 56.7202 78.8347C53.0697 78.3002 49.5111 77.2618 46.1461 75.7492C45.1745 75.3119 44.2228 74.8346 43.2908 74.3172C41.734 73.4547 40.2426 72.4794 38.8283 71.3989C38.4731 71.1267 38.1225 70.8482 37.7764 70.5635C37.5368 70.3658 37.2986 70.1631 37.0576 69.9662C36.8903 69.8308 36.7216 69.6976 36.5508 69.5702V61.8087H54.5447C54.5324 61.7624 54.5201 61.716 54.507 61.6704C54.5208 61.716 54.5338 61.7624 54.5461 61.8087H59.1599V72.5421C59.1845 72.5428 59.2084 72.5449 59.2323 72.5464Z" fill="#F3564C"/>
<path opacity="0.1" d="M71.0424 40.3338H68.0742V39.4115H69.4048V36.6641C69.5202 36.7061 69.6351 36.7492 69.7495 36.7937V39.4115H71.0424V40.3338Z" fill="#F3564C"/>
<path opacity="0.1" d="M78.1944 51.1742H63.6227C63.6227 51.1742 63.6227 51.1742 63.6277 51.1778L63.6212 51.1742H60.918V41.0859H61.6839V48.5426H65.1842V44.1265H68.0757V40.6436H71.0439V44.1294H73.9354V48.5455H78.1944V51.1742Z" fill="#F3564C"/>
<path opacity="0.1" d="M60.918 51.4834V61.4986H78.1944V51.4834H60.918ZM82.8842 73.2875L82.9081 65.3602H78.1944V61.8128H60.918V79.2239C62.3344 79.2834 63.753 79.2665 65.1676 79.1733H65.1922C65.8679 79.1308 66.5405 79.069 67.2099 78.9879H67.2251C70.7964 78.5723 74.2885 77.6405 77.5921 76.2217" fill="#F3564C"/>
<path opacity="0.1" d="M84.9681 61.8086H88.9984C88.9629 63.8422 88.5546 65.8396 87.6612 67.6842C86.9177 69.2168 85.8847 70.5569 84.6641 71.7275V65.3567H84.9681V61.8086Z" fill="#F3564C"/>
<path opacity="0.1" d="M89.0012 61.4986H84.9688V53.1289H87.1508C88.2801 55.7677 88.9976 58.6635 89.0012 61.4986Z" fill="#F3564C"/>
<path opacity="0.1" d="M59.1631 43.8899H56.7227V47.0529H59.1631V43.8899Z" fill="#F3564C"/>
<path opacity="0.1" d="M59.1631 50.446H56.7227V51.1743H59.1631V50.446Z" fill="#F3564C"/>
<path opacity="0.1" d="M59.1631 51.4834H56.7227V53.6082H59.1631V51.4834Z" fill="#F3564C"/>
<path opacity="0.1" d="M59.1631 57.0022H56.7227V60.1652H59.1631V57.0022Z" fill="#F3564C"/>
<path opacity="0.1" d="M59.1631 63.5583H56.7227V66.7213H59.1631V63.5583Z" fill="#F3564C"/>
<path opacity="0.1" d="M59.1624 72.5419C59.187 72.5419 59.2109 72.5419 59.2348 72.5463H59.1624V73.2811H56.7227V70.1145H59.1624V72.5419Z" fill="#F3564C"/>
<path opacity="0.1" d="M59.1624 76.6692V79.1125C58.3467 79.0435 57.5335 78.9496 56.7227 78.8309V76.6692H59.1624Z" fill="#F3564C"/>
<path opacity="0.1" d="M47.0098 61.2661H36.5508V61.4985H47.0098V61.2661Z" fill="#F3564C"/>
<path opacity="0.1" d="M47.0098 61.8076H36.5508V62.6981H47.0098V61.8076Z" fill="#F3564C"/>
<path opacity="0.1" d="M47.0098 65.6172H36.5508V67.0492H47.0098V65.6172Z" fill="#F3564C"/>
<path opacity="0.1" d="M47.0108 69.9683V71.4002H38.8301C38.4749 71.129 38.124 70.8505 37.7775 70.5648C37.5379 70.3672 37.3004 70.1645 37.0586 69.9683H47.0108Z" fill="#F3564C"/>
<path opacity="0.1" d="M47.0112 74.3186V75.7491H46.1475C45.1769 75.3114 44.2254 74.8338 43.293 74.3164L47.0112 74.3186Z" fill="#F3564C"/>
<path opacity="0.1" d="M67.2269 52.4541H65.168V54.513H67.2269V52.4541Z" fill="#F3564C"/>
<path opacity="0.1" d="M22.6449 42.8611H20.5859V44.92H22.6449V42.8611Z" fill="#F3564C"/>
<path opacity="0.1" d="M22.6449 47.6436H20.5859V49.7025H22.6449V47.6436Z" fill="#F3564C"/>
<path opacity="0.1" d="M22.6449 52.426H20.5859V54.485H22.6449V52.426Z" fill="#F3564C"/>
<path opacity="0.1" d="M22.6449 57.2078H20.5859V59.2667H22.6449V57.2078Z" fill="#F3564C"/>
<path opacity="0.1" d="M22.6449 61.9902H20.5859V64.0492H22.6449V61.9902Z" fill="#F3564C"/>
<path opacity="0.1" d="M22.6449 66.7727H20.5859V68.8316H22.6449V66.7727Z" fill="#F3564C"/>
<path opacity="0.1" d="M75.0863 52.4541H73.0273V54.513H75.0863V52.4541Z" fill="#F3564C"/>
<path opacity="0.1" d="M67.2269 57.5327H65.168V59.5916H67.2269V57.5327Z" fill="#F3564C"/>
<path opacity="0.1" d="M75.0863 57.5327H73.0273V59.5916H75.0863V57.5327Z" fill="#F3564C"/>
<path opacity="0.1" d="M67.2269 62.6106H65.168V64.6695H67.2269V62.6106Z" fill="#F3564C"/>
<path opacity="0.1" d="M75.0863 62.6106H73.0273V64.6695H75.0863V62.6106Z" fill="#F3564C"/>
<path opacity="0.1" d="M67.2269 67.6892H65.168V69.7481H67.2269V67.6892Z" fill="#F3564C"/>
<path opacity="0.1" d="M75.0863 67.6892H73.0273V69.7481H75.0863V67.6892Z" fill="#F3564C"/>
<path opacity="0.1" d="M67.2269 72.7676H65.168V74.8265H67.2269V72.7676Z" fill="#F3564C"/>
<path opacity="0.1" d="M75.0863 72.7676H73.0273V74.8265H75.0863V72.7676Z" fill="#F3564C"/>
<path opacity="0.1" d="M65.168 79.1734V77.8457H67.2262V78.9845L65.168 79.1734Z" fill="#F3564C"/>
<path opacity="0.1" d="M10.3047 48.6006V49.7785H17.3509V48.6006H10.3047ZM11.0069 49.7046H10.4321V48.673H11.0113L11.0069 49.7046ZM11.7084 49.7046H11.1293V48.673H11.7084V49.7046ZM12.4085 49.7046H11.8293V48.673H12.4085V49.7046ZM13.11 49.7046H12.5316V48.673H13.1107L13.11 49.7046ZM13.8108 49.7046H13.2316V48.673H13.8108V49.7046ZM14.5123 49.7046H13.9332V48.673H14.5123V49.7046ZM15.2138 49.7046H14.6347V48.673H15.2138V49.7046ZM15.9146 49.7046H15.3355V48.673H15.9146V49.7046ZM16.6154 49.7046H16.0362V48.673H16.6154V49.7046ZM17.3162 49.7046H16.737V48.673H17.3162V49.7046Z" fill="#F3564C"/>
<path opacity="0.1" d="M10.3047 52.0278V53.2057H17.3509V52.0278H10.3047ZM11.0069 53.1311H10.4321V52.1024H11.0113L11.0069 53.1311ZM11.7084 53.1311H11.1293V52.1024H11.7084V53.1311ZM12.4085 53.1311H11.8293V52.1024H12.4085V53.1311ZM13.11 53.1311H12.5316V52.1024H13.1107L13.11 53.1311ZM13.8108 53.1311H13.2316V52.1024H13.8108V53.1311ZM14.5123 53.1311H13.9332V52.1024H14.5123V53.1311ZM15.2138 53.1311H14.6347V52.1024H15.2138V53.1311ZM15.9146 53.1311H15.3355V52.1024H15.9146V53.1311ZM16.6154 53.1311H16.0362V52.1024H16.6154V53.1311ZM17.3162 53.1311H16.737V52.1024H17.3162V53.1311Z" fill="#F3564C"/>
<path opacity="0.1" d="M10.3047 55.4565V56.6366H17.3509V55.4565H10.3047ZM11.0069 56.5599H10.4321V55.5304H11.0113L11.0069 56.5599ZM11.7084 56.5599H11.1293V55.5304H11.7084V56.5599ZM12.4085 56.5599H11.8293V55.5304H12.4085V56.5599ZM13.11 56.5599H12.5316V55.5304H13.1107L13.11 56.5599ZM13.8108 56.5599H13.2316V55.5304H13.8108V56.5599ZM14.5123 56.5599H13.9332V55.5304H14.5123V56.5599ZM15.2138 56.5599H14.6347V55.5304H15.2138V56.5599ZM15.9146 56.5599H15.3355V55.5304H15.9146V56.5599ZM16.6154 56.5599H16.0362V55.5304H16.6154V56.5599ZM17.3162 56.5599H16.737V55.5304H17.3162V56.5599Z" fill="#F3564C"/>
<path opacity="0.1" d="M10.3047 58.8853V60.0617H17.3509V58.8853H10.3047ZM11.0069 59.9886H10.4321V58.9584H11.0113L11.0069 59.9886ZM11.7084 59.9886H11.1293V58.9584H11.7084V59.9886ZM12.4085 59.9886H11.8293V58.9584H12.4085V59.9886ZM13.11 59.9886H12.5316V58.9584H13.1107L13.11 59.9886ZM13.8108 59.9886H13.2316V58.9584H13.8108V59.9886ZM14.5123 59.9886H13.9332V58.9584H14.5123V59.9886ZM15.2138 59.9886H14.6347V58.9584H15.2138V59.9886ZM15.9146 59.9886H15.3355V58.9584H15.9146V59.9886ZM16.6154 59.9886H16.0362V58.9584H16.6154V59.9886ZM17.3162 59.9886H16.737V58.9584H17.3162V59.9886Z" fill="#F3564C"/>
<path opacity="0.1" d="M10.332 62.313C10.3603 62.4238 10.3921 62.5345 10.4254 62.6438V62.3868H11.0046V63.4163H10.6947C10.7041 63.4402 10.7136 63.4663 10.723 63.4887H17.3479V62.313H10.332ZM11.7075 63.4163H11.1284V62.3868H11.7075V63.4163ZM12.4076 63.4163H11.8284V62.3868H12.4076V63.4163ZM13.1091 63.4163H12.5285V62.3868H13.1077L13.1091 63.4163ZM13.8099 63.4163H13.2307V62.3868H13.8099V63.4163ZM14.5114 63.4163H13.9323V62.3868H14.5114V63.4163ZM15.2129 63.4163H14.6338V62.3868H15.2129V63.4163ZM15.9137 63.4163H15.3346V62.3868H15.9137V63.4163ZM16.6145 63.4163H16.0354V62.3868H16.6145V63.4163ZM17.3153 63.4163H16.7361V62.3868H17.3153V63.4163Z" fill="#F3564C"/>
<path opacity="0.1" d="M11.9688 65.7417C11.9868 65.7649 12.0042 65.7909 12.023 65.8141H12.406V66.3086C12.4473 66.3578 12.4878 66.407 12.5298 66.4533V65.8112H13.109V66.8443H12.8744C12.8976 66.8682 12.92 66.8935 12.9468 66.9167H17.3506V65.7417H11.9688ZM13.8083 66.8443H13.2292V65.8155H13.8083V66.8443ZM14.5098 66.8443H13.9307V65.8155H14.5098V66.8443ZM15.2113 66.8443H14.6322V65.8155H15.2113V66.8443ZM15.9121 66.8443H15.333V65.8155H15.9121V66.8443ZM16.6129 66.8443H16.0338V65.8155H16.6129V66.8443ZM17.3137 66.8443H16.7345V65.8155H17.3137V66.8443Z" fill="#F3564C"/>
<path opacity="0.1" d="M15.8359 69.1697C15.9018 69.2073 15.9691 69.2421 16.0372 69.2797V69.2435H16.6164V69.5693L16.7394 69.6265V69.2435H17.3186V69.8697C17.3297 69.8753 17.3413 69.8796 17.3533 69.8828V69.1697H15.8359Z" fill="#F3564C"/>
<path opacity="0.1" d="M63.6215 51.1742H63.6258H63.6215ZM59.1619 72.5411H59.2343H59.1619ZM54.509 61.6694C54.5228 61.7157 54.5344 61.7621 54.5474 61.8077C54.5358 61.7621 54.5235 61.7157 54.509 61.6694ZM63.6215 51.1721H63.6258H63.6215ZM19.8945 40.3315V40.6407H23.1284V40.3315H19.8945ZM59.1619 72.5411H59.2343H59.1619ZM54.509 61.6694C54.5228 61.7157 54.5344 61.7621 54.5474 61.8077C54.5358 61.7621 54.5235 61.7157 54.509 61.6694ZM63.6215 51.1721H63.6258H63.6215ZM59.1619 72.5389H59.2343H59.1619ZM54.509 61.6694C54.5228 61.7157 54.5344 61.7621 54.5474 61.8077C54.5358 61.7621 54.5235 61.7157 54.509 61.6694Z" fill="#F3564C"/>
<path d="M42.4167 54.4866C42.4167 54.4866 42.1314 54.4467 42.1314 54.0312C42.1314 53.6156 41.9273 52.8396 41.9273 52.8396C41.9273 52.8359 41.7506 51.4879 41.5066 51.2736C41.2627 51.0594 40.9492 49.8011 40.9492 49.8011C40.9492 49.8011 40.8956 49.1184 40.7863 48.9715C40.677 48.8245 40.5293 48.4647 40.3114 47.9514C40.0935 47.4381 39.1849 47.0827 39.1849 47.0827C39.1849 47.0827 37.5423 46.1299 37.0768 45.8194C37.0344 45.7938 36.9949 45.764 36.9588 45.7303C36.8777 45.6239 36.5244 45.6217 36.5244 45.6217C36.4875 45.3886 36.452 45.1207 36.4404 44.8782C36.4404 44.8522 36.4404 44.8261 36.4368 44.8C36.9558 44.4932 37.3468 44.0094 37.5379 43.4375C37.5466 43.41 37.5538 43.3811 37.5618 43.3536C37.5929 43.3433 37.6215 43.3267 37.6458 43.3048C37.6701 43.2828 37.6896 43.256 37.703 43.2262C37.745 43.1328 37.7457 43.0234 37.7978 42.9366C37.8586 42.8338 37.9745 42.7787 38.0657 42.7013C38.2959 42.5058 38.3553 42.1764 38.3444 41.8767C38.3372 41.6342 38.2981 41.3895 38.3133 41.1484L38.3176 41.0876C38.322 41.0514 38.327 41.0152 38.3335 40.9804C38.369 40.8009 38.4465 40.6315 38.4899 40.4534C38.5334 40.2753 38.5377 40.0748 38.4363 39.9213C38.2879 39.6961 37.9788 39.6513 37.7073 39.6281C37.3996 39.602 37.1245 39.6361 36.9276 39.3805C36.8355 39.2469 36.7318 39.1217 36.6178 39.0062C36.5772 38.9686 36.1834 38.7282 36.1834 38.7123C35.799 38.5343 35.3633 38.5008 34.9563 38.6182C34.7521 38.6775 34.5596 38.7745 34.3525 38.8231C33.9058 38.9287 33.3918 38.8144 33.0125 39.0699C32.8011 39.2147 32.6744 39.4449 32.5557 39.6694C32.4591 39.8542 32.3611 40.0388 32.2617 40.2232C32.1017 40.5265 31.9388 40.8349 31.8715 41.1708C31.8574 41.2439 31.8486 41.318 31.8455 41.3924V41.396C31.8455 41.4228 31.8455 41.4496 31.8455 41.4763V41.5104C31.8455 41.5357 31.8455 41.5603 31.8498 41.5828C31.8541 41.6052 31.8534 41.6125 31.8556 41.6277C31.8578 41.6429 31.8614 41.6769 31.8657 41.7001C31.8701 41.7232 31.8788 41.7638 31.8874 41.7956C31.8911 41.8094 31.8961 41.8224 31.9005 41.8354C31.9077 41.86 31.9164 41.8839 31.9258 41.9078C31.9309 41.9201 31.9359 41.9332 31.9417 41.9455C31.9526 41.9708 31.9656 41.9954 31.9787 42.0179C31.9845 42.028 31.9888 42.0374 31.9946 42.0468C32.0148 42.0805 32.037 42.1129 32.0612 42.1438C32.2161 42.3371 32.4442 42.4602 32.6128 42.6412C32.6128 42.6484 32.6128 42.6557 32.6128 42.6622C32.6128 42.6825 32.6128 42.702 32.6128 42.7223C32.6218 43.1259 32.7292 43.5213 32.9258 43.8739C33.1224 44.2266 33.4021 44.5259 33.7408 44.7457C33.7408 44.7732 33.7444 44.8015 33.7458 44.829C33.76 45.0439 33.7573 45.2596 33.7379 45.474C33.7084 45.4393 33.6715 45.4117 33.6299 45.3931C33.5883 45.3746 33.543 45.3656 33.4975 45.3669C33.4664 45.3654 33.4352 45.368 33.4049 45.3749L33.3983 45.3698V45.3763C33.2391 45.4154 33.0429 45.5812 32.8554 46.0525C32.8554 46.0525 32.2849 46.6953 31.8505 46.6686C31.4161 46.6418 30.3165 47.3375 30.3165 47.3375C30.3165 47.3375 29.2436 48.0339 29.0133 48.7434C28.8847 49.1457 28.7304 49.5394 28.5515 49.922L27.2252 52.6549L26.9805 54.8232C26.9805 54.8232 27.1158 55.7875 27.0891 55.9345C27.0623 56.0814 27.6458 57.407 27.6458 57.407C27.6458 57.407 29.5737 60.7944 30.3613 60.9681L30.4178 60.9283C30.4515 60.9459 30.4873 60.9593 30.5242 60.9681L30.6864 60.8537C30.6961 60.9812 30.692 61.1094 30.6741 61.236C30.5655 61.5705 30.7146 63.7532 30.9043 64.181C31.094 64.6089 31.0267 70.2188 31.0267 70.2188L30.9999 70.714C30.9999 70.714 30.9999 70.7299 31.0064 70.7575L30.9999 70.8747L31.0194 70.8849C31.0397 71.0419 31.0331 71.2013 30.9999 71.3562C30.9318 71.5734 30.9043 72.1873 30.9043 72.1873C30.9043 72.1873 30.3621 75.6536 30.6191 76.35C30.8761 77.0465 31.0947 77.8095 31.0947 77.8095C31.0947 77.8095 31.3662 78.6783 31.1077 78.8267C30.8493 78.9751 30.1145 79.2241 30.2658 79.5861C30.4033 79.9206 30.9253 80.8168 31.0028 80.9479L30.9963 81.0166L30.8898 82.1699C30.9071 82.3222 30.9484 82.4707 31.0122 82.6101C31.1287 82.8613 31.3553 83.1219 31.7861 83.0937C31.8585 83.0886 31.9425 83.0799 32.0235 83.069C32.8119 82.9634 33.7828 82.6115 33.7828 82.6115C33.7324 82.5795 33.6861 82.5413 33.6452 82.4978C33.6065 82.4603 33.5757 82.4153 33.555 82.3655C33.5342 82.3157 33.5237 82.2622 33.5243 82.2083C33.5359 81.9983 33.1428 80.9978 33.045 80.7517C33.0298 80.7162 33.0219 80.6959 33.0219 80.6959C33.0219 80.6959 33.9181 79.7591 33.769 78.9287C33.769 78.9287 32.7772 78.3496 33.1037 78.0318C33.4302 77.714 34.0137 76.801 34.0137 76.801C34.0137 76.801 34.0405 73.3876 34.0137 72.8779C33.9858 72.5242 34.0025 72.1683 34.0637 71.8188C34.0745 71.7659 34.0875 71.7145 34.1013 71.6638C34.5528 71.7313 35.0087 71.7659 35.4652 71.7674C35.6317 71.7674 35.8011 71.7674 35.972 71.7572C35.972 71.8055 35.9742 71.8576 35.9785 71.9136C36.0162 72.7592 36.0864 74.2419 36.1436 74.7928C36.2247 75.5826 36.6728 77.7111 36.6728 77.7111C36.6728 77.7111 35.8178 78.2598 36.8219 79.6122C36.8219 79.6122 36.8219 80.1023 36.7553 80.1732C36.6842 80.4052 36.6269 80.6411 36.5837 80.8798C36.5418 81.1346 36.5244 81.3924 36.5924 81.5263C36.7553 81.8463 37.7327 81.8202 37.7327 81.8202L37.7565 81.8159C37.9411 81.7968 38.1275 81.8146 38.3051 81.8681C38.4827 81.9217 38.6479 82.01 38.7911 82.1279C39.1625 82.4262 40.572 82.2951 41.3351 82.2003C41.6341 82.1627 41.8339 82.1279 41.8339 82.1279C41.8436 82.0941 41.847 82.0587 41.844 82.0237C41.836 81.8362 41.6891 81.4249 40.6929 81.0579C40.6929 81.0579 39.7561 80.4281 39.7691 79.8793H39.7496H39.641C39.7199 79.875 39.7706 79.8793 39.7706 79.8793C39.7706 79.8793 39.4035 78.54 39.5534 78.4314C39.7033 78.3228 39.2544 76.8387 39.2544 76.8387C39.2544 76.8387 38.9974 74.3483 38.9837 74.1738C38.9842 74.0241 39.0069 73.8753 39.051 73.7322L38.9837 72.3668C38.9837 72.3668 38.9706 71.9129 38.9837 71.7652C38.9815 71.637 38.9711 71.5091 38.9525 71.3822C38.946 71.3316 38.9395 71.2787 38.9323 71.2266C39.2834 71.1375 39.5114 71.055 39.5114 71.055L39.4709 66.3022C39.7691 65.7231 39.8242 64.4525 39.8227 63.5512C39.8227 62.972 39.7967 62.5435 39.7967 62.5435L40.2042 61.8781C40.2042 61.8781 40.2984 61.0818 40.1492 60.9073C40.0833 60.8284 40.113 60.7466 40.1673 60.6793C40.1955 60.6569 40.2253 60.6366 40.2564 60.6185C40.2564 60.6185 40.252 60.6119 40.247 60.6025C40.2754 60.5788 40.3057 60.5572 40.3375 60.5381C40.3375 60.5381 40.1927 60.3137 40.3222 60.2188C40.4439 60.3014 40.5525 60.3636 40.635 60.4143C40.6292 60.4672 40.6234 60.4976 40.6234 60.4976L40.6582 60.4252C40.7378 60.47 40.7863 60.4976 40.7863 60.4976C40.7863 60.4976 41.4248 59.2256 41.4111 59.0381C41.3973 58.8506 41.8455 58.0607 41.8455 58.0607C41.8455 58.0607 41.8997 57.6459 42.1444 57.4721C42.3891 57.2984 42.3341 56.0394 42.3341 56.0394C42.3341 56.0394 42.4022 55.3835 42.5651 55.1157C42.728 54.8478 42.4167 54.4866 42.4167 54.4866ZM30.1992 53.9284L30.2115 54.2317C30.1391 54.1152 30.087 54.0312 30.087 54.0312L30.1992 53.9284Z" fill="url(#paint0_linear_515_3348)"/>
<path d="M40.822 59.9479L40.6656 60.614C40.6656 60.614 39.4132 59.9747 39.1873 59.1624C38.9614 58.3502 39.5652 58.0417 39.5652 58.0417L40.7322 58.5362L40.822 59.9479Z" fill="white"/>
<path opacity="0.1" d="M40.822 59.9479L40.6656 60.614C40.6656 60.614 39.4132 59.9747 39.1873 59.1624C38.9614 58.3502 39.5652 58.0417 39.5652 58.0417L40.7322 58.5362L40.822 59.9479Z" fill="black"/>
<path d="M33.7945 82.6159C33.7945 82.6159 32.6362 83.0416 31.8398 83.0951C31.417 83.1234 31.1948 82.8642 31.0804 82.6144C31.0179 82.4756 30.9776 82.3278 30.9609 82.1764L31.0645 81.029L31.1195 80.418L32.8114 79.9785L33.051 80.7112L33.0734 80.7669C33.1697 81.0116 33.5556 82.007 33.544 82.2148C33.5435 82.268 33.5538 82.3208 33.5742 82.3699C33.5946 82.419 33.6247 82.4636 33.6627 82.5008C33.7016 82.5446 33.7459 82.5833 33.7945 82.6159Z" fill="white"/>
<path d="M41.7037 82.0322C41.7066 82.0671 41.7032 82.1021 41.6936 82.1357C41.6936 82.1357 39.2162 82.5491 38.7094 82.1357C38.5665 82.015 38.4 81.9254 38.2205 81.8728C38.0409 81.8202 37.8524 81.8057 37.6669 81.8302C37.6669 81.8302 36.7084 81.8563 36.5484 81.5407C36.4818 81.4082 36.4992 81.1512 36.5405 80.8978C36.5825 80.6604 36.6386 80.4256 36.7084 80.1948L36.7468 80.1644L36.9748 79.9813L39.6448 79.9023H39.665C39.652 80.4482 40.5714 81.0744 40.5714 81.0744C41.5481 81.4364 41.6921 81.8454 41.7037 82.0322Z" fill="white"/>
<path opacity="0.1" d="M41.7072 82.0324C41.7098 82.0673 41.7061 82.1023 41.6964 82.1359C41.6964 82.1359 39.2197 82.5493 38.7129 82.1359C38.5702 82.0152 38.4037 81.9257 38.2243 81.8731C38.0449 81.8205 37.8565 81.806 37.6712 81.8304C37.6712 81.8304 36.7119 81.8565 36.5527 81.5408C36.4861 81.4076 36.5027 81.1513 36.544 80.8979C36.9132 80.9349 37.496 81.0268 37.7247 81.2462C38.0708 81.5799 38.6572 81.9129 39.017 81.939C39.2986 81.9571 40.9833 82.0107 41.7072 82.0324Z" fill="black"/>
<path opacity="0.1" d="M33.7915 82.6159C33.7915 82.6159 32.6332 83.0416 31.8368 83.0951C31.414 83.1234 31.1918 82.8642 31.0781 82.6137C31.3728 82.7129 31.7818 82.8171 31.9968 82.7216C32.2517 82.6086 33.1552 82.5355 33.6619 82.5044C33.7005 82.5466 33.744 82.584 33.7915 82.6159Z" fill="black"/>
<path d="M35.5119 48.311C34.5562 47.9396 33.327 46.7125 33.6339 46.1392C33.7021 45.9945 33.7426 45.8383 33.7534 45.6787C33.7731 45.4621 33.776 45.2442 33.7621 45.0272C33.7405 44.6716 33.6978 44.3177 33.6339 43.9673C33.6339 43.9673 36.6173 44.0346 36.4436 44.4741C36.3929 44.6029 36.385 44.8266 36.3987 45.0771C36.4125 45.3276 36.4487 45.6107 36.4863 45.8503C36.5384 46.179 36.5906 46.4295 36.5906 46.4295C36.5906 46.4295 36.4081 46.685 36.301 46.6988C36.1938 46.7125 36.883 48.8402 35.5119 48.311Z" fill="#CF6F80"/>
<path opacity="0.1" d="M33.0715 80.7669L33.049 80.7915C32.1571 79.7128 31.0784 81.0572 31.0784 81.0572L31.0625 81.029L31.1175 80.418L32.8094 79.9785L33.049 80.7112L33.0715 80.7669Z" fill="black"/>
<path opacity="0.1" d="M39.6669 79.9783C39.6669 79.9783 39.0154 79.9646 38.6679 80.2715C38.3204 80.5785 36.6408 80.3381 36.7132 80.2715C36.7347 80.2385 36.7476 80.2007 36.7509 80.1615L36.9789 79.9783L39.6489 79.8994C39.659 79.9479 39.6669 79.9783 39.6669 79.9783Z" fill="black"/>
<path d="M34.1799 71.5074C34.1314 71.6274 34.0945 71.7518 34.0699 71.8788C34.0095 72.2268 33.9927 72.5808 34.0199 72.9329C34.0467 73.4397 34.0199 76.8358 34.0199 76.8358C34.0199 76.8358 33.4473 77.7414 33.128 78.0607C32.8087 78.38 33.7795 78.9533 33.7795 78.9533C33.9243 79.7786 33.0469 80.7111 33.0469 80.7111C32.155 79.6324 31.0763 80.9775 31.0763 80.9775C31.0763 80.9775 30.4899 79.964 30.3437 79.602C30.1974 79.24 30.9163 78.9895 31.169 78.8426C31.4216 78.6956 31.1567 77.829 31.1567 77.829C31.1567 77.829 30.9431 77.0696 30.6897 76.3768C30.4363 75.684 30.9692 72.235 30.9692 72.235C30.9692 72.235 30.9967 71.6226 31.0625 71.409C31.0958 71.2549 31.1024 71.0962 31.0821 70.9399C31.0777 70.887 31.0727 70.8429 31.0691 70.8132C31.0654 70.7835 31.0625 70.7697 31.0625 70.7697L31.0727 70.7524L31.4347 70.0776C31.4347 70.0776 34.3536 71.0825 34.1799 71.5074Z" fill="#F3564C"/>
<path d="M39.6682 79.8988C39.6682 79.8988 39.0166 79.885 38.6691 80.1884C38.3216 80.4917 36.6421 80.255 36.7145 80.1884C36.7869 80.1218 36.7811 79.6288 36.7811 79.6288C35.7958 78.2837 36.6363 77.7378 36.6363 77.7378C36.6363 77.7378 36.1961 75.6202 36.1165 74.8347C36.0607 74.286 35.9919 72.8113 35.955 71.9693C35.9391 71.6073 35.9297 71.3583 35.9297 71.3583L36.7347 71.1961L36.8383 71.1751L38.7799 70.7856C38.7799 70.7856 38.8335 71.1476 38.8697 71.4437C38.8877 71.5701 38.8979 71.6976 38.9001 71.8252C38.887 71.97 38.9001 72.4232 38.9001 72.4232L38.966 73.7821C38.9229 73.9246 38.9007 74.0726 38.9001 74.2215C38.9131 74.3946 39.1658 76.8719 39.1658 76.8719C39.1658 76.8719 39.6052 78.3503 39.4554 78.4567C39.3055 78.5631 39.6682 79.8988 39.6682 79.8988Z" fill="#F3564C"/>
<path opacity="0.1" d="M36.4425 44.4741C36.3918 44.6029 36.3838 44.8266 36.3976 45.0771C35.998 45.3178 35.5386 45.4408 35.0722 45.4321C34.6058 45.4234 34.1513 45.2833 33.761 45.0279C33.7395 44.6721 33.6967 44.3179 33.6328 43.9673C33.6328 43.9673 36.6162 44.0332 36.4425 44.4741Z" fill="black"/>
<path d="M37.5982 42.8742C37.5988 43.1351 37.5577 43.3944 37.4766 43.6423C37.2952 44.1979 36.9233 44.6714 36.4265 44.9792C35.9298 45.2871 35.3402 45.4094 34.762 45.3246C34.1838 45.2398 33.6542 44.9533 33.2668 44.5157C32.8793 44.0782 32.6591 43.5178 32.6449 42.9336C32.6449 42.9133 32.6449 42.8945 32.6449 42.8742C32.6393 42.5454 32.6992 42.2187 32.8211 41.9132C32.9431 41.6078 33.1247 41.3297 33.3552 41.0951C33.5858 40.8606 33.8608 40.6743 34.1641 40.5471C34.4674 40.42 34.793 40.3545 35.1219 40.3545C35.4508 40.3545 35.7764 40.42 36.0797 40.5471C36.3831 40.6743 36.658 40.8606 36.8886 41.0951C37.1192 41.3297 37.3007 41.6078 37.4227 41.9132C37.5446 42.2187 37.6045 42.5454 37.5989 42.8742H37.5982Z" fill="#CF6F80"/>
<path opacity="0.1" d="M35.5119 48.311C34.5562 47.9396 33.327 46.7125 33.6339 46.1391C33.7021 45.9945 33.7426 45.8383 33.7534 45.6787L35.0616 46.7538L35.8709 47.4177L36.4863 45.851C36.5384 46.1797 36.5906 46.4302 36.5906 46.4302C36.5906 46.4302 36.4081 46.6857 36.301 46.6995C36.1938 46.7132 36.883 48.8402 35.5119 48.311Z" fill="black"/>
<path d="M38.894 53.0625L37.8015 71.4147L36.3768 71.5081L32.6875 60.8667L33.2927 48.2329L33.4201 45.5637L35.0606 46.911L35.8707 47.5749L36.5042 45.9626L37.6821 46.9892L38.894 53.0625Z" fill="#F3564C"/>
<path opacity="0.1" d="M34.1791 71.5075C34.1306 71.6275 34.0938 71.7519 34.0691 71.8789C33.0324 71.7188 32.0255 71.4043 31.082 70.9457L31.0625 70.9356L31.069 70.819L31.0726 70.7582L31.4346 70.0835C31.4346 70.0835 34.3529 71.0826 34.1791 71.5075Z" fill="black"/>
<path opacity="0.1" d="M36.7518 71.8817C36.4868 71.9267 36.2195 71.9572 35.9511 71.9729C35.9352 71.6109 35.9258 71.3619 35.9258 71.3619L36.7308 71.1997L36.7518 71.8817Z" fill="black"/>
<path opacity="0.1" d="M38.8635 71.4471C38.3487 71.5811 37.5538 71.7317 36.8422 71.6375L36.832 71.1786L38.7737 70.7891C38.7737 70.7891 38.8273 71.1474 38.8635 71.4471Z" fill="black"/>
<path opacity="0.1" d="M36.8321 71.7216C33.8639 72.2284 31.1454 70.7754 31.1454 70.7754L31.1715 70.2831C31.1715 70.2831 31.2388 64.7021 31.0521 64.2743C30.8653 63.8464 30.7198 61.6767 30.8255 61.3437C30.9312 61.0107 30.4396 56.0168 30.4396 56.0168L30.36 53.9898L27.4453 52.809L28.7484 50.0927C28.9244 49.7119 29.0758 49.3201 29.2016 48.9199C29.4282 48.2148 30.4801 47.522 30.4801 47.522C30.4801 47.522 31.5588 46.8298 31.9852 46.8559C32.4116 46.882 32.9705 46.2434 32.9705 46.2434C33.3832 45.1915 33.7568 45.6679 33.7568 45.6679C33.7568 45.7179 33.7568 45.6679 33.7365 45.8236C33.5917 46.9783 36.0778 50.627 36.1132 50.6914L36.35 56.4585L36.5896 63.7567L36.8321 71.7216Z" fill="black"/>
<path d="M36.7523 71.7218C33.784 72.2286 31.0649 70.7756 31.0649 70.7756L31.0917 70.2833C31.0917 70.2833 31.159 64.7023 30.9715 64.2745C30.784 63.8466 30.6392 61.6769 30.7456 61.3439C30.852 61.0109 30.3597 56.017 30.3597 56.017L30.2794 53.99L27.3633 52.8048L28.6664 50.0886C28.842 49.7076 28.9934 49.3159 29.1196 48.9158C29.3455 48.2106 30.3981 47.5178 30.3981 47.5178C30.3981 47.5178 31.4768 46.8257 31.9025 46.8518C32.3282 46.8778 32.8878 46.2393 32.8878 46.2393C33.3012 45.1874 33.7565 45.6637 33.7565 45.6637C33.7565 45.7137 33.7131 45.7361 33.7363 45.8194C34.0548 46.9394 35.9979 50.6228 36.0334 50.6873L36.273 56.4543L36.5126 63.7525L36.7523 71.7218Z" fill="white"/>
<path opacity="0.1" d="M35.9492 50.8514C35.63 50.7182 33.9388 48.7874 33.9388 48.7874V48.348C33.8773 48.2032 33.5117 48.2915 33.2148 48.3929L33.3423 45.7236L33.4871 45.8438C33.8041 46.963 35.9123 50.787 35.9492 50.8514Z" fill="black"/>
<path d="M36.032 50.6915C35.712 50.5583 34.0208 48.6275 34.0208 48.6275V48.1881C33.9593 48.0433 33.5937 48.1316 33.2969 48.2329L33.425 45.5637L33.5698 45.6839C33.8876 46.8031 35.9965 50.6278 36.032 50.6915Z" fill="white"/>
<path opacity="0.1" d="M31.1434 60.3208C31.1832 60.3208 33.2074 60.1079 33.2074 60.1079C33.2074 60.1079 34.433 62.518 34.3527 63.1044C34.2723 63.6908 34.1268 64.2098 33.6338 64.1179C33.1408 64.026 30.9805 64.1903 30.9805 64.1903L31.1434 60.3208Z" fill="black"/>
<path d="M31.0613 60.1608C31.1011 60.1608 33.1253 59.948 33.1253 59.948C33.1253 59.948 34.3503 62.3588 34.2706 62.9445C34.191 63.5301 34.044 64.0499 33.5517 63.958C33.0594 63.866 30.8984 64.0304 30.8984 64.0304L31.0613 60.1608Z" fill="white"/>
<path d="M32.5874 59.0293C32.5874 59.0293 34.4451 60.0276 34.4849 60.3324C34.5247 60.6372 33.5394 60.1992 33.3266 60.1464C33.1865 60.1126 33.0439 60.0903 32.9001 60.0798L31.4805 60.1181L32.5874 59.0293Z" fill="#CF6F80"/>
<path opacity="0.1" d="M35.4337 50.9759C35.5417 50.9759 35.6292 50.8884 35.6292 50.7804C35.6292 50.6725 35.5417 50.585 35.4337 50.585C35.3258 50.585 35.2383 50.6725 35.2383 50.7804C35.2383 50.8884 35.3258 50.9759 35.4337 50.9759Z" fill="black"/>
<path d="M35.4337 50.8963C35.5417 50.8963 35.6292 50.8088 35.6292 50.7008C35.6292 50.5929 35.5417 50.5054 35.4337 50.5054C35.3258 50.5054 35.2383 50.5929 35.2383 50.7008C35.2383 50.8088 35.3258 50.8963 35.4337 50.8963Z" fill="#3F3D56"/>
<path opacity="0.1" d="M35.7931 59.4376C35.9011 59.4376 35.9886 59.3501 35.9886 59.2421C35.9886 59.1341 35.9011 59.0466 35.7931 59.0466C35.6852 59.0466 35.5977 59.1341 35.5977 59.2421C35.5977 59.3501 35.6852 59.4376 35.7931 59.4376Z" fill="black"/>
<path d="M35.7931 59.3572C35.9011 59.3572 35.9886 59.2697 35.9886 59.1618C35.9886 59.0538 35.9011 58.9663 35.7931 58.9663C35.6852 58.9663 35.5977 59.0538 35.5977 59.1618C35.5977 59.2697 35.6852 59.3572 35.7931 59.3572Z" fill="#3F3D56"/>
<path opacity="0.1" d="M35.6252 55.2069C35.7331 55.2069 35.8206 55.1193 35.8206 55.0114C35.8206 54.9034 35.7331 54.8159 35.6252 54.8159C35.5172 54.8159 35.4297 54.9034 35.4297 55.0114C35.4297 55.1193 35.5172 55.2069 35.6252 55.2069Z" fill="black"/>
<path d="M35.6252 55.1273C35.7331 55.1273 35.8206 55.0398 35.8206 54.9318C35.8206 54.8238 35.7331 54.7363 35.6252 54.7363C35.5172 54.7363 35.4297 54.8238 35.4297 54.9318C35.4297 55.0398 35.5172 55.1273 35.6252 55.1273Z" fill="#3F3D56"/>
<path d="M40.1317 60.0391C40.1317 60.0391 40.2649 60.2389 40.1317 60.3323C39.9985 60.4257 40.1447 60.6516 40.1447 60.6516C40.1447 60.6516 39.8124 60.8463 39.9586 61.0215C40.1049 61.1967 40.0122 61.988 40.0122 61.988L39.6126 62.6497C39.6126 62.6497 39.6365 63.0761 39.6379 63.6524C39.6379 64.5515 39.5851 65.8156 39.2926 66.3918L39.3331 71.12C39.3331 71.12 37.9337 71.6311 36.7624 71.4755L36.5886 63.8884C36.5886 63.8884 36.842 59.5859 36.9354 58.7606C36.9901 58.3322 37.0123 57.9002 37.002 57.4684C37.002 57.4684 36.9622 56.1768 36.8283 55.5774C36.8283 55.5774 36.6835 52.9806 36.669 52.2617C36.6625 51.9178 36.6806 50.9144 36.7008 49.9602C36.7233 48.917 36.7486 47.9331 36.7486 47.9331L36.4844 45.8424C36.4844 45.8424 36.7486 45.8156 36.8283 45.922C36.8639 45.9553 36.9027 45.9851 36.9441 46.011C37.4002 46.3194 39.0117 47.2678 39.0117 47.2678C39.0117 47.2678 39.9036 47.6226 40.1172 48.1308C40.3308 48.639 40.4792 48.9995 40.5827 49.1443C40.6862 49.2891 40.7427 49.9696 40.7427 49.9696C40.7427 49.9696 41.0496 51.2221 41.2893 51.4342C41.5289 51.6463 41.7041 52.9958 41.7041 52.9958L39.5865 54.6609C39.5865 54.6609 39.4005 57.4307 39.3607 57.5379C39.3208 57.645 40.1317 60.0391 40.1317 60.0391Z" fill="white"/>
<path d="M40.2132 60.0392C40.2132 60.0392 40.3457 60.239 40.2132 60.3324C40.0807 60.4258 40.2255 60.6517 40.2255 60.6517C40.2255 60.6517 39.8954 60.8486 40.0402 61.0238C40.185 61.199 40.0937 61.9903 40.0937 61.9903L39.6941 62.652C39.6941 62.652 39.718 63.0784 39.7202 63.6547C39.7202 64.5538 39.6673 65.8179 39.3748 66.3941L39.4147 71.1223C39.4147 71.1223 38.0131 71.6334 36.8432 71.4777L36.6701 63.8907C36.6701 63.8907 36.9235 59.5882 37.0169 58.7629C37.0716 58.3344 37.0937 57.9024 37.0828 57.4706C37.0828 57.4706 37.043 56.1791 36.9098 55.5797C36.9098 55.5797 36.765 52.9828 36.7498 52.264C36.7433 51.9201 36.7621 50.9167 36.7816 49.9625C36.8041 48.9193 36.8294 47.9354 36.8294 47.9354L36.4805 45.8164C36.4805 45.8164 36.8294 45.8164 36.9098 45.9243C36.9451 45.958 36.9839 45.9878 37.0256 46.0133C37.4817 46.3217 39.0939 47.2701 39.0939 47.2701C39.0939 47.2701 39.9851 47.6248 40.1987 48.1331C40.4123 48.6413 40.5607 49.0018 40.6649 49.1466C40.7692 49.2914 40.8242 49.9719 40.8242 49.9719C40.8242 49.9719 41.1312 51.2244 41.3708 51.4365C41.6104 51.6486 41.7834 52.9952 41.7834 52.9952L39.6659 54.6602C39.6659 54.6602 39.4798 57.4301 39.4393 57.5372C39.3987 57.6444 40.2132 60.0392 40.2132 60.0392Z" fill="white"/>
<path opacity="0.1" d="M37.6788 48.55L37.87 49.1074L36.8637 50.1209C36.8861 49.0785 36.9114 48.0939 36.9114 48.0939L36.5625 45.9749C36.5625 45.9749 36.9114 45.9749 36.9918 46.0827C37.027 46.1163 37.0659 46.146 37.1076 46.171L37.9634 48.6397L37.6788 48.55Z" fill="black"/>
<path d="M37.5968 48.3901L37.7887 48.9475L36.7824 49.961C36.8048 48.9178 36.8301 47.934 36.8301 47.934L36.4805 45.8149C36.4805 45.8149 36.8301 45.8149 36.9098 45.9228C36.9453 45.9563 36.9841 45.9862 37.0256 46.0119L37.882 48.4798L37.5968 48.3901Z" fill="white"/>
<path opacity="0.1" d="M37.5982 42.8742C37.5988 43.1351 37.5577 43.3944 37.4766 43.6423C37.4629 43.6445 37.4489 43.6438 37.4355 43.6405C37.4221 43.6371 37.4094 43.6311 37.3984 43.6228C37.3796 42.9712 37.0589 42.3595 36.6643 41.839C36.5535 41.6818 36.4192 41.5426 36.2661 41.4263C36.1113 41.31 35.9188 41.2556 35.7261 41.2736C35.5089 41.3032 35.317 41.4509 35.0977 41.4697C34.8081 41.4936 34.5489 41.2931 34.2615 41.283C34.1446 41.2841 34.0294 41.3101 33.9234 41.3593C33.8174 41.4085 33.7231 41.4797 33.6468 41.5682C33.4959 41.7468 33.3837 41.9549 33.3174 42.1792C33.2036 42.5194 33.1416 42.8747 33.1336 43.2333C33.1299 43.436 33.1104 43.6901 32.9222 43.764C32.9363 43.6149 32.9194 43.4645 32.8724 43.3223C32.8254 43.1801 32.7494 43.0492 32.6492 42.9379L32.6449 42.9336C32.6449 42.9133 32.6449 42.8945 32.6449 42.8742C32.6393 42.5454 32.6992 42.2187 32.8211 41.9132C32.9431 41.6078 33.1247 41.3297 33.3552 41.0951C33.5858 40.8606 33.8608 40.6743 34.1641 40.5471C34.4674 40.42 34.793 40.3545 35.1219 40.3545C35.4508 40.3545 35.7764 40.42 36.0797 40.5471C36.3831 40.6743 36.658 40.8606 36.8886 41.0951C37.1192 41.3297 37.3007 41.6078 37.4227 41.9132C37.5446 42.2187 37.6045 42.5454 37.5989 42.8742H37.5982Z" fill="black"/>
<path d="M36.1459 38.941C35.7697 38.7641 35.3418 38.7306 34.9426 38.8469C34.7421 38.9063 34.5532 39.0026 34.3497 39.0511C33.9153 39.1561 33.4086 39.0424 33.0357 39.2965C32.8287 39.4413 32.7042 39.6701 32.5883 39.8923L32.2988 40.444C32.1409 40.7459 31.9817 41.0528 31.9158 41.3851C31.8499 41.7174 31.8897 42.0895 32.1004 42.3567C32.2539 42.5514 32.4805 42.6738 32.647 42.8569C32.7467 42.9683 32.8224 43.0991 32.8692 43.2412C32.9161 43.3832 32.9331 43.5333 32.9192 43.6822C33.1081 43.6098 33.1262 43.355 33.1306 43.1523C33.1386 42.7937 33.2006 42.4384 33.3145 42.0982C33.3805 41.8738 33.4927 41.6657 33.6439 41.4872C33.7202 41.3988 33.8145 41.3276 33.9205 41.2784C34.0264 41.2292 34.1417 41.2032 34.2585 41.202C34.5481 41.2121 34.808 41.4119 35.0947 41.388C35.3119 41.3699 35.5044 41.2215 35.7231 41.1925C35.9158 41.1743 36.1085 41.2288 36.2631 41.3453C36.4162 41.4614 36.5503 41.6006 36.6606 41.758C37.0559 42.2785 37.3766 42.8888 37.3954 43.5418C37.4772 43.6019 37.5952 43.5237 37.6358 43.431C37.6763 43.3383 37.6777 43.2298 37.7291 43.1414C37.7885 43.0394 37.9022 42.9851 37.9912 42.9083C38.2171 42.7136 38.2736 42.3856 38.2649 42.0881C38.2562 41.7905 38.1983 41.4886 38.2547 41.1962C38.2888 41.0166 38.3655 40.8487 38.4075 40.6713C38.4495 40.4939 38.4546 40.2948 38.3554 40.1421C38.2106 39.9177 37.9058 39.8735 37.6401 39.8525C37.3382 39.8264 37.0682 39.8597 36.8756 39.6056C36.7852 39.473 36.6835 39.3485 36.5715 39.2335C36.5332 39.1959 36.1459 38.957 36.1459 38.941Z" fill="#512E4E"/>
<path opacity="0.1" d="M28.2774 54.2078L27.5209 52.8091L27.2812 54.9672C27.2812 54.9672 27.4145 55.9257 27.3877 56.0727C27.3609 56.2196 27.9335 57.5372 27.9335 57.5372C27.9335 57.5372 29.8252 60.9065 30.5977 61.0803L33.2076 59.2154L32.5154 58.3365C32.5154 58.3365 32.2758 58.2431 32.2157 58.3365C32.2157 58.3365 30.9307 56.1255 30.7975 55.9655C30.6643 55.8055 30.6904 55.4863 30.6904 55.4863C30.6904 55.4863 30.4905 55.2734 30.5571 55.0736C30.6238 54.8738 30.1713 54.181 30.1713 54.181L30.5839 53.7951L28.2774 54.2078Z" fill="black"/>
<path d="M27.5605 52.6497L27.3607 52.8089L27.1211 54.967C27.1211 54.967 27.2543 55.9256 27.2275 56.0725C27.2007 56.2195 27.7741 57.5371 27.7741 57.5371C27.7741 57.5371 29.6651 60.9064 30.4375 61.0801L33.0481 59.2152L32.3553 58.3363C32.3553 58.3363 32.1157 58.2429 32.0556 58.3363C32.0556 58.3363 30.7706 56.1254 30.6373 55.9654C30.5041 55.8054 30.5309 55.4861 30.5309 55.4861C30.5309 55.4861 30.3311 55.2733 30.3977 55.0735C30.4643 54.8737 30.0111 54.1808 30.0111 54.1808L30.4238 53.795L27.5605 52.6497Z" fill="white"/>
<path opacity="0.1" d="M39.9596 61.1041C40.1044 61.28 40.0132 62.0698 40.0132 62.0698L39.6135 62.7315C39.6135 62.7315 39.6374 63.1586 39.6389 63.7342L38.967 63.9441C38.9063 63.9631 38.842 63.9673 38.7793 63.9563C38.7166 63.9453 38.6575 63.9195 38.6069 63.8811C38.5562 63.8426 38.5155 63.7926 38.4881 63.7351C38.4607 63.6777 38.4474 63.6146 38.4494 63.551L38.5652 59.8147L40.1326 60.4141C39.9994 60.5068 40.1456 60.7341 40.1456 60.7341C40.1456 60.7341 39.8133 60.9281 39.9596 61.1041Z" fill="black"/>
<path d="M40.0384 61.0237C40.1832 61.1997 40.092 61.9902 40.092 61.9902L39.6924 62.6519C39.6924 62.6519 39.7163 63.0783 39.7184 63.6546L39.0343 63.8682C38.9748 63.8867 38.9118 63.8907 38.8505 63.8799C38.7892 63.8691 38.7313 63.8438 38.6817 63.8061C38.6322 63.7684 38.5923 63.7194 38.5655 63.6632C38.5387 63.6071 38.5256 63.5453 38.5275 63.483L38.6441 59.7351L40.2122 60.3345C40.0782 60.4272 40.2245 60.6538 40.2245 60.6538C40.2245 60.6538 39.8936 60.8486 40.0384 61.0237Z" fill="white"/>
<path d="M40.5586 59.2429C40.5586 59.2429 40.4522 59.9227 40.1857 59.9625C39.9193 60.0023 39.7999 61.0622 39.5342 61.0245C39.2685 60.9869 39.4444 60.0392 39.4538 59.8553C39.4632 59.6714 39.1642 58.9098 39.3879 58.7368C39.6116 58.5638 40.3197 58.7368 40.3197 58.7368L40.5586 59.2429Z" fill="#CF6F80"/>
<path opacity="0.1" d="M41.1253 54.0079L41.6278 52.9944C41.6278 52.9944 41.8276 53.7668 41.8276 54.1795C41.8276 54.5922 42.107 54.6327 42.107 54.6327C42.107 54.6327 42.4133 54.9947 42.2518 55.2582C42.0904 55.5217 42.0252 56.1776 42.0252 56.1776C42.0252 56.1776 42.0781 57.4293 41.8384 57.6024C41.5988 57.7754 41.5488 58.1888 41.5488 58.1888C41.5488 58.1888 41.1087 58.9743 41.1224 59.161C41.1362 59.3478 40.51 60.6126 40.51 60.6126C40.51 60.6126 40.8162 59.0409 39.0317 58.3618C39.0317 58.3618 39.0179 57.8282 39.1511 57.682C39.2843 57.5358 39.4921 57.4692 39.3618 56.73C39.2315 55.9908 39.3241 55.1076 39.3241 54.9302C39.3241 54.7529 39.7238 53.6467 39.7238 53.6467L41.1253 54.0079Z" fill="black"/>
<path d="M41.3435 52.8496L41.7822 52.9944C41.7822 52.9944 41.9828 53.7669 41.9828 54.1795C41.9828 54.5922 42.2622 54.6327 42.2622 54.6327C42.2622 54.6327 42.5684 54.9947 42.407 55.2582C42.2456 55.5217 42.1811 56.1776 42.1811 56.1776C42.1811 56.1776 42.234 57.4294 41.9943 57.6024C41.7547 57.7754 41.7011 58.1888 41.7011 58.1888C41.7011 58.1888 41.2617 58.9743 41.2754 59.1611C41.2892 59.3478 40.6623 60.6126 40.6623 60.6126C40.6623 60.6126 40.9692 59.0409 39.1839 58.3618C39.1839 58.3618 39.1709 57.8283 39.3041 57.682C39.4373 57.5358 39.6451 57.4692 39.5148 56.73C39.3845 55.9909 39.4771 55.1076 39.4771 54.9303C39.4771 54.7529 39.8768 53.6467 39.8768 53.6467L41.3435 52.8496Z" fill="white"/>
<path opacity="0.1" d="M31.6523 79.1198C31.6523 79.1198 32.3517 78.6803 32.8107 78.9996C33.2697 79.3188 31.6523 79.1198 31.6523 79.1198Z" fill="black"/>
<path opacity="0.1" d="M37.0859 77.7607C37.0859 77.7607 37.7049 77.6811 38.2247 78.2407C38.7445 78.8003 37.0859 77.7607 37.0859 77.7607Z" fill="black"/>
<g opacity="0.1">
<path d="M37.9925 42.7495C37.9034 42.8262 37.789 42.8813 37.7297 42.9833C37.679 43.0709 37.6775 43.1788 37.637 43.2729C37.5965 43.367 37.4785 43.4438 37.3966 43.3844C37.3778 42.7329 37.0564 42.1211 36.6618 41.5999C36.5515 41.4426 36.4174 41.3033 36.2644 41.1872C36.1094 41.0707 35.9166 41.0162 35.7236 41.0344C35.5064 41.0641 35.3153 41.2118 35.0959 41.2299C34.8063 41.2545 34.5464 41.054 34.259 41.0439C34.1422 41.045 34.027 41.0711 33.9211 41.1205C33.8153 41.1698 33.7211 41.2412 33.6451 41.3298C33.494 41.5081 33.3818 41.716 33.3157 41.9401C33.2019 42.2803 33.14 42.6356 33.1318 42.9942C33.1275 43.1962 33.1087 43.4481 32.9219 43.5234C32.9262 43.5769 32.9262 43.6306 32.9219 43.6841C33.1101 43.6117 33.1289 43.3569 33.1333 43.1542C33.1413 42.7956 33.2033 42.4403 33.3172 42.1001C33.3832 41.8757 33.4954 41.6676 33.6466 41.4891C33.7228 41.4007 33.8169 41.3295 33.9228 41.2803C34.0286 41.2311 34.1438 41.2051 34.2605 41.2039C34.5501 41.214 34.8107 41.4138 35.0974 41.3899C35.3145 41.3718 35.5071 41.2234 35.725 41.1944C35.918 41.1762 36.1109 41.2307 36.2658 41.3472C36.4189 41.4633 36.553 41.6025 36.6633 41.7599C37.0578 42.2804 37.3793 42.8907 37.3981 43.5437C37.4799 43.6038 37.5979 43.5256 37.6384 43.4329C37.679 43.3402 37.6804 43.2317 37.7311 43.1433C37.7905 43.0413 37.9049 42.987 37.9939 42.9102C38.2198 42.7155 38.2763 42.3875 38.2676 42.09C38.2676 42.0806 38.2676 42.0712 38.2676 42.0625C38.2538 42.3202 38.185 42.583 37.9925 42.7495Z" fill="black"/>
<path d="M32.648 42.6982C32.4815 42.515 32.2542 42.3927 32.1014 42.1986C31.9728 42.0269 31.8993 41.8201 31.8907 41.6057C31.8679 41.8736 31.9428 42.1408 32.1014 42.3579C32.2542 42.5526 32.4815 42.675 32.648 42.8582C32.8079 43.0373 32.9038 43.2644 32.9209 43.5039C32.932 43.3582 32.9135 43.2117 32.8666 43.0732C32.8197 42.9347 32.7454 42.8072 32.648 42.6982Z" fill="black"/>
<path d="M38.4082 40.5125C38.3655 40.6899 38.2895 40.8585 38.2547 41.0374C38.2342 41.1568 38.2266 41.2782 38.2323 41.3993C38.2347 41.3303 38.2422 41.2616 38.2547 41.1937C38.2895 41.0142 38.3655 40.8462 38.4082 40.6689C38.4331 40.571 38.4412 40.4697 38.4321 40.3691C38.4276 40.4174 38.4196 40.4653 38.4082 40.5125Z" fill="black"/>
</g>
<path opacity="0.1" d="M18.6089 82.0633C22.5049 82.0633 25.6631 81.5561 25.6631 80.9304C25.6631 80.3046 22.5049 79.7974 18.6089 79.7974C14.713 79.7974 11.5547 80.3046 11.5547 80.9304C11.5547 81.5561 14.713 82.0633 18.6089 82.0633Z" fill="#F3564C"/>
<path d="M18.8367 59.2261H18.3828V69.4462H18.8367V59.2261Z" fill="#535461"/>
<path d="M21.6895 69.4152L21.6613 69.8757L21.6208 70.5272L21.6041 70.798L21.5643 71.4495L21.5469 71.7203L21.5064 72.3719L21.0488 79.7613C21.029 80.0792 20.8887 80.3776 20.6565 80.5958C20.4244 80.8139 20.1178 80.9354 19.7993 80.9355H17.4204C17.1019 80.9354 16.7954 80.8139 16.5634 80.5957C16.3314 80.3776 16.1913 80.0792 16.1715 79.7613L15.7162 72.3668L15.6756 71.7152L15.659 71.4445L15.6184 70.7929L15.6018 70.5222L15.5613 69.8706L15.5323 69.4102C15.5273 69.3215 15.5404 69.2328 15.5709 69.1495C15.6014 69.0661 15.6486 68.9899 15.7096 68.9254C15.7706 68.8609 15.8441 68.8096 15.9257 68.7746C16.0072 68.7395 16.0951 68.7215 16.1839 68.7217H21.0496C21.138 68.7224 21.2253 68.7413 21.3062 68.7771C21.387 68.813 21.4597 68.865 21.5196 68.93C21.5796 68.995 21.6256 69.0715 21.6548 69.155C21.6841 69.2385 21.6959 69.327 21.6895 69.4152Z" fill="#3F3D56"/>
<path d="M21.6615 69.8755L21.621 70.5249H15.5991L15.5586 69.8755H21.6615Z" fill="#9D9CB5"/>
<path d="M21.6018 70.7957L21.562 71.4458H15.6538L15.6133 70.7957H21.6018Z" fill="#9D9CB5"/>
<path d="M21.5461 71.7173L21.5062 72.3667H15.7124L15.6719 71.7173H21.5461Z" fill="#9D9CB5"/>
<path d="M14.863 63.0564C17.5062 64.9691 18.6095 67.9605 18.6095 67.9605C18.6095 67.9605 15.4241 67.8512 12.7802 65.9385C10.1363 64.0258 9.03516 61.0352 9.03516 61.0352C9.03516 61.0352 12.2191 61.1437 14.863 63.0564Z" fill="#F3564C"/>
<path d="M9.03516 61.0352C9.03516 61.0352 12.3422 62.8704 13.4028 64.39C14.4634 65.9095 18.6116 67.9605 18.6116 67.9605" stroke="#535461" stroke-width="2" stroke-miterlimit="10"/>
<path d="M16.5708 59.2037C18.0093 60.244 18.6109 61.8722 18.6109 61.8722C18.6109 61.8722 16.877 61.8128 15.4378 60.7725C13.9986 59.7322 13.3984 58.1033 13.3984 58.1033C13.3984 58.1033 15.1316 58.1626 16.5708 59.2037Z" fill="#F3564C"/>
<path d="M13.3984 58.1033C13.3984 58.1033 15.1982 59.1023 15.7752 59.9291C16.3522 60.7558 18.6109 61.8722 18.6109 61.8722" stroke="#535461" stroke-width="2" stroke-miterlimit="10"/>
<path d="M20.7017 61.7897C19.0489 63.6061 18.6992 65.9799 18.6992 65.9799C18.6992 65.9799 21.0296 65.408 22.681 63.5909C24.3323 61.7738 24.6834 59.4006 24.6834 59.4006C24.6834 59.4006 22.3545 59.9733 20.7017 61.7897Z" fill="#F3564C"/>
<path d="M24.6849 59.4014C24.6849 59.4014 22.5318 61.2634 21.9845 62.5462C21.4372 63.8291 18.6992 65.98 18.6992 65.98" stroke="#535461" stroke-width="2" stroke-miterlimit="10"/>
<path d="M81.3735 61.1506C81.3735 61.1506 80.1782 55.204 80.6357 54.4641C80.6357 54.4641 80.6524 53.7764 80.6249 52.8997C80.6249 52.8663 80.6249 52.833 80.6249 52.799C80.7054 52.8527 80.7893 52.9011 80.8761 52.9438C81.2977 53.1604 81.7816 53.2229 82.2444 53.1205L81.8824 52.7172C81.7955 52.6209 81.705 52.5167 81.6862 52.3893C81.6674 52.2618 81.7195 52.1482 81.7644 52.0345C82.1083 51.1658 82.1264 50.0733 81.464 49.4102C80.9043 48.8527 80.7682 48.1331 80.1608 47.6242C79.7171 47.2513 79.4731 46.7048 79.2429 46.1763C79.0481 45.7296 78.8519 45.2793 78.7404 44.8058C78.6536 44.4359 78.6188 44.0529 78.4994 43.6917C78.3799 43.3304 78.1562 42.9793 77.8065 42.8178C77.682 42.7607 77.5437 42.7281 77.4301 42.6521C77.2809 42.5514 77.1912 42.3878 77.0833 42.2445C76.5353 41.5205 74.7 41.9469 73.8313 42.2409C73.5951 42.3149 73.3764 42.436 73.1884 42.597L73.1964 42.584C73.2029 42.5731 73.2109 42.5623 73.2181 42.5514C73.123 42.6283 73.0409 42.72 72.9749 42.8229C72.8482 43.0234 72.7953 43.2573 72.6896 43.4745C72.5622 43.7315 71.8534 44.4489 72.1582 44.7378C72.1796 44.7572 72.2041 44.7728 72.2306 44.7841C72.345 44.8317 72.471 44.8443 72.5926 44.8203L72.5796 44.8514C72.4755 45.1063 72.4221 45.379 72.4225 45.6543C72.4225 46.8438 73.4034 47.8081 74.6146 47.8081C74.8423 47.8083 75.0687 47.7734 75.2857 47.7045C75.2908 47.7321 75.2951 47.7596 75.3002 47.7871C75.3002 47.7979 75.3038 47.8088 75.3053 47.8197L75.2669 47.8732C75.265 47.8699 75.2628 47.8668 75.2604 47.8638L74.1238 49.4522C73.95 49.5745 72.9495 50.2985 72.893 50.8414C72.8337 51.4358 72.7743 52.1315 72.7743 52.1315L72.7664 52.2807C72.7167 52.3222 72.6586 52.3524 72.5961 52.3693C72.5336 52.3862 72.4682 52.3893 72.4044 52.3784C72.0496 52.3205 72.0496 53.6815 72.0496 53.6815C72.0496 53.6815 71.8136 53.8987 71.6515 53.7105C71.4893 53.5223 71.0607 54.1601 71.0607 54.1601L68.3748 54.2759L68.3133 54.2795L68.1685 53.8314C68.1529 53.7841 68.1193 53.7449 68.075 53.7223C68.0307 53.6996 67.9792 53.6954 67.9318 53.7105C67.9206 53.7142 67.9097 53.7188 67.8992 53.7242L67.8891 53.73L67.8702 53.7431L67.8608 53.7517C67.8556 53.7565 67.8508 53.7615 67.8464 53.7669L67.8377 53.7771L67.8333 53.7814C67.8166 53.8045 67.8055 53.8313 67.801 53.8594C67.7965 53.8876 67.7986 53.9164 67.8073 53.9436L67.9318 54.328C67.4134 54.4323 66.8835 54.7262 67.3157 55.5356L65.125 55.1309L65.8338 55.726L69.4926 56.4811C69.4441 56.5679 69.476 56.6939 69.6273 56.8713C70.2788 57.6365 71.4661 57.8443 71.9439 57.8978C72.0701 58.1801 72.2277 58.4472 72.4138 58.6942L72.3725 59.4565C72.3725 59.4565 71.1628 65.267 70.9413 65.5616C71.0531 65.4349 71.1554 65.3001 71.2475 65.1584C70.8964 66.3522 70.4055 67.9862 70.2767 68.2309C70.0696 68.6218 69.8778 70.2036 70.1138 70.305C70.1862 70.3361 70.3932 70.3209 70.6886 70.2985V70.4295L70.6756 75.3951C70.6756 75.3951 70.7349 78.4408 70.572 78.7311C70.4092 79.0214 70.3657 79.6303 70.3657 79.6303C70.3657 79.6303 69.7142 80.8313 69.198 81.3142C69.1945 81.3179 69.1906 81.3213 69.1864 81.3243L69.1705 81.2114C69.1705 81.2114 68.55 81.9947 67.1774 81.9505C67.1774 81.9505 66.3514 82.4877 67.5763 82.5167C68.8012 82.5456 70.3657 82.4732 70.3657 82.4732C70.3657 82.4732 71.4582 80.8081 72.3732 81.0253V82.2872H72.6534V81.0051C72.7833 80.9195 72.8946 80.8085 72.9803 80.6787C73.066 80.5489 73.1245 80.403 73.1522 80.25C73.1762 80.0922 73.1586 79.9309 73.1013 79.782C73.0439 79.633 72.9487 79.5017 72.825 79.4008C72.7694 79.3506 72.7249 79.2894 72.6941 79.2211C72.6633 79.1528 72.647 79.0789 72.6462 79.004L72.636 79.0127C72.636 78.9874 72.6295 78.9613 72.6266 78.9345C72.5463 78.283 72.4456 76.9386 72.8011 75.9439C73.2883 74.58 73.436 72.6803 73.0813 71.5495C72.9668 71.188 72.8728 70.8204 72.7997 70.4483C72.791 70.4013 72.783 70.3564 72.7758 70.3144C73.0183 70.3472 73.2584 70.3956 73.4947 70.4592C74.3163 70.6858 76.1139 70.7278 77.6487 70.7155C77.6523 70.7575 77.6567 70.8016 77.6617 70.8458C77.6891 71.1528 77.7463 71.4563 77.8326 71.7522C78.0252 72.3313 78.1135 74.8847 78.1135 74.8847C78.1135 74.8847 78.3618 76.9842 78.2264 77.8385C78.154 78.3134 78.0816 78.7905 78.0404 79.2697V79.2791C78.0404 79.2791 77.6335 80.4375 77.336 81.0666C77.3287 81.0825 77.3208 81.0984 77.3135 81.1137C77.2342 81.1209 77.1561 81.1382 77.0811 81.1651C77.0811 81.1651 76.6822 81.9614 76.2848 82.0932C75.8873 82.2249 76.0191 82.6586 76.919 82.4993C77.8188 82.34 79.1777 82.2097 79.1777 82.2097L79.2363 81.3974L79.5129 81.0514L79.4405 81.8615L79.7352 81.8036L79.6961 80.8183L80.1485 80.2521C80.1485 80.2521 80.6951 79.7656 79.8828 78.8086V78.8296C79.8741 78.8158 79.8662 78.8013 79.8568 78.7876V78.7832C79.7221 78.5747 79.615 78.186 79.8112 77.496C80.1659 76.2494 80.3722 75.1179 80.3722 75.1179C80.3722 75.1179 81.1642 72.0866 80.2122 70.6525H80.2542C80.1567 70.4507 80.0877 70.2363 80.0493 70.0154C80.0445 69.9893 80.0402 69.9626 80.0363 69.9351C80.7407 69.8945 81.4321 69.7671 81.9961 69.492C81.9939 69.4891 81.6544 62.2959 81.3735 61.1506ZM72.4304 56.1336V56.148L72.2856 56.1553L72.4304 56.1336ZM71.9338 56.2023C71.91 56.2076 71.8877 56.2183 71.8686 56.2335C71.8064 56.3215 71.7673 56.4239 71.755 56.531L71.5291 56.4803C71.5291 56.4803 71.3706 56.4463 71.1425 56.4079L71.0347 56.2993C71.3315 56.2747 71.6399 56.2385 71.9338 56.2023Z" fill="url(#paint1_linear_515_3348)"/>
<path d="M79.4065 80.8284L79.3203 81.8542L79.6092 81.7963L79.5657 80.6836L79.4065 80.8284Z" fill="#1D2366"/>
<path d="M72.8138 75.9575C72.4656 76.9493 72.564 78.2879 72.6422 78.938C72.6712 79.1784 72.698 79.3246 72.698 79.3246C72.698 79.3246 72.1774 80.5104 72.134 80.5553C72.0906 80.6002 70.6021 81.5088 70.6021 81.5088L69.5618 82.1162C69.5618 82.1162 68.5063 81.6536 69.0123 81.4943C69.1157 81.4528 69.2088 81.3893 69.2852 81.3082C69.792 80.8268 70.4284 79.6301 70.4284 79.6301C70.4284 79.6301 70.4718 79.0227 70.6311 78.7338C70.7903 78.445 70.7324 75.4094 70.7324 75.4094L70.7447 70.4612V69.8162L72.7248 69.8306C72.7372 70.0496 72.7658 70.2674 72.8102 70.4822C72.8813 70.853 72.9733 71.2194 73.086 71.5797C73.435 72.7084 73.2902 74.5986 72.8138 75.9575Z" fill="#FFB0B1"/>
<path opacity="0.1" d="M72.698 79.3246C72.698 79.3246 72.1774 80.5104 72.134 80.5553C72.0906 80.6002 70.6021 81.5088 70.6021 81.5088L69.5618 82.1162C69.5618 82.1162 68.5063 81.6536 69.0123 81.4943C69.1157 81.4528 69.2088 81.3893 69.2852 81.3082L69.3301 81.6246L69.6769 81.6101L72.6451 78.9395C72.6712 79.1784 72.698 79.3246 72.698 79.3246Z" fill="black"/>
<path d="M72.6648 79.0068L69.6799 81.6956L69.3331 81.7101L69.2608 81.2033C69.2608 81.2033 68.6541 81.9837 67.3061 81.9403C67.3061 81.9403 66.4967 82.4753 67.6963 82.5043C68.8959 82.5332 70.4278 82.4608 70.4278 82.4608C70.4278 82.4608 71.4978 80.7957 72.3933 81.0129V82.2704H72.6684V81.0013C72.7963 80.9152 72.9055 80.8041 72.9893 80.6747C73.0732 80.5454 73.13 80.4003 73.1564 80.2484C73.1802 80.0919 73.1633 79.9319 73.1074 79.7838C73.0515 79.6357 72.9584 79.5045 72.8371 79.4028C72.7829 79.352 72.7397 79.2907 72.7101 79.2226C72.6804 79.1545 72.665 79.0811 72.6648 79.0068Z" fill="#1D2366"/>
<path d="M79.6806 77.5038C79.488 78.1916 79.593 78.5789 79.7247 78.7867V78.791C79.8937 79.0476 80.0113 79.3345 80.0708 79.6359L80.0824 79.701L78.7242 81.681L77.9872 81.9706C77.9872 81.9706 76.8021 81.5659 77.0186 81.4501C77.0729 81.4219 77.1576 81.2713 77.2546 81.0635C77.5442 80.4373 77.9438 79.2818 77.9438 79.2818V79.2724C77.9858 78.7954 78.0524 78.3197 78.1263 77.8462C78.2587 76.9941 78.0155 74.9026 78.0155 74.9026C78.0155 74.9026 77.9286 72.3594 77.7404 71.7809C77.6554 71.4868 77.5989 71.1853 77.5717 70.8803C77.5326 70.5184 77.5239 70.2201 77.5239 70.2201C77.5239 70.2201 78.3043 69.1342 79.7349 70.307C79.8493 70.4005 79.9499 70.5097 80.0339 70.6313C81.0221 72.0372 80.2264 75.1343 80.2264 75.1343C80.2264 75.1343 80.0274 76.2608 79.6806 77.5038Z" fill="#FFB0B1"/>
<path opacity="0.1" d="M80.0863 79.701L78.7281 81.681L77.9912 81.9706C77.9912 81.9706 76.806 81.5659 77.0225 81.4501C77.0768 81.4219 77.1615 81.2713 77.2585 81.0635C77.7602 81.0592 78.0201 81.537 78.0201 81.537L78.6558 81.4356C78.6558 81.4356 79.4941 79.7879 79.6823 79.6873C79.8705 79.5866 79.7113 78.9351 79.7113 78.9351V78.7693C79.7163 78.7751 79.7207 78.7816 79.7265 78.7874V78.7917C79.8955 79.0483 80.013 79.3352 80.0725 79.6366L80.0863 79.701Z" fill="black"/>
<path d="M78.0601 81.5797C78.0601 81.5797 77.6981 80.9151 77.0046 81.1605C77.0046 81.1605 76.6144 81.9569 76.2242 82.0857C75.8339 82.2146 75.9643 82.649 76.846 82.4904C77.7278 82.3319 79.057 82.2008 79.057 82.2008L79.1149 81.3907L80.0112 80.2491C80.0112 80.2491 80.5455 79.7647 79.7506 78.8113V78.9771C79.7506 78.9771 79.9098 79.6286 79.7216 79.7293C79.5334 79.8299 78.6979 81.4783 78.6979 81.4783L78.0601 81.5797Z" fill="#1D2366"/>
<path opacity="0.1" d="M72.7283 69.8292C72.7408 70.0482 72.7693 70.2659 72.8137 70.4807C71.9985 70.3613 71.242 70.4206 70.7461 70.4597V69.8147L72.7283 69.8292Z" fill="black"/>
<path opacity="0.1" d="M80.1148 70.8118C80.1148 70.8118 78.9564 70.8683 77.5751 70.8799C77.536 70.5179 77.5273 70.2196 77.5273 70.2196C77.5273 70.2196 78.3078 69.1337 79.7383 70.3065C79.8527 70.4 79.9534 70.5092 80.0373 70.6308C80.0597 70.6925 80.0856 70.753 80.1148 70.8118Z" fill="black"/>
<path d="M80.1143 70.6813C80.1143 70.6813 75.0408 70.9267 73.4945 70.493C71.9481 70.0594 70.4155 70.4351 70.1845 70.3345C69.9536 70.2339 70.1411 68.6578 70.3438 68.2676C70.5465 67.8774 71.6585 63.9311 71.6585 63.9311L72.7285 58.3523L73.8557 58.0417L73.9354 58.0193L75.8995 57.4778L77.3387 57.0803C77.3387 57.0803 80.2005 68.2531 79.955 69.077C79.8659 69.3925 79.8516 69.7244 79.9131 70.0464C79.9506 70.2663 80.0183 70.4799 80.1143 70.6813Z" fill="#1D2366"/>
<path d="M68.9982 54.5371C68.9982 54.5371 67.9846 55.623 68.752 56.2283C69.5194 56.8335 70.024 56.2862 70.024 56.2862L68.9982 54.5371Z" fill="#C7DAF5"/>
<path opacity="0.1" d="M68.9982 54.5371C68.9982 54.5371 67.9846 55.623 68.752 56.2283C69.5194 56.8335 70.024 56.2862 70.024 56.2862L68.9982 54.5371Z" fill="black"/>
<path d="M77.1878 47.3974C77.1878 47.3974 77.0691 47.5103 76.8902 47.6768C76.6354 47.915 76.2582 48.2632 75.9238 48.555C75.4604 48.9582 75.0782 49.2543 75.215 49.0017C75.3518 48.749 75.3258 48.3089 75.2577 47.8969C75.2526 47.8694 75.2483 47.8419 75.2432 47.8151C75.1869 47.5126 75.1122 47.2138 75.0195 46.9203C75.0195 46.9203 75.7681 45.9531 76.1822 45.5716C76.3364 45.4268 76.4443 45.3674 76.4508 45.4681C76.458 45.6034 76.5594 45.9024 76.6854 46.2195C76.689 46.2297 76.6926 46.2391 76.6969 46.2492C76.7809 46.4664 76.8758 46.6894 76.959 46.8819C77.0864 47.1773 77.1878 47.3974 77.1878 47.3974Z" fill="#FFB0B1"/>
<path opacity="0.1" d="M76.6969 46.2493C76.6266 46.6277 76.4559 46.9802 76.2027 47.2701C75.9496 47.5599 75.6232 47.7765 75.2577 47.8971C75.2002 47.5666 75.1206 47.2403 75.0195 46.9204C75.0195 46.9204 76.4291 45.0997 76.4508 45.4682C76.4559 45.6079 76.5659 45.9178 76.6969 46.2493Z" fill="black"/>
<path opacity="0.1" d="M75.1167 48.3835L75.2992 48.1265C75.2992 48.1265 75.4201 48.8635 75.8646 48.5384C76.3091 48.2133 76.3308 50.9846 76.3308 50.9846L75.8537 58.1178L72.4062 57.9114L72.504 54.4647L72.8942 52.7272L73.8592 50.2013L74.4333 49.3666L75.1167 48.3835Z" fill="black"/>
<path d="M76.3326 51.0288L75.8982 57.4785L75.8526 58.1619L73.9305 58.0468L73.8581 58.0425L72.4102 57.9556L72.5079 54.5081L72.8981 52.7706L73.8631 50.2447L74.4372 49.41L75.1206 48.4233L75.3031 48.167C75.3031 48.167 75.424 48.904 75.8685 48.5789L75.8779 48.5724C76.3123 48.2973 76.3326 51.0288 76.3326 51.0288Z" fill="#1D2366"/>
<path d="M72.9441 52.167C72.9441 52.167 72.7711 52.529 72.4236 52.4703C72.0761 52.4117 72.0768 53.7734 72.0768 53.7734C72.0768 53.7734 71.8459 53.9906 71.6866 53.8024C71.5273 53.6142 71.1074 54.2505 71.1074 54.2505L68.4766 54.3664C68.4766 54.3664 69.6472 54.9014 69.4177 56.5201C69.4177 56.5201 73.3922 56.274 73.5225 55.8983C73.6528 55.5225 72.9441 52.167 72.9441 52.167Z" fill="white"/>
<path opacity="0.03" d="M72.9441 52.167C72.9441 52.167 72.7711 52.529 72.4236 52.4703C72.0761 52.4117 72.0768 53.7734 72.0768 53.7734C72.0768 53.7734 71.8459 53.9906 71.6866 53.8024C71.5273 53.6142 71.1074 54.2505 71.1074 54.2505L68.4766 54.3664C68.4766 54.3664 69.6472 54.9014 69.4177 56.5201C69.4177 56.5201 73.3922 56.274 73.5225 55.8983C73.6528 55.5225 72.9441 52.167 72.9441 52.167Z" fill="black"/>
<path d="M65.3008 55.2168L65.9943 55.809L71.7034 57.0086L70.9954 56.2861L65.3008 55.2168Z" fill="white"/>
<path d="M75.1292 48.6115C75.0343 48.7563 74.7628 49.4976 74.5362 50.1448C74.3473 50.6842 74.1895 51.1583 74.1895 51.1583C74.1895 51.1583 73.821 53.5575 73.6327 53.9912C73.4445 54.4248 73.5466 56.116 73.5466 56.116L72.8451 60.2925C72.8451 60.2925 72.5273 62.4463 72.0364 63.7327C71.5521 64.9989 71.0127 65.5926 70.9961 65.6114C71.2133 65.3175 72.3969 59.5302 72.3969 59.5302L72.7879 52.2312C72.7879 52.2312 72.8451 51.5377 72.903 50.9448C72.9609 50.3519 74.1337 49.5425 74.1337 49.5425L75.2645 47.9346C75.3782 48.0866 75.3022 48.3516 75.1292 48.6115Z" fill="white"/>
<path d="M72.178 57.9917C72.178 57.9917 70.5129 57.9193 69.7064 56.9506C68.9 55.982 71.5706 56.564 71.5706 56.564L72.2649 56.7233L72.178 57.9917Z" fill="#FFB0B1"/>
<path opacity="0.1" d="M79.9548 69.0779C79.8657 69.3933 79.8513 69.7252 79.9128 70.0472C78.0964 70.1761 76.1533 69.6853 76.1533 69.6853C75.7913 70.0183 74.8379 70.5091 74.8379 70.5091L74.3181 64.0659C73.9858 63.1972 73.8555 58.6457 73.8555 58.6457C73.8555 58.6457 73.8852 58.4075 73.9279 58.0506C73.9279 58.0419 73.9279 58.0325 73.9315 58.0238C74.0611 57.0269 74.3181 55.1555 74.444 54.9028C74.6178 54.5553 73.9098 53.6308 73.9098 53.6308L74.2319 50.8834L74.271 50.5518C74.9501 50.2485 75.4706 49.2798 75.4706 49.2798L75.8702 48.5798C76.3046 48.3011 76.3271 51.0325 76.3271 51.0325L75.8927 57.4823L77.3319 57.0848C77.3319 57.0848 80.2002 68.254 79.9548 69.0779Z" fill="black"/>
<path d="M81.818 69.523C79.838 70.5061 76.2392 69.5954 76.2392 69.5954C75.8773 69.9284 74.9238 70.4193 74.9238 70.4193L74.4033 63.9761C74.0717 63.1073 73.9414 58.5558 73.9414 58.5558C73.9414 58.5558 74.3599 55.1597 74.5336 54.8129C74.5843 54.7116 74.5597 54.561 74.4996 54.3988C74.2042 53.627 74.0955 52.7962 74.1825 51.9743L74.3215 50.7935L74.3599 50.4627C75.0396 50.1586 75.5602 49.19 75.5602 49.19L75.9222 48.5558L76.5882 47.3873L76.9038 46.8342L76.9574 46.8827L77.3664 47.2534C77.3664 47.2534 77.5402 47.3982 77.8008 47.6154C78.3677 48.0932 79.3472 48.9344 79.8525 49.4492C80.297 49.9024 80.4375 51.6652 80.478 52.9922C80.5048 53.866 80.4889 54.5509 80.4889 54.5509C80.0407 55.2886 81.2128 61.2113 81.2128 61.2113C81.4857 62.3558 81.818 69.523 81.818 69.523Z" fill="white"/>
<path opacity="0.03" d="M78.0184 49.1756C78.0184 49.1756 76.6595 51.7623 76.8174 52.7454C76.9752 53.7286 77.424 54.8413 77.2076 55.1012C77.1332 55.1996 77.037 55.2796 76.9267 55.3347C76.8163 55.3898 76.6946 55.4187 76.5712 55.419C76.354 55.4335 75.7749 55.8382 75.7749 55.8816C75.7749 55.925 75.2399 55.925 74.7613 56.1277C74.2828 56.3305 73.5762 56.4456 73.5762 56.4456C73.5762 56.4456 72.2007 56.4021 72.0725 56.5324C71.9444 56.6627 71.8126 57.4424 72.087 58.0643C72.3614 58.6862 72.6662 59.1503 72.8964 59.235C73.1266 59.3197 74.5876 58.8303 75.7727 58.7144C76.9578 58.5986 78.2443 57.6596 78.2443 57.6596C78.2443 57.6596 79.661 57.1529 79.9094 56.3008C80.1577 55.4487 79.606 50.7654 79.606 50.7654C79.606 50.7654 79.189 48.5827 78.0184 49.1756Z" fill="black"/>
<path opacity="0.03" d="M77.8444 48.9584C77.8444 48.9584 76.4856 51.5458 76.6448 52.5282C76.8041 53.5106 77.2515 54.624 77.0343 54.8847C76.9602 54.9832 76.8642 55.0633 76.7539 55.1184C76.6436 55.1736 76.522 55.2023 76.3987 55.2025C76.1815 55.217 75.6023 55.6216 75.6023 55.6651C75.6023 55.7085 75.0673 55.7085 74.5888 55.9105C74.1103 56.1125 73.4037 56.2283 73.4037 56.2283C73.4037 56.2283 72.0282 56.1849 71.9007 56.3152C71.7733 56.4455 71.6401 57.2259 71.9152 57.8471C72.1903 58.4682 72.4944 58.933 72.7246 59.0177C72.9548 59.1024 74.4158 58.613 75.6009 58.4979C76.786 58.3828 78.0725 57.4424 78.0725 57.4424C78.0725 57.4424 79.4885 56.9356 79.7339 56.0843C79.9794 55.2329 79.4306 50.5482 79.4306 50.5482C79.4306 50.5482 79.0151 48.3662 77.8444 48.9584Z" fill="black"/>
<path d="M77.974 49.0452C77.974 49.0452 76.6151 51.6326 76.7744 52.615C76.9337 53.5974 77.3811 54.7109 77.1646 54.9708C77.0905 55.0696 76.9944 55.1498 76.884 55.2051C76.7735 55.2604 76.6517 55.2892 76.5282 55.2893C76.3111 55.3038 75.7319 55.7085 75.7319 55.7512C75.7319 55.7939 75.1976 55.7946 74.7183 55.9973C74.2391 56.2001 73.5332 56.3152 73.5332 56.3152C73.5332 56.3152 72.1577 56.2717 72.0296 56.402C71.9014 56.5323 71.7697 57.3128 72.0441 57.9339C72.3184 58.5551 72.6232 59.0199 72.8534 59.1046C73.0837 59.1893 74.5446 58.6999 75.7297 58.584C76.9148 58.4682 78.2013 57.5292 78.2013 57.5292C78.2013 57.5292 79.6181 57.0225 79.8664 56.1704C80.1147 55.3183 79.5667 50.635 79.5667 50.635C79.5667 50.635 79.1439 48.4559 77.974 49.0452Z" fill="white"/>
<path opacity="0.1" d="M77.9441 55.985C77.9441 55.985 76.8582 55.7678 77.2361 56.1298C77.614 56.4918 77.6118 56.8089 78.0745 56.7944C78.5371 56.7799 77.9441 55.985 77.9441 55.985Z" fill="black"/>
<path opacity="0.1" d="M79.7806 63.7734C79.7806 63.7734 79.2897 64.1057 80.2287 64.8717C81.1677 65.6376 79.7806 63.7734 79.7806 63.7734Z" fill="black"/>
<path opacity="0.1" d="M78.8453 66.5049C78.8453 66.5483 78.6716 68.0976 79.3217 68.4849C79.9718 68.8722 78.8453 66.5049 78.8453 66.5049Z" fill="black"/>
<path d="M68.5229 54.3628C67.9988 54.3809 66.8665 54.5409 67.4537 55.6362C67.9727 56.6056 68.8451 55.9577 69.336 55.4661C69.2162 55.0078 68.9252 54.6129 68.5229 54.3628Z" fill="#FFB0B1"/>
<path d="M69.3398 55.4573L69.3616 55.4348L69.3398 55.4573Z" fill="#FFB0B1"/>
<path opacity="0.1" d="M77.8035 47.6595C77.2476 48.0396 76.7813 48.3603 76.6901 48.4269C76.4411 48.6116 75.9662 49.6953 75.6599 50.2484C75.4159 50.6936 74.6232 50.808 74.3242 50.8363L74.3626 50.5054C75.0424 50.2014 75.5629 49.2327 75.5629 49.2327L76.9066 46.877L77.3692 47.2976C77.3692 47.2976 77.5429 47.4424 77.8035 47.6595Z" fill="black"/>
<path d="M77.8035 47.6161C77.2476 47.9962 76.7813 48.3169 76.6901 48.3842C76.4411 48.5681 75.9662 49.6519 75.6599 50.205C75.4159 50.6502 74.6232 50.7646 74.3242 50.7928L74.3626 50.462C75.0424 50.1579 75.5629 49.1892 75.5629 49.1892L76.9066 46.8335L77.3692 47.2527C77.3692 47.2527 77.5429 47.396 77.8035 47.6161Z" fill="#DCE7FF"/>
<path d="M76.732 45.7714C76.7323 46.206 76.6005 46.6304 76.3541 46.9884C76.0631 47.4116 75.63 47.7165 75.1334 47.8478C74.6368 47.979 74.1096 47.9279 73.6474 47.7036C73.1853 47.4794 72.8189 47.097 72.6146 46.6257C72.4103 46.1544 72.3818 45.6255 72.5341 45.135C72.6864 44.6444 73.0095 44.2248 73.4448 43.9521C73.8801 43.6794 74.3988 43.5718 74.9066 43.6488C75.4144 43.7258 75.8779 43.9823 76.2128 44.3717C76.5477 44.7611 76.7319 45.2577 76.732 45.7714Z" fill="#FFB0B1"/>
<path opacity="0.1" d="M80.4798 52.9929C80.1858 52.812 79.9464 52.5548 79.787 52.2486C79.6661 52.0097 79.5857 51.7339 79.3794 51.5645C79.1933 51.4125 78.945 51.3755 78.7133 51.3075C77.9517 51.0823 77.3132 50.3873 77.2893 49.5939C77.2777 49.2203 77.3943 48.8475 77.3414 48.4775C77.3114 48.2682 77.2281 48.07 77.0996 47.902C77.0358 47.8217 76.9659 47.7464 76.8904 47.6769C76.7891 47.5813 76.6826 47.4886 76.59 47.3873C76.5316 47.3245 76.4806 47.2553 76.438 47.1809C76.4035 47.1201 76.3756 47.0558 76.3547 46.9891C76.2099 46.546 76.3417 46.0204 76.1824 45.5723L76.1737 45.5477C76.1136 45.3884 75.9913 45.2292 75.8211 45.2169C75.651 45.2045 75.5055 45.3457 75.3433 45.4087C75.0038 45.5405 74.6375 45.316 74.3544 45.0873C74.0713 44.8585 73.7521 44.5971 73.3923 44.6478C73.1541 44.6818 72.9659 44.844 72.7465 44.928C72.697 44.9472 72.6459 44.9619 72.5938 44.9722C72.7794 44.5092 73.1205 44.1253 73.5584 43.8865C73.9963 43.6477 74.5037 43.5689 74.9934 43.6635C75.4832 43.7582 75.9246 44.0204 76.242 44.4052C76.5594 44.79 76.7329 45.2733 76.7326 45.7721C76.7328 45.9227 76.7171 46.073 76.6855 46.2203C76.6892 46.2304 76.6928 46.2398 76.6971 46.2499C76.7811 46.4671 76.8759 46.6901 76.9592 46.8827L77.3682 47.2533C77.3682 47.2533 77.542 47.3981 77.8026 47.6153C78.3695 48.0931 79.349 48.9344 79.8543 49.4491C80.2988 49.9037 80.4378 51.6659 80.4798 52.9929Z" fill="black"/>
<path d="M72.7192 43.6053C72.8227 43.3946 72.8741 43.1586 72.9979 42.9588C73.1796 42.6692 73.4967 42.4838 73.8225 42.3716C74.6732 42.0784 76.4707 41.6527 77.0079 42.3716C77.1136 42.5164 77.2012 42.6771 77.3475 42.777C77.4589 42.8531 77.5936 42.8856 77.7159 42.9428C78.0584 43.1036 78.277 43.4539 78.3936 43.8116C78.5101 44.1692 78.5449 44.5529 78.6303 44.9214C78.7396 45.3941 78.9315 45.8423 79.1226 46.2875C79.3477 46.8131 79.5867 47.3582 80.021 47.7296C80.6139 48.2364 80.745 48.9538 81.2952 49.5098C81.9467 50.1701 81.9257 51.2596 81.5898 52.1248C81.5457 52.2384 81.4957 52.3572 81.5131 52.4781C81.5305 52.599 81.6202 52.709 81.7049 52.8053L82.0611 53.2071C81.2184 53.4105 80.265 52.9703 79.8726 52.1979C79.7517 51.959 79.6714 51.6839 79.4643 51.5137C79.279 51.3617 79.0299 51.3255 78.799 51.2575C78.0374 51.0316 77.3989 50.3359 77.375 49.5424C77.3634 49.1696 77.4799 48.7967 77.4271 48.4275C77.3977 48.2167 77.3141 48.0172 77.1846 47.8484C76.9855 47.5885 76.685 47.414 76.5229 47.1244C76.2485 46.6401 76.457 46.011 76.2594 45.4912C76.1985 45.3319 76.0769 45.1726 75.9068 45.1603C75.7367 45.148 75.5911 45.2892 75.4283 45.3522C75.0894 45.4839 74.7231 45.2602 74.44 45.0307C74.157 44.8012 73.8377 44.5406 73.4772 44.592C73.239 44.6253 73.0515 44.7875 72.8321 44.8722C72.67 44.9344 72.3413 44.9902 72.1994 44.8534C71.8997 44.5775 72.594 43.863 72.7192 43.6053Z" fill="#591D4B"/>
<path opacity="0.1" d="M80.0739 51.9591C79.9522 51.7202 79.8726 51.4451 79.6655 51.2757C79.4802 51.1237 79.2312 51.0868 78.9995 51.0187C78.2386 50.7936 77.6001 50.0978 77.5755 49.3044C77.5639 48.9315 77.6805 48.558 77.6283 48.1888C77.598 47.9793 77.5145 47.7812 77.3858 47.6132C77.186 47.3533 76.8856 47.1788 76.7241 46.8893C76.4497 46.4057 76.6582 45.7765 76.4599 45.256C76.3998 45.0975 76.2774 44.9382 76.108 44.9252C75.9386 44.9121 75.7917 45.0548 75.6295 45.1177C75.2907 45.2495 74.9236 45.0251 74.6413 44.7963C74.359 44.5675 74.0382 44.3062 73.6784 44.3569C73.4402 44.3909 73.252 44.5531 73.0334 44.637C72.8712 44.6993 72.5418 44.7558 72.3999 44.6189C72.1017 44.3294 72.7959 43.6163 72.9205 43.36C73.024 43.1486 73.0754 42.9133 73.1999 42.7135C73.2064 42.7026 73.2137 42.6918 73.2209 42.6809C73.1278 42.7581 73.0474 42.8494 72.9827 42.9517C72.8589 43.1515 72.8075 43.386 72.704 43.5982C72.5787 43.8544 71.8845 44.5697 72.1835 44.8571C72.3283 44.9947 72.654 44.9382 72.8162 44.8759C73.0334 44.7912 73.2231 44.6291 73.4612 44.5958C73.8232 44.5444 74.1418 44.8057 74.4241 45.0345C74.7065 45.2633 75.0757 45.4877 75.413 45.3559C75.5752 45.2929 75.7171 45.151 75.8908 45.1641C76.0646 45.1771 76.1804 45.3357 76.2434 45.4949C76.441 46.0147 76.2325 46.6438 76.5069 47.1282C76.6691 47.4127 76.9695 47.5908 77.1686 47.8521C77.2982 48.021 77.3817 48.2205 77.4111 48.4313C77.464 48.8005 77.3474 49.1733 77.359 49.5462C77.3829 50.3425 78.0214 51.0354 78.783 51.2612C79.0125 51.3293 79.263 51.3655 79.4484 51.5175C79.6561 51.6876 79.7379 51.9627 79.8567 52.2016C80.2491 52.9741 81.2025 53.4143 82.0452 53.2108L81.8772 53.0212C81.1468 53.032 80.4076 52.6165 80.0739 51.9591Z" fill="black"/>
<path opacity="0.1" d="M75.0835 48.6548C74.9887 48.7996 74.7172 49.541 74.4906 50.1882C74.2785 50.1056 74.0859 49.5793 74.0859 49.5793L75.2168 47.9707C75.3326 48.13 75.2566 48.3942 75.0835 48.6548Z" fill="black"/>
<path d="M75.1265 48.6116C75.0317 48.7564 74.7602 49.4978 74.5336 50.145C74.3215 50.0632 74.1289 49.5361 74.1289 49.5361L75.2597 47.9282C75.3756 48.0868 75.2995 48.3517 75.1265 48.6116Z" fill="#DCE7FF"/>
<path d="M68.5537 56.0075L67.9268 54.0304C67.9194 54.0072 67.9166 53.9828 67.9186 53.9586C67.9206 53.9344 67.9274 53.9108 67.9386 53.8892C67.9498 53.8676 67.9651 53.8484 67.9837 53.8328C68.0023 53.8171 68.0238 53.8053 68.047 53.798C68.0936 53.7834 68.1441 53.7879 68.1875 53.8104C68.2309 53.8329 68.2637 53.8716 68.2786 53.9181L68.9056 55.8931L68.8433 56.3065L68.5537 56.0075Z" fill="#BE8B87"/>
<path opacity="0.1" d="M67.9837 53.8566C68.0304 53.8419 68.0811 53.8462 68.1247 53.8687C68.1683 53.8913 68.2011 53.9301 68.2161 53.9768L68.843 55.9518L68.796 56.2616L68.8416 56.3094L68.9038 55.896L68.2733 53.9211C68.2583 53.8745 68.2256 53.8358 68.1822 53.8133C68.1388 53.7908 68.0883 53.7863 68.0416 53.8009C68.0023 53.8136 67.9685 53.8391 67.9453 53.8733C67.9576 53.8667 67.9705 53.8611 67.9837 53.8566Z" fill="white"/>
<path d="M68.5508 56.0075L68.9026 55.896L68.8512 56.2348L68.8404 56.3094L68.7376 56.2022L68.5508 56.0075Z" fill="#EFC8C4"/>
<path d="M68.7383 56.2022C68.7444 56.1945 68.752 56.1881 68.7607 56.1834C68.7658 56.1802 68.7717 56.1785 68.7777 56.1785C68.7838 56.1785 68.7897 56.1802 68.7948 56.1834C68.7997 56.1893 68.8038 56.1959 68.8071 56.2029C68.8118 56.2109 68.8184 56.2177 68.8261 56.2229C68.8339 56.228 68.8427 56.2313 68.8519 56.2326L68.8411 56.305L68.7383 56.2022Z" fill="#727A9C"/>
<path d="M67.9219 54.7327C67.9219 54.7327 69.1794 54.7254 68.8833 55.2604C68.5872 55.7954 68.1246 55.8599 68.1246 55.8599L67.9219 54.7327Z" fill="#FFB0B1"/>
<path d="M60.1017 30.7227H60.0474C57.8871 30.7227 55.9766 31.8658 54.8776 33.5526C53.7787 31.8658 51.8682 30.7227 49.7079 30.7227H49.6536C48.0323 30.7381 46.4827 31.3928 45.3414 32.5443C44.2002 33.6959 43.5595 35.2514 43.5586 36.8727C43.5586 38.886 44.4404 41.7427 46.1598 44.0934C49.4357 48.5725 54.8776 52.4913 54.8776 52.4913C54.8776 52.4913 60.3196 48.5732 63.5948 44.0934C65.3149 41.7427 66.196 38.886 66.196 36.8727C66.1951 35.2515 65.5545 33.6961 64.4134 32.5446C63.2723 31.393 61.7228 30.7383 60.1017 30.7227ZM59.3249 44.438C59.0789 44.4371 58.8389 44.3618 58.6364 44.222C58.434 44.0822 58.2785 43.8844 58.1905 43.6547H56.8989C56.8139 43.6541 56.7311 43.6271 56.6622 43.5772C56.5933 43.5274 56.5416 43.4573 56.5145 43.3767L56.1178 42.1814L54.8624 46.5679C54.838 46.6523 54.7868 46.7265 54.7166 46.7794C54.6463 46.8323 54.5609 46.8609 54.4729 46.8611H54.4476C54.3559 46.8566 54.2685 46.8209 54.1999 46.7597C54.1314 46.6986 54.086 46.6158 54.0712 46.5252L52.7774 38.7441L51.832 43.3484C51.8103 43.4359 51.7599 43.5136 51.6889 43.5691C51.6179 43.6246 51.5304 43.6547 51.4403 43.6547H49.621C49.5665 43.657 49.512 43.6482 49.461 43.629C49.4099 43.6097 49.3632 43.5803 49.3238 43.5425C49.2844 43.5047 49.2531 43.4594 49.2317 43.4092C49.2102 43.359 49.1992 43.3049 49.1992 43.2503C49.1992 43.1958 49.2102 43.1417 49.2317 43.0915C49.2531 43.0413 49.2844 42.996 49.3238 42.9582C49.3632 42.9204 49.4099 42.891 49.461 42.8717C49.512 42.8525 49.5665 42.8437 49.621 42.846H51.1218L52.4611 36.6555C52.4831 36.5639 52.5362 36.4829 52.6113 36.4262C52.6864 36.3695 52.7789 36.3406 52.8729 36.3446C52.967 36.3485 53.0568 36.385 53.1269 36.4478C53.197 36.5105 53.2432 36.5957 53.2574 36.6888L54.5786 44.6262L55.7037 40.7017C55.7271 40.619 55.7766 40.5461 55.8449 40.494C55.9131 40.4418 55.9964 40.413 56.0823 40.4121H56.0903C56.1753 40.4121 56.2582 40.439 56.3271 40.4889C56.396 40.5388 56.4474 40.6092 56.474 40.6901L57.1914 42.8482H58.1745C58.2444 42.6358 58.3716 42.4469 58.5421 42.3023C58.7126 42.1576 58.9198 42.0629 59.1407 42.0286C59.3616 41.9943 59.5877 42.0216 59.7941 42.1077C60.0004 42.1937 60.179 42.3351 60.31 42.5162C60.4411 42.6973 60.5196 42.9112 60.5368 43.1341C60.554 43.357 60.5093 43.5803 60.4076 43.7794C60.3059 43.9785 60.1512 44.1457 59.9605 44.2624C59.7699 44.3791 59.5506 44.4409 59.3271 44.4409L59.3249 44.438Z" fill="#F3564C"/>
</g>
<defs>
<linearGradient id="paint0_linear_515_3348" x1="34.7956" y1="83.0973" x2="34.7956" y2="38.5494" gradientUnits="userSpaceOnUse">
<stop stop-color="#808080" stop-opacity="0.25"/>
<stop offset="0.54" stop-color="#808080" stop-opacity="0.12"/>
<stop offset="1" stop-color="#808080" stop-opacity="0.1"/>
</linearGradient>
<linearGradient id="paint1_linear_515_3348" x1="73.6822" y1="82.5341" x2="73.6822" y2="41.8477" gradientUnits="userSpaceOnUse">
<stop stop-color="#808080" stop-opacity="0.25"/>
<stop offset="0.54" stop-color="#808080" stop-opacity="0.12"/>
<stop offset="1" stop-color="#808080" stop-opacity="0.1"/>
</linearGradient>
<clipPath id="clip0_515_3348">
<rect width="80" height="56.6669" fill="white" transform="translate(9 27)"/>
</clipPath>
</defs>
</svg>
