<svg width="97" height="97" viewBox="0 0 97 97" fill="none" xmlns="http://www.w3.org/2000/svg">
<circle cx="48.5" cy="48.5" r="48.5" fill="white"/>
<circle cx="48.5" cy="48.5" r="48.5" fill="#4BD37B" fill-opacity="0.2"/>
<g clip-path="url(#clip0_515_3520)">
<path d="M79.9199 31.5058C82.2832 31.5058 84.1991 29.5899 84.1991 27.2265C84.1991 24.8632 82.2832 22.9473 79.9199 22.9473C77.5565 22.9473 75.6406 24.8632 75.6406 27.2265C75.6406 29.5899 77.5565 31.5058 79.9199 31.5058Z" fill="#FF6584"/>
<path d="M63.8801 38.5002L60.5273 31.9171L63.8904 37.6782L63.9209 35.3219L61.6169 30.5631L63.9294 34.6989L63.9842 30.4612L61.4794 26.6526L63.9925 29.7948L64.1755 22.0592L64.1764 22.0271L64.1765 22.0598L64.1477 31.8748L66.9129 27.9016L64.1555 32.7071L64.2647 37.4446L64.276 37.3194L67.4647 33.1278L64.2723 37.7629L64.2861 38.3554L64.2914 38.3647L64.2875 38.4131L64.432 44.6836C64.2234 44.6923 64.0126 44.6958 63.7998 44.6942L63.8059 44.2064L60.8967 39.4049L63.8118 43.74L63.8801 38.5002Z" fill="#3F3D56"/>
<path d="M48.259 42.2617L44.9062 35.6786L48.2693 41.4397L48.2998 39.0833L45.9958 34.3245L48.3083 38.4603L48.3631 34.2227L45.8583 30.4141L48.3714 33.5563L48.5544 25.8207L48.5554 25.7886L48.5554 25.8212L48.5266 35.6363L51.2918 31.6631L48.5344 36.4685L48.6436 41.2061L48.6549 41.0809L51.8436 36.8893L48.6512 41.5243L48.665 42.1169L48.6703 42.1262L48.6664 42.1746L48.811 48.4451C48.6023 48.4538 48.3915 48.4573 48.1787 48.4557L48.1848 47.9679L45.2756 43.1664L48.1907 47.5015L48.259 42.2617Z" fill="#CBCBCB"/>
<path d="M77.3254 37.4731L73.9727 30.89L77.3357 36.6511L77.3662 34.2948L75.0622 29.536L77.3747 33.6718L77.4296 29.4341L74.9247 25.6255L77.4378 28.7677L77.6208 21.0321L77.6218 21L77.6218 21.0327L77.593 30.8477L80.3582 26.8745L77.6008 31.68L77.71 36.4175L77.7213 36.2923L80.91 32.1007L77.7176 36.7358L77.7314 37.3283L77.7367 37.3376L77.7328 37.386L77.8774 43.6565C77.6687 43.6652 77.4579 43.6687 77.2451 43.6671L77.2512 43.1793L74.342 38.3778L77.2572 42.7129L77.3254 37.4731Z" fill="#3F3D56"/>
<path d="M19.6074 60.0948C21.5604 58.6552 23.6085 57.3492 25.7376 56.1859C31.6925 52.8999 39.0156 50.0902 47.341 47.9136C47.9131 47.7635 48.49 47.6169 49.0717 47.4735C50.3069 47.1678 51.5627 46.8767 52.839 46.6002C53.1543 46.5322 53.4704 46.4645 53.7874 46.397C55.5635 46.0236 57.3751 45.6788 59.2221 45.3627C59.2592 45.3559 59.2963 45.35 59.3342 45.3441C59.7678 45.2691 60.2034 45.1966 60.6409 45.1266C69.3827 43.7062 78.8563 42.9248 88.7538 42.913C88.8356 42.9121 88.9182 42.9121 89 42.9121V77.1376H9C9 70.9323 12.8592 65.1132 19.6074 60.0948Z" fill="#F1F1F1"/>
<path d="M35.5021 63.9987C38.9112 61.4639 43.2762 59.1937 48.3872 57.2792C48.9546 57.066 49.5312 56.8578 50.1171 56.6546C50.1988 56.6259 50.2814 56.5973 50.3641 56.5686C51.1101 56.3123 51.8705 56.0628 52.6452 55.82C53.9544 55.4109 55.3006 55.0242 56.684 54.6601C57.6742 54.3985 58.6819 54.1492 59.7069 53.9123C60.0363 53.8353 60.367 53.7606 60.6991 53.6881C61.4542 53.5201 62.2182 53.3593 62.9912 53.2059C70.8943 51.6312 79.7069 50.752 88.9992 50.752V77.1376H27.3242C27.3242 72.3536 30.3 67.8672 35.5021 63.9987Z" fill="#07CA78"/>
<path d="M33.8867 75.7687L34.0393 75.8412C34.5573 74.7687 35.1898 73.7554 35.9259 72.8191L35.7927 72.7154C35.0494 73.6616 34.4103 74.6853 33.8867 75.7687ZM38.229 70.0684L38.3445 70.1915C39.1716 69.4223 40.0413 68.7001 40.9493 68.0283C40.9999 67.9904 41.0513 67.9525 41.1027 67.9145L41.0024 67.7788C40.951 67.8168 40.8996 67.8547 40.8482 67.8935C39.9353 68.5691 39.0609 69.2952 38.229 70.0684ZM43.9976 65.7885L44.0844 65.9327C45.0673 65.3392 46.1219 64.7558 47.2178 64.1986L47.1411 64.0477C46.0418 64.6075 44.9839 65.1934 43.9976 65.7885ZM50.3934 62.5194L50.46 62.6737C51.5247 62.2109 52.6433 61.759 53.783 61.3316L53.724 61.174C52.5809 61.6022 51.4606 62.0549 50.3934 62.5194ZM57.1154 59.9896L57.1668 60.1497C57.4652 60.0528 57.7645 59.9575 58.0671 59.8623C58.8916 59.6052 59.743 59.3523 60.5986 59.1129L60.5531 58.9502C59.6958 59.1904 58.8427 59.4433 58.0165 59.7021C57.7142 59.7968 57.4138 59.8926 57.1154 59.9896H57.1154ZM65.0842 57.7927C64.731 57.8737 64.3752 57.958 64.0279 58.0423L64.0675 58.2058C64.4149 58.1223 64.7698 58.038 65.123 57.9563C65.4576 57.8787 65.7906 57.8029 66.1135 57.7329C66.5948 57.6258 67.0838 57.5204 67.566 57.421L67.5322 57.2557C67.0484 57.3561 66.5594 57.4606 66.0772 57.5677C65.7544 57.6385 65.4197 57.7143 65.0842 57.7927L65.0842 57.7927ZM71.0593 56.583L71.0888 56.7491C72.2496 56.5459 73.4416 56.3554 74.6302 56.1835L74.6058 56.0165C73.4155 56.1894 72.2226 56.3799 71.0593 56.583ZM78.1674 55.5521L78.1868 55.7198C79.362 55.5832 80.5624 55.4602 81.7552 55.3531L81.74 55.1854C80.5464 55.2924 79.3443 55.4155 78.1674 55.5521H78.1674ZM85.3219 54.9131L85.332 55.0817C86.5156 55.0066 87.7211 54.9459 88.9147 54.9013L88.9088 54.7327C87.7126 54.7782 86.5063 54.8389 85.3219 54.9131H85.3219Z" fill="white"/>
<path d="M51.5699 67.945C59.0186 62.4057 72.992 58.6763 89.0004 58.6763V77.1378H45.8477C45.8477 73.7911 47.9298 70.6518 51.5699 67.945Z" fill="#F1F1F1"/>
<path opacity="0.2" d="M19.6074 60.095L35.5028 63.9989L51.5694 67.9449L89 77.1378H9C9 70.9325 12.8592 65.1133 19.6074 60.095Z" fill="black"/>
<path d="M29.2698 56.5607L28.7297 56.5606L28.4727 54.4773H29.2699L29.2698 56.5607Z" fill="#FFB7B7"/>
<path d="M29.4057 57.0843L27.6641 57.0842V57.0622C27.6641 56.8824 27.7355 56.71 27.8626 56.5828C27.9898 56.4557 28.1622 56.3843 28.342 56.3843H28.342L29.4057 56.3843L29.4057 57.0843Z" fill="#2F2E41"/>
<path d="M34.0406 56.1628L33.5188 56.3029L32.7305 54.3573L33.5005 54.1506L34.0406 56.1628Z" fill="#FFB7B7"/>
<path d="M34.3087 56.6328L32.6265 57.0843L32.6208 57.063C32.5742 56.8894 32.5985 56.7043 32.6883 56.5486C32.7782 56.3929 32.9262 56.2792 33.0998 56.2326L33.0998 56.2325L34.1272 55.9568L34.3087 56.6328Z" fill="#2F2E41"/>
<path d="M27.0222 46.8988C26.71 47.3002 27.6911 50.6451 27.7357 50.6897C27.7803 50.7343 27.6911 51.0019 27.6911 51.0019C27.6909 51.0502 27.7066 51.0972 27.7357 51.1357C27.7803 51.1803 27.7357 51.2249 27.7357 51.3141C27.7357 51.4033 27.7357 51.4033 27.8249 51.5816C27.8784 51.7083 27.8939 51.8477 27.8695 51.983L28.4493 55.3725C28.4064 55.391 28.3705 55.4224 28.3464 55.4624C28.3224 55.5025 28.3116 55.549 28.3155 55.5955C28.3155 55.7739 29.2075 55.8631 29.5197 55.8185C29.8319 55.7739 29.2967 51.8046 29.2967 51.8046C29.2967 51.8046 29.2967 50.7789 29.3859 50.6897C29.4751 50.6005 29.3859 50.6005 29.3859 50.4221C29.3859 50.2437 29.2521 49.9761 29.2967 49.8423C29.3413 49.7085 29.3859 47.7908 29.3859 47.7908C29.3859 47.7908 30.4116 49.7085 30.4116 49.9761C30.4116 50.2437 30.7238 50.6897 30.7238 50.6897L32.7754 54.8748C32.7754 54.8748 32.6416 55.1424 32.7754 55.3654C32.9092 55.5884 33.489 55.41 34.0687 55.187C34.6485 54.964 33.8457 54.6072 33.8457 54.6072L32.597 51.0465C32.5999 50.9116 32.6148 50.7773 32.6416 50.6451C32.6862 50.4221 32.5078 50.5113 32.374 50.4221C32.2402 50.3329 32.2848 50.3329 32.374 50.1545C32.4632 49.9761 32.2402 49.5747 32.2402 49.5747L31.6604 46.2744C31.6604 46.2744 27.3343 46.4974 27.0222 46.8988Z" fill="#2F2E41"/>
<path d="M28.4564 38.8594C29.0968 38.8594 29.616 38.3403 29.616 37.6998C29.616 37.0594 29.0968 36.5403 28.4564 36.5403C27.816 36.5403 27.2969 37.0594 27.2969 37.6998C27.2969 38.3403 27.816 38.8594 28.4564 38.8594Z" fill="#FFB8B8"/>
<path d="M28.0252 39.2129C28.0252 39.2129 26.4432 39.9378 26.3095 40.2946C26.1757 40.6513 27.1533 43.9552 27.1533 43.9552C27.1533 43.9552 27.2126 45.3444 27.0342 45.8796C26.8558 46.4147 26.8857 46.4973 26.8857 46.4973V46.8987C26.8857 47.1217 28.3128 46.9433 29.0264 46.7203C29.74 46.4973 31.5685 46.5419 31.7469 46.4973C31.9253 46.4527 31.4486 45.8796 31.4486 45.8796C32.073 45.835 31.4486 44.5282 31.4486 44.5282C31.4486 44.5282 31.3848 40.2981 31.2064 39.7184C31.028 39.1386 29.3765 39.0327 29.3765 39.0327L28.5358 39.317L28.0252 39.2129Z" fill="#07CA78"/>
<path d="M29.8627 37.3946C29.9224 37.1044 29.8657 36.8024 29.7048 36.5537C29.6093 36.4078 29.4844 36.2833 29.3381 36.1883C29.1918 36.0932 29.0273 36.0297 28.8551 36.0017C28.5143 35.9531 28.1669 36.0119 27.8612 36.1701C27.6762 36.2609 27.476 36.3826 27.2822 36.3161L27.3391 36.4183L27.195 36.42L27.2476 36.5394L27.11 36.5591L27.2165 36.6229C27.0742 36.8763 26.9783 37.153 26.9333 37.4401C26.9062 37.5535 26.9151 37.6726 26.9588 37.7808C27.0109 37.8826 27.1452 37.9421 27.2313 37.8719C27.2852 37.8278 27.3036 37.7506 27.3414 37.6901C27.3793 37.6297 27.4663 37.5875 27.5114 37.6419L27.6277 37.4093L27.7208 37.4852C27.945 37.2878 28.2038 37.1337 28.4842 37.0305C28.5182 37.0127 28.5559 37.0029 28.5943 37.0019C28.6327 37.0009 28.6708 37.0086 28.7058 37.0245C28.8097 37.0911 28.7947 37.2615 28.8667 37.3661C28.9837 37.5363 29.272 37.4656 29.3829 37.6405C29.4155 37.7101 29.4375 37.784 29.4482 37.86C29.468 37.9343 29.5158 38.0124 29.5874 38.0172C29.7385 37.8614 29.7962 37.6454 29.8627 37.3946Z" fill="#2F2E41"/>
<path d="M32.6608 46.603C32.6016 46.5629 32.5519 46.5103 32.5152 46.4489C32.4785 46.3875 32.4557 46.3188 32.4484 46.2477C32.4411 46.1765 32.4495 46.1047 32.473 46.0371C32.4965 45.9696 32.5346 45.908 32.5844 45.8567L31.8047 44.303L32.7018 44.4092L33.3047 45.8684C33.3853 45.9579 33.4302 46.0738 33.431 46.1942C33.4318 46.3146 33.3884 46.4311 33.3091 46.5217C33.2297 46.6122 33.1198 46.6705 33.0004 46.6855C32.8809 46.7005 32.7601 46.6711 32.6608 46.603L32.6608 46.603Z" fill="#FFB8B8"/>
<path d="M32.0178 45.4876L31.1087 42.545L30.0712 40.2954C30.0275 40.2004 30.0058 40.0968 30.008 39.9922C30.0101 39.8876 30.036 39.7849 30.0836 39.6918C30.1313 39.5988 30.1995 39.5177 30.283 39.4548C30.3666 39.3919 30.4633 39.3489 30.566 39.3288C30.7287 39.2979 30.8971 39.3262 31.0408 39.4086C31.1844 39.491 31.2939 39.6221 31.3494 39.7781L33.2414 45.1784C33.2517 45.2077 33.2556 45.2389 33.2529 45.2699C33.2502 45.3008 33.2409 45.3309 33.2257 45.358C33.2104 45.3851 33.1896 45.4086 33.1646 45.427C33.1395 45.4455 33.1109 45.4583 33.0805 45.4648L32.2726 45.6371C32.2573 45.6404 32.2417 45.642 32.226 45.642C32.1794 45.642 32.1339 45.627 32.0964 45.5992C32.0589 45.5714 32.0313 45.5323 32.0178 45.4876Z" fill="#07CA78"/>
<path d="M26.4028 47.6191C26.4518 47.567 26.4888 47.5049 26.5113 47.437C26.5337 47.3691 26.5409 47.297 26.5325 47.226C26.5241 47.155 26.5002 47.0867 26.4626 47.0259C26.4249 46.9651 26.3743 46.9133 26.3145 46.8742L26.7365 45.1877L25.8842 45.4871L25.6141 47.0427C25.555 47.1476 25.5364 47.2705 25.5619 47.3882C25.5874 47.5059 25.6552 47.6101 25.7524 47.6812C25.8496 47.7522 25.9695 47.7852 26.0894 47.7737C26.2092 47.7623 26.3207 47.7072 26.4028 47.6191V47.6191Z" fill="#FFB8B8"/>
<path d="M26.617 46.5865C26.6017 46.5899 26.5861 46.5917 26.5705 46.5919L25.7445 46.6C25.7134 46.6003 25.6826 46.594 25.6542 46.5815C25.6257 46.5689 25.6003 46.5505 25.5795 46.5274C25.5587 46.5042 25.5431 46.477 25.5337 46.4473C25.5243 46.4177 25.5213 46.3864 25.5249 46.3555L26.1933 40.6726C26.2134 40.5082 26.2916 40.3564 26.4139 40.2447C26.5361 40.1329 26.6943 40.0686 26.8598 40.0632C26.9644 40.0604 27.0682 40.0813 27.1634 40.1245C27.2587 40.1676 27.3429 40.2318 27.4097 40.3123C27.4766 40.3927 27.5242 40.4873 27.5491 40.5889C27.574 40.6905 27.5755 40.7964 27.5535 40.8986L27.0318 43.3204L26.7866 46.3904C26.7831 46.437 26.7647 46.4812 26.7342 46.5165C26.7036 46.5518 26.6626 46.5763 26.617 46.5865Z" fill="#07CA78"/>
</g>
<defs>
<clipPath id="clip0_515_3520">
<rect width="80" height="56.1377" fill="white" transform="translate(9 21)"/>
</clipPath>
</defs>
</svg>
