<svg width="97" height="97" viewBox="0 0 97 97" fill="none" xmlns="http://www.w3.org/2000/svg">
<circle cx="48.5" cy="48.5" r="48.5" fill="white"/>
<circle cx="48.5" cy="48.5" r="48.5" fill="#F9B233" fill-opacity="0.2"/>
<g clip-path="url(#clip0_515_3678)">
<path d="M27.2535 68.7844L25.2828 65.657L27.2544 69.1251L27.2554 69.4814C27.396 69.4798 27.5352 69.4744 27.673 69.4653L27.5122 64.8876L27.5143 64.8522L27.5107 64.8454L27.4954 64.4129L29.5559 60.9853L27.4933 64.0889L27.4871 64.1806L27.3657 60.722L29.1371 57.1757L27.3519 60.1142L27.2688 52.9455L27.2684 52.9216L27.2681 52.9451L27.2277 58.5972L25.5351 56.3357L27.2292 59.084L27.2371 62.1797L25.6665 59.1898L27.2379 62.6348L27.2423 64.3561L24.9609 60.1932L27.2441 64.9566L27.2535 68.7844Z" fill="#E2E2E2"/>
<path d="M44.1636 68.7844L42.193 65.657L44.1645 69.1251L44.1656 69.4814C44.3062 69.4798 44.4454 69.4744 44.5831 69.4653L44.4224 64.8876L44.4245 64.8522L44.4209 64.8454L44.4056 64.4129L46.4661 60.9853L44.4034 64.0889L44.3973 64.1806L44.2759 60.722L46.0472 57.1757L44.262 60.1142L44.179 52.9455L44.1786 52.9216L44.1783 52.9451L44.1379 58.5972L42.4452 56.3357L44.1394 59.084L44.1472 62.1797L42.5767 59.1898L44.1481 62.6348L44.1524 64.3561L41.8711 60.1932L44.1542 64.9566L44.1636 68.7844Z" fill="#E2E2E2"/>
<path d="M10.3234 68.9854L8.90039 66.7272L10.3241 69.2314L10.3248 69.4887C10.4263 69.4876 10.5268 69.4837 10.6263 69.4771L10.5102 66.1716L10.5118 66.146L10.5092 66.1411L10.4981 65.8288L11.986 63.3537L10.4966 65.5949L10.4921 65.661L10.4044 63.1636L11.6835 60.6028L10.3944 62.7247L10.3345 57.5482L10.3342 57.531L10.334 57.548L10.3048 61.6293L9.08255 59.9963L10.3059 61.9808L10.3116 64.2162L9.17748 62.0573L10.3122 64.5448L10.3153 65.7878L8.66797 62.7818L10.3166 66.2214L10.3234 68.9854Z" fill="#E2E2E2"/>
<path d="M85.2925 68.7844L83.3219 65.657L85.2935 69.1251L85.2945 69.4814C85.4351 69.4798 85.5743 69.4744 85.712 69.4653L85.5513 64.8876L85.5534 64.8522L85.5498 64.8454L85.5345 64.4129L87.595 60.9853L85.5324 64.0889L85.5262 64.1806L85.4048 60.722L87.1761 57.1757L85.3909 60.1142L85.3079 52.9455L85.3075 52.9216L85.3072 52.9451L85.2668 58.5972L83.5741 56.3357L85.2683 59.084L85.2761 62.1797L83.7056 59.1898L85.277 62.6348L85.2813 64.3561L83 60.1932L85.2831 64.9566L85.2925 68.7844Z" fill="#E2E2E2"/>
<path d="M31.8498 64.0625H42.4805V63.612H31.8498V64.0625Z" fill="#F9B233"/>
<path d="M31.3069 63.6123H41.9375V63.1619H31.3069V63.6123Z" fill="#F9B233"/>
<path d="M31.9397 63.1616H42.5703V62.7112H31.9397V63.1616Z" fill="#F9B233"/>
<path d="M33.0178 62.7114H43.6484V62.261H33.0178V62.7114Z" fill="#F9B233"/>
<path d="M23.9747 62.8909H24.3438V60.2703H23.9747V62.8909Z" fill="#3F3D56"/>
<path d="M23.9745 60.2371L24.1133 60.5791L37.7717 55.0353L37.6329 54.6933L23.9745 60.2371Z" fill="#3F3D56"/>
<path d="M17.1443 66.8032H20.3555V65.5483H17.1443V66.8032Z" fill="#3F3D56"/>
<path d="M17.4392 68.0581H33.2734V66.6555H17.4392V68.0581Z" fill="#3F3D56"/>
<path d="M20.043 67.357H23.8447V62.5771H21.0026L20.043 64.9879V67.357Z" fill="#E2E2E2"/>
<path d="M21.6299 64.4966H23.2539V62.8726H21.6299V64.4966Z" fill="white"/>
<path d="M20.4141 64.5148H21.4476V62.8909H21.0046L20.4141 64.5148Z" fill="white"/>
<path d="M22.8106 66.1206H23.1797V65.4193H22.8106V66.1206Z" fill="#3F3D56"/>
<path d="M21.1328 64.6255H21.1144C21.0214 64.6255 20.9322 64.5885 20.8664 64.5228C20.8007 64.457 20.7637 64.3678 20.7637 64.2748C20.7637 64.1818 20.8007 64.0927 20.8664 64.0269C20.9322 63.9611 21.0214 63.9242 21.1144 63.9242H21.1328V64.6255Z" fill="#3F3D56"/>
<path d="M34.8633 67.3569H34.8448C34.7518 67.3569 34.6626 67.32 34.5969 67.2542C34.5311 67.1885 34.4942 67.0993 34.4942 67.0063C34.4942 66.9133 34.5311 66.8241 34.5969 66.7583C34.6626 66.6926 34.7518 66.6556 34.8448 66.6556H34.8633V67.3569V67.3569Z" fill="#3F3D56"/>
<path d="M18.5665 66.6504C18.2921 66.6539 18.0219 66.7193 17.7761 66.8416C17.5304 66.964 17.3154 67.1401 17.1471 67.357H16.4258L17.1271 65.4035L20.3936 64.7593L20.3013 67.357H19.986C19.8177 67.1401 19.6027 66.964 19.3569 66.8416C19.1112 66.7193 18.841 66.6539 18.5665 66.6504Z" fill="#E2E2E2"/>
<path d="M18.5314 69.424C19.4181 69.424 20.1369 68.7052 20.1369 67.8185C20.1369 66.9317 19.4181 66.2129 18.5314 66.2129C17.6446 66.2129 16.9258 66.9317 16.9258 67.8185C16.9258 68.7052 17.6446 69.424 18.5314 69.424Z" fill="#3F3D56"/>
<path d="M18.5286 68.6632C18.9953 68.6632 19.3737 68.2849 19.3737 67.8182C19.3737 67.3515 18.9953 66.9731 18.5286 66.9731C18.0619 66.9731 17.6836 67.3515 17.6836 67.8182C17.6836 68.2849 18.0619 68.6632 18.5286 68.6632Z" fill="#E2E2E2"/>
<path d="M33.0354 69.4055C33.81 69.4055 34.4379 68.7775 34.4379 68.0029C34.4379 67.2283 33.81 66.6003 33.0354 66.6003C32.2608 66.6003 31.6328 67.2283 31.6328 68.0029C31.6328 68.7775 32.2608 69.4055 33.0354 69.4055Z" fill="#3F3D56"/>
<path d="M33.0351 68.741C33.4428 68.741 33.7733 68.4105 33.7733 68.0028C33.7733 67.5951 33.4428 67.2646 33.0351 67.2646C32.6274 67.2646 32.2969 67.5951 32.2969 68.0028C32.2969 68.4105 32.6274 68.741 33.0351 68.741Z" fill="#E2E2E2"/>
<path d="M23.7327 67.5044H24.5078V61.9126H23.7327V67.5044Z" fill="#3F3D56"/>
<path d="M23.7361 66.8218H34.8828V66.4896H23.7361V66.8218Z" fill="#3F3D56"/>
<path d="M20.9122 64.7363H21.2812V64.5887H20.9122V64.7363Z" fill="#3F3D56"/>
<path d="M37.2244 64.06C37.2209 64.0561 37.2183 64.0516 37.2167 64.0467C37.2151 64.0417 37.2145 64.0365 37.215 64.0313L37.7241 59.2176C37.725 59.2086 37.7293 59.2002 37.736 59.1941C37.7428 59.188 37.7515 59.1846 37.7606 59.1846H37.7608C37.7699 59.1846 37.7786 59.1879 37.7854 59.1939C37.7921 59.2 37.7964 59.2083 37.7975 59.2173L38.348 64.021C38.3486 64.0261 38.3481 64.0313 38.3466 64.0363C38.345 64.0412 38.3424 64.0458 38.339 64.0496C38.3356 64.0535 38.3314 64.0566 38.3267 64.0588C38.322 64.0609 38.3169 64.0621 38.3117 64.0621L37.2521 64.0721H37.2518C37.2466 64.0721 37.2415 64.071 37.2368 64.0689C37.2321 64.0669 37.2279 64.0638 37.2244 64.06ZM37.7623 59.5585L37.2928 63.9979L38.27 63.9887L37.7623 59.5585Z" fill="#3F3D56"/>
<path d="M17.1328 65.4319L17.1501 65.4384C17.2371 65.4713 17.3074 65.5374 17.3456 65.6222C17.3839 65.707 17.3869 65.8034 17.354 65.8904C17.3211 65.9774 17.255 66.0478 17.1702 66.086C17.0855 66.1242 16.989 66.1272 16.902 66.0943L16.8847 66.0878L17.1328 65.4319Z" fill="#3F3D56"/>
<path d="M37.5957 60.0857H37.9648V54.6969H37.5957V60.0857Z" fill="#3F3D56"/>
<path d="M24.1574 60.8609C24.4427 60.8609 24.6741 60.6295 24.6741 60.3441C24.6741 60.0587 24.4427 59.8274 24.1574 59.8274C23.872 59.8274 23.6406 60.0587 23.6406 60.3441C23.6406 60.6295 23.872 60.8609 24.1574 60.8609Z" fill="#3F3D56"/>
<path d="M24.9123 66.4951H35.543V66.0447H24.9123V66.4951Z" fill="#F9B233"/>
<path d="M25.5412 66.0447H36.1719V65.5942H25.5412V66.0447Z" fill="#F9B233"/>
<path d="M25.092 65.6843H35.7227V65.2339H25.092V65.6843Z" fill="#F9B233"/>
<path d="M25.7209 65.2339H36.3516V64.7834H25.7209V65.2339Z" fill="#F9B233"/>
<path d="M42.4464 39.0127C42.7852 39.0123 43.1127 39.1343 43.3687 39.3563C43.5709 39.3011 43.7829 39.2918 43.9891 39.329C44.1599 39.0812 44.4054 38.8945 44.6898 38.7962C44.9743 38.6979 45.2827 38.693 45.5701 38.7825C45.8574 38.8719 46.1087 39.0509 46.287 39.2933C46.4654 39.5357 46.5617 39.8287 46.5616 40.1297H41.0664C41.1338 39.8136 41.3076 39.5303 41.5588 39.327C41.8099 39.1237 42.1233 39.0127 42.4464 39.0127Z" fill="#E2E2E2"/>
<path d="M34.1758 43.4586C34.4961 43.4582 34.8057 43.5736 35.0476 43.7834C35.2388 43.7312 35.4392 43.7224 35.6342 43.7576C35.7957 43.5234 36.0278 43.3468 36.2967 43.2539C36.5656 43.1609 36.8572 43.1564 37.1289 43.2409C37.4005 43.3255 37.638 43.4947 37.8067 43.7238C37.9754 43.953 38.0663 44.23 38.0663 44.5146H32.8711C32.9348 44.2158 33.0991 43.9479 33.3366 43.7557C33.574 43.5635 33.8703 43.4586 34.1758 43.4586Z" fill="#E2E2E2"/>
<path d="M25.9122 36.126C26.2454 36.1257 26.5676 36.2457 26.8193 36.464C27.0182 36.4097 27.2267 36.4006 27.4296 36.4372C27.5976 36.1935 27.8391 36.0098 28.1189 35.9131C28.3987 35.8164 28.7021 35.8116 28.9847 35.8996C29.2674 35.9876 29.5145 36.1636 29.69 36.402C29.8655 36.6405 29.9601 36.9287 29.9601 37.2248H24.5547C24.621 36.9139 24.7919 36.6352 25.039 36.4352C25.2861 36.2352 25.5943 36.1261 25.9122 36.126Z" fill="#E2E2E2"/>
<path d="M61.6016 50.0888V61.3416H65.9776V49.9325L64.9618 49.9688V47.6663H64.225L64.1035 42.5669C64.4009 42.3731 64.6101 41.913 64.6101 41.3757C64.6105 41.2215 64.5925 41.0677 64.5566 40.9177C64.6973 40.7654 64.7836 40.5708 64.8018 40.3643C64.8201 40.1578 64.7694 39.951 64.6575 39.7764C64.751 39.8582 64.8598 39.9205 64.9776 39.9598C65.0954 39.9991 65.2198 40.0146 65.3436 40.0055C65.4675 39.9963 65.5883 39.9627 65.699 39.9065C65.8097 39.8502 65.9081 39.7726 65.9886 39.678C66.0691 39.5835 66.1299 39.4739 66.1677 39.3556C66.2055 39.2373 66.2193 39.1127 66.2086 38.989C66.1978 38.8653 66.1625 38.7449 66.1048 38.635C66.0472 38.525 65.9682 38.4276 65.8726 38.3484C66.0334 38.2891 66.1748 38.1868 66.2816 38.0527C66.3884 37.9186 66.4563 37.7579 66.4781 37.5879C66.4999 37.4179 66.4747 37.2452 66.4053 37.0885C66.3358 36.9318 66.2248 36.7972 66.0842 36.6992C65.9436 36.6012 65.7788 36.5436 65.6078 36.5327C65.4367 36.5217 65.266 36.5579 65.114 36.6372C64.9621 36.7165 64.8348 36.8359 64.746 36.9824C64.6571 37.129 64.6101 37.2971 64.6101 37.4685C64.6101 37.4822 64.6106 37.4958 64.6111 37.5094C64.4824 37.4701 64.3467 37.4589 64.2132 37.4767C64.0798 37.4944 63.9517 37.5407 63.8377 37.6124C63.7237 37.684 63.6265 37.7793 63.5526 37.8919C63.4787 38.0044 63.4299 38.1315 63.4095 38.2646C63.2926 38.195 63.1619 38.1517 63.0265 38.1377C62.8912 38.1237 62.7544 38.1393 62.6257 38.1835C62.497 38.2277 62.3794 38.2993 62.2812 38.3935C62.1829 38.4876 62.1064 38.602 62.0568 38.7288C62.0072 38.8555 61.9858 38.9915 61.994 39.1273C62.0023 39.2631 62.04 39.3955 62.1045 39.5153C62.1691 39.6351 62.2589 39.7394 62.3678 39.821C62.4767 39.9026 62.6021 39.9595 62.7352 39.9878C62.735 39.9946 62.7346 40.0013 62.7346 40.0082C62.8217 40.271 62.9326 40.5253 63.0658 40.7681C63.0007 40.964 62.968 41.1692 62.9691 41.3757C62.9691 41.913 63.1783 42.3731 63.4756 42.5669L63.3542 47.6663H62.6175V50.0525L61.6016 50.0888ZM64.3342 39.3439L64.3366 39.3439C64.3501 39.3439 64.3636 39.3435 64.3769 39.3429C64.3854 39.3706 64.395 39.3978 64.4059 39.4243C64.3836 39.3962 64.3596 39.3693 64.3342 39.3439Z" fill="#E2E2E2"/>
<path d="M59.1959 69.3513H72.4805V53.9829H59.1959V69.3513Z" fill="#3F3D56"/>
<path d="M64.0473 69.3513H67.6289V66.2255H64.0473V69.3513Z" fill="#E2E2E2"/>
<path d="M54.7655 33.7617C54.7652 33.773 54.7646 33.7843 54.7646 33.7957C54.7644 34.0047 54.8063 34.2116 54.8877 34.4041C54.9691 34.5966 55.0884 34.7708 55.2385 34.9162C55.2619 34.9662 55.288 35.0149 55.3166 35.0622C55.208 35.3887 55.1535 35.7308 55.1554 36.0749C55.1554 37.2618 55.7676 38.2239 56.5229 38.2239C57.2781 38.2239 57.8904 37.2618 57.8904 36.0749C57.891 35.8178 57.861 35.5616 57.8013 35.3115C58.0358 35.0578 58.1795 34.7334 58.2099 34.3892C58.2404 34.045 58.1558 33.7005 57.9694 33.4095C58.1253 33.5457 58.3066 33.6495 58.5029 33.715C58.6992 33.7805 58.9066 33.8064 59.1129 33.7912C59.3193 33.7759 59.5206 33.7198 59.7051 33.6261C59.8896 33.5324 60.0537 33.403 60.1878 33.2454C60.3219 33.0878 60.4234 32.9051 60.4863 32.708C60.5492 32.5108 60.5724 32.3032 60.5544 32.097C60.5364 31.8908 60.4777 31.6903 60.3816 31.507C60.2855 31.3238 60.1539 31.1614 59.9946 31.0294C60.2625 30.9305 60.4983 30.7601 60.6762 30.5366C60.8541 30.3132 60.9674 30.0452 61.0038 29.7619C61.0401 29.4786 60.9981 29.1907 60.8823 28.9296C60.7666 28.6685 60.5815 28.444 60.3471 28.2807C60.1128 28.1174 59.8382 28.0214 59.5531 28.0032C59.2681 27.985 58.9835 28.0452 58.7303 28.1774C58.477 28.3095 58.2649 28.5085 58.1168 28.7528C57.9687 28.9971 57.8904 29.2772 57.8904 29.5629C57.8904 29.5858 57.8912 29.6085 57.8921 29.6311C57.6775 29.5656 57.4513 29.547 57.2289 29.5766C57.0065 29.6062 56.7931 29.6833 56.6031 29.8027C56.4131 29.9221 56.251 30.0809 56.1279 30.2685C56.0048 30.4561 55.9234 30.668 55.8894 30.8897C55.6945 30.7738 55.4767 30.7016 55.2511 30.6783C55.0255 30.6549 54.7976 30.681 54.583 30.7546C54.3685 30.8282 54.1726 30.9476 54.0088 31.1045C53.8451 31.2614 53.7175 31.4521 53.6348 31.6633C53.5522 31.8745 53.5165 32.1012 53.5302 32.3276C53.5439 32.5539 53.6068 32.7746 53.7144 32.9743C53.8219 33.1739 53.9717 33.3478 54.1532 33.4837C54.3347 33.6197 54.5436 33.7146 54.7655 33.7617ZM57.4346 32.6887C57.4571 32.6887 57.4795 32.6879 57.5018 32.687C57.5158 32.7332 57.5319 32.7784 57.5501 32.8226C57.5128 32.7757 57.4729 32.7309 57.4305 32.6886L57.4346 32.6887Z" fill="#E2E2E2"/>
<path d="M55.7422 48.9034H57.3053L57.2494 46.5593V46.5584L57.0449 37.9629C56.888 38.0588 56.7076 38.1095 56.5237 38.1095C56.3398 38.1095 56.1595 38.0588 56.0026 37.9629L55.7981 46.5584V46.5593L55.7422 48.9034Z" fill="#F9B233"/>
<path d="M52.8789 50.5965V69.3515H60.1718V50.3361L58.4789 50.3965V46.5596H54.5717V50.5361L52.8789 50.5965Z" fill="#F9B233"/>
<path d="M73.3905 33.7617C73.3902 33.773 73.3896 33.7843 73.3896 33.7957C73.3894 34.0047 73.4313 34.2116 73.5127 34.4041C73.5941 34.5966 73.7134 34.7708 73.8635 34.9162C73.8869 34.9662 73.913 35.0149 73.9416 35.0622C73.833 35.3887 73.7785 35.7308 73.7804 36.0749C73.7804 37.2618 74.3926 38.2239 75.1479 38.2239C75.9031 38.2239 76.5154 37.2618 76.5154 36.0749C76.516 35.8178 76.486 35.5616 76.4263 35.3115C76.6608 35.0578 76.8045 34.7334 76.8349 34.3892C76.8654 34.045 76.7808 33.7005 76.5944 33.4095C76.7503 33.5457 76.9316 33.6495 77.1279 33.715C77.3242 33.7806 77.5316 33.8064 77.7379 33.7912C77.9443 33.7759 78.1456 33.7198 78.3301 33.6261C78.5146 33.5324 78.6787 33.403 78.8128 33.2454C78.9469 33.0878 79.0484 32.9051 79.1113 32.708C79.1743 32.5108 79.1974 32.3032 79.1794 32.097C79.1614 31.8908 79.1027 31.6903 79.0066 31.507C78.9105 31.3238 78.7789 31.1614 78.6196 31.0294C78.8875 30.9305 79.1233 30.7601 79.3012 30.5366C79.4791 30.3132 79.5924 30.0452 79.6288 29.7619C79.6651 29.4786 79.6231 29.1907 79.5073 28.9296C79.3916 28.6685 79.2065 28.444 78.9721 28.2807C78.7378 28.1174 78.4632 28.0214 78.1781 28.0032C77.8931 27.985 77.6085 28.0452 77.3553 28.1774C77.102 28.3095 76.8899 28.5085 76.7418 28.7528C76.5937 28.9971 76.5154 29.2772 76.5154 29.5629C76.5154 29.5858 76.5162 29.6085 76.5171 29.6311C76.3025 29.5656 76.0763 29.547 75.8539 29.5766C75.6315 29.6062 75.4181 29.6833 75.2281 29.8027C75.0381 29.9221 74.876 30.0809 74.7529 30.2685C74.6298 30.4561 74.5484 30.668 74.5144 30.8897C74.3195 30.7738 74.1017 30.7016 73.8761 30.6783C73.6505 30.6549 73.4226 30.681 73.208 30.7546C72.9935 30.8282 72.7976 30.9476 72.6338 31.1045C72.4701 31.2614 72.3425 31.4521 72.2598 31.6633C72.1772 31.8745 72.1415 32.1012 72.1552 32.3276C72.1689 32.5539 72.2318 32.7746 72.3394 32.9743C72.4469 33.1739 72.5967 33.3478 72.7782 33.4837C72.9597 33.6197 73.1686 33.7146 73.3905 33.7617ZM76.0596 32.6887C76.0821 32.6887 76.1045 32.6879 76.1268 32.687C76.1408 32.7331 76.1569 32.7784 76.1751 32.8226C76.1378 32.7757 76.0979 32.7309 76.0555 32.6886L76.0596 32.6887Z" fill="#E2E2E2"/>
<path d="M74.3672 48.9036H75.9301L75.6696 37.9634C75.3328 38.0844 74.9644 38.0844 74.6277 37.9634L74.3672 48.9036Z" fill="#F9B233"/>
<path d="M71.5 50.5965V69.3515H78.7937V50.3361L78.1946 50.3578L77.1 50.3965V46.5596H73.1928V50.5361L71.5 50.5965Z" fill="#F9B233"/>
<path d="M67.8193 57.6396H69.6211V55.8378H67.8193V57.6396Z" fill="white"/>
<path d="M64.9365 57.6396H66.7383V55.8378H64.9365V57.6396Z" fill="white"/>
<path d="M62.0537 57.6396H63.8555V55.8378H62.0537V57.6396Z" fill="white"/>
<path d="M67.8193 60.5225H69.6211V58.7207H67.8193V60.5225Z" fill="white"/>
<path d="M64.9365 60.5225H66.7383V58.7207H64.9365V60.5225Z" fill="white"/>
<path d="M62.0537 60.5225H63.8555V58.7207H62.0537V60.5225Z" fill="white"/>
<path d="M67.8193 63.4053H69.6211V61.6035H67.8193V63.4053Z" fill="white"/>
<path d="M64.9365 63.4053H66.7383V61.6035H64.9365V63.4053Z" fill="white"/>
<path d="M62.0537 63.4053H63.8555V61.6035H62.0537V63.4053Z" fill="white"/>
<path d="M55.624 56.9189H57.4258V55.1171H55.624V56.9189Z" fill="white"/>
<path d="M55.624 59.8018H57.4258V58H55.624V59.8018Z" fill="white"/>
<path d="M55.624 62.6846H57.4258V60.8828H55.624V62.6846Z" fill="white"/>
<path d="M55.624 65.5676H57.4258V63.7658H55.624V65.5676Z" fill="white"/>
<path d="M74.2334 56.9189H76.0352V55.1171H74.2334V56.9189Z" fill="white"/>
<path d="M74.2334 59.8018H76.0352V58H74.2334V59.8018Z" fill="white"/>
<path d="M74.2334 62.6846H76.0352V60.8828H74.2334V62.6846Z" fill="white"/>
<path d="M74.2334 65.5676H76.0352V63.7658H74.2334V65.5676Z" fill="white"/>
<path d="M88 69.2878H8V69.468H88V69.2878Z" fill="#3F3D56"/>
</g>
<defs>
<clipPath id="clip0_515_3678">
<rect width="80" height="41.4888" fill="white" transform="translate(8 28)"/>
</clipPath>
</defs>
</svg>
