<svg width="10" height="13" viewBox="0 0 10 13" fill="none" xmlns="http://www.w3.org/2000/svg">
<path d="M9.00019 5.7001H8.20019V3.3001C8.20019 1.5401 6.76019 0.100098 5.0002 0.100098C3.2402 0.100098 1.8002 1.5401 1.8002 3.3001V5.7001H1.0002C0.600195 5.7001 0.200195 6.1001 0.200195 6.5001V12.1001C0.200195 12.5001 0.600195 12.9001 1.0002 12.9001H9.00019C9.4002 12.9001 9.80019 12.5001 9.80019 12.1001V6.5001C9.80019 6.1001 9.4002 5.7001 9.00019 5.7001ZM5.80019 11.3001H4.2002L4.52019 9.5401C4.12019 9.3801 3.8002 8.9001 3.8002 8.5001C3.8002 7.8601 4.3602 7.3001 5.0002 7.3001C5.64019 7.3001 6.20019 7.8601 6.20019 8.5001C6.20019 8.9801 5.9602 9.3801 5.4802 9.5401L5.80019 11.3001ZM6.60019 5.7001H3.4002V3.3001C3.4002 2.4201 4.1202 1.7001 5.0002 1.7001C5.8802 1.7001 6.60019 2.4201 6.60019 3.3001V5.7001Z" fill="#F3564C"/>
</svg>
