<svg width="20" height="24" viewBox="0 0 20 24" fill="none" xmlns="http://www.w3.org/2000/svg">
<path d="M19.75 3H18.25V1.80037C18.25 1.2225 17.8158 0.75 17.2863 0.75H12.4623C11.9343 0.75 11.5 1.2225 11.5 1.80037V3H2.47787L0.25 7.5H1.79688V10.5H1.54637L0.296875 12L1.54637 13.5H1.82013V14.3055C1.82013 14.5091 1.97725 14.6737 2.17188 14.6737C2.7535 14.6737 3.22675 15.1703 3.22675 15.7804C3.22675 16.3905 2.7535 16.887 2.17188 16.887C1.59025 16.887 1.117 16.3905 1.117 15.7804C1.117 15.5768 0.9595 15.4121 0.76525 15.4121C0.570625 15.4121 0.4135 15.5768 0.4135 15.7804C0.41425 16.7981 1.2025 17.625 2.17188 17.625C3.14088 17.625 3.92987 16.7981 3.92987 15.7808C3.92987 14.8901 3.325 14.1446 2.52362 13.974V13.5H2.797L4.04688 12L2.797 10.5H2.54688V7.5H11.5V10.1996C11.5 10.6976 11.8229 11.115 12.25 11.2222V23.25H13.2344V21L16.5156 22.125L13.2344 23.25H17.5V11.2219C17.9275 11.115 18.25 10.6976 18.25 10.1996V7.5H19.75V6.375H18.9708L19.75 4.89563V3ZM1.99112 6.375L2.86713 4.57538L3.81437 6.375H1.99112ZM3.64937 4.125H5.20675L4.42825 5.60437L3.64937 4.125ZM5.04212 6.375L5.821 4.89563L6.60025 6.375H5.04212ZM6.43525 4.125H7.99262L7.21375 5.60437L6.43525 4.125ZM7.82837 6.375L8.60687 4.89563L9.38538 6.375H7.82837ZM9.22112 4.125H10.7785L10 5.60437L9.22112 4.125ZM11.5 6.375H10.6139L11.3924 4.89563L11.5 5.1V6.375ZM16.5156 21L13.2344 19.875L16.5156 18.75V21ZM13.2344 18.75V16.5L16.5156 17.6257L13.2344 18.75ZM16.5156 16.5L13.2344 15.375L16.5156 14.25V16.5ZM13.2344 14.25V12.0007L16.5156 13.125L13.2344 14.25ZM16.5156 12.0007L14.3275 11.25H16.5156V12.0007ZM17.0781 5.718C17.0781 6.07912 16.8246 6.375 16.5156 6.375H13.1399C12.8309 6.375 12.5781 6.07912 12.5781 5.718V2.53425C12.5781 2.17087 12.8309 1.875 13.1399 1.875H16.5156C16.8246 1.875 17.0781 2.17087 17.0781 2.53425V5.718ZM18.3569 5.60437L18.25 5.40112V4.125H19.1354L18.3569 5.60437Z" fill="white"/>
</svg>
