<svg width="144" height="104" viewBox="0 0 144 104" fill="none" xmlns="http://www.w3.org/2000/svg">
<g clip-path="url(#clip0_663_4305)">
<path d="M89.2715 103.402C90.6816 100.356 92.0906 97.2652 92.7025 93.9652C93.3145 90.6653 93.0576 87.0839 91.305 84.2217C89.5524 81.3594 86.1014 79.4185 82.8082 80.0656C80.1034 80.597 77.9315 82.7273 76.6598 85.173C75.388 87.6187 74.8778 90.3772 74.3832 93.089C74.2233 90.0082 74.0541 86.8778 73.0307 83.9675C72.0072 81.0572 69.992 78.3452 67.12 77.219C64.2479 76.0929 60.5117 76.9784 58.998 79.6665C56.8653 83.4535 59.6931 88.7655 57.2409 92.3539C56.8203 88.7545 53.0562 85.9107 49.4789 86.4895C45.9015 87.0683 43.2264 90.954 43.9623 94.5024C44.4002 96.6138 45.8407 98.4097 47.563 99.7071C49.2853 101.005 51.2884 102.508 53.27 103.359L89.2715 103.402Z" fill="#F2F2F2"/>
<path d="M45.8387 89.0324C48.6804 90.0256 51.5481 91.0301 54.1424 92.583C56.4675 93.9748 58.538 95.8486 59.8456 98.2483C60.562 99.5357 60.9874 100.965 61.0917 102.434C61.1106 102.741 61.5915 102.744 61.5725 102.434C61.4044 99.6974 60.0706 97.1929 58.2238 95.2122C56.1989 93.0406 53.5749 91.5574 50.8658 90.4066C49.2595 89.7243 47.6133 89.1444 45.9665 88.5688C45.6739 88.4665 45.5481 88.9308 45.8387 89.0324Z" fill="white"/>
<path d="M62.23 77.6961C63.9759 80.6046 65.3739 83.7083 66.3955 86.9431C67.419 90.1769 68.0638 93.5185 68.3168 96.9009C68.4568 98.7943 68.472 100.695 68.3625 102.59C68.3447 102.899 68.8255 102.898 68.8432 102.59C69.0372 99.1729 68.8304 95.7446 68.227 92.3752C67.6245 89.0063 66.6344 85.7184 65.2764 82.5771C64.5141 80.8126 63.635 79.101 62.6451 77.4534C62.6118 77.4007 62.5593 77.363 62.4987 77.3482C62.4382 77.3334 62.3742 77.3427 62.3203 77.3742C62.2665 77.4057 62.227 77.4568 62.2101 77.5169C62.1933 77.5769 62.2004 77.6412 62.23 77.6961Z" fill="white"/>
<path d="M85.7604 80.4575C83.2909 86.006 81.5531 91.8519 80.5906 97.8484C80.3203 99.5327 80.1111 101.225 79.963 102.926C79.9361 103.234 80.417 103.233 80.4437 102.926C80.9672 96.9431 82.2603 91.0525 84.2911 85.4003C84.8617 83.8112 85.4898 82.2445 86.1755 80.7001C86.3 80.4198 85.8859 80.175 85.7604 80.4575Z" fill="white"/>
<path d="M16.9971 103.042C12.0719 101.76 7.71972 98.8617 4.63821 94.8114C1.55669 90.7611 -0.0757028 85.7935 0.00269781 80.7048C0.02223 79.437 0.155538 78.1425 0.688508 76.992C1.22148 75.8414 2.21146 74.8463 3.44982 74.5736C4.8013 74.2761 6.22742 74.8843 7.23459 75.8333C8.24177 76.7823 8.90215 78.0344 9.50974 79.2778C13.1694 86.7667 15.9499 94.8022 16.9909 103.072L16.9971 103.042Z" fill="#F2F2F2"/>
<path d="M2.83498 74.8233L5.39987 80.651L7.96474 86.4786C8.77704 88.3242 9.5878 90.1706 10.4274 92.0041C11.2596 93.8214 12.1204 95.6261 13.0386 97.4017C13.9556 99.1748 14.9301 100.919 15.9879 102.612C16.1197 102.823 16.2527 103.033 16.387 103.242C16.48 103.387 16.7123 103.253 16.6187 103.107C15.5406 101.426 14.5472 99.6927 13.6155 97.9271C12.6828 96.1595 11.811 94.3604 10.9714 92.547C10.1274 90.7238 9.31576 88.8859 8.50633 87.0472C7.65432 85.1118 6.80246 83.1763 5.95075 81.2407L3.38586 75.4131L3.06668 74.6879C2.99727 74.5302 2.76599 74.6666 2.83496 74.8233L2.83498 74.8233Z" fill="white"/>
<path d="M15.9266 103.082C13.0234 103.747 9.98141 103.417 7.28812 102.146C4.59482 100.875 2.40623 98.7363 1.07318 96.0732C0.74105 95.4097 0.460805 94.7017 0.426905 93.9604C0.393005 93.2192 0.638338 92.4353 1.20767 91.9594C1.82902 91.4401 2.73363 91.3709 3.51274 91.5917C4.29184 91.8125 4.97272 92.2843 5.62383 92.7658C9.54556 95.6659 13.1585 99.0872 15.9315 103.1L15.9266 103.082Z" fill="#F2F2F2"/>
<path d="M0.957099 92.2546L3.86198 94.5878L6.76687 96.921C7.68685 97.6599 8.60625 98.3997 9.53711 99.1249C10.4598 99.8438 11.3939 100.548 12.35 101.222C13.3047 101.895 14.2815 102.538 15.2878 103.131C15.4131 103.205 15.5389 103.278 15.6651 103.351C15.7525 103.401 15.8369 103.268 15.7489 103.218C14.7354 102.636 13.7517 102.005 12.7913 101.339C11.8299 100.673 10.8916 99.9748 9.96612 99.2599C9.03572 98.5412 8.11818 97.8061 7.20156 97.07C6.23672 96.2952 5.27194 95.5203 4.30722 94.7453L1.40233 92.4121L1.04084 92.1218C0.962225 92.0586 0.878971 92.1919 0.957102 92.2546H0.957099Z" fill="white"/>
<path d="M139.568 103.456H6.99897C6.97387 103.456 6.949 103.452 6.92579 103.442C6.90257 103.432 6.88147 103.418 6.8637 103.401C6.84592 103.383 6.83182 103.362 6.82219 103.339C6.81257 103.316 6.80762 103.291 6.80762 103.266C6.80762 103.24 6.81257 103.216 6.82219 103.192C6.83182 103.169 6.84592 103.148 6.8637 103.13C6.88147 103.113 6.90257 103.099 6.92579 103.089C6.949 103.08 6.97387 103.075 6.99897 103.075H139.568C139.619 103.075 139.667 103.095 139.703 103.131C139.739 103.166 139.759 103.215 139.759 103.266C139.759 103.316 139.739 103.365 139.703 103.401C139.667 103.436 139.619 103.456 139.568 103.456Z" fill="#3F3D56"/>
<path d="M136.086 84.3405H127.11C127.11 84.4468 127.068 84.5486 126.993 84.6237C126.918 84.6989 126.816 84.7411 126.71 84.7411H117.9C117.775 84.8348 117.662 84.9423 117.561 85.0616C117.26 85.4208 117.096 85.8748 117.097 86.3436V86.6641C117.097 87.1952 117.308 87.7046 117.684 88.0802C118.059 88.4558 118.569 88.6669 119.1 88.6671H136.086C136.617 88.6667 137.126 88.4555 137.502 88.0799C137.877 87.7044 138.088 87.1952 138.089 86.6641V86.3436C138.088 85.8126 137.877 85.3035 137.501 84.928C137.126 84.5525 136.617 84.3413 136.086 84.3405Z" fill="#3F3D56"/>
<path d="M128.713 88.5876H126.63V103.33H128.713V88.5876Z" fill="#3F3D56"/>
<path d="M134.643 103.257C134.643 103.482 131.486 103.344 127.592 103.344C123.698 103.344 120.541 103.482 120.541 103.257C120.541 103.032 123.698 101.247 127.592 101.247C131.486 101.247 134.643 103.032 134.643 103.257Z" fill="#3F3D56"/>
<path d="M135.694 84.8022L135.345 82.6164C135.301 82.341 135.149 82.0943 134.923 81.9306C134.697 81.7669 134.415 81.6994 134.14 81.7431L130.536 82.3184L124.363 83.3039L122.355 83.6244H126.711C126.817 83.6244 126.919 83.6666 126.994 83.7417C127.069 83.8169 127.111 83.9187 127.111 84.025V84.3406C127.111 84.4469 127.069 84.5488 126.994 84.6239C126.919 84.699 126.817 84.7412 126.711 84.7413H115.627C115.472 84.8136 115.338 84.9238 115.237 85.0617C115.152 85.1739 115.091 85.3021 115.056 85.4388C115.022 85.5754 115.016 85.7175 115.039 85.8566L115.138 86.4783L115.258 87.2331L115.388 88.0439C115.432 88.3187 115.583 88.5648 115.809 88.7282C116.034 88.8916 116.315 88.959 116.59 88.9156L119.453 88.4589L127.712 87.1401L134.821 86.0056C135.096 85.9608 135.342 85.8092 135.505 85.5838C135.669 85.3583 135.737 85.0774 135.694 84.8022Z" fill="#6C63FF"/>
<path d="M119.233 85.0615C119.127 84.9216 118.988 84.8112 118.827 84.741H115.763C115.602 84.8107 115.462 84.9212 115.356 85.0615C115.214 85.2441 115.136 85.4692 115.137 85.7009V97.9131C115.137 98.1913 115.248 98.4581 115.445 98.6548C115.641 98.8516 115.908 98.9623 116.186 98.9627H118.403C118.681 98.9623 118.948 98.8516 119.144 98.6548C119.341 98.4581 119.452 98.1913 119.452 97.9131V85.7009C119.452 85.4692 119.375 85.2442 119.233 85.0615Z" fill="#6C63FF"/>
<path d="M125.902 64.2618L125.882 64.2345L124.507 62.5407C124.434 62.4499 124.345 62.3723 124.246 62.3116C124.193 62.2758 124.136 62.2468 124.076 62.2251C123.988 62.1899 123.896 62.1673 123.802 62.1578C123.739 62.1511 123.676 62.15 123.613 62.1545C123.611 62.1547 123.61 62.1552 123.609 62.1562C123.397 62.1718 123.194 62.2524 123.029 62.3869L120.207 64.6752L116.581 67.6173L111.17 72.008L110.775 72.3285H117.623L118.018 72.008L119.328 70.9456L119.421 70.8719L125.744 65.7424L125.749 65.7392C125.879 65.6345 125.982 65.4998 126.048 65.3466C126.092 65.2463 126.12 65.1398 126.132 65.0309C126.146 64.8939 126.133 64.7554 126.094 64.6234C126.055 64.4914 125.99 64.3685 125.902 64.2618Z" fill="#6C63FF"/>
<path d="M125.882 64.2347C125.794 63.8029 125.597 63.4005 125.312 63.0649C125.027 62.7268 124.66 62.4675 124.246 62.3118C124.182 62.2877 124.119 62.2653 124.055 62.2477C123.911 62.2046 123.763 62.1735 123.613 62.1547C123.612 62.1549 123.611 62.1554 123.61 62.1563C122.936 62.0784 122.257 62.2658 121.719 62.6787L116.838 66.4092C116.734 66.5019 116.65 66.6145 116.591 66.7403C116.532 66.8661 116.499 67.0026 116.493 67.1415C116.486 67.3048 116.516 67.4677 116.581 67.6175C116.597 67.6511 116.615 67.6848 116.634 67.7168C116.672 67.7819 116.717 67.8422 116.769 67.8963L117.551 68.7744L119.37 70.8143L119.421 70.872L119.538 71.005C119.631 71.1071 119.743 71.1898 119.868 71.2483C119.994 71.3069 120.129 71.3402 120.267 71.3463C120.405 71.3524 120.543 71.3312 120.673 71.2839C120.802 71.2366 120.922 71.1642 121.023 71.0707L125.233 66.5486C125.452 66.3138 125.625 66.0405 125.744 65.7426C125.936 65.2642 125.984 64.74 125.882 64.2347Z" fill="#2F2E41"/>
<path d="M127.74 58.4319C132.176 58.4319 135.772 54.836 135.772 50.4001C135.772 45.9643 132.176 42.3683 127.74 42.3683C123.304 42.3683 119.708 45.9643 119.708 50.4001C119.708 54.836 123.304 58.4319 127.74 58.4319Z" fill="#6C63FF"/>
<path d="M130.754 83.6964L130.534 82.3182L130.404 81.509C130.36 81.2339 130.209 80.9877 129.983 80.8242C129.757 80.6608 129.476 80.5935 129.201 80.6373L123.363 81.5683L121.78 81.8215L121.46 81.8728V83.6242H126.709C126.815 83.6243 126.917 83.6665 126.992 83.7416C127.068 83.8167 127.11 83.9186 127.11 84.0249V84.3405C127.11 84.4468 127.068 84.5486 126.992 84.6238C126.917 84.6989 126.815 84.7411 126.709 84.7411H110.097C110.097 84.7443 110.098 84.7475 110.098 84.7508L110.198 85.3725L110.448 86.9365C110.492 87.2113 110.643 87.4574 110.868 87.6208C111.094 87.7842 111.375 87.8516 111.649 87.8082L114.513 87.3515L115.136 87.2522L115.257 87.2329L119.452 86.5631L122.306 86.1064L126.834 85.3837L126.902 85.3725L129.88 84.8982C130.155 84.8541 130.402 84.7029 130.565 84.4777C130.729 84.2524 130.797 83.9715 130.754 83.6964Z" fill="#6C63FF"/>
<path d="M138.673 77.8025C138.673 84.3501 138.008 88.2665 127.753 87.1448C127.738 87.1432 127.725 87.1416 127.711 87.1399C125.882 86.9593 124.073 86.6133 122.306 86.1064C121.388 85.8382 120.495 85.4886 119.639 85.0616C119.438 84.959 119.244 84.8517 119.053 84.7411H126.709C126.816 84.7411 126.918 84.6988 126.993 84.6237C127.068 84.5486 127.11 84.4467 127.11 84.3405V84.0248C127.11 83.9186 127.068 83.8167 126.993 83.7416C126.918 83.6665 126.816 83.6242 126.709 83.6242H121.46V73.5031C121.459 73.1918 121.335 72.8933 121.115 72.6731C120.895 72.4529 120.597 72.329 120.285 72.3285H116.015C116.052 72.2228 116.088 72.1154 116.128 72.0081C116.529 70.8995 117.004 69.8191 117.55 68.7743C118.298 67.3234 119.188 65.9503 120.207 64.6753C120.916 63.7867 121.713 62.9713 122.585 62.2411C124.192 60.9143 125.942 60.0939 127.717 60.0939C134.265 60.0939 138.673 71.2549 138.673 77.8025Z" fill="#2F2E41"/>
<path d="M127.908 53.377L127.917 53.0768C127.358 53.0613 126.866 53.0263 126.496 52.756C126.391 52.675 126.305 52.5724 126.243 52.4552C126.182 52.3379 126.146 52.2087 126.139 52.0764C126.132 51.9956 126.144 51.9144 126.174 51.839C126.204 51.7637 126.251 51.6963 126.312 51.6421C126.557 51.4347 126.952 51.5018 127.24 51.6338L127.489 51.7477L127.012 48.2675L126.715 48.3082L127.12 51.2686C126.954 51.2071 126.776 51.1881 126.601 51.2133C126.426 51.2385 126.26 51.3071 126.118 51.4128C126.023 51.4961 125.948 51.6003 125.899 51.7172C125.851 51.8341 125.83 51.9607 125.839 52.087C125.848 52.2647 125.895 52.4384 125.978 52.5959C126.061 52.7533 126.177 52.8907 126.319 52.9984C126.794 53.3458 127.412 53.363 127.908 53.377Z" fill="#2F2E41"/>
<path d="M125.247 48.5637H123.631V48.8639H125.247V48.5637Z" fill="#2F2E41"/>
<path d="M130.348 48.5637H128.731V48.8639H130.348V48.5637Z" fill="#2F2E41"/>
<path d="M134.151 48.1933C133.526 47.253 132.427 46.8545 131.343 46.7575C130.123 46.6484 128.944 46.8836 127.753 47.1122C126.442 47.3637 125.055 47.5991 123.734 47.281C123.15 47.1459 122.604 46.8798 122.137 46.5029C121.671 46.126 121.296 45.6481 121.041 45.1053C120.557 44.0462 120.453 42.8528 120.746 41.7259C121.055 40.5274 121.824 39.4728 122.755 38.6763C124.656 37.0506 127.228 36.3199 129.703 36.3887C132.168 36.4524 134.55 37.29 136.512 38.7831C138.478 40.33 139.861 42.4975 140.436 44.9318C141.037 47.3461 140.841 49.8902 139.877 52.184C139.336 53.44 138.553 54.5723 137.949 55.7967C137.386 56.9367 136.953 58.2621 137.303 59.5337C137.61 60.6494 138.512 61.6407 139.644 61.9436C140.159 62.0787 140.704 62.043 141.197 61.8417C141.69 61.6404 142.104 61.2845 142.378 60.8275C142.944 59.9351 142.957 58.7662 142.108 58.0457C141.893 57.861 141.644 57.7219 141.374 57.6367C141.104 57.5515 140.82 57.522 140.539 57.5501C140.257 57.5782 139.984 57.6632 139.737 57.8C139.489 57.9368 139.272 58.1226 139.099 58.346C138.754 58.7937 138.6 59.3593 138.669 59.9201C138.711 60.2035 138.277 60.3258 138.235 60.0398C138.134 59.4467 138.246 58.8369 138.552 58.319C138.859 57.8011 139.339 57.4088 139.907 57.2119C140.476 57.015 141.096 57.0264 141.657 57.2439C142.218 57.4615 142.683 57.8711 142.97 58.3999C143.483 59.3634 143.206 60.5254 142.556 61.349C142.22 61.7877 141.765 62.1203 141.245 62.3072C140.726 62.4941 140.163 62.5273 139.625 62.4029C138.441 62.1294 137.472 61.1883 137.017 60.0824C136.51 58.8513 136.742 57.4774 137.236 56.2827C137.771 54.9913 138.564 53.833 139.192 52.5885C139.76 51.4639 140.122 50.2463 140.26 48.9939C140.535 46.4787 139.964 43.9435 138.637 41.7892C137.285 39.6684 135.22 38.0994 132.815 37.364C130.427 36.5967 127.848 36.6649 125.504 37.5573C123.217 38.4587 121.008 40.4231 121.034 43.0613C121.045 44.1883 121.464 45.3376 122.327 46.0893C123.359 46.9876 124.795 47.0644 126.092 46.9242C127.397 46.7831 128.664 46.402 129.975 46.3047C131.115 46.2202 132.345 46.3081 133.363 46.8745C133.837 47.1388 134.24 47.5132 134.539 47.9661C134.7 48.2081 134.311 48.4338 134.151 48.1933V48.1933Z" fill="#2F2E41"/>
<path d="M132.518 66.5582L131.882 66.116L130.697 65.2939C130.468 65.1356 130.186 65.0745 129.912 65.1241C129.638 65.1736 129.395 65.3298 129.236 65.5583L125.376 71.114L121.781 76.2867L121.461 76.7482V83.6243H121.49C121.74 83.5995 121.972 83.4858 122.145 83.3038C122.182 83.2656 122.216 83.2243 122.246 83.1804L123.365 81.5683L126.129 77.5895L128.994 73.468L129.266 73.0754L132.779 68.0197C132.798 67.9929 132.816 67.965 132.832 67.9363C132.848 67.9089 132.862 67.8805 132.875 67.8514C132.976 67.6281 132.995 67.3765 132.93 67.1403C132.865 66.9041 132.719 66.6982 132.518 66.5582Z" fill="#6C63FF"/>
<path d="M132.529 64.3595C132.416 64.2851 132.297 64.2198 132.174 64.164C131.626 63.9131 131.009 63.8584 130.426 64.009C129.843 64.1596 129.329 64.5063 128.972 64.9909L125.325 69.9361C125.252 70.0538 125.202 70.1849 125.18 70.3218C125.158 70.4588 125.164 70.5987 125.196 70.7335C125.229 70.8683 125.288 70.9953 125.37 71.1071C125.452 71.2189 125.555 71.3132 125.674 71.3847L128.994 73.4678L129.036 73.4935L129.203 73.5976C129.441 73.7417 129.727 73.7855 129.997 73.7195C130.268 73.6534 130.501 73.4828 130.647 73.2451L133.222 68.1333L133.265 68.0484L133.267 68.0468L133.425 67.7279C133.714 67.1542 133.783 66.4943 133.618 65.8733C133.453 65.2524 133.065 64.7137 132.529 64.3595Z" fill="#2F2E41"/>
<path d="M110.198 84.741V96.8058C110.199 97.0841 110.309 97.3508 110.506 97.5475C110.703 97.7443 110.97 97.855 111.248 97.8554H113.464C113.742 97.855 114.009 97.7443 114.206 97.5476C114.403 97.3508 114.513 97.0841 114.514 96.8058V84.741H110.198Z" fill="#6C63FF"/>
<path d="M126.709 83.3037H121.78V73.5031C121.779 73.1067 121.622 72.7267 121.341 72.4464C121.061 72.1661 120.681 72.0085 120.285 72.008H102.005C101.609 72.0081 101.228 72.1656 100.948 72.4459C100.667 72.7263 100.509 73.1065 100.509 73.5031V83.5665C100.509 83.9631 100.667 84.3433 100.948 84.6236C101.228 84.904 101.609 85.0615 102.005 85.0616H126.709C126.734 85.0616 126.758 85.0599 126.782 85.0583C126.805 85.0567 126.827 85.0519 126.85 85.0487C127.013 85.0156 127.16 84.9271 127.266 84.798C127.372 84.6689 127.43 84.5073 127.43 84.3405V84.0248C127.43 83.8335 127.354 83.6501 127.219 83.5149C127.083 83.3797 126.9 83.3037 126.709 83.3037ZM126.709 84.7411H102.005C101.694 84.7409 101.395 84.6172 101.174 84.397C100.954 84.1768 100.83 83.8781 100.829 83.5665V73.5031C100.83 73.1915 100.954 72.8928 101.174 72.6726C101.395 72.4524 101.694 72.3286 102.005 72.3285H120.285C120.596 72.329 120.894 72.4529 121.115 72.673C121.335 72.8932 121.459 73.1917 121.459 73.5031V83.6242H126.709C126.815 83.6242 126.917 83.6664 126.992 83.7415C127.067 83.8167 127.109 83.9185 127.109 84.0248V84.3405C127.109 84.4467 127.067 84.5486 126.992 84.6237C126.917 84.6988 126.815 84.741 126.709 84.7411Z" fill="#3F3D56"/>
<path d="M111.145 79.7674C111.826 79.7674 112.378 79.2157 112.378 78.5351C112.378 77.8545 111.826 77.3028 111.145 77.3028C110.465 77.3028 109.913 77.8545 109.913 78.5351C109.913 79.2157 110.465 79.7674 111.145 79.7674Z" fill="#6C63FF"/>
<path d="M19.5498 57.9029C24.2863 57.9029 28.1259 54.0632 28.1259 49.3267C28.1259 44.5902 24.2863 40.7505 19.5498 40.7505C14.8133 40.7505 10.9736 44.5902 10.9736 49.3267C10.9736 54.0632 14.8133 57.9029 19.5498 57.9029Z" fill="#6C63FF"/>
<path d="M17.8784 81.5891H15.5133C15.2371 81.5893 14.9723 81.6991 14.777 81.8944C14.5818 82.0897 14.4719 82.3545 14.4717 82.6306V102.342C14.4719 102.618 14.5818 102.883 14.777 103.079C14.9723 103.274 15.2371 103.384 15.5133 103.384H17.8784C18.1546 103.384 18.4194 103.274 18.6147 103.079C18.8099 102.883 18.9198 102.618 18.92 102.342V82.6306C18.9198 82.3545 18.8099 82.0897 18.6147 81.8944C18.4194 81.6991 18.1546 81.5893 17.8784 81.5891Z" fill="#2F2E41"/>
<path d="M22.8775 81.5891H20.5123C20.2361 81.5893 19.9713 81.6991 19.7761 81.8944C19.5808 82.0897 19.471 82.3545 19.4707 82.6306V102.342C19.471 102.618 19.5808 102.883 19.7761 103.079C19.9713 103.274 20.2361 103.384 20.5123 103.384H22.8775C23.0143 103.384 23.1497 103.357 23.2761 103.305C23.4025 103.252 23.5173 103.176 23.614 103.079C23.7107 102.982 23.7874 102.867 23.8398 102.741C23.8921 102.615 23.9191 102.479 23.9191 102.342V82.6306C23.9191 82.4939 23.8921 82.3584 23.8398 82.232C23.7874 82.1056 23.7107 81.9908 23.614 81.8941C23.5173 81.7974 23.4024 81.7207 23.2761 81.6683C23.1497 81.616 23.0143 81.589 22.8775 81.5891Z" fill="#2F2E41"/>
<path d="M24.5892 62.3999C23.7604 61.3287 22.6174 60.5434 21.3202 60.1539C20.023 59.7644 18.6365 59.7902 17.3547 60.2276C16.0728 60.665 14.9598 61.4922 14.1713 62.5934C13.3828 63.6946 12.9583 65.0147 12.9571 66.3692V83.8262C12.9565 83.8794 12.9607 83.9325 12.9699 83.9848C13.008 84.2519 13.141 84.4963 13.3447 84.6732C13.5484 84.8501 13.809 84.9477 14.0788 84.9479H24.8265C25.1238 84.9473 25.4087 84.8289 25.619 84.6187C25.8292 84.4085 25.9476 84.1235 25.9482 83.8262V66.3692C25.9502 64.9316 25.4719 63.5346 24.5892 62.3999Z" fill="#2F2E41"/>
<path d="M26.7921 53.1178L26.7832 52.7974C27.3794 52.7808 27.9051 52.7434 28.3 52.4548C28.412 52.3683 28.5041 52.2588 28.5699 52.1336C28.6358 52.0084 28.6739 51.8704 28.6816 51.7292C28.6886 51.6429 28.6755 51.5561 28.6435 51.4757C28.6114 51.3952 28.5613 51.3232 28.4969 51.2653C28.2347 51.0439 27.8128 51.1156 27.5053 51.2566L27.2402 51.3782L27.7487 47.662L28.0662 47.7055L27.6336 50.8666C28.0515 50.7438 28.4386 50.7966 28.7038 51.0206C28.8056 51.1095 28.8855 51.2207 28.9372 51.3456C28.9889 51.4704 29.0111 51.6056 29.0019 51.7404C28.9925 51.9302 28.9418 52.1157 28.8532 52.2838C28.7646 52.4519 28.6403 52.5986 28.4891 52.7136C27.9816 53.0845 27.3221 53.103 26.7921 53.1178Z" fill="#2F2E41"/>
<path d="M25.9126 47.978H24.1865V48.2985H25.9126V47.978Z" fill="#2F2E41"/>
<path d="M17.0346 62.6466C16.942 62.5455 16.8304 62.4639 16.706 62.4064C16.5817 62.3489 16.4471 62.3167 16.3102 62.3117L14.4466 62.2347L13.9482 62.2139C13.6723 62.2026 13.4031 62.3012 13.1998 62.4881C12.9964 62.6749 12.8754 62.9347 12.8633 63.2106L12.5685 70.3127L12.0477 82.9063C12.0371 83.1691 12.1261 83.4262 12.297 83.6262C12.4678 83.8262 12.7079 83.9542 12.9691 83.9847C12.9948 83.9879 13.0188 83.9895 13.0445 83.9911L14.4706 84.0504L15.4081 84.0889C15.4832 84.0922 15.5584 84.0874 15.6324 84.0745C15.8282 84.0395 16.0099 83.9494 16.1564 83.8149C16.2575 83.7224 16.3391 83.6107 16.3966 83.4864C16.4541 83.362 16.4863 83.2275 16.4913 83.0906L16.5538 81.5891L17.0137 70.4825L17.3086 63.3949C17.3201 63.119 17.2215 62.8498 17.0346 62.6466Z" fill="#6C63FF"/>
<path d="M15.6679 61.0923C15.4688 61.0502 15.2657 61.0293 15.0622 61.0298C14.2762 61.0307 13.5227 61.3433 12.967 61.8991C12.4112 62.4548 12.0986 63.2083 12.0977 63.9943V69.4426C12.0981 69.6151 12.1412 69.7848 12.2231 69.9366C12.3051 70.0885 12.4233 70.2177 12.5672 70.3127C12.6846 70.39 12.8166 70.4424 12.955 70.4666C13.0157 70.4781 13.0774 70.484 13.1392 70.4842H16.9851C16.9942 70.4845 17.0034 70.484 17.0124 70.4826C17.2837 70.4756 17.5415 70.3631 17.731 70.1688C17.9204 69.9745 18.0266 69.714 18.0267 69.4426V63.9943C18.0258 63.3135 17.791 62.6536 17.3616 62.1253C16.9322 61.5969 16.3342 61.2322 15.6679 61.0923Z" fill="#2F2E41"/>
<path d="M36.2087 76.6086C35.9574 76.4788 35.76 76.2643 35.6515 76.003C35.543 75.7417 35.5303 75.4505 35.6158 75.1808L36.5276 72.2788L36.2615 72.0576L29.2637 66.268L24.5877 62.3997L24.0189 61.9286C23.8061 61.7524 23.5322 61.668 23.2572 61.6939C22.9823 61.7197 22.7288 61.8537 22.5526 62.0664L21.0447 63.89C20.9573 63.9952 20.8915 64.1166 20.8511 64.2474C20.8107 64.3781 20.7964 64.5155 20.8092 64.6517C20.822 64.7879 20.8616 64.9202 20.9257 65.0411C20.9897 65.162 21.077 65.2691 21.1825 65.3562L25.9466 69.2982L26.4883 69.7453L36.3705 77.921C36.5533 78.0728 36.7825 78.1575 37.0201 78.161C37.2577 78.1645 37.4893 78.0866 37.6765 77.9402C37.7281 77.8998 37.7754 77.8542 37.8175 77.804C37.8244 77.7975 37.8308 77.7905 37.8367 77.7832L38.0274 77.5524L36.2087 76.6086Z" fill="#6C63FF"/>
<path d="M28.9259 65.1561L24.71 61.706C24.4087 61.4593 24.0618 61.2745 23.6892 61.1619C23.3165 61.0493 22.9252 61.0112 22.5378 61.0498C22.1504 61.0884 21.7744 61.203 21.4313 61.3869C21.0881 61.5708 20.7846 61.8205 20.538 62.1218C20.2913 62.423 20.1064 62.7699 19.9938 63.1426C19.8813 63.5153 19.8432 63.9065 19.8818 64.2939C19.9598 65.0763 20.3454 65.7957 20.9538 66.2938L25.1698 69.7439C25.3555 69.896 25.5881 69.9792 25.8281 69.9795C26.0682 69.9798 26.301 69.8971 26.487 69.7454C26.5425 69.7025 26.5925 69.653 26.636 69.598L29.0718 66.6223C29.158 66.5179 29.2228 66.3976 29.2624 66.2681C29.3224 66.0703 29.3225 65.859 29.2626 65.6611C29.2027 65.4632 29.0855 65.2875 28.9259 65.1561Z" fill="#2F2E41"/>
<path d="M17.3991 50.7786C16.9525 50.0326 16.603 49.2105 16.7689 48.3266C16.917 47.5372 17.4851 46.9225 18.3019 46.8418C18.7938 46.7932 19.2834 46.9245 19.7638 47.01C20.1576 47.0792 20.5578 47.1051 20.9573 47.0874C21.761 47.0508 22.5489 46.851 23.273 46.5002C24.0079 46.1563 24.6607 45.659 25.1875 45.0417C25.7142 44.4245 26.1026 43.7016 26.3267 42.9217C26.8141 41.1472 26.4522 39.1321 25.2947 37.6877L25.6964 37.5816L25.1733 39.3001C25.1631 39.3354 25.1451 39.3679 25.1205 39.3951C25.096 39.4224 25.0656 39.4437 25.0316 39.4576C24.9976 39.4714 24.9609 39.4773 24.9243 39.4749C24.8877 39.4726 24.8521 39.4619 24.8202 39.4438C23.8722 38.8448 22.8123 38.4446 21.705 38.2676C20.5976 38.0905 19.4658 38.1403 18.3783 38.4139C17.7638 38.5683 17.1702 38.7966 16.6106 39.0938C16.3376 39.2389 16.0944 38.8241 16.368 38.6787C17.4191 38.1304 18.5704 37.801 19.7524 37.7104C20.9344 37.6199 22.1225 37.77 23.2448 38.1518C23.884 38.3697 24.4945 38.6641 25.0629 39.0287L24.7098 39.1724L25.2328 37.4538C25.2445 37.4137 25.2664 37.3772 25.2963 37.348C25.3262 37.3187 25.3632 37.2978 25.4037 37.2871C25.4441 37.2764 25.4867 37.2764 25.5271 37.287C25.5676 37.2976 25.6046 37.3186 25.6346 37.3478C26.173 38.0307 26.5675 38.8156 26.7945 39.6551C27.0215 40.4945 27.0761 41.3713 26.9552 42.2325C26.8383 43.0813 26.5434 43.8958 26.0897 44.6226C25.636 45.3494 25.0338 45.9721 24.3226 46.4499C23.6121 46.9295 22.8135 47.2634 21.9731 47.4324C21.1327 47.6013 20.2672 47.6019 19.4265 47.4341C18.9561 47.3437 18.4225 47.2142 17.9609 47.4112C17.7935 47.492 17.6459 47.6086 17.5287 47.7529C17.4114 47.8971 17.3273 48.0654 17.2825 48.2457C17.0209 49.1321 17.466 49.9738 17.9206 50.7108L17.3991 50.7786Z" fill="#2F2E41"/>
<path d="M48.6874 68.5338L40.76 63.946C40.5626 63.8319 40.3421 63.7636 40.1147 63.7461C39.8873 63.7286 39.6589 63.7624 39.4463 63.845C39.2337 63.9276 39.0424 64.0569 38.8865 64.2233C38.7306 64.3897 38.6141 64.589 38.5455 64.8065L36.2636 72.0576L35.3117 75.0846C35.2039 75.4262 35.2202 75.7948 35.3577 76.1255C35.4952 76.4563 35.7451 76.7278 36.0633 76.8922L37.8195 77.804L43.5499 80.7765C43.7667 80.8893 44.0074 80.9481 44.2518 80.948C44.4322 80.9475 44.6112 80.9155 44.7806 80.8534L44.7918 80.8486C44.992 80.7721 45.1739 80.6544 45.3258 80.5032C45.4776 80.3519 45.5959 80.1704 45.6732 79.9705L49.346 70.3959C49.4769 70.058 49.4824 69.6844 49.3616 69.3428C49.2408 69.0013 49.0016 68.7142 48.6874 68.5338ZM49.0463 70.2821L45.3735 79.8567C45.3124 80.0145 45.2187 80.1577 45.0986 80.277C44.9785 80.3963 44.8347 80.4889 44.6764 80.549L44.6684 80.5522C44.5113 80.6102 44.3438 80.6349 44.1766 80.6247C44.0095 80.6145 43.8462 80.5696 43.6973 80.4929L38.0295 77.5524L36.2108 76.6085C35.9594 76.4787 35.762 76.2642 35.6535 76.003C35.545 75.7417 35.5324 75.4505 35.6178 75.1808L36.5296 72.2787L38.8499 64.9027C38.9044 64.7312 38.9966 64.5742 39.1198 64.443C39.2429 64.3119 39.3939 64.21 39.5616 64.1448C39.7293 64.0796 39.9094 64.0529 40.0888 64.0664C40.2682 64.08 40.4423 64.1336 40.5982 64.2232L48.5255 68.811C48.7739 68.9534 48.963 69.1801 49.0586 69.45C49.1541 69.7199 49.1498 70.0151 49.0463 70.2821Z" fill="#3F3D56"/>
<path d="M46.0277 71.6018C45.9474 71.6017 45.8684 71.5815 45.798 71.543L40.5099 68.6586C40.3984 68.5973 40.3158 68.4943 40.2801 68.3722C40.2444 68.2501 40.2585 68.1188 40.3194 68.0071C40.3804 67.8954 40.4831 67.8124 40.6051 67.7763C40.7271 67.7402 40.8584 67.7539 40.9703 67.8145L46.2584 70.6989C46.3522 70.7501 46.4263 70.8311 46.4689 70.929C46.5116 71.027 46.5204 71.1364 46.4939 71.24C46.4675 71.3435 46.4073 71.4353 46.3229 71.5008C46.2385 71.5663 46.1346 71.6018 46.0277 71.6018H46.0277Z" fill="#6C63FF"/>
<path d="M45.0658 73.6849C44.9855 73.6848 44.9065 73.6646 44.8361 73.6261L39.548 70.7417C39.4365 70.6804 39.3538 70.5774 39.3181 70.4553C39.2824 70.3332 39.2966 70.2019 39.3575 70.0902C39.4184 69.9785 39.5212 69.8955 39.6432 69.8594C39.7651 69.8233 39.8965 69.837 40.0084 69.8976L45.2964 72.782C45.3903 72.8332 45.4643 72.9142 45.507 73.0121C45.5497 73.1101 45.5585 73.2195 45.532 73.3231C45.5056 73.4266 45.4454 73.5184 45.361 73.5839C45.2765 73.6494 45.1727 73.6849 45.0658 73.6849H45.0658Z" fill="#6C63FF"/>
<path d="M44.266 75.9282C44.1857 75.9282 44.1067 75.908 44.0363 75.8694L38.7482 72.985C38.6367 72.9237 38.554 72.8207 38.5183 72.6986C38.4826 72.5765 38.4968 72.4452 38.5577 72.3335C38.6186 72.2218 38.7214 72.1388 38.8433 72.1027C38.9653 72.0666 39.0967 72.0804 39.2086 72.1409L44.4966 75.0253C44.5905 75.0765 44.6645 75.1575 44.7072 75.2555C44.7499 75.3534 44.7587 75.4628 44.7322 75.5664C44.7058 75.6699 44.6456 75.7617 44.5612 75.8272C44.4767 75.8927 44.3729 75.9283 44.266 75.9282H44.266Z" fill="#6C63FF"/>
<path d="M100.185 30.5335H77.9543C77.6347 30.5331 77.3284 30.406 77.1024 30.18C76.8765 29.9541 76.7494 29.6477 76.749 29.3282V1.20527C76.7494 0.885722 76.8765 0.579368 77.1024 0.353415C77.3284 0.127462 77.6347 0.000363473 77.9543 0H100.185C100.504 0.000365589 100.811 0.127465 101.037 0.353418C101.263 0.57937 101.39 0.885723 101.39 1.20527V29.3282C101.39 29.6477 101.263 29.9541 101.037 30.18C100.811 30.406 100.504 30.5331 100.185 30.5335ZM77.9543 0.267838C77.7058 0.268117 77.4675 0.366971 77.2917 0.542713C77.116 0.718455 77.0171 0.956731 77.0169 1.20527V29.3282C77.0171 29.5767 77.116 29.815 77.2917 29.9908C77.4675 30.1665 77.7058 30.2653 77.9543 30.2656H100.185C100.433 30.2653 100.672 30.1665 100.847 29.9908C101.023 29.815 101.122 29.5767 101.122 29.3282V1.20527C101.122 0.956731 101.023 0.718455 100.847 0.542713C100.672 0.366971 100.433 0.268117 100.185 0.267838H77.9543Z" fill="#3F3D56"/>
<path d="M87.2196 13.518H82.3263C82.1665 13.5178 82.0133 13.4542 81.9003 13.3413C81.7874 13.2283 81.7238 13.0751 81.7236 12.9153V7.14081C81.7238 6.98104 81.7874 6.82786 81.9003 6.71488C82.0133 6.6019 82.1665 6.53835 82.3263 6.53818H87.2196C87.3794 6.53835 87.5326 6.6019 87.6456 6.71488C87.7586 6.82786 87.8221 6.98104 87.8223 7.14081V12.9153C87.8221 13.0751 87.7586 13.2283 87.6456 13.3413C87.5326 13.4542 87.3794 13.5178 87.2196 13.518Z" fill="#6C63FF"/>
<path d="M96.7294 16.1966H91.836C91.6763 16.1964 91.5231 16.1328 91.4101 16.0199C91.2971 15.9069 91.2336 15.7537 91.2334 15.5939V9.8194C91.2336 9.65963 91.2971 9.50645 91.4101 9.39347C91.5231 9.28049 91.6763 9.21694 91.836 9.21677H96.7294C96.8892 9.21694 97.0424 9.28049 97.1553 9.39347C97.2683 9.50645 97.3319 9.65963 97.3321 9.8194V15.5939C97.3319 15.7537 97.2683 15.9069 97.1553 16.0199C97.0424 16.1328 96.8892 16.1964 96.7294 16.1966Z" fill="#CCCCCC"/>
<path d="M89.0947 24.3653H84.2013C84.0415 24.3651 83.8883 24.3016 83.7753 24.1886C83.6624 24.0756 83.5988 23.9225 83.5986 23.7627V17.9882C83.5988 17.8284 83.6624 17.6752 83.7753 17.5622C83.8883 17.4493 84.0415 17.3857 84.2013 17.3855H89.0947C89.2544 17.3857 89.4076 17.4493 89.5206 17.5622C89.6336 17.6752 89.6971 17.8284 89.6973 17.9882V23.7627C89.6971 23.9225 89.6336 24.0756 89.5206 24.1886C89.4076 24.3016 89.2544 24.3651 89.0947 24.3653Z" fill="#FF6584"/>
<path d="M71.1881 22.9321C71.0956 22.7127 70.9409 22.5251 70.7429 22.3927C70.545 22.2603 70.3126 22.1888 70.0744 22.187H47.8437C47.5242 22.1872 47.2178 22.3142 46.9918 22.5402C46.7659 22.7661 46.6388 23.0725 46.6387 23.392V51.515C46.6388 51.8345 46.7659 52.1409 46.9918 52.3669C47.2178 52.5928 47.5242 52.7198 47.8437 52.72H70.0744C70.3939 52.7196 70.7001 52.5925 70.926 52.3666C71.1519 52.1407 71.279 51.8344 71.2795 51.515V23.392C71.28 23.2342 71.2489 23.0778 71.1881 22.9321ZM71.0119 51.515C71.0116 51.7635 70.9127 52.0018 70.737 52.1775C70.5612 52.3532 70.323 52.4521 70.0744 52.4524H47.8437C47.5951 52.4524 47.3567 52.3536 47.1809 52.1778C47.0051 52.002 46.9063 51.7636 46.9063 51.515V23.392C46.9066 23.1435 47.0055 22.9053 47.1812 22.7295C47.3569 22.5538 47.5952 22.4549 47.8437 22.4546H70.0744C70.2617 22.4553 70.4444 22.5118 70.5994 22.6168C70.7544 22.7219 70.8746 22.8707 70.9446 23.0443C70.9582 23.0789 70.97 23.1142 70.9798 23.1501C71.0011 23.229 71.0119 23.3103 71.0119 23.392V51.515Z" fill="#3F3D56"/>
<path d="M66.548 28.8269H59.8521C59.71 28.8269 59.5738 28.7704 59.4733 28.67C59.3728 28.5695 59.3164 28.4333 59.3164 28.2912C59.3164 28.1491 59.3728 28.0129 59.4733 27.9124C59.5738 27.812 59.71 27.7555 59.8521 27.7555H66.548C66.6901 27.7555 66.8263 27.812 66.9268 27.9124C67.0273 28.0129 67.0837 28.1491 67.0837 28.2912C67.0837 28.4333 67.0273 28.5695 66.9268 28.67C66.8263 28.7704 66.6901 28.8269 66.548 28.8269Z" fill="#3F3D56"/>
<path d="M66.548 31.6392H59.8521C59.71 31.6392 59.5738 31.5828 59.4733 31.4823C59.3728 31.3818 59.3164 31.2456 59.3164 31.1035C59.3164 30.9614 59.3728 30.8252 59.4733 30.7247C59.5738 30.6243 59.71 30.5678 59.8521 30.5678H66.548C66.6901 30.5678 66.8263 30.6243 66.9268 30.7247C67.0273 30.8252 67.0837 30.9614 67.0837 31.1035C67.0837 31.2456 67.0273 31.3818 66.9268 31.4823C66.8263 31.5828 66.6901 31.6392 66.548 31.6392Z" fill="#3F3D56"/>
<path d="M56.414 33.2404H51.5206C51.3608 33.2402 51.2077 33.1767 51.0947 33.0637C50.9817 32.9507 50.9181 32.7975 50.918 32.6378V26.8632C50.9181 26.7035 50.9817 26.5503 51.0947 26.4373C51.2077 26.3243 51.3608 26.2608 51.5206 26.2606H56.414C56.5738 26.2608 56.7269 26.3243 56.8399 26.4373C56.9529 26.5503 57.0165 26.7035 57.0166 26.8632V32.6378C57.0164 32.7975 56.9529 32.9507 56.8399 33.0637C56.727 33.1767 56.5738 33.2402 56.414 33.2404Z" fill="#6C63FF"/>
<path d="M66.5005 37.3976H51.3677C51.2972 37.3977 51.2275 37.384 51.1624 37.3571C51.0973 37.3302 51.0381 37.2908 50.9883 37.241C50.9384 37.1913 50.8989 37.1322 50.8719 37.0671C50.8449 37.0021 50.8311 36.9324 50.8311 36.8619C50.8311 36.7915 50.8449 36.7218 50.8719 36.6567C50.8989 36.5917 50.9384 36.5326 50.9883 36.4828C51.0381 36.4331 51.0973 36.3936 51.1624 36.3668C51.2275 36.3399 51.2972 36.3261 51.3677 36.3263H66.5005C66.6424 36.3265 66.7784 36.3831 66.8787 36.4835C66.9789 36.5839 67.0352 36.72 67.0352 36.8619C67.0352 37.0038 66.9789 37.14 66.8787 37.2404C66.7784 37.3408 66.6424 37.3974 66.5005 37.3976Z" fill="#CCCCCC"/>
<path d="M66.5005 40.21H51.3677C51.2972 40.2101 51.2275 40.1963 51.1624 40.1694C51.0973 40.1426 51.0381 40.1031 50.9883 40.0534C50.9384 40.0036 50.8989 39.9445 50.8719 39.8795C50.8449 39.8144 50.8311 39.7447 50.8311 39.6743C50.8311 39.6039 50.8449 39.5341 50.8719 39.4691C50.8989 39.404 50.9384 39.3449 50.9883 39.2952C51.0381 39.2454 51.0973 39.206 51.1624 39.1791C51.2275 39.1523 51.2972 39.1385 51.3677 39.1386H66.5005C66.6425 39.1386 66.7788 39.195 66.8792 39.2955C66.9797 39.396 67.0361 39.5322 67.0361 39.6743C67.0361 39.8164 66.9797 39.9526 66.8792 40.0531C66.7788 40.1535 66.6425 40.21 66.5005 40.21Z" fill="#CCCCCC"/>
<path d="M66.5005 43.0223H51.3677C51.2972 43.0224 51.2275 43.0086 51.1624 42.9818C51.0973 42.9549 51.0381 42.9155 50.9883 42.8657C50.9384 42.816 50.8989 42.7569 50.8719 42.6918C50.8449 42.6268 50.8311 42.557 50.8311 42.4866C50.8311 42.4162 50.8449 42.3464 50.8719 42.2814C50.8989 42.2163 50.9384 42.1572 50.9883 42.1075C51.0381 42.0577 51.0973 42.0183 51.1624 41.9914C51.2275 41.9646 51.2972 41.9508 51.3677 41.9509H66.5005C66.6425 41.9509 66.7788 42.0074 66.8792 42.1078C66.9797 42.2083 67.0361 42.3445 67.0361 42.4866C67.0361 42.6287 66.9797 42.7649 66.8792 42.8654C66.7788 42.9658 66.6425 43.0223 66.5005 43.0223Z" fill="#CCCCCC"/>
<path d="M66.5005 45.8344H51.3677C51.2972 45.8346 51.2275 45.8208 51.1624 45.7939C51.0973 45.7671 51.0381 45.7276 50.9883 45.6779C50.9384 45.6281 50.8989 45.569 50.8719 45.504C50.8449 45.4389 50.8311 45.3692 50.8311 45.2988C50.8311 45.2283 50.8449 45.1586 50.8719 45.0936C50.8989 45.0285 50.9384 44.9694 50.9883 44.9197C51.0381 44.8699 51.0973 44.8305 51.1624 44.8036C51.2275 44.7767 51.2972 44.763 51.3677 44.7631H66.5005C66.6425 44.7631 66.7788 44.8195 66.8792 44.92C66.9797 45.0204 67.0361 45.1567 67.0361 45.2988C67.0361 45.4408 66.9797 45.5771 66.8792 45.6776C66.7788 45.778 66.6425 45.8344 66.5005 45.8344Z" fill="#CCCCCC"/>
<path d="M66.5005 48.6469H51.3677C51.2972 48.6471 51.2275 48.6333 51.1624 48.6064C51.0973 48.5796 51.0381 48.5401 50.9883 48.4904C50.9384 48.4406 50.8989 48.3815 50.8719 48.3165C50.8449 48.2514 50.8311 48.1817 50.8311 48.1113C50.8311 48.0408 50.8449 47.9711 50.8719 47.9061C50.8989 47.841 50.9384 47.7819 50.9883 47.7322C51.0381 47.6824 51.0973 47.643 51.1624 47.6161C51.2275 47.5892 51.2972 47.5755 51.3677 47.5756H66.5005C66.6424 47.5758 66.7784 47.6324 66.8787 47.7328C66.9789 47.8332 67.0352 47.9694 67.0352 48.1113C67.0352 48.2532 66.9789 48.3893 66.8787 48.4897C66.7784 48.5901 66.6424 48.6467 66.5005 48.6469Z" fill="#CCCCCC"/>
<path d="M88.0363 33.6047L75.3633 45.6702L75.548 45.8642L88.221 33.7987L88.0363 33.6047Z" fill="#E6E6E6"/>
<path d="M75.2461 45.9673L76.8546 45.9484L76.8517 45.6803L75.531 45.6962L75.6118 44.378L75.3442 44.3618L75.2461 45.9673Z" fill="#E6E6E6"/>
<path d="M88.3416 33.5013L88.2439 35.107L87.9763 35.091L88.0569 33.7726L86.7363 33.7885L86.7334 33.5206L88.3416 33.5013Z" fill="#E6E6E6"/>
<path d="M81.7924 41.2077C82.606 41.2077 83.2655 40.5482 83.2655 39.7346C83.2655 38.9211 82.606 38.2615 81.7924 38.2615C80.9789 38.2615 80.3193 38.9211 80.3193 39.7346C80.3193 40.5482 80.9789 41.2077 81.7924 41.2077Z" fill="#E6E6E6"/>
<path d="M71.051 5.0814L58.3779 17.1469L58.5626 17.3409L71.2357 5.2754L71.051 5.0814Z" fill="#E6E6E6"/>
<path d="M58.2607 17.4441L59.8693 17.4251L59.8664 17.1571L58.5457 17.1729L58.6264 15.8547L58.3588 15.8386L58.2607 17.4441Z" fill="#E6E6E6"/>
<path d="M71.3543 4.97751L71.2566 6.58316L70.989 6.56714L71.0696 5.2488L69.749 5.26467L69.7461 4.99674L71.3543 4.97751Z" fill="#E6E6E6"/>
<path d="M64.8081 12.6843C65.6216 12.6843 66.2812 12.0247 66.2812 11.2112C66.2812 10.3976 65.6216 9.73807 64.8081 9.73807C63.9945 9.73807 63.335 10.3976 63.335 11.2112C63.335 12.0247 63.9945 12.6843 64.8081 12.6843Z" fill="#E6E6E6"/>
<path d="M121.778 83.4736H121.458V84.9158H121.778V83.4736Z" fill="#3F3D56"/>
</g>
<defs>
<clipPath id="clip0_663_4305">
<rect width="143.237" height="103.456" fill="white"/>
</clipPath>
</defs>
</svg>
