<svg width="24" height="24" viewBox="0 0 24 24" fill="none" xmlns="http://www.w3.org/2000/svg">
<path d="M10.75 14C11.3467 14 11.919 14.2371 12.341 14.659C12.7629 15.081 13 15.6533 13 16.25V17.752L12.992 17.86C12.682 19.987 10.772 21.009 7.567 21.009C4.374 21.009 2.433 19.999 2.014 17.897L2 17.75V16.25C2 15.6533 2.23705 15.081 2.65901 14.659C3.08097 14.2371 3.65326 14 4.25 14H10.75ZM7.5 6C7.95963 6 8.41475 6.09053 8.83939 6.26642C9.26403 6.44231 9.64987 6.70012 9.97487 7.02513C10.2999 7.35013 10.5577 7.73597 10.7336 8.16061C10.9095 8.58525 11 9.04037 11 9.5C11 9.95963 10.9095 10.4148 10.7336 10.8394C10.5577 11.264 10.2999 11.6499 9.97487 11.9749C9.64987 12.2999 9.26403 12.5577 8.83939 12.7336C8.41475 12.9095 7.95963 13 7.5 13C6.57174 13 5.6815 12.6313 5.02513 11.9749C4.36875 11.3185 4 10.4283 4 9.5C4 8.57174 4.36875 7.6815 5.02513 7.02513C5.6815 6.36875 6.57174 6 7.5 6V6ZM19.75 2C20.3467 2 20.919 2.23705 21.341 2.65901C21.7629 3.08097 22 3.65326 22 4.25V7.75C22 8.04547 21.9418 8.33805 21.8287 8.61104C21.7157 8.88402 21.5499 9.13206 21.341 9.34099C21.1321 9.54992 20.884 9.71566 20.611 9.82873C20.3381 9.9418 20.0455 10 19.75 10H18.197L15.656 12.207C15.5112 12.3329 15.3332 12.4144 15.1434 12.4419C14.9535 12.4694 14.7597 12.4417 14.5852 12.3621C14.4106 12.2825 14.2626 12.1544 14.1589 11.993C14.0551 11.8317 14 11.6439 14 11.452V9.986C13.45 9.92451 12.9419 9.66246 12.573 9.24996C12.204 8.83745 12 8.30344 12 7.75V4.25C12 3.65326 12.2371 3.08097 12.659 2.65901C13.081 2.23705 13.6533 2 14.25 2H19.75Z" fill="white"/>
</svg>
