<svg width="540" height="162" viewBox="0 0 540 162" fill="none" xmlns="http://www.w3.org/2000/svg">
<circle cx="476.5" cy="122.5" r="67.5" fill="white"/>
<circle cx="476.5" cy="122.5" r="67.5" fill="#07CA78" fill-opacity="0.2"/>
<circle cx="67.5" cy="-12.5" r="67.5" fill="white"/>
<circle cx="67.5" cy="-12.5" r="67.5" fill="#07CA78" fill-opacity="0.2"/>
<g clip-path="url(#clip0_1228_18405)">
<path opacity="0.1" d="M154.707 56.5164H175.566V84.9498H156.232C156.183 85.2438 156.134 85.5356 156.078 85.8296H175.566V108.756C175.533 108.756 175.5 108.732 175.469 108.719C174.921 108.502 174.373 108.271 173.825 108.027C173.708 107.973 173.593 107.918 173.474 107.866C172.925 107.607 172.377 107.333 171.829 107.044C171.638 106.943 171.447 106.839 171.26 106.732C168.217 105.034 165.451 102.881 163.058 100.347C162.987 100.28 162.921 100.206 162.853 100.142C162.52 99.7801 162.193 99.4142 161.877 99.0401C161.757 98.9024 161.642 98.7627 161.525 98.6291C161.151 98.1727 160.789 97.7 160.44 97.2252C160.386 97.1532 160.337 97.0833 160.286 97.0196C158.854 95.0388 157.667 92.8924 156.75 90.6271C156.721 90.5592 156.695 90.4852 156.668 90.4215C156.384 89.7021 156.127 88.9724 155.905 88.2283C155.811 87.9179 155.718 87.6117 155.64 87.289C155.611 87.1965 155.589 87.1019 155.564 87.0094C154.409 82.4565 154.275 77.7248 154.275 73.0157C154.275 72.4676 154.275 71.9194 154.275 71.3713C154.292 69.4488 154.314 67.5283 154.343 65.6098C154.354 65.1165 154.364 64.6211 154.374 64.1237C154.403 62.8644 154.444 61.6023 154.497 60.3375C154.51 59.9881 154.526 59.6366 154.545 59.2892C154.553 59.0878 154.563 58.8863 154.575 58.6849C154.612 57.9572 154.656 57.2344 154.707 56.5164Z" fill="#07CA78"/>
<path opacity="0.1" d="M175.568 24.8579H164.125C165.986 21.9483 168.018 19.152 170.211 16.4838C171.913 14.3955 173.706 12.3605 175.568 10.3996V24.8579Z" fill="#07CA78"/>
<path opacity="0.1" d="M175.567 25.7335V55.6366H154.773C154.773 55.5503 154.786 55.4619 154.794 55.3755C154.812 55.1392 154.831 54.9048 154.852 54.6685C154.872 54.393 154.899 54.1176 154.926 53.8463C154.952 53.5749 154.979 53.2461 155.012 52.948C155.045 52.65 155.071 52.3478 155.104 52.0498C155.137 51.7517 155.17 51.4537 155.207 51.1577C155.244 50.8617 155.277 50.5616 155.318 50.2656C155.349 50.021 155.38 49.7744 155.415 49.5277C155.462 49.1803 155.511 48.833 155.563 48.4876C155.563 48.4342 155.579 48.3828 155.587 48.3314C155.963 45.8038 156.474 43.298 157.117 40.8248C157.792 38.2308 158.654 35.6891 159.696 33.2195C160.804 30.632 162.101 28.1298 163.577 25.7335H175.567Z" fill="#07CA78"/>
<path opacity="0.1" d="M180.549 56.5164V84.9499H225.103V56.5164H180.549ZM180.549 85.8296V110.249C180.804 110.3 181.054 110.351 181.307 110.395C181.646 110.46 181.988 110.52 182.335 110.571L182.541 110.6C182.676 110.623 182.814 110.641 182.952 110.658C183.295 110.707 183.638 110.744 183.979 110.777C184.14 110.793 184.306 110.806 184.469 110.82L184.865 110.849C185.081 110.865 185.295 110.878 185.509 110.886C185.64 110.886 185.772 110.896 185.905 110.9C186.039 110.904 186.111 110.9 186.218 110.9H186.606C186.783 110.9 186.96 110.9 187.135 110.9H187.361C187.537 110.9 187.714 110.9 187.889 110.884H187.899C188.023 110.884 188.144 110.884 188.267 110.869C188.302 110.871 188.337 110.871 188.372 110.869C188.475 110.869 188.578 110.869 188.676 110.857C188.699 110.855 188.723 110.855 188.746 110.857C188.974 110.843 189.204 110.824 189.437 110.804C189.669 110.783 189.889 110.758 190.121 110.734L190.588 110.676C192.494 110.409 194.38 110.008 196.23 109.476C200.388 108.317 204.452 106.695 208.608 105.509C213.977 103.977 219.913 103.223 225.101 105.087V85.8296H180.549ZM225.103 24.8579V-12.9959C220.226 -13.0495 215.362 -12.4797 210.629 -11.3001C199.346 -8.46558 189.215 -2.31764 180.549 5.5343V24.8558H182.791V25.7335H180.549V55.6366H225.103V25.7335H191.965V24.8538L225.103 24.8579ZM282.344 12.0707C279.553 11.9721 276.778 11.0903 274.266 9.72337C269.469 7.11496 265.633 3.08211 261.35 -0.317658C252.45 -7.4029 241.412 -11.6804 230.088 -12.741V24.8579H293.687L293.845 24.6914L282.344 12.0707ZM288.139 11.043L294.283 17.787V9.2691C292.215 9.53015 290.414 10.1365 288.139 11.0348V11.043ZM294.283 116.312V85.8296H281.181C281.148 85.7001 281.111 85.5686 281.07 85.437C281.109 85.5686 281.144 85.7001 281.179 85.8296H230.088V107.873C230.573 108.232 231.052 108.613 231.527 108.995C232.039 109.414 232.548 109.838 233.054 110.267L233.564 110.689C233.808 110.894 234.057 111.1 234.304 111.295C234.798 111.694 235.297 112.088 235.798 112.479C236.049 112.676 236.301 112.87 236.555 113.061C240.569 116.129 244.804 118.898 249.225 121.346C250.215 121.899 251.216 122.432 252.223 122.952C252.894 123.297 253.568 123.635 254.248 123.967C255.268 124.464 256.295 124.944 257.331 125.406C266.882 129.693 276.982 132.634 287.341 134.146C289.641 134.484 291.95 134.751 294.27 134.947V116.308H294.476L294.283 116.312ZM230.088 25.7335V55.6366H294.283V25.7335H230.088ZM230.088 56.5123V84.9499H294.283V56.5164L230.088 56.5123ZM299.265 9.22799V18.7449L307.105 10.1386C304.507 9.70966 301.893 9.40614 299.265 9.22799ZM299.265 56.5164V84.9499H361.7V56.5164H299.265ZM361.48 118.567L361.7 85.8296H299.265V135.278C303.287 135.446 307.314 135.397 311.331 135.132H311.401C313.319 135.009 315.229 134.834 317.129 134.606H317.173C327.315 133.426 337.233 130.776 346.613 126.742M373.746 61.1864C373.508 60.6383 373.265 60.0902 373.016 59.5421C372.551 58.5143 372.062 57.5154 371.556 56.5184H366.685V84.9499H378.999C378.989 76.8965 376.95 68.6746 373.746 61.1864ZM354.42 143.21V171.37C357.887 168.047 360.821 164.242 362.93 159.893C365.468 154.653 366.629 148.984 366.726 143.208L354.42 143.21ZM354.42 105.612V113.011H358.835C364.599 103.362 368.275 92.6113 369.627 81.4532C370.98 70.2951 369.977 58.9775 366.685 48.2307L354.42 105.612ZM312.077 72.1894C311.752 72.064 311.425 71.9387 311.099 71.8194C307.653 70.5459 304.131 69.4873 300.554 68.6499L288.554 81.8173L288.32 82.0701L288.474 82.2366H331.183C337.644 59.716 335.195 35.5728 324.342 14.8086L312.077 72.1894ZM344.702 25.7335H300.141L299.265 26.5331V55.6366H306.942H361.7V41.536C356.749 35.5483 351.034 30.2355 344.702 25.7335Z" fill="#07CA78"/>
<path opacity="0.1" d="M175.567 40.8187V55.6366H154.773C154.773 55.5503 154.786 55.4619 154.794 55.3756C154.812 55.1392 154.831 54.9049 154.852 54.6685C154.872 54.3931 154.899 54.1176 154.926 53.8463C154.952 53.575 154.979 53.2461 155.012 52.9481C155.045 52.65 155.071 52.3479 155.104 52.0498C155.137 51.7518 155.17 51.4537 155.207 51.1577C155.244 50.8617 155.277 50.5616 155.318 50.2657C155.349 50.0211 155.38 49.7744 155.415 49.5277C155.462 49.1804 155.511 48.833 155.563 48.4877C155.563 48.4342 155.579 48.3828 155.587 48.3314C155.963 45.8038 156.474 43.298 157.117 40.8248L175.567 40.8187Z" fill="#07CA78"/>
<path opacity="0.1" d="M154.707 56.5164H175.566V84.9498H156.232C156.183 85.2438 156.134 85.5356 156.078 85.8296H175.566V108.756C175.533 108.756 175.5 108.732 175.469 108.719C174.921 108.502 174.373 108.271 173.825 108.027C173.708 107.973 173.593 107.918 173.474 107.866C172.925 107.607 172.377 107.333 171.829 107.044C171.638 106.943 171.447 106.839 171.26 106.732C168.217 105.034 165.451 102.881 163.058 100.347C162.987 100.28 162.921 100.206 162.853 100.142C162.52 99.7801 162.193 99.4142 161.877 99.0401C161.757 98.9024 161.642 98.7627 161.525 98.6291C161.151 98.1727 160.789 97.7 160.44 97.2252C160.386 97.1532 160.337 97.0833 160.286 97.0196C158.854 95.0388 157.667 92.8924 156.75 90.6271C156.721 90.5592 156.695 90.4852 156.668 90.4215C156.384 89.7021 156.127 88.9724 155.905 88.2283C155.811 87.9179 155.718 87.6117 155.64 87.289C155.611 87.1965 155.589 87.1019 155.564 87.0094C154.409 82.4565 154.275 77.7248 154.275 73.0157C154.275 72.4676 154.275 71.9194 154.275 71.3713C154.292 69.4488 154.314 67.5283 154.343 65.6098C154.354 65.1165 154.364 64.6211 154.374 64.1237C154.403 62.8644 154.444 61.6023 154.497 60.3375C154.51 59.9881 154.526 59.6366 154.545 59.2892C154.553 59.0878 154.563 58.8863 154.575 58.6849C154.612 57.9572 154.656 57.2344 154.707 56.5164Z" fill="#07CA78"/>
<path opacity="0.1" d="M196.232 30.0171V55.6366H180.547V30.0171H182.783V21.343H191.963V30.0171H196.232Z" fill="#07CA78"/>
<path opacity="0.1" d="M196.23 56.5143H180.547V84.9477H196.23V56.5143Z" fill="#07CA78"/>
<path opacity="0.1" d="M180.549 85.8296H196.232V109.468C194.382 110 192.497 110.401 190.59 110.666C190.434 110.689 190.279 110.707 190.123 110.724C189.893 110.75 189.665 110.775 189.437 110.795L188.748 110.851H188.678L188.374 110.867H188.269C188.146 110.867 188.025 110.882 187.901 110.884H187.891C187.714 110.884 187.54 110.896 187.363 110.9H187.137C186.962 110.9 186.787 110.9 186.608 110.9H186.222H185.907C185.774 110.9 185.642 110.9 185.509 110.884C185.298 110.876 185.084 110.863 184.867 110.847L184.471 110.818C184.306 110.806 184.142 110.789 183.979 110.773C183.634 110.743 183.292 110.704 182.952 110.656L182.541 110.598L182.335 110.569C181.992 110.518 181.651 110.46 181.307 110.395C181.052 110.349 180.802 110.298 180.549 110.245V85.8296Z" fill="#07CA78"/>
<path opacity="0.1" d="M294.281 26.9915H281.348V55.6346H294.281V26.9915Z" fill="#07CA78"/>
<path opacity="0.1" d="M294.283 56.5143V84.9498H230.088V72.6847H264.281V79.92H281.347V56.5143H294.283Z" fill="#07CA78"/>
<path opacity="0.1" d="M294.486 116.319C294.418 116.319 294.35 116.319 294.281 116.306V134.96C291.963 134.769 289.654 134.503 287.354 134.16C276.991 132.649 266.887 129.709 257.331 125.424C254.573 124.18 251.871 122.824 249.224 121.356C244.805 118.907 240.571 116.138 236.556 113.071C235.545 112.298 234.549 111.508 233.568 110.701C232.887 110.138 232.213 109.562 231.527 109.005C231.054 108.621 230.575 108.24 230.088 107.879V85.8295H281.179C281.142 85.698 281.109 85.5685 281.072 85.437C281.111 85.5685 281.148 85.698 281.181 85.8295H294.283V116.304C294.35 116.306 294.418 116.312 294.486 116.319Z" fill="#07CA78"/>
<path opacity="0.1" d="M328.013 24.8578H319.586V22.2391H323.362V14.4386C323.689 14.5592 324.015 14.6825 324.34 14.8086V22.2391H328.011L328.013 24.8578Z" fill="#07CA78"/>
<path opacity="0.1" d="M348.32 55.6366H306.943C306.947 55.6376 306.951 55.6376 306.955 55.6366H306.937H299.266V26.9935H301.44V48.165H311.377V35.6265H319.588V25.7335H328.016V35.6327H336.223V48.1711H348.322L348.32 55.6366Z" fill="#07CA78"/>
<path opacity="0.1" d="M299.266 56.5164V84.9498H348.322V56.5164H299.266ZM361.631 118.417L361.701 95.9096H348.322V85.8378H299.266V135.278C303.287 135.446 307.315 135.397 311.331 135.132H311.401C313.32 135.009 315.229 134.834 317.13 134.606H317.173C327.316 133.425 337.233 130.776 346.614 126.742" fill="#07CA78"/>
<path opacity="0.1" d="M367.549 85.8296H378.992C378.893 91.6034 377.734 97.2745 375.195 102.512C373.086 106.863 370.153 110.668 366.686 113.992V95.9035H367.549V85.8296Z" fill="#07CA78"/>
<path opacity="0.1" d="M379 84.9498H367.549V61.1864H373.746C376.951 68.6745 378.99 76.8964 379 84.9498Z" fill="#07CA78"/>
<path opacity="0.1" d="M294.283 34.9543H287.354V43.9347H294.283V34.9543Z" fill="#07CA78"/>
<path opacity="0.1" d="M294.283 53.5688H287.354V55.6366H294.283V53.5688Z" fill="#07CA78"/>
<path opacity="0.1" d="M294.283 56.5143H287.354V62.5471H294.283V56.5143Z" fill="#07CA78"/>
<path opacity="0.1" d="M294.283 72.1832H287.354V81.1636H294.283V72.1832Z" fill="#07CA78"/>
<path opacity="0.1" d="M294.283 90.7977H287.354V99.7781H294.283V90.7977Z" fill="#07CA78"/>
<path opacity="0.1" d="M294.283 116.304C294.35 116.304 294.418 116.304 294.488 116.319C294.42 116.319 294.352 116.319 294.283 116.306V118.393H287.354V109.412H294.283V116.304Z" fill="#07CA78"/>
<path opacity="0.1" d="M294.283 128.024V134.96C291.964 134.769 289.654 134.503 287.354 134.16V128.024H294.283Z" fill="#07CA78"/>
<path opacity="0.1" d="M259.783 84.29H230.088V84.9498H259.783V84.29Z" fill="#07CA78"/>
<path opacity="0.1" d="M259.783 85.8275H230.088V88.3558H259.783V85.8275Z" fill="#07CA78"/>
<path opacity="0.1" d="M259.783 96.6434H230.088V100.709H259.783V96.6434Z" fill="#07CA78"/>
<path opacity="0.1" d="M259.784 108.997V113.063H236.557C235.546 112.293 234.55 111.502 233.568 110.691C232.886 110.129 232.212 109.554 231.527 108.997H259.784Z" fill="#07CA78"/>
<path opacity="0.1" d="M259.784 121.348V125.424H257.331C254.573 124.18 251.871 122.824 249.225 121.356L259.784 121.348Z" fill="#07CA78"/>
<path opacity="0.1" d="M317.178 59.2707H311.332V65.1165H317.178V59.2707Z" fill="#07CA78"/>
<path opacity="0.1" d="M190.606 32.0335H184.76V37.8793H190.606V32.0335Z" fill="#07CA78"/>
<path opacity="0.1" d="M190.606 45.6121H184.76V51.4578H190.606V45.6121Z" fill="#07CA78"/>
<path opacity="0.1" d="M190.606 59.1906H184.76V65.0363H190.606V59.1906Z" fill="#07CA78"/>
<path opacity="0.1" d="M190.606 72.767H184.76V78.6128H190.606V72.767Z" fill="#07CA78"/>
<path opacity="0.1" d="M190.606 86.3455H184.76V92.1913H190.606V86.3455Z" fill="#07CA78"/>
<path opacity="0.1" d="M190.606 99.924H184.76V105.77H190.606V99.924Z" fill="#07CA78"/>
<path opacity="0.1" d="M339.494 59.2707H333.648V65.1165H339.494V59.2707Z" fill="#07CA78"/>
<path opacity="0.1" d="M317.178 73.6899H311.332V79.5357H317.178V73.6899Z" fill="#07CA78"/>
<path opacity="0.1" d="M339.494 73.6899H333.648V79.5357H339.494V73.6899Z" fill="#07CA78"/>
<path opacity="0.1" d="M317.178 88.1071H311.332V93.9528H317.178V88.1071Z" fill="#07CA78"/>
<path opacity="0.1" d="M339.494 88.1071H333.648V93.9528H339.494V88.1071Z" fill="#07CA78"/>
<path opacity="0.1" d="M317.178 102.526H311.332V108.372H317.178V102.526Z" fill="#07CA78"/>
<path opacity="0.1" d="M339.494 102.526H333.648V108.372H339.494V102.526Z" fill="#07CA78"/>
<path opacity="0.1" d="M317.178 116.945H311.332V122.791H317.178V116.945Z" fill="#07CA78"/>
<path opacity="0.1" d="M339.494 116.945H333.648V122.791H339.494V116.945Z" fill="#07CA78"/>
<path opacity="0.1" d="M311.332 135.132V131.363H317.176V134.596L311.332 135.132Z" fill="#07CA78"/>
<path opacity="0.1" d="M155.562 48.3253V51.6695H175.566V48.3253H155.562ZM157.554 51.4599H155.91V48.537H157.554V51.4599ZM159.546 51.4599H157.902V48.537H159.546V51.4599ZM161.534 51.4599H159.889V48.537H161.534V51.4599ZM163.525 51.4599H161.881V48.537H163.525V51.4599ZM165.515 51.4599H163.871V48.537H165.515V51.4599ZM167.507 51.4599H165.863V48.537H167.507V51.4599ZM169.499 51.4599H167.854V48.537H169.499V51.4599ZM171.488 51.4599H169.844V48.537H171.488V51.4599ZM173.478 51.4599H171.834V48.537H173.478V51.4599ZM175.47 51.4599H173.825V48.537H175.47V51.4599Z" fill="#07CA78"/>
<path opacity="0.1" d="M155.562 58.06V61.4043H175.566V58.06H155.562ZM157.554 61.1946H155.91V58.2717H157.554V61.1946ZM159.546 61.1946H157.902V58.2717H159.546V61.1946ZM161.534 61.1946H159.889V58.2717H161.534V61.1946ZM163.525 61.1946H161.881V58.2717H163.525V61.1946ZM165.515 61.1946H163.871V58.2717H165.515V61.1946ZM167.507 61.1946H165.863V58.2717H167.507V61.1946ZM169.499 61.1946H167.854V58.2717H169.499V61.1946ZM171.488 61.1946H169.844V58.2717H171.488V61.1946ZM173.478 61.1946H171.834V58.2717H173.478V61.1946ZM175.47 61.1946H173.825V58.2717H175.47V61.1946Z" fill="#07CA78"/>
<path opacity="0.1" d="M155.562 67.7968V71.139H175.566V67.7968H155.562ZM157.554 70.9273H155.91V68.0044H157.554V70.9273ZM159.546 70.9273H157.902V68.0044H159.546V70.9273ZM161.534 70.9273H159.889V68.0044H161.534V70.9273ZM163.525 70.9273H161.881V68.0044H163.525V70.9273ZM165.515 70.9273H163.871V68.0044H165.515V70.9273ZM167.507 70.9273H165.863V68.0044H167.507V70.9273ZM169.499 70.9273H167.854V68.0044H169.499V70.9273ZM171.488 70.9273H169.844V68.0044H171.488V70.9273ZM173.478 70.9273H171.834V68.0044H173.478V70.9273ZM175.47 70.9273H173.825V68.0044H175.47V70.9273Z" fill="#07CA78"/>
<path opacity="0.1" d="M155.562 77.5316V80.8738H175.566V77.5316H155.562ZM157.554 80.6642H155.91V77.7372H157.554V80.6642ZM159.546 80.6642H157.902V77.7372H159.546V80.6642ZM161.534 80.6642H159.889V77.7372H161.534V80.6642ZM163.525 80.6642H161.881V77.7372H163.525V80.6642ZM165.515 80.6642H163.871V77.7372H165.515V80.6642ZM167.507 80.6642H165.863V77.7372H167.507V80.6642ZM169.499 80.6642H167.854V77.7372H169.499V80.6642ZM171.488 80.6642H169.844V77.7372H171.488V80.6642ZM173.478 80.6642H171.834V77.7372H173.478V80.6642ZM175.47 80.6642H173.825V77.7372H175.47V80.6642Z" fill="#07CA78"/>
<path opacity="0.1" d="M155.66 87.2622C155.738 87.5788 155.831 87.8912 155.925 88.2016V87.4739H157.57V90.3948H156.688C156.713 90.4647 156.739 90.5366 156.768 90.6003H175.576V87.2622H155.66ZM159.566 90.3948H157.921V87.4739H159.566V90.3948ZM161.553 90.3948H159.909V87.4739H161.553V90.3948ZM163.545 90.3948H161.901V87.4739H163.545V90.3948ZM165.535 90.3948H163.89V87.4739H165.535V90.3948ZM167.526 90.3948H165.882V87.4739H167.526V90.3948ZM169.518 90.3948H167.874V87.4739H169.518V90.3948ZM171.508 90.3948H169.864V87.4739H171.508V90.3948ZM173.498 90.3948H171.853V87.4739H173.498V90.3948ZM175.489 90.3948H173.845V87.4739H175.489V90.3948Z" fill="#07CA78"/>
<path opacity="0.1" d="M160.293 96.997C160.346 97.0628 160.396 97.1368 160.447 97.2026H161.534V98.6065L161.886 99.0176V97.1943H163.53V100.142H162.854C162.92 100.21 162.984 100.282 163.06 100.347H175.563V96.997H160.293ZM165.526 100.142H163.882V97.2067H165.526V100.142ZM167.518 100.142H165.874V97.2067H167.518V100.142ZM169.51 100.142H167.865V97.2067H169.51V100.142ZM171.499 100.142H169.855V97.2067H171.499V100.142ZM173.489 100.142H171.845V97.2067H173.489V100.142ZM175.481 100.142H173.837V97.2067H175.481V100.142Z" fill="#07CA78"/>
<path opacity="0.1" d="M171.268 106.732C171.457 106.839 171.648 106.937 171.839 107.042V106.939H173.483V107.866C173.603 107.918 173.716 107.973 173.833 108.027V106.939H175.477V108.719C175.508 108.733 175.541 108.745 175.574 108.754V106.732H171.268Z" fill="#07CA78"/>
<path opacity="0.1" d="M294.282 116.304H294.488H294.282ZM281.072 85.437C281.111 85.5686 281.146 85.7001 281.181 85.8296C281.15 85.7001 281.113 85.5686 281.072 85.437ZM182.793 24.8579V25.7335H191.975V24.8538L182.793 24.8579ZM294.284 116.304H294.49H294.284ZM281.072 85.437C281.111 85.5686 281.146 85.7001 281.181 85.8296C281.15 85.7001 281.113 85.5686 281.072 85.437ZM294.282 116.304H294.488H294.282ZM281.072 85.437C281.111 85.5686 281.146 85.7001 281.181 85.8296C281.15 85.7001 281.113 85.5686 281.072 85.437Z" fill="#07CA78"/>
<path opacity="0.1" d="M319.765 164.361C330.826 164.361 339.794 162.921 339.794 161.144C339.794 159.368 330.826 157.928 319.765 157.928C308.703 157.928 299.736 159.368 299.736 161.144C299.736 162.921 308.703 164.361 319.765 164.361Z" fill="#07CA78"/>
<path opacity="0.1" d="M229.435 161.144C240.496 161.144 249.463 159.704 249.463 157.928C249.463 156.151 240.496 154.711 229.435 154.711C218.373 154.711 209.406 156.151 209.406 157.928C209.406 159.704 218.373 161.144 229.435 161.144Z" fill="#07CA78"/>
<path d="M252.493 72.8677C252.488 72.8473 252.478 72.8287 252.462 72.8143C252.156 72.5121 248.251 66.989 248.251 66.989C248.251 66.989 248.045 66.3724 247.712 65.5708C247.819 65.4326 247.899 65.2757 247.949 65.1083C247.967 65.0373 247.98 64.9652 247.988 64.8925C247.988 64.8698 248.004 64.8513 248.01 64.8287C248.082 64.55 248.075 64.2569 247.99 63.9819C247.967 64.0524 247.939 64.1211 247.905 64.1874C247.828 63.948 247.725 63.7178 247.597 63.5009C247.079 62.6088 246.339 61.8565 245.794 60.987C244.97 59.6361 244.642 58.0398 244.867 56.4732C244.867 56.5534 244.867 56.6356 244.867 56.7157C244.888 56.405 244.929 56.096 244.991 55.7908C245.077 55.4433 245.191 55.1037 245.334 54.7754C245.823 53.6551 246.615 52.6788 247.096 51.5544C247.257 51.1752 247.38 50.7806 247.461 50.3766C247.631 49.702 247.693 49.0048 247.644 48.3109C247.644 48.4753 247.618 48.6398 247.593 48.8021C247.541 47.1338 246.867 45.545 245.704 44.3479C244.025 42.6604 241.614 42.0047 239.307 41.6594C238.338 41.5463 237.413 41.193 236.615 40.6316C235.729 40.0581 234.584 39.9204 233.548 40.0458C232.357 40.1745 231.251 40.7215 230.426 41.5895C229.33 42.794 228.855 44.5 227.577 45.5154C226.802 46.1321 225.819 46.4198 224.917 46.8392C224.015 47.2585 223.162 47.8669 222.872 48.7672C222.872 48.7672 222.872 48.7549 222.872 48.7487V48.8001L222.859 48.833C222.559 49.8977 223.139 50.981 223.441 52.0436C223.756 53.1433 223.776 54.3047 223.793 55.4413C223.815 56.8309 223.836 58.2224 223.813 59.614C223.803 60.1607 223.784 60.7137 223.743 61.2584C223.257 61.4054 222.784 61.5953 222.331 61.8257C221.871 62.1258 220.148 63.986 220.148 63.986L216.779 76.8574L216.825 76.9088L216.779 77.0835L216.95 77.0445C217.427 77.5583 218.851 79.0218 220.389 79.9345L220.533 82.4586C220.533 82.4586 220.705 84.9909 223.034 86.0372C223.088 86.9149 223.254 90.4791 222.483 91.8912C221.949 92.9228 221.698 94.0774 221.756 95.2375C221.756 95.2375 222.025 97.3793 221.719 98.5057C221.54 99.2585 221.526 100.041 221.68 100.8C221.68 100.8 221.68 101.048 221.68 101.476C221.68 103.755 221.706 111.061 221.68 111.887C221.641 112.863 221.68 127.303 221.68 127.303C221.68 127.303 221.488 134.52 220.876 136.475C220.263 138.429 220.417 144.902 220.417 144.902C220.417 144.902 220.033 152.612 221.392 154.133C221.392 154.201 221.379 154.271 221.377 154.339C221.377 154.37 221.377 154.405 221.377 154.435C221.361 155.021 221.474 155.644 221.978 155.835C223.005 156.23 224.364 157.414 224.621 157.753C224.878 158.092 226.372 158.937 228.321 158.711C229.542 158.574 230.77 158.517 231.998 158.542C231.998 158.542 232.767 158.402 232.518 157.447C232.358 156.851 231.758 155.934 231.33 155.332C231.408 155.352 231.484 155.369 231.556 155.383L231.63 155.397H231.688C231.719 155.399 231.751 155.399 231.782 155.397H231.823C231.862 155.4 231.9 155.4 231.938 155.397C232.454 155.348 234.378 156.244 234.722 156.836C235.065 157.428 236.276 157.878 237.188 157.991C237.731 158.057 239.1 157.946 240.249 157.798C240.827 157.738 241.401 157.634 241.963 157.486C242.234 157.383 242.292 157.054 242.214 156.684C242.122 156.214 241.87 155.79 241.503 155.484C241.17 155.247 240.73 154.624 240.405 154.115L240.319 153.977C240.892 153.43 241.928 151.642 242.243 151.272C242.625 150.822 241.626 134.359 241.626 134.359V126.107L243.157 118.296L244.228 114.162L245.147 107.922C245.147 107.922 246.754 100.633 246.259 99.9178C246.259 99.9035 245.848 92.3989 245.416 90.5962C245.229 89.7925 245.276 87.9837 245.387 86.2242C245.503 86.109 245.584 85.9632 245.621 85.8039C245.657 85.6445 245.648 85.4781 245.593 85.3239C245.562 85.2185 245.522 85.1161 245.474 85.0177C245.474 84.9868 245.474 84.9539 245.474 84.9231C246.362 84.5145 247.29 84.1991 248.243 83.9817C249.774 83.6816 249.392 82.8923 249.392 82.8923C249.392 82.8923 249.737 82.216 249.965 81.8029C250.193 81.3897 250.004 77.7433 249.965 77.4432C249.951 77.3219 249.856 76.6519 249.747 75.8913C250.238 75.5419 250.878 75.1082 251.574 74.6971C252.9 73.9119 252.602 73.0835 252.493 72.8677ZM232.514 124.98C232.514 124.98 231.365 127.911 231.825 128.662C232.286 129.412 231.749 132.197 231.749 132.197L231.365 136.331C231.365 136.331 230.294 143.998 230.676 145.8C230.976 147.214 231.087 151.438 231.122 153.2C231.096 153.21 231.071 153.223 231.046 153.237L230.995 153.264C231.172 152.571 231.098 151.169 230.22 148.349L230.146 136.701C230.146 136.701 230.01 123.245 231.073 121.741C232.136 120.236 232.512 117.681 232.512 117.681C232.512 117.681 232.282 121.367 232.132 122.343C231.982 123.319 232.514 124.98 232.514 124.98ZM230.374 153.934C230.364 153.958 230.352 153.983 230.343 154.006L230.286 153.932C230.315 153.935 230.345 153.935 230.374 153.934Z" fill="url(#paint0_linear_1228_18405)"/>
<path d="M242.093 158.55C241.499 158.779 238.278 159.167 237.378 159.058C236.477 158.949 235.285 158.493 234.946 157.897C234.607 157.301 232.706 156.4 232.196 156.458C231.987 156.464 231.778 156.435 231.579 156.372C231.227 156.265 230.884 156.133 230.551 155.977C230.505 155.718 230.513 155.452 230.574 155.196C230.586 155.144 230.601 155.093 230.619 155.044C230.739 154.707 230.987 154.43 231.31 154.275L231.384 154.24C231.526 154.179 231.675 154.133 231.828 154.104C233.443 153.794 240.109 154.417 240.109 154.417C240.109 154.417 240.296 154.752 240.553 155.167C240.874 155.681 241.31 156.308 241.639 156.544C242.003 156.856 242.25 157.282 242.34 157.753C242.418 158.117 242.36 158.45 242.093 158.55Z" fill="white"/>
<path opacity="0.1" d="M242.092 158.55C241.498 158.779 238.279 159.167 237.379 159.058C236.479 158.949 235.287 158.491 234.945 157.897C234.604 157.303 232.707 156.4 232.197 156.458C231.687 156.516 230.553 155.977 230.553 155.977C230.553 155.977 230.376 155.155 230.89 154.594L231.918 155.323C231.918 155.323 234.668 156.176 235.178 156.968C235.687 157.759 236.616 158.201 237.959 158.281C238.962 158.347 241.266 157.956 242.345 157.761C242.417 158.117 242.362 158.45 242.092 158.55Z" fill="black"/>
<path d="M232.254 159.599C231.041 159.575 229.829 159.632 228.624 159.769C226.694 159.995 225.22 159.153 224.963 158.805C224.706 158.458 223.376 157.284 222.354 156.873C221.855 156.68 221.738 156.051 221.76 155.463C221.76 155.432 221.76 155.397 221.76 155.367C221.779 154.994 221.834 154.624 221.925 154.263L229.923 154.092L230.615 155.031L230.722 155.175L231.144 155.749C231.144 155.749 231.335 156 231.586 156.365C232.009 156.982 232.601 157.893 232.759 158.495C233.012 159.459 232.254 159.599 232.254 159.599Z" fill="white"/>
<path opacity="0.1" d="M232.254 159.599C231.041 159.575 229.829 159.632 228.624 159.769C226.696 159.995 225.22 159.153 224.965 158.805C224.71 158.458 223.376 157.274 222.354 156.877C221.855 156.684 221.738 156.055 221.76 155.467C222.332 155.601 223.532 155.942 224.003 156.536C224.62 157.329 225.723 158.664 227.292 158.748C228.558 158.816 231.641 158.589 232.772 158.499C233.014 159.459 232.254 159.599 232.254 159.599Z" fill="black"/>
<path opacity="0.1" d="M231.302 154.267C231.209 154.953 230.924 155.138 230.718 155.179C230.668 155.189 230.616 155.189 230.566 155.179C230.539 155.178 230.512 155.173 230.486 155.167C230.486 155.167 223.304 156.754 221.853 155.469C221.816 155.436 221.782 155.401 221.75 155.362C221.769 154.99 221.824 154.62 221.914 154.259L229.912 154.088L230.605 155.027C230.725 154.69 230.973 154.414 231.296 154.259L231.302 154.267Z" fill="black"/>
<path opacity="0.1" d="M240.551 155.159C240.39 155.336 240.257 155.436 240.172 155.401C239.794 155.249 236.695 154.721 235.71 155.175C234.725 155.63 231.394 155.249 231.394 155.249C231.394 155.249 231.393 154.855 231.375 154.222C231.517 154.16 231.666 154.114 231.819 154.086C233.435 153.776 240.101 154.398 240.101 154.398C240.101 154.398 240.296 154.744 240.551 155.159Z" fill="black"/>
<path d="M245.242 108.664L244.333 114.941L243.277 119.102L241.764 126.966V135.291C241.764 135.291 242.747 151.854 242.368 152.306C241.99 152.758 240.553 155.334 240.175 155.184C239.797 155.033 236.697 154.503 235.713 154.955C234.728 155.408 231.396 155.031 231.396 155.031C231.396 155.031 231.32 148.604 230.942 146.789C230.564 144.974 231.622 137.26 231.622 137.26L232 133.102C232 133.102 232.531 130.302 232.077 129.546C231.622 128.789 232.757 125.846 232.757 125.846C232.757 125.846 232.229 124.179 232.381 123.196C232.533 122.214 232.757 118.508 232.757 118.508C232.757 118.508 232.381 121.081 231.33 122.592C230.28 124.103 230.414 137.642 230.414 137.642L230.488 149.358C232.381 155.562 230.488 154.955 230.488 154.955C230.488 154.955 223.306 156.544 221.855 155.258C220.403 153.971 220.819 145.872 220.819 145.872C220.819 145.872 220.669 139.369 221.273 137.404C221.877 135.439 222.068 128.177 222.068 128.177C222.068 128.177 222.029 113.655 222.068 112.674C222.097 111.852 222.068 104.491 222.068 102.191C222.068 101.764 222.068 101.511 222.068 101.511L222.936 99.3567L233.213 98.0699H238.13C238.13 98.0699 245.53 99.8089 246.294 100.559C246.311 100.572 246.325 100.587 246.335 100.604C246.831 101.33 245.242 108.664 245.242 108.664Z" fill="#07CA78"/>
<path opacity="0.1" d="M232.764 141.638C232.764 141.638 235.025 147.083 236.091 147.461C237.158 147.839 232.764 141.638 232.764 141.638Z" fill="black"/>
<path opacity="0.1" d="M233.6 149.654C233.6 149.654 241.234 150.033 241.158 150.865C241.082 151.697 233.6 149.654 233.6 149.654Z" fill="black"/>
<path opacity="0.1" d="M223.385 147.478C223.687 147.763 229.208 148.3 228.754 148.822C228.299 149.344 223.839 150.359 223.839 150.359L223.385 147.478Z" fill="black"/>
<path opacity="0.1" d="M222.479 138.084C222.479 138.31 223.613 145.344 223.917 145.646C224.222 145.948 226.715 146.25 226.715 146.25L222.479 138.084Z" fill="black"/>
<path d="M230.711 41.9409C229.627 43.1516 229.159 44.8679 227.897 45.8916C227.13 46.5082 226.16 46.8021 225.268 47.2215C224.376 47.6408 223.492 48.28 223.227 49.2297C222.931 50.2985 223.502 51.39 223.802 52.4588C224.113 53.5647 224.131 54.7199 224.15 55.8771C224.17 57.2769 224.193 58.6767 224.168 60.0764C224.131 62.2573 223.95 64.5389 222.793 66.3868C226.972 67.7167 231.416 67.8975 235.798 68.0681C236.64 68.1282 237.486 68.1069 238.324 68.0044C239.05 67.8597 239.769 67.6779 240.476 67.4597C241.875 67.0896 243.317 66.905 244.764 66.9109C245.395 66.9109 246.038 66.95 246.647 66.7855C247.255 66.6211 247.841 66.1997 248.006 65.5913C248.151 65.0445 247.938 64.4628 247.658 63.9716C247.148 63.0754 246.425 62.3272 245.878 61.4433C245.32 60.5097 244.989 59.4581 244.911 58.3731C244.834 57.2882 245.012 56.2002 245.432 55.1967C245.917 54.0683 246.698 53.0858 247.175 51.9552C247.664 50.7414 247.793 49.413 247.549 48.1275C247.305 46.8421 246.697 45.6537 245.798 44.7035C244.139 43.0057 241.759 42.3479 239.481 41.9985C238.522 41.8852 237.608 41.5317 236.822 40.9707C235.948 40.3952 234.815 40.2554 233.792 40.3829C232.611 40.5152 231.517 41.0683 230.711 41.9409Z" fill="#3F3D56"/>
<g opacity="0.1">
<path d="M245.496 54.0107C245.077 55.0012 244.897 56.0765 244.972 57.1494C245.018 56.3822 245.195 55.6286 245.496 54.9213C245.979 53.7928 246.76 52.8103 247.237 51.6798C247.626 50.7358 247.79 49.7138 247.716 48.6953C247.673 49.4092 247.511 50.1109 247.237 50.7713C246.76 51.9018 245.979 52.8823 245.496 54.0107Z" fill="black"/>
<path d="M224.211 55.5976C224.223 56.4033 224.236 57.2111 224.238 58.0169C224.238 56.9069 224.228 55.799 224.211 54.6911C224.195 53.5421 224.174 52.3787 223.864 51.2708C223.658 50.5678 223.354 49.8546 223.247 49.1454C223.064 50.1526 223.584 51.1742 223.864 52.1793C224.174 53.2769 224.195 54.4486 224.211 55.5976Z" fill="black"/>
<path d="M246.717 65.6098C246.1 65.7763 245.467 65.7393 244.836 65.7352C243.39 65.726 241.949 65.9071 240.55 66.2737C239.842 66.491 239.124 66.6721 238.398 66.8164C237.559 66.9205 236.713 66.9426 235.87 66.8822C231.635 66.7157 227.342 66.5368 223.286 65.3262C223.166 65.5949 223.028 65.8558 222.875 66.1072C227.054 67.4351 231.498 67.618 235.878 67.7886C236.721 67.849 237.568 67.827 238.406 67.7228C239.13 67.58 239.845 67.3995 240.55 67.1823C241.946 66.8142 243.384 66.6311 244.828 66.6376C245.459 66.6376 246.1 66.6766 246.708 66.5101C247.317 66.3436 247.903 65.9264 248.067 65.3179C248.136 65.0361 248.129 64.741 248.046 64.4629C247.863 65.0384 247.298 65.4392 246.717 65.6098Z" fill="black"/>
</g>
<path d="M240.629 63.174C240.477 63.5152 239.835 66.4628 239.683 66.765C239.531 67.0671 238.701 71.9037 238.625 72.175C238.549 72.4463 233.151 71.0404 233.151 71.0404L229.901 68.3169L226.561 64.9931C226.561 64.9931 226.462 61.9942 228.923 61.0322C229.09 60.9666 229.262 60.913 229.437 60.8719C232.421 60.1545 232.121 51.0796 232.121 51.0796L238.247 53.725C238.247 53.725 237.112 59.0199 237.151 60.0415C237.161 60.3848 237.43 60.5985 237.782 60.728C238.325 60.8826 238.891 60.9438 239.455 60.9089C239.455 60.9089 240.781 62.8349 240.629 63.174Z" fill="#FBBEBE"/>
<path d="M251.594 73.1185L252.464 73.3466C252.464 73.3466 253.107 74.325 251.594 75.2356C250.634 75.8191 249.712 76.4638 248.834 77.1657L244.363 78.5264L243.502 75.8235L247.662 72.6663L251.594 73.1185Z" fill="#07CA78"/>
<path opacity="0.1" d="M251.594 73.1185L252.464 73.3466C252.464 73.3466 253.107 74.325 251.594 75.2356C250.634 75.8191 249.712 76.4638 248.834 77.1657L244.363 78.5264L243.502 75.8235L247.662 72.6663L251.594 73.1185Z" fill="black"/>
<path d="M218.969 75.7289L217.23 77.4309C217.23 77.4309 220.367 81.0608 222.78 81.2869C225.193 81.5131 226.749 78.5264 226.749 78.5264L224.661 75.2377L218.969 75.7289Z" fill="#07CA78"/>
<path opacity="0.1" d="M218.969 75.7289L217.23 77.4309C217.23 77.4309 220.367 81.0608 222.78 81.2869C225.193 81.5131 226.749 78.5264 226.749 78.5264L224.661 75.2377L218.969 75.7289Z" fill="black"/>
<path opacity="0.1" d="M235.487 57.0097C238.828 57.0097 241.536 54.3013 241.536 50.9604C241.536 47.6195 238.828 44.9111 235.487 44.9111C232.146 44.9111 229.438 47.6195 229.438 50.9604C229.438 54.3013 232.146 57.0097 235.487 57.0097Z" fill="black"/>
<path d="M235.487 56.5554C238.828 56.5554 241.536 53.8471 241.536 50.5061C241.536 47.1652 238.828 44.4568 235.487 44.4568C232.146 44.4568 229.438 47.1652 229.438 50.5061C229.438 53.8471 232.146 56.5554 235.487 56.5554Z" fill="#FBBEBE"/>
<path opacity="0.1" d="M246.34 101.291C244.962 101.449 243.605 101.752 242.292 102.197C240.031 102.95 222.313 102.21 222.066 102.197C222.066 101.77 222.066 101.517 222.066 101.517L222.934 99.3628L233.211 98.0761H238.128C238.128 98.0761 245.528 99.815 246.292 100.565C246.323 101.018 246.34 101.291 246.34 101.291Z" fill="black"/>
<path opacity="0.1" d="M240.629 63.174C240.477 63.5153 239.835 66.4628 239.683 66.765C239.531 67.0671 238.701 71.9037 238.625 72.175C238.549 72.4463 233.151 71.0404 233.151 71.0404L229.901 68.3169L226.561 64.9931C226.561 64.9931 226.462 61.9942 228.923 61.0322L235.032 68.0558L237.782 60.728C238.325 60.8826 238.891 60.9438 239.455 60.9089C239.455 60.9089 240.781 62.8349 240.629 63.174Z" fill="black"/>
<path d="M235.032 68.282L228.779 61.0878C228.413 60.8541 227.995 60.7151 227.562 60.6832C227.129 60.6512 226.694 60.7274 226.298 60.9048C224.898 61.5112 223.159 62.0025 222.705 62.3046C222.251 62.6068 220.549 64.4773 220.549 64.4773L225.618 77.7372L223.385 86.4709C223.385 86.4709 223.727 90.9333 222.857 92.5592C222.328 93.5988 222.08 94.7589 222.138 95.9241C222.138 95.9241 222.403 98.0803 222.101 99.2128C221.924 99.9701 221.911 100.756 222.062 101.519C222.062 101.519 240.025 102.275 242.292 101.519C243.604 101.073 244.961 100.769 246.339 100.613C246.339 100.613 245.928 93.0484 245.517 91.2334C245.106 89.4185 245.858 82.4997 245.858 82.4997L245.367 75.0876L248.314 67.4824C248.314 67.4824 246.717 62.6068 245.052 62.1155C245.052 62.1155 242.029 61.3961 241.385 61.0569C240.742 60.7178 238.851 60.4136 238.851 60.4136L237.858 60.7466L235.032 68.282Z" fill="#07CA78"/>
<path opacity="0.1" d="M243.757 74.8374L230.599 73.9427C230.266 73.92 229.978 74.1716 229.955 74.5046L228.543 95.2786C228.52 95.6116 228.771 95.8999 229.104 95.9226L242.262 96.8172C242.595 96.8399 242.883 96.5883 242.906 96.2553L244.319 75.4813C244.341 75.1483 244.09 74.86 243.757 74.8374Z" fill="black"/>
<path d="M244.21 74.3862L231.052 73.4915C230.719 73.4689 230.431 73.7204 230.408 74.0534L228.996 94.8275C228.973 95.1605 229.225 95.4487 229.558 95.4714L242.715 96.3661C243.048 96.3887 243.336 96.1371 243.359 95.8042L244.772 75.0301C244.794 74.6971 244.543 74.4088 244.21 74.3862Z" fill="#3F3D56"/>
<path d="M243.775 76.0146L231.262 75.1637L229.976 94.0757L242.489 94.9266L243.775 76.0146Z" fill="white"/>
<path opacity="0.1" d="M242.654 80.8418L232.432 80.1262L232.232 82.9751L242.454 83.6907L242.654 80.8418Z" fill="black"/>
<path opacity="0.1" d="M242.282 92.1632L240.66 92.0529L240.559 93.5376L242.181 93.6479L242.282 92.1632Z" fill="black"/>
<path opacity="0.1" d="M240.682 88.5798L232.379 88.0152L232.278 89.4999L240.581 90.0646L240.682 88.5798Z" fill="black"/>
<path d="M242.226 75.3075L233.58 74.7196L233.425 77.0021L242.071 77.59L242.226 75.3075Z" fill="#3F3D56"/>
<path opacity="0.1" d="M242.226 75.3075L233.58 74.7196L233.425 77.0021L242.071 77.59L242.226 75.3075Z" fill="black"/>
<path opacity="0.1" d="M235.789 100.874C235.789 100.874 235.713 112.068 232.764 118.495C232.764 118.495 236.32 110.025 236.32 109.686C236.32 109.346 238.285 105.79 237.758 104.732C237.232 103.673 235.789 100.874 235.789 100.874Z" fill="black"/>
<path opacity="0.1" d="M235.949 48.9933C235.836 48.0025 236.078 47.0038 236.633 46.1752C236.567 47.0057 236.802 47.8322 237.295 48.5039C237.788 49.1756 238.505 49.6477 239.317 49.834C239.248 49.7738 239.199 49.6941 239.176 49.6053C239.152 49.5165 239.157 49.4228 239.188 49.3365C239.609 49.8134 239.932 50.3787 240.409 50.798C240.886 51.2173 241.601 51.4681 242.162 51.17C242.925 50.7589 242.933 49.6757 242.736 48.833C242.312 47.0382 241.443 45.3791 240.21 44.0087C239.902 43.5945 239.502 43.2572 239.042 43.0233C238.582 42.7893 238.074 42.6651 237.558 42.6603C236.39 42.5699 235.178 42.6727 234.131 43.1968C233.543 43.5181 232.991 43.9034 232.487 44.3458L229.609 46.6932C229.333 46.8927 229.096 47.1423 228.911 47.4291C228.787 47.6688 228.713 47.9309 228.693 48.1999C228.619 48.9686 228.761 49.7427 229.103 50.4351C229.445 51.1275 229.974 51.7109 230.629 52.1197C230.615 51.5121 230.782 50.9141 231.109 50.4017C231.436 49.8893 231.908 49.4856 232.465 49.242C232.552 49.3149 232.622 49.4057 232.672 49.5081C232.721 49.6106 232.748 49.7224 232.75 49.836L233.357 48.7548C233.447 48.5581 233.589 48.3897 233.768 48.2677C234.142 48.0622 234.608 48.3047 234.927 48.5945C235.246 48.8843 235.556 49.2461 235.983 49.2913L236 47.6819" fill="black"/>
<path d="M235.948 48.7672C235.835 47.7757 236.077 46.7763 236.633 45.9471C236.448 47.5915 237.687 49.2893 239.319 49.6058C239.25 49.5462 239.2 49.4668 239.177 49.3784C239.154 49.2899 239.158 49.1964 239.19 49.1105C239.611 49.5873 239.934 50.1505 240.411 50.5719C240.887 50.9933 241.603 51.242 242.164 50.9419C242.926 50.5308 242.935 49.4476 242.737 48.6069C242.314 46.8121 241.445 45.153 240.211 43.7827C239.828 43.316 239.346 42.9409 238.799 42.685C238.403 42.5386 237.987 42.4541 237.566 42.4343C236.398 42.3438 235.185 42.4445 234.139 42.9687C233.551 43.2914 232.999 43.6774 232.495 44.1198L229.617 46.4671C229.34 46.6661 229.103 46.9158 228.918 47.203C228.795 47.4426 228.72 47.7048 228.7 47.9738C228.627 48.7423 228.769 49.516 229.111 50.208C229.453 50.9001 229.982 51.4831 230.637 51.8915C230.623 51.284 230.791 50.6863 231.117 50.174C231.444 49.6617 231.916 49.2579 232.472 49.0139C232.559 49.087 232.63 49.1778 232.679 49.2802C232.728 49.3826 232.755 49.4943 232.758 49.6079L233.362 48.5308C233.452 48.3337 233.594 48.1652 233.773 48.0437C234.147 47.8381 234.614 48.0807 234.933 48.3705C235.251 48.6603 235.562 49.02 235.989 49.0673L236.006 47.4558" fill="#3F3D56"/>
<path d="M238.814 86.9231C238.285 86.6559 229.55 88.0187 229.55 88.0187C229.55 88.0187 228.111 87.6076 224.633 87.0361C221.155 86.4647 220.933 83.0649 220.933 83.0649L220.553 76.2592L221.726 75.2315L226.754 78.5203C226.754 78.5203 226.832 80.1832 226.754 80.4833C226.705 80.6888 226.573 80.9334 226.586 81.0999C226.589 81.145 226.608 81.1876 226.638 81.221C226.669 81.2545 226.71 81.2769 226.754 81.2849C227.095 81.3712 231.745 82.1235 231.745 82.1235C231.745 82.1235 242.522 81.3856 245.208 85.0156C245.421 85.282 245.582 85.586 245.683 85.9118C246.349 88.3927 239.293 87.1595 238.814 86.9231Z" fill="#FBBEBE"/>
<path opacity="0.1" d="M245.689 85.9262C245.278 86.1091 245.023 86.2407 245.023 86.2407C245.023 86.2407 241.167 86.1276 239.001 85.3424C236.834 84.5573 234.201 84.697 234.201 84.697C234.201 84.697 225.173 83.1431 226.573 81.1143C226.577 81.1594 226.596 81.202 226.626 81.2354C226.657 81.2689 226.697 81.2913 226.742 81.2993C227.083 81.3856 231.732 82.138 231.732 82.138C231.732 82.138 242.509 81.4 245.196 85.03C245.415 85.295 245.583 85.5991 245.689 85.9262Z" fill="black"/>
<path d="M249.439 73.9509C249.439 73.9509 249.97 77.694 250.007 77.9982C250.044 78.3024 250.235 81.9673 250.007 82.3846C249.779 82.8018 249.439 83.4801 249.439 83.4801C249.439 83.4801 249.818 84.2736 248.305 84.5778C246.792 84.882 245.016 85.7864 245.016 85.7864C245.016 85.7864 241.158 85.6733 239.004 84.8799C236.85 84.0865 234.202 84.2366 234.202 84.2366C234.202 84.2366 222.743 82.2695 227.66 79.8687C232.576 77.4679 236.054 80.7196 236.054 80.7196L241.536 80.3805C241.536 80.3805 243.579 79.1307 244.147 79.2458C244.547 79.2969 244.954 79.2312 245.318 79.0567L245.357 75.0856L249.439 73.9509Z" fill="#FBBEBE"/>
<path opacity="0.1" d="M221.64 64.7629L220.543 64.7054L217.217 77.6549C217.217 77.6549 220.808 76.7464 222.355 77.6549C223.903 78.5634 226.742 78.7505 226.742 78.7505L225.683 68.4279L221.64 64.7629Z" fill="black"/>
<path d="M221.64 64.5348L220.543 64.4772L217.217 77.4268C217.217 77.4268 220.808 76.5182 222.355 77.4268C223.903 78.3353 226.742 78.5223 226.742 78.5223L225.683 68.1997L221.64 64.5348Z" fill="#07CA78"/>
<path opacity="0.1" d="M246.794 67.3713L248.305 67.7125C248.305 67.7125 252.163 73.2623 252.465 73.5727C252.767 73.8831 251.026 75.0116 250.309 75.0116C249.592 75.0116 246.075 75.4227 245.053 76.3723C244.032 77.3219 244.457 72.5429 244.457 72.434C244.457 72.325 245.725 69.3097 245.725 69.3097L246.794 67.3713Z" fill="black"/>
<path d="M246.794 67.1453L248.305 67.4844C248.305 67.4844 252.163 73.0445 252.465 73.3467C252.767 73.6488 251.026 74.7855 250.309 74.7855C249.592 74.7855 246.075 75.1966 245.053 76.1462C244.032 77.0958 244.457 72.3169 244.457 72.2079C244.457 72.099 245.733 69.0733 245.733 69.0733L246.794 67.1453Z" fill="#07CA78"/>
<g opacity="0.1">
<path d="M236.623 45.9656C236.614 45.8079 236.617 45.6499 236.633 45.4928C236.32 45.9624 236.105 46.4902 236 47.0447V47.5216C236 47.5216 236 47.5113 236 47.5051V47.6182C236 47.9512 236 48.2862 235.99 48.6192H235.961V48.7733C235.961 48.7199 235.961 48.6685 235.951 48.6151C235.539 48.5493 235.246 48.204 234.939 47.9285C234.633 47.6531 234.154 47.39 233.78 47.6017C233.601 47.7232 233.459 47.8918 233.369 48.0889L232.758 49.1659C232.756 49.0526 232.729 48.9412 232.68 48.8391C232.63 48.737 232.56 48.6466 232.473 48.574C231.916 48.8176 231.444 49.2212 231.117 49.7336C230.79 50.246 230.623 50.844 230.637 51.4516C230.076 51.0998 229.606 50.6193 229.267 50.0499C228.927 49.4806 228.729 48.8387 228.686 48.1773C228.651 48.9158 228.813 49.6505 229.156 50.3055C229.498 50.9606 230.01 51.5123 230.637 51.9038C230.624 51.2963 230.791 50.6986 231.118 50.1863C231.445 49.674 231.916 49.2702 232.473 49.0262C232.56 49.0994 232.63 49.1901 232.679 49.2925C232.729 49.3949 232.755 49.5066 232.758 49.6202L233.363 48.5431C233.452 48.346 233.595 48.1775 233.774 48.056C234.148 47.8504 234.615 48.093 234.933 48.3828C235.252 48.6726 235.562 49.0323 235.99 49.0796C235.99 48.5534 235.995 48.0286 236.006 47.5051C236.107 46.9559 236.317 46.4325 236.623 45.9656Z" fill="black"/>
<path d="M235.928 48.0354C235.939 47.8956 235.955 47.7559 235.976 47.6243L235.998 47.057C235.936 47.3792 235.913 47.7077 235.928 48.0354Z" fill="black"/>
<path d="M242.163 50.4876C241.602 50.7877 240.887 50.537 240.41 50.1176C239.933 49.6983 239.611 49.1331 239.189 48.6562C239.158 48.7425 239.154 48.8362 239.177 48.925C239.2 49.0138 239.249 49.0935 239.319 49.1536C239.278 49.1536 239.238 49.1331 239.199 49.1228C239.611 49.5955 239.937 50.1505 240.41 50.5616C240.883 50.9727 241.602 51.2317 242.163 50.9316C242.725 50.6315 242.885 49.9285 242.836 49.2441C242.799 49.7826 242.605 50.2492 242.163 50.4876Z" fill="black"/>
<path d="M239.188 49.1187C238.501 48.9313 237.887 48.5384 237.429 47.9924C236.972 47.4465 236.692 46.7737 236.627 46.0642C236.51 47.6778 237.727 49.2954 239.32 49.6058C239.252 49.5469 239.203 49.4691 239.18 49.3823C239.156 49.2955 239.159 49.2037 239.188 49.1187Z" fill="black"/>
</g>
<path d="M337.9 82.7134C337.9 82.7134 337.09 82.6004 337.09 81.4226C337.09 80.2448 336.511 78.0393 336.511 78.0393C336.511 78.0393 336.009 74.2017 335.316 73.5933C334.624 72.9849 333.734 69.4124 333.734 69.4124C333.734 69.4124 333.581 67.4741 333.271 67.0569C332.961 66.6396 332.541 65.618 331.923 64.1607C331.304 62.7033 328.731 61.7044 328.731 61.7044C328.731 61.7044 324.067 58.9994 322.745 58.1176C322.624 58.0445 322.511 57.9591 322.408 57.8627C322.178 57.5626 321.175 57.5564 321.175 57.5564C321.07 56.8925 320.969 56.132 320.936 55.4434C320.936 55.3694 320.936 55.2954 320.936 55.2214C322.41 54.3502 323.52 52.9767 324.063 51.353C324.087 51.2749 324.108 51.1947 324.13 51.1145C324.221 51.0867 324.304 51.0401 324.375 50.9777C324.446 50.9154 324.502 50.8387 324.541 50.7528C324.659 50.4876 324.663 50.1793 324.811 49.9306C324.983 49.6387 325.312 49.4825 325.571 49.2646C326.225 48.7076 326.393 47.7723 326.363 46.9234C326.342 46.2328 326.231 45.538 326.274 44.8535C326.274 44.796 326.274 44.7384 326.287 44.6809C326.299 44.5802 326.313 44.4753 326.332 44.3767C326.433 43.8669 326.652 43.3859 326.776 42.8803C326.899 42.3746 326.911 41.8053 326.624 41.3695C326.202 40.7303 325.325 40.6028 324.554 40.5473C323.68 40.4733 322.909 40.5679 322.34 39.8423C322.079 39.4633 321.784 39.1084 321.46 38.7817C321.345 38.6748 320.227 37.9903 320.227 37.9471C319.133 37.4385 317.892 37.3428 316.733 37.6779C316.151 37.8464 315.606 38.1218 315.016 38.2596C313.75 38.5597 312.291 38.2349 311.214 38.9605C310.614 39.3716 310.254 40.0273 309.917 40.6624C309.643 41.1859 309.364 41.71 309.082 42.2349C308.626 43.0961 308.165 43.9717 307.974 44.9255C307.934 45.1338 307.909 45.3447 307.898 45.5565C307.898 45.6326 307.898 45.7086 307.898 45.7847C307.898 45.8176 307.898 45.8505 307.898 45.8833C307.898 45.9532 307.898 46.0231 307.911 46.0889C307.923 46.1547 307.911 46.1732 307.925 46.2163C307.939 46.2595 307.943 46.3561 307.956 46.4219C307.968 46.4877 307.993 46.6048 308.017 46.6932C308.017 46.7323 308.042 46.7693 308.054 46.8083C308.067 46.8474 308.1 46.946 308.126 47.0139C308.153 47.0817 308.155 47.0858 308.172 47.1207C308.202 47.1927 308.239 47.2626 308.276 47.3263C308.293 47.353 308.305 47.3797 308.322 47.4065C308.378 47.5027 308.441 47.5947 308.511 47.6819C308.949 48.2307 309.598 48.5801 310.077 49.094C310.077 49.1146 310.077 49.1351 310.077 49.1557C310.077 49.2112 310.077 49.2667 310.077 49.3242C310.106 50.4704 310.415 51.592 310.977 52.5915C311.539 53.591 312.336 54.4381 313.3 55.059C313.3 55.1371 313.31 55.2173 313.314 55.2974C313.355 55.9069 313.347 56.5185 313.292 57.1268C313.208 57.0285 313.103 56.9501 312.985 56.8975C312.867 56.8448 312.739 56.8193 312.609 56.8226C312.521 56.8182 312.433 56.8258 312.346 56.8452L312.328 56.8308V56.8493C311.876 56.9603 311.319 57.431 310.786 58.7692C310.786 58.7692 309.166 60.5944 307.933 60.5184C306.7 60.4423 303.578 62.4197 303.578 62.4197C303.578 62.4197 300.531 64.395 299.878 66.4094C299.512 67.5519 299.074 68.6697 298.564 69.7557L294.788 77.509L294.096 83.6754C294.096 83.6754 294.48 86.4113 294.404 86.8306C294.328 87.2499 295.985 91.0114 295.985 91.0114C295.985 91.0114 301.458 100.627 303.695 101.12L303.855 101.009C303.951 101.058 304.053 101.095 304.157 101.12L304.618 100.798C304.646 101.159 304.634 101.522 304.581 101.881C304.274 102.833 304.698 109.028 305.236 110.243C305.775 111.457 305.584 127.387 305.584 127.387L305.508 128.791C305.508 128.791 305.508 128.836 305.526 128.914L305.508 129.247L305.563 129.276C305.621 129.723 305.602 130.176 305.508 130.616C305.315 131.233 305.236 132.974 305.236 132.974C305.236 132.974 303.695 142.816 304.427 144.793C305.158 146.77 305.777 148.937 305.777 148.937C305.777 148.937 306.548 151.404 305.814 151.815C305.08 152.226 303.002 152.955 303.426 153.981C303.816 154.931 305.298 157.475 305.518 157.847L305.5 158.053L305.197 161.327C305.246 161.76 305.364 162.182 305.545 162.577C305.876 163.292 306.517 164.03 307.742 163.95C307.948 163.936 308.184 163.913 308.416 163.882C310.655 163.58 313.409 162.581 313.409 162.581C313.266 162.491 313.136 162.382 313.021 162.259C312.91 162.152 312.823 162.024 312.764 161.883C312.705 161.741 312.676 161.589 312.677 161.436C312.71 160.838 311.594 158 311.314 157.299L311.251 157.142C311.251 157.142 313.795 154.481 313.372 152.125C313.372 152.125 310.556 150.481 311.483 149.576C312.41 148.672 314.067 146.082 314.067 146.082C314.067 146.082 314.143 136.39 314.067 134.945C313.987 133.94 314.035 132.929 314.209 131.936C314.239 131.788 314.276 131.642 314.315 131.496C315.599 131.69 316.894 131.788 318.192 131.79C318.666 131.79 319.146 131.781 319.631 131.761C319.631 131.898 319.637 132.046 319.649 132.205C319.756 134.606 319.956 138.818 320.118 140.382C320.348 142.622 321.621 148.668 321.621 148.668C321.621 148.668 319.193 150.224 322.044 154.065C322.044 154.065 322.044 155.455 321.855 155.658C321.653 156.318 321.49 156.988 321.368 157.667C321.249 158.388 321.199 159.122 321.392 159.5C321.855 160.409 324.63 160.335 324.63 160.335C324.652 160.329 324.675 160.326 324.698 160.324C325.221 160.269 325.751 160.319 326.255 160.47C326.76 160.622 327.229 160.873 327.635 161.208C328.689 162.055 332.689 161.685 334.858 161.414C335.707 161.305 336.274 161.208 336.274 161.208C336.301 161.112 336.311 161.012 336.303 160.912C336.28 160.38 335.863 159.212 333.035 158.17C333.035 158.17 330.375 156.382 330.412 154.824H330.352H330.046C330.239 154.818 330.375 154.818 330.375 154.818C330.375 154.818 329.333 151.017 329.758 150.707C330.184 150.396 328.909 146.185 328.909 146.185C328.909 146.185 328.18 139.114 328.139 138.62C328.141 138.195 328.206 137.773 328.332 137.367L328.139 133.488C328.139 133.488 328.102 132.199 328.139 131.78C328.134 131.416 328.106 131.053 328.052 130.692C328.034 130.549 328.015 130.399 327.995 130.251C328.992 129.998 329.639 129.765 329.639 129.765L329.524 116.271C330.371 114.627 330.527 111.017 330.523 108.46C330.523 106.816 330.449 105.599 330.449 105.599L331.606 103.71C331.606 103.71 331.873 101.449 331.45 100.954C331.263 100.73 331.347 100.497 331.501 100.306C331.582 100.24 331.668 100.179 331.758 100.125C331.748 100.111 331.739 100.096 331.732 100.08C331.812 100.013 331.898 99.9515 331.988 99.8973C331.988 99.8973 331.577 99.2601 331.945 98.9908C332.291 99.2251 332.599 99.4122 332.833 99.5458C332.817 99.6958 332.8 99.7822 332.8 99.7822L332.899 99.5766C333.125 99.7041 333.263 99.7822 333.263 99.7822C333.263 99.7822 335.076 96.1707 335.037 95.6404C334.998 95.1101 336.27 92.8655 336.27 92.8655C336.27 92.8655 336.424 91.6856 337.119 91.1923C337.814 90.699 337.658 87.1245 337.658 87.1245C337.658 87.1245 337.851 85.2622 338.313 84.5038C338.776 83.7453 337.9 82.7134 337.9 82.7134ZM303.212 81.1287L303.247 81.9899C303.041 81.659 302.893 81.4226 302.893 81.4226L303.212 81.1287Z" fill="url(#paint1_linear_1228_18405)"/>
<path d="M333.37 98.22L332.926 100.111C332.926 100.111 329.37 98.292 328.731 95.9898C328.092 93.6877 329.802 92.81 329.802 92.81L333.117 94.2118L333.37 98.22Z" fill="white"/>
<path opacity="0.1" d="M333.37 98.22L332.926 100.111C332.926 100.111 329.37 98.292 328.731 95.9898C328.092 93.6877 329.802 92.81 329.802 92.81L333.117 94.2118L333.37 98.22Z" fill="black"/>
<path d="M313.414 162.579C313.414 162.579 310.126 163.788 307.865 163.94C306.664 164.02 306.033 163.284 305.708 162.575C305.532 162.184 305.417 161.768 305.367 161.342L305.665 158.084L305.821 156.351L310.625 155.101L311.305 157.184L311.369 157.34C311.641 158.037 312.738 160.861 312.705 161.451C312.703 161.603 312.731 161.755 312.789 161.896C312.846 162.037 312.932 162.166 313.04 162.273C313.152 162.39 313.277 162.493 313.414 162.579Z" fill="white"/>
<path d="M335.869 160.922C335.877 161.022 335.867 161.122 335.84 161.218C335.84 161.218 328.806 162.39 327.367 161.218C326.963 160.876 326.491 160.622 325.983 160.472C325.475 160.323 324.941 160.281 324.415 160.349C324.415 160.349 321.694 160.423 321.24 159.527C321.051 159.151 321.1 158.421 321.217 157.704C321.337 157.029 321.496 156.362 321.694 155.706L321.803 155.619L322.45 155.099L330.031 154.875H330.088C330.051 156.425 332.66 158.203 332.66 158.203C335.437 159.231 335.846 160.392 335.869 160.922Z" fill="white"/>
<path opacity="0.1" d="M335.87 160.922C335.877 161.022 335.867 161.122 335.839 161.218C335.839 161.218 328.805 162.39 327.368 161.218C326.964 160.876 326.492 160.622 325.983 160.472C325.475 160.322 324.94 160.28 324.415 160.349C324.415 160.349 321.691 160.423 321.237 159.527C321.05 159.151 321.097 158.421 321.214 157.702C322.263 157.806 323.917 158.067 324.567 158.692C325.549 159.638 327.214 160.583 328.234 160.659C329.04 160.709 333.831 160.861 335.87 160.922Z" fill="black"/>
<path d="M318.294 65.172C315.581 64.1175 312.091 60.6335 312.962 59.0055C313.155 58.5944 313.27 58.1512 313.302 57.6983C313.358 57.0832 313.366 56.4647 313.326 55.8483C313.265 54.8382 313.144 53.8327 312.962 52.837C312.962 52.837 321.433 53.0282 320.94 54.2759C320.796 54.6438 320.771 55.279 320.812 55.9881C320.853 56.6972 320.954 57.505 321.061 58.1854C321.207 59.1165 321.357 59.8298 321.357 59.8298C321.357 59.8298 320.837 60.5554 320.535 60.5944C320.233 60.6335 322.187 66.6828 318.294 65.172Z" fill="#CF6F80"/>
<path opacity="0.1" d="M311.36 157.329L311.296 157.399C308.764 154.337 305.701 158.156 305.701 158.156L305.656 158.074L305.812 156.341L310.616 155.091L311.296 157.173L311.36 157.329Z" fill="black"/>
<path opacity="0.1" d="M330.092 155.091C330.092 155.091 328.242 155.054 327.255 155.926C326.269 156.797 321.5 156.113 321.706 155.926C321.766 155.831 321.802 155.723 321.813 155.611L322.46 155.091L330.041 154.867C330.069 155.011 330.092 155.091 330.092 155.091Z" fill="black"/>
<path d="M314.512 131.04C314.374 131.381 314.27 131.734 314.199 132.094C314.028 133.082 313.98 134.087 314.057 135.087C314.134 136.526 314.057 146.168 314.057 146.168C314.057 146.168 312.432 148.74 311.523 149.646C310.615 150.553 313.373 152.18 313.373 152.18C313.784 154.526 311.293 157.173 311.293 157.173C308.76 154.111 305.698 157.928 305.698 157.928C305.698 157.928 304.033 155.05 303.618 154.022C303.202 152.994 305.244 152.285 305.961 151.866C306.678 151.447 305.924 148.988 305.924 148.988C305.924 148.988 305.32 146.832 304.6 144.865C303.881 142.898 305.394 133.108 305.394 133.108C305.394 133.108 305.472 131.367 305.659 130.76C305.752 130.323 305.771 129.872 305.714 129.428C305.702 129.278 305.688 129.155 305.677 129.069C305.667 128.982 305.659 128.945 305.659 128.945L305.688 128.896L306.715 126.98C306.715 126.98 315.005 129.833 314.512 131.04Z" fill="#07CA78"/>
<path d="M330.091 154.865C330.091 154.865 328.241 154.826 327.255 155.687C326.268 156.548 321.499 155.876 321.705 155.687C321.91 155.498 321.892 154.1 321.892 154.1C319.094 150.279 321.481 148.729 321.481 148.729C321.481 148.729 320.233 142.717 320.007 140.487C319.849 138.931 319.653 134.732 319.549 132.353C319.503 131.326 319.477 130.616 319.477 130.616L321.742 130.166L322.036 130.109L327.548 129.001C327.548 129.001 327.701 130.029 327.803 130.869C327.855 131.228 327.883 131.59 327.888 131.953C327.853 132.364 327.888 133.652 327.888 133.652L328.077 137.508C327.955 137.913 327.891 138.333 327.888 138.756C327.927 139.249 328.644 146.281 328.644 146.281C328.644 146.281 329.892 150.479 329.466 150.781C329.041 151.083 330.091 154.865 330.091 154.865Z" fill="#07CA78"/>
<path opacity="0.1" d="M320.938 54.282C320.794 54.65 320.77 55.2851 320.811 55.9943C319.676 56.6775 318.372 57.0268 317.048 57.0021C315.723 56.9774 314.433 56.5796 313.325 55.8545C313.264 54.8444 313.142 53.8388 312.961 52.8432C312.961 52.8432 321.432 53.0344 320.938 54.282Z" fill="black"/>
<path d="M324.208 49.7436C324.23 51.6085 323.511 53.406 322.208 54.7405C320.905 56.075 319.126 56.8373 317.261 56.8596C315.396 56.882 313.598 56.1626 312.264 54.8597C310.929 53.5568 310.167 51.7771 310.145 49.9121C310.145 49.8546 310.145 49.8011 310.145 49.7436C310.145 47.8781 310.886 46.089 312.205 44.7699C313.524 43.4508 315.313 42.7097 317.178 42.7097C319.044 42.7097 320.833 43.4508 322.152 44.7699C323.471 46.089 324.212 47.8781 324.212 49.7436H324.208Z" fill="#CF6F80"/>
<path opacity="0.1" d="M318.294 65.172C315.581 64.1175 312.091 60.6335 312.962 59.0055C313.155 58.5944 313.27 58.1512 313.302 57.6982L317.016 60.7527L319.314 62.6376L321.061 58.1916C321.207 59.1227 321.357 59.8359 321.357 59.8359C321.357 59.8359 320.837 60.5615 320.535 60.6006C320.233 60.6396 322.187 66.6827 318.294 65.172Z" fill="black"/>
<path d="M327.899 78.6703L324.797 130.777L320.752 131.042L310.275 100.828L311.994 64.9582L312.358 57.3796L317.015 61.2049L319.313 63.0898L321.112 58.5122L324.456 61.4269L327.899 78.6703Z" fill="#07CA78"/>
<path opacity="0.1" d="M314.511 131.04C314.374 131.381 314.269 131.734 314.199 132.094C311.253 131.641 308.391 130.748 305.71 129.445L305.654 129.416L305.673 129.085V128.912L306.701 126.997C306.701 126.997 315.005 129.833 314.511 131.04Z" fill="black"/>
<path opacity="0.1" d="M321.81 132.103C321.058 132.231 320.299 132.318 319.537 132.364C319.492 131.336 319.465 130.627 319.465 130.627L321.742 130.166L321.81 132.103Z" fill="black"/>
<path opacity="0.1" d="M327.813 130.869C326.351 131.25 324.092 131.677 322.074 131.41L322.045 130.109L327.558 129.001C327.558 129.001 327.704 130.02 327.813 130.869Z" fill="black"/>
<path opacity="0.1" d="M322.036 131.648C313.609 133.087 305.891 128.962 305.891 128.962L305.965 127.564C305.965 127.564 306.156 111.718 305.625 110.504C305.095 109.289 304.682 103.137 304.982 102.197C305.282 101.258 303.887 87.0752 303.887 87.0752L303.66 81.3198L295.379 77.955L299.079 70.2408C299.578 69.1595 300.008 68.0472 300.366 66.9109C301.009 64.9068 303.995 62.9397 303.995 62.9397C303.995 62.9397 307.058 60.9747 308.269 61.0487C309.48 61.1227 311.066 59.3098 311.066 59.3098C312.238 56.3231 313.299 57.6654 313.299 57.6654C313.299 57.8093 313.299 57.6654 313.241 58.1073C312.83 61.3858 319.888 71.7454 319.989 71.9304L320.67 88.3044L321.35 109.026L322.036 131.648Z" fill="black"/>
<path d="M321.81 131.648C313.383 133.087 305.662 128.962 305.662 128.962L305.738 127.564C305.738 127.564 305.927 111.718 305.397 110.504C304.867 109.289 304.454 103.131 304.756 102.183C305.058 101.235 303.654 87.067 303.654 87.067L303.426 81.3116L295.146 77.9468L298.846 70.2326C299.345 69.1515 299.775 68.04 300.133 66.9048C300.776 64.9068 303.773 62.9377 303.773 62.9377C303.773 62.9377 306.836 60.9726 308.045 61.0466C309.253 61.1206 310.848 59.3098 310.848 59.3098C312.022 56.3231 313.315 57.6654 313.315 57.6654C313.315 57.8093 313.192 57.8709 313.257 58.1073C314.162 61.2871 319.679 71.7454 319.779 71.9304L320.46 88.3044L321.126 109.036L321.81 131.648Z" fill="white"/>
<path opacity="0.1" d="M319.539 72.3929C318.632 72.0147 313.831 66.5327 313.831 66.5327V65.285C313.656 64.8739 312.616 65.1247 311.775 65.4125L312.137 57.8339L312.548 58.1751C313.446 61.3529 319.44 72.21 319.539 72.3929Z" fill="black"/>
<path d="M319.768 71.9407C318.859 71.5604 314.057 66.0805 314.057 66.0805V64.8308C313.883 64.4197 312.845 64.6704 312.002 64.9582L312.358 57.3879L312.769 57.727C313.675 60.9007 319.667 71.7557 319.768 71.9407Z" fill="white"/>
<path opacity="0.1" d="M305.89 99.2786C306.003 99.2786 311.75 98.6743 311.75 98.6743C311.75 98.6743 315.23 105.519 315.002 107.182C314.774 108.845 314.361 110.321 312.961 110.06C311.561 109.799 305.428 110.265 305.428 110.265L305.89 99.2786Z" fill="black"/>
<path d="M305.662 98.8243C305.777 98.8243 311.524 98.22 311.524 98.22C311.524 98.22 315.002 105.075 314.776 106.719C314.55 108.364 314.132 109.858 312.735 109.597C311.337 109.336 305.199 109.803 305.199 109.803L305.662 98.8243Z" fill="white"/>
<path d="M309.992 95.6198C309.992 95.6198 315.267 98.4564 315.38 99.3197C315.493 100.183 312.695 98.9415 312.091 98.7894C311.693 98.6948 311.288 98.6316 310.88 98.6003L306.85 98.7092L309.992 95.6198Z" fill="#CF6F80"/>
<path opacity="0.1" d="M318.065 72.7464C318.371 72.7464 318.62 72.498 318.62 72.1915C318.62 71.8849 318.371 71.6365 318.065 71.6365C317.758 71.6365 317.51 71.8849 317.51 72.1915C317.51 72.498 317.758 72.7464 318.065 72.7464Z" fill="black"/>
<path d="M318.065 72.5204C318.371 72.5204 318.62 72.2719 318.62 71.9654C318.62 71.6589 318.371 71.4104 318.065 71.4104C317.758 71.4104 317.51 71.6589 317.51 71.9654C317.51 72.2719 317.758 72.5204 318.065 72.5204Z" fill="#3F3D56"/>
<path opacity="0.1" d="M319.086 96.7709C319.393 96.7709 319.641 96.5224 319.641 96.2159C319.641 95.9094 319.393 95.6609 319.086 95.6609C318.78 95.6609 318.531 95.9094 318.531 96.2159C318.531 96.5224 318.78 96.7709 319.086 96.7709Z" fill="black"/>
<path d="M319.086 96.5428C319.393 96.5428 319.641 96.2943 319.641 95.9878C319.641 95.6813 319.393 95.4328 319.086 95.4328C318.78 95.4328 318.531 95.6813 318.531 95.9878C318.531 96.2943 318.78 96.5428 319.086 96.5428Z" fill="#3F3D56"/>
<path opacity="0.1" d="M318.619 84.7586C318.926 84.7586 319.174 84.5102 319.174 84.2037C319.174 83.8972 318.926 83.6487 318.619 83.6487C318.313 83.6487 318.064 83.8972 318.064 84.2037C318.064 84.5102 318.313 84.7586 318.619 84.7586Z" fill="black"/>
<path d="M318.619 84.5326C318.926 84.5326 319.174 84.2841 319.174 83.9776C319.174 83.6711 318.926 83.4226 318.619 83.4226C318.313 83.4226 318.064 83.6711 318.064 83.9776C318.064 84.2841 318.313 84.5326 318.619 84.5326Z" fill="#3F3D56"/>
<path d="M331.414 98.4852C331.414 98.4852 331.793 99.0525 331.414 99.3074C331.036 99.5622 331.451 100.216 331.451 100.216C331.451 100.216 330.508 100.767 330.923 101.266C331.338 101.766 331.075 104.008 331.075 104.008L329.941 105.897C329.941 105.897 330.008 107.108 330.012 108.744C330.012 111.297 329.862 114.886 329.032 116.522L329.143 129.946C329.143 129.946 325.17 131.4 321.844 130.956L321.351 109.414C321.351 109.414 322.07 97.1984 322.335 94.8552C322.49 93.6387 322.554 92.4122 322.524 91.1861C322.524 91.1861 322.411 87.5192 322.031 85.8193C322.031 85.8193 321.62 78.4442 321.579 76.4031C321.56 75.4268 321.612 72.5779 321.669 69.8688C321.733 66.9068 321.805 64.1134 321.805 64.1134L321.055 58.1751C321.055 58.1751 321.805 58.1011 322.031 58.4012C322.132 58.4958 322.242 58.5805 322.36 58.6541C323.657 59.5297 328.232 62.2224 328.232 62.2224C328.232 62.2224 330.765 63.2296 331.371 64.6725C331.978 66.1154 332.399 67.1391 332.693 67.5502C332.987 67.9613 333.147 69.8934 333.147 69.8934C333.147 69.8934 334.019 73.4494 334.699 74.0517C335.379 74.6539 335.869 78.4771 335.869 78.4771L329.856 83.2047C329.856 83.2047 329.328 91.069 329.215 91.3732C329.102 91.6774 331.414 98.4852 331.414 98.4852Z" fill="white"/>
<path d="M331.641 98.4852C331.641 98.4852 332.017 99.0525 331.641 99.3074C331.265 99.5622 331.676 100.216 331.676 100.216C331.676 100.216 330.732 100.767 331.148 101.266C331.563 101.766 331.3 104.008 331.3 104.008L330.169 105.897C330.169 105.897 330.237 107.108 330.243 108.744C330.243 111.297 330.093 114.886 329.263 116.522L329.376 129.946C329.376 129.946 325.402 131.4 322.077 130.956L321.585 109.414C321.585 109.414 322.303 97.1984 322.57 94.8552C322.725 93.6387 322.788 92.4121 322.757 91.1862C322.757 91.1862 322.644 87.5192 322.266 85.8193C322.266 85.8193 321.855 78.4442 321.812 76.4031C321.793 75.4268 321.844 72.5779 321.902 69.8688C321.966 66.9068 322.038 64.1134 322.038 64.1134L321.047 58.095C321.047 58.095 322.038 58.095 322.266 58.4012C322.366 58.497 322.476 58.5817 322.595 58.6541C323.89 59.5297 328.465 62.2224 328.465 62.2224C328.465 62.2224 330.991 63.2296 331.608 64.6725C332.225 66.1155 332.636 67.1391 332.93 67.5502C333.224 67.9613 333.384 69.8934 333.384 69.8934C333.384 69.8934 334.255 73.4494 334.936 74.0517C335.616 74.6539 336.107 78.4771 336.107 78.4771L330.095 83.2047C330.095 83.2047 329.567 91.069 329.452 91.3732C329.337 91.6774 331.641 98.4852 331.641 98.4852Z" fill="white"/>
<path opacity="0.1" d="M324.441 65.8585L324.986 67.4412L322.127 70.3189C322.19 67.357 322.262 64.5636 322.262 64.5636L321.271 58.5472C321.271 58.5472 322.262 58.5472 322.49 58.8534C322.591 58.9492 322.701 59.0339 322.819 59.1063L325.249 66.1134L324.441 65.8585Z" fill="black"/>
<path d="M324.209 65.4043L324.753 66.9849L321.896 69.8626C321.958 66.9007 322.032 64.1073 322.032 64.1073L321.039 58.0888C321.039 58.0888 322.032 58.0888 322.258 58.3951C322.359 58.4902 322.469 58.5749 322.587 58.6479L325.031 65.6612L324.209 65.4043Z" fill="white"/>
<path opacity="0.1" d="M324.208 49.7436C324.209 50.4842 324.092 51.2203 323.863 51.9244C323.824 51.9309 323.785 51.9295 323.746 51.9203C323.708 51.9111 323.672 51.8944 323.641 51.871C323.585 50.0211 322.677 48.2821 321.557 46.8042C321.241 46.3585 320.86 45.9634 320.426 45.6326C319.986 45.3027 319.44 45.1481 318.893 45.1989C318.276 45.2832 317.731 45.7025 317.109 45.7559C316.286 45.8238 315.55 45.2544 314.734 45.2277C314.403 45.2304 314.075 45.3041 313.774 45.4438C313.473 45.5835 313.206 45.7859 312.989 46.0375C312.56 46.5436 312.242 47.1339 312.054 47.7703C311.731 48.7361 311.555 49.745 311.532 50.7631C311.522 51.3386 311.466 52.0601 310.932 52.2698C310.972 51.8468 310.924 51.42 310.791 51.0166C310.657 50.6132 310.442 50.242 310.157 49.9265L310.145 49.9121C310.145 49.8546 310.145 49.8011 310.145 49.7436C310.145 47.8781 310.886 46.089 312.205 44.7699C313.524 43.4508 315.313 42.7097 317.178 42.7097C319.044 42.7097 320.833 43.4508 322.152 44.7699C323.471 46.089 324.212 47.8781 324.212 49.7436H324.208Z" fill="black"/>
<path d="M320.099 38.5762C319.03 38.0737 317.816 37.9787 316.682 38.3089C316.113 38.4775 315.576 38.7509 314.999 38.8886C313.766 39.1866 312.327 38.8639 311.268 39.5854C310.68 39.9965 310.327 40.646 309.998 41.2791L309.176 42.8433C308.728 43.7005 308.275 44.572 308.088 45.5155C307.901 46.4589 308.014 47.5154 308.613 48.276C309.046 48.8268 309.692 49.1742 310.164 49.6942C310.448 50.0113 310.664 50.3837 310.797 50.7881C310.93 51.1924 310.978 51.6199 310.937 52.0437C311.472 51.8381 311.525 51.1125 311.537 50.537C311.561 49.5189 311.737 48.51 312.06 47.5442C312.247 46.9078 312.566 46.3175 312.995 45.8114C313.211 45.5596 313.479 45.3568 313.78 45.2168C314.081 45.0767 314.408 45.0027 314.74 44.9995C315.562 45.0283 316.3 45.5977 317.114 45.5278C317.731 45.4764 318.277 45.0571 318.898 44.9728C319.445 44.921 319.992 45.0757 320.432 45.4065C320.866 45.7362 321.247 46.1315 321.56 46.5781C322.682 48.0581 323.593 49.7888 323.646 51.6449C323.879 51.8134 324.214 51.5915 324.329 51.3284C324.444 51.0652 324.448 50.7569 324.594 50.5062C324.762 50.2163 325.085 50.0601 325.338 49.8422C325.979 49.2893 326.14 48.3582 326.115 47.5134C326.09 46.6686 325.926 45.8114 326.086 44.981C326.183 44.4733 326.401 43.9944 326.52 43.4908C326.639 42.9872 326.653 42.422 326.372 41.9882C325.961 41.3531 325.095 41.2257 324.341 41.1661C323.484 41.0921 322.717 41.1866 322.17 40.4651C321.913 40.0891 321.624 39.7357 321.307 39.4086C321.194 39.2997 320.099 38.6214 320.099 38.5762Z" fill="#512E4E"/>
<path opacity="0.1" d="M297.75 81.9221L295.604 77.9529L294.924 84.0783C294.924 84.0783 295.302 86.7997 295.226 87.217C295.15 87.6343 296.776 91.3752 296.776 91.3752C296.776 91.3752 302.147 100.943 304.34 101.435L311.74 96.1398L309.775 93.6445C309.775 93.6445 309.094 93.3793 308.924 93.6445C308.924 93.6445 305.273 87.367 304.897 86.9148C304.521 86.4626 304.593 85.5521 304.593 85.5521C304.593 85.5521 304.025 84.9477 304.215 84.3804C304.404 83.8131 303.129 81.8481 303.129 81.8481L304.301 80.7525L297.75 81.9221Z" fill="black"/>
<path d="M295.718 77.4987L295.151 77.953L294.471 84.0783C294.471 84.0783 294.849 86.7998 294.773 87.217C294.697 87.6343 296.325 91.3753 296.325 91.3753C296.325 91.3753 301.694 100.944 303.887 101.435L311.299 96.1399L309.332 93.6445C309.332 93.6445 308.651 93.3794 308.481 93.6445C308.481 93.6445 304.832 87.3671 304.454 86.9149C304.076 86.4627 304.152 85.5521 304.152 85.5521C304.152 85.5521 303.585 84.9478 303.774 84.3805C303.963 83.8132 302.676 81.8481 302.676 81.8481L303.848 80.7525L295.718 77.4987Z" fill="white"/>
<path opacity="0.1" d="M330.923 101.503C331.334 102.002 331.075 104.247 331.075 104.247L329.941 106.123C329.941 106.123 330.008 107.336 330.013 108.972L328.105 109.568C327.932 109.622 327.749 109.634 327.571 109.603C327.393 109.571 327.225 109.498 327.081 109.389C326.937 109.279 326.821 109.137 326.743 108.974C326.666 108.81 326.628 108.631 326.633 108.45L326.964 97.8439L331.414 99.5438C331.036 99.8069 331.451 100.452 331.451 100.452C331.451 100.452 330.508 101.003 330.923 101.503Z" fill="black"/>
<path d="M331.148 101.277C331.559 101.774 331.3 104.019 331.3 104.019L330.169 105.897C330.169 105.897 330.237 107.108 330.243 108.744L328.301 109.35C328.132 109.403 327.953 109.415 327.779 109.385C327.605 109.354 327.441 109.283 327.3 109.176C327.159 109.069 327.046 108.93 326.969 108.771C326.893 108.611 326.856 108.436 326.862 108.259L327.193 97.6157L331.641 99.3197C331.261 99.5828 331.676 100.228 331.676 100.228C331.676 100.228 330.732 100.777 331.148 101.277Z" fill="white"/>
<path d="M332.623 96.2159C332.623 96.2159 332.321 98.146 331.565 98.2591C330.808 98.3721 330.469 101.381 329.715 101.277C328.961 101.172 329.46 98.4769 329.487 97.9548C329.513 97.4328 328.665 95.2704 329.298 94.7791C329.931 94.2879 331.945 94.7791 331.945 94.7791L332.623 96.2159Z" fill="#CF6F80"/>
<path opacity="0.1" d="M334.223 81.3548L335.648 78.4771C335.648 78.4771 336.217 80.6703 336.217 81.8419C336.217 83.0136 337.01 83.1287 337.01 83.1287C337.01 83.1287 337.88 84.1564 337.422 84.9067C336.963 85.6569 336.78 87.5151 336.78 87.5151C336.78 87.5151 336.93 91.069 336.25 91.5602C335.57 92.0515 335.417 93.2252 335.417 93.2252C335.417 93.2252 334.17 95.4554 334.209 95.9857C334.248 96.516 332.47 100.107 332.47 100.107C332.47 100.107 333.339 95.6445 328.273 93.7164C328.273 93.7164 328.234 92.2036 328.612 91.7884C328.99 91.3732 329.58 91.1718 329.21 89.0834C328.84 86.995 329.103 84.4771 329.103 83.9735C329.103 83.4699 330.238 80.3312 330.238 80.3312L334.223 81.3548Z" fill="black"/>
<path d="M334.857 78.066L336.102 78.4771C336.102 78.4771 336.672 80.6703 336.672 81.842C336.672 83.0136 337.465 83.1287 337.465 83.1287C337.465 83.1287 338.334 84.1564 337.876 84.9067C337.418 85.6569 337.233 87.5151 337.233 87.5151C337.233 87.5151 337.385 91.069 336.704 91.5603C336.024 92.0515 335.882 93.2252 335.882 93.2252C335.882 93.2252 334.635 95.4554 334.674 95.9857C334.713 96.516 332.933 100.107 332.933 100.107C332.933 100.107 333.802 95.6445 328.735 93.7165C328.735 93.7165 328.698 92.2036 329.077 91.7884C329.455 91.3732 330.045 91.1718 329.675 89.0834C329.305 86.995 329.568 84.4771 329.568 83.9735C329.568 83.4699 330.702 80.3312 330.702 80.3312L334.857 78.066Z" fill="white"/>
<path opacity="0.1" d="M307.338 152.653C307.338 152.653 309.323 151.406 310.627 152.312C311.93 153.219 307.338 152.653 307.338 152.653Z" fill="black"/>
<path opacity="0.1" d="M322.77 148.795C322.77 148.795 324.527 148.569 326.003 150.158C327.479 151.747 322.77 148.795 322.77 148.795Z" fill="black"/>
<g opacity="0.1">
<path d="M325.336 49.39C325.083 49.6099 324.758 49.7641 324.59 50.0539C324.446 50.3026 324.442 50.6109 324.327 50.8761C324.212 51.1412 323.877 51.3612 323.642 51.1926C323.589 49.3427 322.678 47.6058 321.558 46.1259C321.245 45.6799 320.864 45.2853 320.43 44.9563C319.99 44.6248 319.442 44.4694 318.894 44.5205C318.278 44.6048 317.735 45.0241 317.112 45.0776C316.29 45.1454 315.552 44.576 314.736 44.5493C314.404 44.5518 314.077 44.6254 313.777 44.7651C313.476 44.9048 313.209 45.1074 312.993 45.3592C312.564 45.8653 312.245 46.4555 312.058 47.0919C311.735 48.0577 311.559 49.0666 311.536 50.0847C311.523 50.6582 311.47 51.3735 310.939 51.5873C310.952 51.7398 310.952 51.8931 310.939 52.0457C311.476 51.8401 311.529 51.1145 311.542 50.539C311.565 49.5209 311.741 48.512 312.064 47.5462C312.251 46.9097 312.57 46.3195 312.999 45.8134C313.215 45.5617 313.482 45.359 313.783 45.219C314.083 45.079 314.41 45.0048 314.742 45.0015C315.564 45.0303 316.304 45.5997 317.118 45.5298C317.735 45.4784 318.282 45.0591 318.9 44.9748C319.448 44.9231 319.996 45.0777 320.436 45.4085C320.87 45.7382 321.251 46.1335 321.564 46.5801C322.684 48.0601 323.595 49.7908 323.648 51.6469C323.883 51.8154 324.218 51.5934 324.333 51.3303C324.448 51.0672 324.452 50.7589 324.596 50.5082C324.765 50.2183 325.089 50.0621 325.342 49.8442C325.984 49.2913 326.144 48.3602 326.119 47.5154C326.119 47.4887 326.119 47.464 326.119 47.4373C326.078 48.1731 325.883 48.9193 325.336 49.39Z" fill="black"/>
<path d="M310.161 49.2461C309.691 48.7261 309.045 48.3766 308.611 47.8258C308.245 47.3395 308.036 46.7528 308.013 46.1444C307.949 46.9051 308.161 47.6635 308.611 48.28C309.045 48.8309 309.691 49.1783 310.161 49.6983C310.616 50.2067 310.889 50.8515 310.938 51.5318C310.969 51.1181 310.916 50.7025 310.783 50.3097C310.649 49.917 310.438 49.5552 310.161 49.2461Z" fill="black"/>
<path d="M326.519 43.0386C326.397 43.5421 326.182 44.0211 326.083 44.5288C326.024 44.8721 326.002 45.2209 326.019 45.5688C326.026 45.3723 326.047 45.1765 326.083 44.983C326.182 44.4753 326.397 43.9964 326.519 43.4928C326.588 43.2149 326.611 42.9273 326.587 42.6418C326.573 42.7755 326.551 42.9081 326.519 43.0386Z" fill="black"/>
</g>
<path opacity="0.1" d="M166.283 159.43C177.344 159.43 186.311 157.99 186.311 156.213C186.311 154.437 177.344 152.997 166.283 152.997C155.221 152.997 146.254 154.437 146.254 156.213C146.254 157.99 155.221 159.43 166.283 159.43Z" fill="#07CA78"/>
<path d="M166.927 94.588H165.639V123.605H166.927V94.588Z" fill="#535461"/>
<path d="M175.028 123.519L174.946 124.826L174.833 126.676L174.786 127.445L174.671 129.295L174.621 130.063L174.508 131.913L173.207 152.894C173.152 153.796 172.754 154.644 172.095 155.263C171.436 155.883 170.566 156.228 169.661 156.228H162.905C161.998 156.228 161.125 155.881 160.466 155.259C159.807 154.636 159.411 153.785 159.359 152.879L158.058 131.899L157.945 130.049L157.898 129.28L157.781 127.43L157.733 126.662L157.62 124.812L157.538 123.504C157.524 123.254 157.561 123.003 157.647 122.767C157.732 122.531 157.865 122.315 158.037 122.133C158.209 121.95 158.416 121.804 158.647 121.703C158.877 121.603 159.125 121.551 159.376 121.55H173.193C173.445 121.551 173.694 121.604 173.925 121.705C174.156 121.806 174.363 121.954 174.535 122.138C174.707 122.323 174.84 122.54 174.924 122.778C175.009 123.015 175.044 123.267 175.028 123.519Z" fill="#3F3D56"/>
<path d="M174.947 124.824L174.832 126.67H157.734L157.619 124.824H174.947Z" fill="#9D9CB5"/>
<path d="M174.784 127.439L174.671 129.284H157.896L157.781 127.439H174.784Z" fill="#9D9CB5"/>
<path d="M174.622 130.055L174.508 131.899H158.058L157.943 130.055H174.622Z" fill="#9D9CB5"/>
<path d="M155.661 105.466C163.167 110.896 166.294 119.389 166.294 119.389C166.294 119.389 157.249 119.079 149.741 113.648C142.232 108.218 139.102 99.7308 139.102 99.7308C139.102 99.7308 148.146 100.035 155.661 105.466Z" fill="#07CA78"/>
<path d="M139.102 99.7308C139.102 99.7308 148.489 104.941 151.5 109.256C154.512 113.57 166.285 119.393 166.285 119.393" stroke="#535461" stroke-width="2" stroke-miterlimit="10"/>
<path d="M160.496 94.5263C164.582 97.48 166.284 102.103 166.284 102.103C166.284 102.103 161.351 101.934 157.275 98.9805C153.199 96.0268 151.486 91.402 151.486 91.402C151.486 91.402 156.411 91.5705 160.496 94.5263Z" fill="#07CA78"/>
<path d="M151.486 91.402C151.486 91.402 156.596 94.2385 158.237 96.5859C159.877 98.9333 166.284 102.103 166.284 102.103" stroke="#535461" stroke-width="2" stroke-miterlimit="10"/>
<path d="M172.221 101.868C167.528 107.026 166.535 113.766 166.535 113.766C166.535 113.766 173.152 112.142 177.84 106.983C182.529 101.823 183.526 95.0854 183.526 95.0854C183.526 95.0854 176.913 96.7113 172.221 101.868Z" fill="#07CA78"/>
<path d="M183.53 95.0875C183.53 95.0875 177.417 100.374 175.863 104.016C174.309 107.659 166.535 113.766 166.535 113.766" stroke="#535461" stroke-width="2" stroke-miterlimit="10"/>
</g>
<defs>
<linearGradient id="paint0_linear_1228_18405" x1="234.689" y1="158.748" x2="234.689" y2="40.0129" gradientUnits="userSpaceOnUse">
<stop stop-color="#808080" stop-opacity="0.25"/>
<stop offset="0.54" stop-color="#808080" stop-opacity="0.12"/>
<stop offset="1" stop-color="#808080" stop-opacity="0.1"/>
</linearGradient>
<linearGradient id="paint1_linear_1228_18405" x1="316.262" y1="163.946" x2="316.262" y2="37.4641" gradientUnits="userSpaceOnUse">
<stop stop-color="#808080" stop-opacity="0.25"/>
<stop offset="0.54" stop-color="#808080" stop-opacity="0.12"/>
<stop offset="1" stop-color="#808080" stop-opacity="0.1"/>
</linearGradient>
<clipPath id="clip0_1228_18405">
<rect width="240" height="177.361" fill="white" transform="translate(139 -13)"/>
</clipPath>
</defs>
</svg>
